<?xml version="1.0" encoding="UTF-8" standalone="no"?>
<!-- Created with Inkscape (http://www.inkscape.org/) -->

<svg
   version="1.1"
   id="svg1"
   width="265.33334"
   height="313.33334"
   viewBox="0 0 265.33334 313.33334"
   sodipodi:docname="bible.svg"
   inkscape:version="1.4.3 (0d15f75042, 2025-12-25)"
   xmlns:inkscape="http://www.inkscape.org/namespaces/inkscape"
   xmlns:sodipodi="http://sodipodi.sourceforge.net/DTD/sodipodi-0.dtd"
   xmlns="http://www.w3.org/2000/svg"
   xmlns:svg="http://www.w3.org/2000/svg">
  <defs
     id="defs1" />
  <sodipodi:namedview
     id="namedview1"
     pagecolor="#ffffff"
     bordercolor="#000000"
     borderopacity="0.25"
     inkscape:showpageshadow="2"
     inkscape:pageopacity="0.0"
     inkscape:pagecheckerboard="0"
     inkscape:deskcolor="#d1d1d1"
     inkscape:zoom="0.8902775"
     inkscape:cx="167.36355"
     inkscape:cy="74.695811"
     inkscape:window-width="1366"
     inkscape:window-height="736"
     inkscape:window-x="0"
     inkscape:window-y="0"
     inkscape:window-maximized="1"
     inkscape:current-layer="g1" />
  <g
     inkscape:groupmode="layer"
     inkscape:label="Image"
     id="g1">
    <path
       style="fill:#ffffff"
       d="m 62.119628,294.05271 c -10.11798,-2.10722 -13.03283,-3.40949 -22.38802,-10.00227 -15.65665,-11.03354 -15.36587,-10.31718 -15.03008,-37.02741 0.253,-20.12496 0.008,-23.00321 -2.33333,-27.37096 -3.243,-6.05073 -3.24185,-6.11922 0.22396,-13.27862 2.79139,-5.76625 2.82899,-6.80666 2.19551,-60.7543 -0.56659,-48.251167 -0.93537,-55.754867 -3.05008,-62.060567 -2.31955,-6.916501 -2.31931,-7.333143 0.007,-11.652409 2.05893,-3.823195 2.29183,-6.457402 1.58979,-17.980908 -1.59552,-26.189227 -0.22937,-26.862324 63.08465,-31.081538 16.500002,-1.099552 41.100002,-2.261267 54.666672,-2.58159 22.03573,-0.520286 22.96011,-0.461596 8.66666,0.55025 -8.8,0.62296 -32.5,2.103674 -52.666672,3.290475 -44.45781,2.616327 -57.58903,4.098395 -65,7.336286 -6.46935,2.826492 -6.98411,4.814802 -2.49937,9.653922 3.40171,3.670508 19.27418,9.338672 30.83271,11.010568 3.66666,0.530369 7.40887,1.555621 8.31601,2.278338 0.90715,0.722716 3.30715,0.886549 5.33334,0.364073 2.02619,-0.522477 14.78398,-1.119855 28.350652,-1.327508 18.71847,-0.286506 27.88191,-1.049428 38,-3.163771 22.46955,-4.695386 48.70185,-9.377994 61.79357,-11.030488 12.835,-1.62009 13.44325,-1.480982 15.33555,3.507277 0.27819,0.733334 0.90207,0.969211 1.38639,0.524171 1.72135,-1.581724 -0.86388,-5.227594 -4.32924,-6.105392 -3.60554,-0.913305 -13.54486,0.393934 -55.5196,7.302044 -43.97271,7.236932 -43.28879,7.17712 -82.386222,7.20499 -11.74844,0.0084 -22.30916,-2.055852 -37.34099,-7.298769 -11.72827,-4.090673 -13.09782,-9.650694 -3.16617,-12.853808 4.44264,-1.432823 38.0104,-4.681689 62.89334,-6.087153 8.066672,-0.455629 18.266672,-1.073172 22.666672,-1.372317 4.4,-0.299145 17.3,-0.917951 28.66667,-1.375124 25.64348,-1.031393 40.79094,-3.600419 20.66667,-3.505091 l -5.33334,0.02526 6,-1.130577 c 8.82421,-1.662741 16.58005,-1.54819 18.4,0.271762 0.88,0.88 1.6,4.75889 1.6,8.619755 0,5.321417 0.56452,7.321531 2.33334,8.267089 2.65334,1.4184 17.42248,0.140427 35.66458,-3.086055 15.7431,-2.784483 15.2851,-3.449646 15.50691,22.520718 0.43524,50.960737 -0.40264,112.675027 -2.33237,171.791537 l -0.81758,25.04638 -3.52837,1.82459 c -1.9406,1.00352 -7.12045,2.86687 -11.51077,4.14077 -4.39032,1.2739 -13.6824,4.67245 -20.64907,7.55234 -35.71974,14.76584 -69.59023,25.97103 -87.33334,28.89202 -2.93333,0.4829 -8.69408,0.34901 -12.80166,-0.29755 -5.58659,-0.87936 -9.852292,-0.63333 -16.929872,0.97643 -11.35299,2.58218 -12.40347,2.56186 -27.2343,-0.52688 z m 16.96323,-4.09397 c -4.06007,-1.58459 -5.9974,-1.40954 -5.9974,0.54191 0,1.23723 1.30196,1.57799 4.33073,1.13346 3.69798,-0.54275 3.94149,-0.78753 1.66667,-1.67537 z m -8.30535,0.56491 c -0.90271,-0.36523 -2.70271,-0.38746 -4,-0.0494 -1.29729,0.33806 -0.55871,0.63688 1.64129,0.66405 2.2,0.0272 3.26142,-0.24942 2.35871,-0.61465 z m 0.86351,-2.27003 c -0.30556,-0.26287 -2.95556,-0.84586 -5.88889,-1.29554 -3.63196,-0.55678 -4.69532,-0.41083 -3.33333,0.45753 1.82171,1.16146 10.51658,1.95155 9.22222,0.83801 z m 6.66667,-2.66857 c -0.30556,-0.26392 -3.85556,-0.81591 -7.88889,-1.22666 -4.56362,-0.46475 -6.32617,-0.31891 -4.66667,0.38614 2.55526,1.08561 13.70336,1.83192 12.55556,0.84052 z m 52.355552,-3.80904 c -0.95675,-0.95675 -1.57777,-1.03547 -1.57777,-0.2 0,1.77971 1.57681,3.35652 2.46666,2.46667 0.37889,-0.37889 -0.0211,-1.39889 -0.88889,-2.26667 z m 4.35821,0.0872 c -0.72384,-2.28062 -0.46904,-2.69901 1.24348,-2.04185 1.18463,0.45458 2.15387,0.24535 2.15387,-0.46497 0,-0.71032 -0.9,-1.29149 -2,-1.29149 -1.1,0 -2,-0.9 -2,-2 0,-1.1 -0.55631,-2 -1.23624,-2 -1.27797,0 -0.83386,7.06254 0.58887,9.36456 1.43392,2.32013 2.18487,1.3792 1.25002,-1.56625 z m -55.835092,0.55759 c -2.93383,-0.43482 -3.42895,-0.87543 -2,-1.77981 1.44775,-0.91626 1.1674,-1.20677 -1.17958,-1.22234 -1.71676,-0.0114 -2.71416,0.56942 -2.25465,1.31292 0.45323,0.73333 0.18864,1.33333 -0.58798,1.33333 -0.77661,0 -1.41202,-0.9 -1.41202,-2 0,-1.1 0.7,-2 1.55556,-2 0.85555,0 1.27181,-0.28373 0.92502,-0.63052 -0.34679,-0.34679 -2.99679,0.0401 -5.88888,0.85974 l -5.25837,1.49026 4,1.74679 c 2.2,0.96073 6.7,1.68395 10,1.60715 4.25312,-0.099 4.86479,-0.30788 2.1009,-0.71752 z m -11.68423,-2.60005 c 0.9625,-0.38516 2.1125,-0.33779 2.55556,0.10526 0.44305,0.44306 -0.34445,0.75819 -1.75,0.7003 -1.55326,-0.064 -1.8692,-0.37992 -0.80556,-0.80556 z m 52.250002,2.24415 c 0,-0.73333 -0.63541,-1.33333 -1.41202,-1.33333 -0.77661,0 -1.0412,0.6 -0.58798,1.33333 0.45323,0.73334 1.08864,1.33334 1.41202,1.33334 0.32339,0 0.58798,-0.6 0.58798,-1.33334 z m -4.70695,-3.60916 c -0.57001,-1.31496 -1.27121,-3.78979 -1.55823,-5.49963 -0.44233,-2.63506 -0.23338,-2.83931 1.37127,-1.34035 1.04121,0.97264 1.6041,2.5216 1.25086,3.44212 -0.35324,0.92053 0.30311,1.67369 1.45855,1.67369 1.41645,0 1.82186,-0.72693 1.24451,-2.23148 -0.66021,-1.72047 -0.32032,-2.0258 1.48423,-1.33333 1.28729,0.49398 2.95565,0.89814 3.70746,0.89814 0.75182,0 1.05826,0.80441 0.68098,1.78758 -0.37728,0.98317 -0.15066,2.63317 0.5036,3.66667 0.90964,1.43691 1.19436,1.19615 1.20997,-1.02315 0.0117,-1.66005 1.01911,-3.13116 2.35375,-3.43709 1.40772,-0.32269 -0.0412,-1.20933 -3.65248,-2.2351 -3.2922,-0.93513 -7.4922,-3.24066 -9.33333,-5.12341 -2.4981,-2.55454 -2.73787,-3.20023 -0.94494,-2.5446 1.57182,0.57477 2.08905,0.37125 1.49585,-0.58858 -0.49871,-0.80692 -0.21284,-1.89598 0.63525,-2.42013 0.99551,-0.61526 0.34726,-1.49736 -1.82918,-2.48901 -2.04066,-0.92979 -3.37117,-1.02106 -3.37117,-0.23126 0,0.71761 0.75,1.35212 1.66667,1.41001 1.33333,0.0842 1.33333,0.23977 0,0.77778 -1.10512,0.44593 -1.66667,3.7423 -1.66667,9.78363 0,6.08254 0.55401,9.30897 1.66667,9.70635 2.36347,0.84409 2.81894,0.10227 1.62638,-2.64885 z m 30.65001,0.85036 c -0.42191,-0.68266 -0.13169,-1.2412 0.64492,-1.2412 0.77661,0 1.45939,0.75 1.51729,1.66667 0.0837,1.32448 0.2439,1.32277 0.78054,-0.008 0.37141,-0.92123 1.31506,-1.27957 2.09701,-0.7963 0.78195,0.48327 2.23082,-0.22782 3.21971,-1.58021 1.78954,-2.44734 6.49116,-4.14961 5.05847,-1.83147 -0.41344,0.66896 -0.1163,1.21629 0.66031,1.21629 0.77662,0 1.41203,-0.58117 1.41203,-1.29149 0,-0.71032 0.9,-0.94612 2,-0.52401 1.16871,0.44847 2.00848,0.0154 2.02041,-1.04185 0.0158,-1.3961 0.3156,-1.35255 1.31292,0.19068 0.86167,1.33334 1.2993,1.44445 1.31292,0.33334 0.0112,-0.91667 0.0448,-2.11667 0.0746,-2.66667 0.0611,-1.12664 9.42741,-4.62948 10.23077,-3.82613 0.28479,0.28479 -1.41012,1.18989 -3.76647,2.01131 -5.76644,2.0102 -4.29144,3.08939 1.88979,1.38267 2.70876,-0.74792 4.92503,-2.16747 4.92503,-3.15454 0,-0.98707 0.98486,-2.1726 2.18859,-2.63452 1.82996,-0.70222 1.91245,-0.50711 0.50341,1.19069 -1.23263,1.48522 -1.26502,2.03052 -0.12062,2.03052 0.86051,0 3.63112,-2.25 6.15689,-5 2.52578,-2.75 4.60438,-4.4 4.61911,-3.66667 0.0147,0.73334 0.6569,0.43334 1.42704,-0.66666 1.10766,-1.58208 1.23107,-1.39562 0.59059,0.89228 -0.77083,2.75353 -0.58312,2.82275 3.91266,1.44296 2.59728,-0.79713 4.72233,-1.98407 4.72233,-2.63764 0,-0.65358 0.55854,-0.84312 1.2412,-0.42121 0.68266,0.42191 1.67537,0.0646 2.20601,-0.79399 0.63735,-1.03125 0.38364,-1.20191 -0.74751,-0.50282 -1.14852,0.70982 -1.49074,0.4484 -1.03934,-0.79399 0.69946,-1.92516 1.44118,-1.99237 5.32111,-0.48218 1.70213,0.66253 2.66387,-0.0171 3.63366,-2.56787 1.73678,-4.56807 2.97733,-4.44452 1.9861,0.19779 -0.74942,3.50984 -0.69348,3.55597 1.30793,1.07849 1.14996,-1.42349 2.09084,-3.35238 2.09084,-4.28642 0,-1.83033 5.12244,-5.11407 6.23778,-3.99874 0.37183,0.37183 -0.87956,2.02865 -2.78086,3.68181 -1.90131,1.65316 -3.44773,3.64755 -3.4365,4.43197 0.0112,0.78442 0.60204,0.52622 1.31291,-0.57378 0.71088,-1.1 1.30169,-1.48353 1.31292,-0.85229 0.0112,0.63125 1.27064,-0.26875 2.79869,-2 2.01063,-2.278 2.57479,-2.50301 2.04184,-0.81438 -0.40503,1.28334 -0.15525,2.33334 0.55507,2.33334 0.71031,0 1.31144,-0.75 1.33584,-1.66667 0.0484,-1.81687 4.53714,-7.66667 5.88294,-7.66667 0.45826,0 0.16347,1.25139 -0.65508,2.78087 -0.81855,1.52947 -1.13966,3.12947 -0.71358,3.55555 1.22714,1.22714 2.21776,-0.39729 2.75812,-4.52282 0.27473,-2.09748 0.61983,-4.7136 0.7669,-5.8136 0.14706,-1.1 0.64544,0.1 1.1075,2.66667 0.46206,2.56667 0.89101,-6.58333 0.95322,-20.33333 0.0622,-13.75 -0.33865,-25 -0.8908,-25 -0.55216,0 -0.69671,-1.17479 -0.32123,-2.61063 0.39452,-1.50864 -0.50528,-4.12089 -2.13164,-6.18848 -1.54789,-1.96782 -2.73127,-5.14304 -2.62973,-7.05604 0.10153,-1.913 -0.24183,-4.48191 -0.76304,-5.70869 -1.16467,-2.74129 2.43714,-2.56163 4.93889,0.24636 1.40207,1.57369 1.29876,1.58735 -0.68016,0.0899 -2.95531,-2.23627 -3.03748,-0.42715 -0.12668,2.78924 2.06241,2.27895 2.04498,2.43833 -0.26667,2.43833 -1.82798,0 -2.08303,0.39028 -0.97751,1.4958 0.82269,0.8227 1.20179,2.26201 0.84243,3.19847 -0.35935,0.93646 -0.0428,2.08002 0.7035,2.54125 2.19741,1.35807 3.45861,-8.11381 3.1826,-23.90219 -0.63758,-36.4711 -0.8282,-40.66667 -1.8476,-40.66667 -0.5956,0 -1.73712,-1.35 -2.53671,-3 -1.39606,-2.88083 -1.37144,-2.89719 0.61975,-0.41183 1.16767,1.45746 2.07356,1.85996 2.07356,0.92131 0,-0.91677 0.66702,-1.25462 1.48226,-0.75077 1.05979,0.65499 1.29441,-2.07781 0.82316,-9.58797 -0.36251,-5.77724 -0.94342,-11.704067 -1.2909,-13.170737 -0.34749,-1.46667 -0.3725,-1.90933 -0.0556,-0.98368 0.31691,0.92565 1.1308,1.34024 1.80863,0.92131 1.77837,-1.09909 1.58628,-23.270968 -0.20161,-23.270968 -0.87499,0 -1.28338,-2.449942 -1.04758,-6.284452 0.35093,-5.706579 0.0843,-6.362944 -2.89929,-7.138073 -3.19237,-0.82936 -3.17207,-0.868645 0.71424,-1.382215 2.94604,-0.389314 4.11338,-1.327584 4.4303,-3.560918 0.23667,-1.667778 -0.0633,-2.946725 -0.66666,-2.842105 -2.93987,0.509783 -11.4564,-0.512931 -9.14958,-1.098735 2.28415,-0.580048 2.11588,-0.894559 -1.33334,-2.492069 -3.91651,-1.81394 -3.89784,-1.824752 2.38595,-1.382038 5.88516,0.414629 6.33333,0.224516 6.33333,-2.686596 0,-1.766223 -0.71322,-2.987395 -1.63501,-2.799467 -0.89926,0.183333 -1.84099,-1.016667 -2.09274,-2.666667 -0.25174,-1.65 -1.01599,-3 -1.69832,-3 -1.51427,0 -1.51608,-0.276269 0.0335,5.126848 l 1.27411,4.442576 -7.27411,-0.849655 c -7.62967,-0.891187 -9.33747,-0.129871 -4.27412,1.905349 2.0897,0.839955 -1.21436,1.231497 -10.88889,1.290368 -7.63889,0.04648 -13.54731,-0.257058 -13.12984,-0.674535 0.41748,-0.417478 4.11748,-0.821999 8.22223,-0.898936 9.65839,-0.181031 9.77819,-2.342014 0.12983,-2.342014 -4.03333,0 -7.33333,-0.6 -7.33333,-1.333334 0,-0.733333 -1.35,-1.324146 -3,-1.312916 -2.42592,0.01651 -2.61728,0.267751 -1,1.312916 1.60903,1.039835 1.39816,1.296491 -1.07869,1.312917 -1.71676,0.01138 -2.71415,-0.569415 -2.25464,-1.312917 0.45322,-0.733333 0.22907,-1.333333 -0.49813,-1.333333 -0.72719,0 -1.70304,1.2 -2.16854,2.666667 -0.4655,1.466666 -1.40593,2.666666 -2.08985,2.666666 -1.73571,0 -1.55029,-1.826525 0.38152,-3.758333 1.27778,-1.277778 0.63675,-1.429187 -3,-0.708594 -2.54375,0.504023 -5.4195,1.865273 -6.39055,3.025 -0.97105,1.159727 -1.38563,1.358594 -0.92131,0.441927 1.30924,-2.584675 -1.67388,-1.964422 -3.20634,0.666667 -1.01342,1.739929 -1.36936,1.841655 -1.39959,0.4 -0.0315,-1.503704 -0.3961,-1.577778 -1.64055,-0.333333 -1.93482,1.934821 -4.22048,2.133574 -3.06666,0.266666 0.45322,-0.733333 -0.11137,-1.333333 -1.25465,-1.333333 -1.1898,0 -2.07869,1.14032 -2.07869,2.666667 0,1.466666 -0.58117,2.666666 -1.29148,2.666666 -0.71032,0 -0.95372,-1.05 -0.54089,-2.333333 0.61194,-1.902317 0.49732,-1.97565 -0.62054,-0.396994 -0.75412,1.064986 -1.10093,2.373527 -0.77069,2.907869 0.33024,0.534341 -0.0964,1.402164 -0.94797,1.928494 -1.08043,0.667745 -1.34437,-0.110344 -0.87331,-2.574536 0.85709,-4.483559 0.32922,-4.452838 -2.32251,0.135167 -1.98478,3.434036 -2.0768,3.464147 -1.45052,0.4746 0.44356,-2.117286 0.22203,-2.745387 -0.65791,-1.865442 -0.72965,0.729644 -1.42376,2.616075 -1.54247,4.192067 -0.11872,1.575993 -0.73584,2.865442 -1.37139,2.865442 -0.63554,0 -0.74948,-1.95 -0.25318,-4.333334 0.86321,-4.145419 0.80984,-4.217694 -1.23067,-1.666666 -1.74385,2.180137 -1.98395,2.238868 -1.31604,0.321906 0.69143,-1.984418 0.33334,-2.168954 -2.33006,-1.200784 -3.69724,1.343982 -6.71876,6.857999 -6.96922,12.718221 -0.16816,3.934663 -2.66399,7.358026 -5.43265,7.451586 -0.69017,0.02332 -0.31302,-0.707595 0.83809,-1.624262 1.15111,-0.916667 2.44244,-3.766667 2.86961,-6.333334 0.42718,-2.566666 1.16259,-5.988277 1.63425,-7.60358 0.76813,-2.630592 0.46377,-2.865503 -2.91807,-2.252259 -4.29275,0.778426 -4.54209,0.943626 -5.13205,3.400331 -1.21756,5.070079 -2.47575,7.788842 -3.60453,7.788842 -0.69108,0 -0.84596,-0.664281 -0.34418,-1.476179 0.62684,-1.014249 -0.0787,-1.167712 -2.25465,-0.49042 -1.74183,0.542167 -3.36697,1.506447 -3.61141,2.142845 -0.24445,0.636398 -0.97562,1.157087 -1.62482,1.157087 -0.64921,0 -0.79725,-0.998427 -0.32897,-2.218726 0.59405,-1.548088 0.35242,-1.91034 -0.79942,-1.198466 -0.90794,0.561143 -1.3292,1.858377 -0.93611,2.882741 0.41714,1.087052 -0.79404,2.827416 -2.9091,4.180131 -5.42724,3.47106 -6.4599,5.397071 -5.78314,10.78611 0.56744,4.518462 0.69154,4.641022 1.58787,1.568211 l 0.97232,-3.333334 0.1329,3.555556 c 0.0731,1.955556 -0.50579,3.768459 -1.28643,4.028669 -0.78064,0.26021 -1.77196,3.10206 -2.20294,6.31522 -0.61769,4.6052 -0.41471,5.61413 0.95869,4.76532 1.25538,-0.77587 1.42332,-0.5607 0.60095,0.76993 -0.62773,1.01569 -1.25135,7.446077 -1.38582,14.289747 -0.20537,10.45178 0.0684,12.32295 1.71103,11.69263 1.07554,-0.41272 2.50646,-0.7504 3.17981,-0.7504 0.67336,0 1.24337,-1.35 1.26669,-3 0.0233,-1.65 0.90411,-4.1384 1.95729,-5.52977 1.05319,-1.39136 1.5414,-3.13407 1.08492,-3.87267 -0.45648,-0.73861 -0.22918,-0.97161 0.50512,-0.51779 0.7343,0.45382 1.36585,2.79653 1.40345,5.20601 0.0505,3.23698 -0.18343,3.71004 -0.89592,1.8117 -1.81607,-4.83863 -2.79543,1.37242 -1.38724,8.79778 0.71654,3.77833 1.07198,7.10052 0.78985,7.38264 -0.63083,0.63083 -2.70462,-6.50973 -2.34359,-8.06957 0.14321,-0.61875 -0.40337,-0.90375 -1.21462,-0.63333 -0.81125,0.27041 -1.40857,0.94809 -1.32738,1.50595 0.0812,0.55786 -0.80238,1.96429 -1.96349,3.1254 -2.48956,2.48956 -1.54402,4.19481 1.10633,1.99522 1.00186,-0.83147 2.23518,-1.09816 2.74071,-0.59263 0.50553,0.50553 -0.44968,1.72535 -2.12268,2.71072 l -3.04182,1.79158 3.33333,-0.77791 3.33334,-0.77791 -3.33334,2.1317 -3.33333,2.1317 4,-0.70283 c 3.33954,-0.58677 3.06434,-0.27813 -1.66667,1.86925 -3.11666,1.41464 -5.66666,3.19668 -5.66666,3.96008 0,2.17152 2.84182,1.62901 4.95188,-0.94532 1.0519,-1.28334 1.53263,-1.58334 1.06831,-0.66667 -1.40197,2.76773 1.33932,1.87204 4.08072,-1.33333 4.03164,-4.71398 6.07172,-8.97533 5.07158,-10.59358 -0.56868,-0.92015 -0.31004,-1.10946 0.6799,-0.49765 2.26578,1.40033 5.48094,-1.6811 5.48094,-5.25296 0,-1.65971 0.95206,-4.73625 2.1157,-6.83674 l 2.11569,-3.81907 -0.78229,3.66636 c -0.4303,2.01667 -1.16987,5.25616 -1.64349,7.19887 -0.60462,2.48009 -0.40604,3.25096 0.66667,2.58798 0.84029,-0.51932 1.54905,-2.25881 1.57504,-3.86554 0.026,-1.60672 0.90472,-4.42131 1.95275,-6.25464 1.84093,-3.22036 1.90711,-3.23432 1.95275,-0.41202 0.026,1.60672 -0.55275,3.29213 -1.28608,3.74535 -2.32254,1.43541 -1.44032,5.66101 1.33333,6.38634 1.79915,0.47048 2.66667,0.0409 2.66667,-1.32048 0,-1.24583 -0.76517,-1.7242 -2,-1.25035 -1.1,0.42211 -2,0.2363 -2,-0.41291 0,-0.6492 0.61802,-1.38638 1.37338,-1.63817 0.75536,-0.25178 1.60859,-4.05178 1.89608,-8.44444 0.44502,-6.79968 0.26523,-7.63526 -1.20975,-5.62226 -1.62116,2.21251 -1.78298,2.17116 -2.51908,-0.64367 -0.43264,-1.65444 -0.17073,-3.61841 0.58203,-4.36439 0.93334,-0.92494 1.08612,-0.61419 0.48035,0.977 -0.51471,1.35198 -0.26755,2.33333 0.58767,2.33333 1.30635,0 2.17112,-3.92692 1.57825,-7.166877 -0.28674,-1.56705 3.95919,-6.16645 5.69256,-6.16645 0.75984,0 0.35984,0.75 -0.88889,1.66666 -2.53589,1.86155 -4.14178,7.666667 -2.12086,7.666667 0.71424,0 1.57979,-0.899997 1.92344,-1.999997 0.34365,-1.1 1.02007,-3.05 1.50316,-4.33333 0.48309,-1.28334 0.79121,-2.75899 0.6847,-3.27924 -0.1065,-0.52024 1.89824,-2.54146 4.45499,-4.49158 2.87588,-2.19354 4.64864,-4.687168 4.64864,-6.538952 0,-1.646294 1.58181,-4.575081 3.51515,-6.508415 7.12713,-7.127128 21.76218,-3.542706 23.82175,5.83443 0.48124,2.191064 1.4273,3.983747 2.10237,3.983747 0.67507,0 2.42739,1.20001 3.89406,2.66667 4.36832,4.36832 3.71704,15.470097 -1.29624,22.095817 -2.7478,3.63159 -3.97428,6.78915 -4,10.29794 l -0.0371,5.06042 5,-0.89597 c 2.75,-0.49278 5.94724,-1.71997 7.10499,-2.72708 2.79323,-2.42983 12.46063,-2.36273 14.50507,0.10067 0.88179,1.06249 3.65986,2.61054 6.1735,3.44012 8.56287,2.826 9.6604,11.62036 2.95127,23.64829 -2.34584,4.20555 -4.64712,7.94647 -5.11395,8.31313 -0.46683,0.36667 -1.52926,1.86667 -2.36095,3.33334 -0.8317,1.46666 -1.53042,1.88125 -1.55272,0.92131 -0.0223,-0.95995 -0.59039,-1.40554 -1.26242,-0.9902 -0.67203,0.41534 -1.04654,2.96501 -0.83223,5.66592 0.32956,4.15357 0.13786,4.56643 -1.2433,2.67759 -0.89811,-1.22825 -2.02861,-1.9475 -2.51221,-1.59834 -0.4836,0.34915 -0.27427,-0.0802 0.46517,-0.95406 1.93027,-2.28123 1.65614,-5.05556 -0.49953,-5.05556 -1.26626,0 -1.72979,1.35763 -1.47951,4.33334 0.55105,6.55148 0.55246,6.5552 2.12318,5.58445 0.92889,-0.57409 0.856,0.23419 -0.19887,2.20524 l -1.66523,3.11151 -1.20293,-3.25184 c -0.98187,-2.65424 -1.43163,-2.89019 -2.44738,-1.28393 -1.7623,2.7868 -1.57747,4.30081 0.38138,3.12398 1.11723,-0.67121 1.05891,-0.25218 -0.1769,1.27108 -1.45889,1.79822 -2.24333,1.94062 -3.75937,0.68242 -1.05368,-0.87448 -1.63025,-2.68188 -1.28125,-4.01644 0.70819,-2.70812 -0.51,-3.16562 -2.6721,-1.00352 -1.00839,1.00839 -1.66432,0.79398 -2.2514,-0.73591 -0.45564,-1.18739 -0.36388,-1.87177 0.20391,-1.52085 0.56779,0.35091 1.03235,-0.51793 1.03235,-1.93075 0,-1.41283 -0.25528,-2.56878 -0.5673,-2.56878 -1.54474,0 -4.11472,5.07713 -4.1522,8.2029 -0.0334,2.78169 0.84993,3.84731 4.13962,4.9941 2.30011,0.80182 4.92297,2.47117 5.82858,3.70966 1.48716,2.03381 1.85159,1.87305 3.76459,-1.66076 1.16492,-2.15191 2.14206,-3.29607 2.17142,-2.54257 0.0294,0.75349 -0.84896,2.65827 -1.95183,4.23283 -1.54399,2.20435 -1.68771,3.69791 -0.62486,6.49343 2.66839,7.0184 -3.71185,19.73207 -11.24648,22.41042 -2.45048,0.87108 -2.43833,1.00176 0.33334,3.58396 4.42936,4.12658 3.98284,13.20948 -0.92732,18.86297 -2.09213,2.40885 -4.37481,6.17973 -5.07261,8.37973 -0.83348,2.62773 -2.95918,4.83817 -6.19614,6.44315 -2.71006,1.34372 -4.96955,3.14372 -5.0211,4 -0.0515,0.85627 -0.60937,0.35685 -1.23962,-1.10982 -0.97987,-2.28028 -1.15948,-2.32858 -1.23962,-0.33333 -0.12962,3.22736 -2.76038,2.95439 -2.76038,-0.28642 0,-1.44087 -1.19143,-3.25739 -2.64762,-4.03672 -2.45218,-1.31237 -2.54785,-1.15453 -1.29603,2.138 0.74338,1.95524 1.03481,3.87176 0.64762,4.25895 -1.3433,1.3433 -2.16712,-0.78617 -2.38122,-6.15517 -0.11837,-2.96841 -0.74679,-5.06859 -1.39648,-4.66706 -0.64968,0.40153 -0.94436,2.75919 -0.65482,5.23924 0.28953,2.48005 0.0469,4.50918 -0.53918,4.50918 -0.58608,0 -1.0656,-1.2 -1.0656,-2.66667 0,-1.46666 -0.6,-2.66666 -1.33333,-2.66666 -0.73334,0 -1.34252,1.35 -1.35375,3 -0.0124,1.82581 -0.40877,2.38951 -1.01262,1.44024 -0.54571,-0.85787 -1.88653,-1.75787 -2.97959,-2 -1.09306,-0.24213 -2.77843,-1.50028 -3.74527,-2.79588 -0.96685,-1.2956 -2.34598,-1.99219 -3.06475,-1.54796 -0.81588,0.50424 -0.68053,1.63968 0.36026,3.0223 1.39924,1.8588 1.37015,1.95018 -0.1811,0.56878 -1.94065,-1.72816 -2.86537,-6.81183 -1.62479,-8.93231 0.40055,-0.68466 1.234,-0.0847 1.8521,1.33333 0.87241,2.00139 0.97298,1.79201 0.44955,-0.93594 -0.41953,-2.18648 0.0765,-4.13715 1.31284,-5.16326 1.09292,-0.90703 1.98712,-2.26901 1.98712,-3.02661 0,-0.75761 -1.49927,0.36586 -3.33171,2.49659 -1.83244,2.13073 -3.33244,3.15132 -3.33333,2.26799 -9e-4,-0.88333 1.49837,-3.10606 3.3317,-4.93939 3.75531,-3.75532 4.35375,-7.0101 1.28889,-7.0101 -1.35926,0 -1.5988,0.44564 -0.71472,1.32972 0.88408,0.88408 0.38375,2.15017 -1.4929,3.77778 -3.30246,2.86421 -4.71886,3.22452 -2.58943,0.65871 0.81677,-0.98415 1.14162,-2.13276 0.7219,-2.55248 -0.41972,-0.41972 -0.0547,-2.08692 0.81126,-3.70489 1.06007,-1.98076 1.09536,-2.64571 0.10803,-2.0355 -0.8065,0.49844 -1.46636,0.20665 -1.46636,-0.64842 0,-0.89368 -0.93051,-1.1976 -2.18859,-0.71483 -1.63627,0.62789 -1.85044,0.41153 -0.84865,-0.85735 0.73697,-0.93345 1.22023,-3.07259 1.07392,-4.75364 -0.14631,-1.68105 0.15832,-3.31871 0.67695,-3.63924 0.51863,-0.32053 0.73449,-2.37329 0.47969,-4.56169 -0.27156,-2.3323 0.27027,-4.41283 1.30929,-5.02743 0.97492,-0.57669 2.10358,-3.59866 2.50815,-6.71549 0.42012,-3.23673 0.21817,-5.3472 -0.47093,-4.92131 -0.66357,0.41011 -1.2065,1.91024 -1.2065,3.33363 0,1.42339 -0.58117,2.58798 -1.29148,2.58798 -0.71032,0 -0.94352,-0.9068 -0.51822,-2.01512 0.57469,-1.4976 0.16534,-1.78183 -1.5939,-1.10675 -1.74858,0.67099 -2.08197,0.44689 -1.27578,-0.85756 0.72618,-1.17498 0.57628,-1.44756 -0.44794,-0.81456 -0.84664,0.52325 -1.54853,1.96596 -1.55976,3.20601 -0.0177,1.94891 -0.20189,1.98344 -1.35867,0.25465 -1.16376,-1.73922 -1.58379,-1.67886 -3.22134,0.46293 -1.0357,1.35461 -1.57409,3.26817 -1.19642,4.25235 0.37766,0.98418 0.0547,2.87586 -0.7177,4.20373 -1.163,1.99938 -1.41133,1.54147 -1.44491,-2.66437 -0.0269,-3.36792 -0.53806,-4.77121 -1.51751,-4.16587 -0.92543,0.57195 -1.16732,2.96635 -0.64774,6.41202 0.585,3.87958 0.43697,4.91017 -0.50262,3.49921 -1.79045,-2.68869 -1.72367,-8.44901 0.11933,-10.29201 1.5085,-1.5085 1.97101,-12.02276 0.58963,-13.40414 -0.41157,-0.41156 -0.7483,1.8517 -0.7483,5.02948 0,3.17778 -0.33097,5.44681 -0.73548,5.0423 -0.40451,-0.40451 -0.79918,-4.55451 -0.87703,-9.22222 -0.0779,-4.66771 -0.38834,-7.28675 -0.68996,-5.82008 -0.30161,1.46667 -1.76014,5.3233 -3.24117,8.57029 -1.5918,3.48983 -2.48134,7.71477 -2.17564,10.33333 0.28443,2.43634 0.0376,4.42971 -0.54846,4.42971 -2.01462,0 -1.06236,-9.11981 1.60107,-15.33333 2.57653,-6.0108 3.58091,-11.35868 1.7985,-9.57628 -0.47749,0.47749 -1.72198,-0.17251 -2.76554,-1.44445 -1.04356,-1.27193 -1.49972,-1.53387 -1.01368,-0.58209 0.48603,0.95179 0.50313,2.72224 0.038,3.93435 -0.7235,1.8854 -1.28173,1.69639 -3.86346,-1.30816 l -3.01777,-3.512 0.58394,8.24431 c 0.32116,4.53438 1.139,8.59978 1.8174,9.03423 0.74462,0.47686 0.65058,3.11903 -0.23727,6.66667 -0.90163,3.60271 -1.31648,16.06716 -1.0721,32.21151 0.21926,14.48412 -0.0513,26.33412 -0.60135,26.33334 -1.97614,-0.003 -0.95048,2.36971 1.33333,3.08424 1.28333,0.40151 5.18333,1.64279 8.66667,2.7584 3.48333,1.11561 6.33333,1.45708 6.33333,0.75882 0,-0.69825 -1.65,-1.31173 -3.66667,-1.36327 -2.53433,-0.0648 -3.01125,-0.37359 -1.54431,-1 1.85289,-0.79122 1.76825,-1.24485 -0.66667,-3.57295 -1.53396,-1.46667 -3.63902,-2.66667 -4.6779,-2.66667 -1.03889,0 -2.18647,-0.9 -2.55017,-2 -0.56704,-1.71499 -0.34537,-1.73923 1.55556,-0.17007 2.57759,2.12773 3.00724,0.22613 0.55016,-2.43502 -0.91667,-0.9928 -0.16262,-0.71945 1.67567,0.60745 1.83828,1.32689 5.30729,5.01918 7.70892,8.20509 2.40162,3.1859 5.30758,5.79255 6.45767,5.79255 2.03322,0 1.36281,-0.81534 -11.64747,-14.16544 -3.71088,-3.80781 -6.22891,-11.16789 -3.82076,-11.16789 1.63239,0 2.6032,3.78536 1.09938,4.28664 -0.75724,0.25241 -0.14349,1.94118 1.36387,3.75281 1.91954,2.307 2.76995,2.69466 2.83841,1.29388 0.0551,-1.12795 0.96508,-0.40124 2.08694,1.66667 1.09406,2.01666 2.60545,3.66666 3.35864,3.66666 0.7532,0 0.91886,-0.75 0.36814,-1.66666 -0.59629,-0.99254 -0.024,-0.87271 1.41489,0.29624 2.36903,1.92461 14.0957,13.59675 14.0957,14.03016 0,0.1212 -2.1,0.15069 -4.66666,0.0655 -5.19268,-0.1723 -6.33962,1.43371 -1.66667,2.33376 2.87336,0.55343 2.88025,0.58549 0.16326,0.7594 -1.56021,0.0999 -3.58368,-0.71842 -4.49659,-1.81842 -0.91292,-1.1 -3.23639,-1.99082 -5.16326,-1.97959 -2.73774,0.016 -3.06631,0.2991 -1.50341,1.29555 1.3937,0.88857 0.38321,1.09193 -3.33334,0.67082 l -5.33333,-0.60431 5.33333,1.9887 5.33334,1.98869 -5.21826,-0.63152 c -3.14451,-0.38056 -4.73412,-0.14822 -4,0.58464 1.87113,1.86791 16.387,5.33266 23.16506,5.5292 6.04729,0.17535 6.04864,0.17649 1.38653,1.15782 -2.56666,0.54026 -3.61666,1.06127 -2.33333,1.15781 1.28333,0.0965 2.33333,0.83971 2.33333,1.6515 0,0.8118 -0.9,1.13063 -2,0.70852 -1.1,-0.42211 -2,-0.2303 -2,0.42625 0,1.31811 4.07515,2.5569 5.68842,1.7292 0.56196,-0.28832 0.67655,-1.08275 0.25464,-1.76542 z m -10.60972,-9.2412 c -4.48971,-0.80387 -4.70062,-0.96921 -1.33334,-1.04529 2.2,-0.0497 6.7,0.39005 10,0.97723 5.3834,0.9579 5.52043,1.06532 1.33334,1.0453 -2.56667,-0.0123 -7.06667,-0.45203 -10,-0.97724 z m 19.08333,-0.91082 c 0.9625,-0.38516 2.1125,-0.33779 2.55556,0.10527 0.44305,0.44305 -0.34445,0.75818 -1.75001,0.70029 -1.55325,-0.064 -1.86919,-0.37992 -0.80555,-0.80556 z m -10.05796,-1.3465 c 1.29729,-0.33806 3.09729,-0.31582 4,0.0494 0.90271,0.36523 -0.15871,0.64182 -2.35871,0.61465 -2.2,-0.0272 -2.93858,-0.326 -1.64129,-0.66406 z m 12.65684,-1.35236 c 1.65855,-0.31892 4.05855,-0.30681 5.33333,0.0269 1.27479,0.33372 -0.0822,0.59466 -3.01554,0.57986 -2.93334,-0.0148 -3.97634,-0.28784 -2.31779,-0.60677 z m -11.01555,-1.72365 c -0.45322,-0.73333 0.076,-1.33333 1.17596,-1.33333 1.1,0 2.37082,0.6 2.82404,1.33333 0.45323,0.73333 -0.076,1.33333 -1.17595,1.33333 -1.1,0 -2.37082,-0.6 -2.82405,-1.33333 z m 21.75,0.42251 c 0.9625,-0.38516 2.1125,-0.33779 2.55556,0.10527 0.44305,0.44305 -0.34445,0.75818 -1.75,0.70029 -1.55326,-0.064 -1.8692,-0.37992 -0.80556,-0.80556 z m 6.25,-0.42251 c -1.75832,-0.75558 -1.9854,-1.17087 -0.66666,-1.2192 1.1,-0.0403 2.9,0.50832 4,1.2192 2.43729,1.5751 0.33211,1.5751 -3.33334,0 z m -35.10091,-8.41927 c -4.48102,-4.76983 -3.42381,-5.88947 1.4134,-1.49685 2.37187,2.15386 3.36313,2.71612 2.20281,1.24945 -3.92902,-4.96633 -4.29608,-6.68256 -0.73556,-3.43919 4.46569,4.06792 5.82683,2.9937 2.14216,-1.69059 -1.53016,-1.94529 -2.28856,-3.53687 -1.68534,-3.53685 0.60323,3e-5 2.77235,2.10003 4.82028,4.66667 3.19033,3.99839 3.38125,4.66955 1.33334,4.68705 -2.03092,0.0173 -2.08956,0.21468 -0.39018,1.31291 1.53041,0.98903 1.03713,1.29729 -2.10091,1.31292 -2.58206,0.0129 -5.17465,-1.12252 -7,-3.06552 z m 31.51758,2.17512 c 0.9625,-0.38516 2.1125,-0.3378 2.55556,0.10526 0.44305,0.44306 -0.34445,0.75819 -1.75,0.70029 -1.55326,-0.064 -1.8692,-0.37992 -0.80556,-0.80555 z m 32.94285,-1.42252 c 0.47835,-1.74964 0.22702,-3 -0.603,-3 -0.78275,0 -1.42318,0.93541 -1.42318,2.07869 0,1.16761 -0.64048,1.68285 -1.46128,1.17557 -0.9944,-0.61457 -0.78444,-1.57997 0.65714,-3.02155 2.93229,-2.93229 5.77963,-0.27758 3.5453,3.30546 -1.3857,2.22216 -1.45531,2.16976 -0.71498,-0.53817 z m -87.3209,-0.28125 c -1.07877,-0.68223 -1.67782,-1.52399 -1.33124,-1.87057 0.34658,-0.34658 1.79388,0.22079 3.21622,1.26084 2.84459,2.08001 1.25361,2.59464 -1.88498,0.60973 z m 51.96138,-1.38541 c 1.83334,-0.58714 4.23334,-1.11815 5.33334,-1.18001 1.77777,-0.1 1.77777,0.0311 0,1.18001 -1.1,0.71087 -3.5,1.24187 -5.33334,1.18 l -3.33333,-0.11248 z m 15.75,-0.91082 c 0.9625,-0.38516 2.1125,-0.3378 2.55556,0.10526 0.44306,0.44306 -0.34444,0.75819 -1.75,0.70029 -1.55326,-0.064 -1.8692,-0.37992 -0.80556,-0.80555 z m 8.98334,-1.49608 c 0.69666,-0.59046 3.66666,-2.73632 6.6,-4.76858 l 5.33333,-3.69502 -5.33333,4.74875 c -2.93334,2.61181 -5.90334,4.75767 -6.6,4.76858 -0.8,0.0125 -0.8,-0.37569 0,-1.05373 z m -12.73334,-0.77093 c 0,-0.28114 1.20083,-0.82518 2.66851,-1.20899 1.46768,-0.3838 2.33227,-0.15378 1.92131,0.51116 -0.71767,1.16121 -4.58982,1.74993 -4.58982,0.69783 z m -46.66666,-4.15551 c 0,-1.1 0.2358,-2 0.52401,-2 0.28821,0 0.86938,0.9 1.29149,2 0.42211,1.1 0.1863,2 -0.52402,2 -0.71032,0 -1.29148,-0.9 -1.29148,-2 z m 4.45008,-0.87242 c 0.4505,-1.41622 -1.41352,-4.35123 -5.20755,-8.19962 -5.77336,-5.85608 -8.37208,-10.2368 -3.40728,-5.74371 2.20224,1.99299 2.59577,2.01966 3.28535,0.22264 0.43089,-1.12286 0.15677,-1.89876 -0.60915,-1.72423 -0.76591,0.17454 -2.39432,-1.15708 -3.61868,-2.95916 -1.62911,-2.3978 -1.71837,-2.96489 -0.33286,-2.1146 1.36188,0.83578 1.67845,0.63271 1.12792,-0.72351 -2.48941,-6.13257 -2.1378,-6.46888 1.03609,-0.99099 1.9846,3.42525 4.28359,6.00726 5.10888,5.7378 0.82529,-0.26947 2.89616,1.27805 4.60194,3.43893 1.70578,2.16088 2.41534,3.92887 1.57682,3.92887 -0.9654,0 -1.18637,1.10036 -0.60247,3 l 0.92214,3 -3.49895,-3.23242 c -4.0502,-3.74167 -4.76109,-2.28293 -0.89365,1.83376 1.94572,2.07113 2.25143,3.27433 1.20755,4.7526 -1.18719,1.68122 -1.29204,1.64712 -0.6961,-0.22636 z m 2.21658,-10.39531 c 0,-1.58667 -4.80652,-5.4813 -5.683,-4.60482 -0.43996,0.43996 -0.43931,1.73969 0.001,2.8883 0.57185,1.4902 0.29558,1.77576 -0.96454,0.99697 -1.00093,-0.61861 -1.44219,-0.56896 -1.0186,0.1146 0.90558,1.46139 7.66469,1.99486 7.66469,0.60495 z m 54,6.17363 c 3.66667,-3.29183 6.87968,-5.7793 7.14002,-5.52772 0.59175,0.57183 -8.73178,8.89515 -11.65051,10.40067 -1.1859,0.6117 0.84383,-1.58113 4.51049,-4.87295 z m 3.23242,2.6537 c 3.39673,-3.74053 4.12782,-4.20156 4.05902,-2.5596 -0.0231,0.55 -1.67305,2.15182 -3.66667,3.5596 l -3.62477,2.5596 z m 32.17852,0.4404 c -0.0101,-1.83333 1.15501,-4.83333 2.58907,-6.66667 1.48209,-1.89474 2.62016,-2.55028 2.63701,-1.51895 0.018,1.09913 1.07531,0.57352 2.6822,-1.33333 l 2.65256,-3.14772 -1.95453,4 c -1.07499,2.2 -3.44706,5.8 -5.27127,8 l -3.31674,4 z m 3.90198,-4.41202 c 0.0112,-0.59328 -0.57958,-0.70787 -1.31291,-0.25465 -0.73334,0.45323 -1.32415,1.83864 -1.31292,3.07869 0.0176,1.94304 0.19905,1.97823 1.31292,0.25465 0.71087,-1.1 1.30168,-2.48541 1.31291,-3.07869 z M 121.2997,238.7671 c -2.31783,-2.54712 -4.21424,-5.25526 -4.21424,-6.01809 0,-0.76283 -0.68282,-2.48034 -1.51739,-3.81669 -1.11818,-1.7905 -1.12964,-3.45196 -0.0435,-6.31524 1.44429,-3.80756 1.45896,-3.78826 0.73098,0.96179 -0.99018,6.46101 1.62332,7.85973 2.75484,1.47436 0.48617,-2.74358 1.22799,-6.15049 1.64849,-7.57092 0.74583,-2.51941 0.80933,-2.52133 2.59558,-0.0785 1.00707,1.37725 1.78367,3.43942 1.72577,4.58259 -0.0696,1.37431 -0.3331,1.51384 -0.77778,0.41182 -0.36988,-0.91666 -1.22251,-1.66666 -1.89473,-1.66666 -1.71277,0 -1.53383,8.98337 0.20028,10.05511 0.78238,0.48354 1.31129,0.069 1.17536,-0.92131 -0.57664,-4.20077 0.31033,-5.61874 1.55817,-2.49098 0.89994,2.25573 0.87303,3.4586 -0.0845,3.77778 -2.2681,0.75603 -1.66051,2.5078 2.72837,7.86634 2.27327,2.77551 1.07327,1.78212 -2.66667,-2.20754 -7.71002,-8.22483 -8.69435,-7.98004 -2.73584,0.68036 4.88713,7.1032 4.49977,7.52088 -1.18315,1.27577 z m 69.1191,2.88059 c 0,-0.22947 1.95,-2.17947 4.33333,-4.33333 l 4.33334,-3.91613 -3.91612,4.33334 c -3.65038,4.03927 -4.75055,4.9462 -4.75055,3.91612 z m 33.32922,-4.58279 c 1.74475,-2.38333 3.38055,-4.33333 3.63511,-4.33333 1.01255,0 -2.29336,5.00072 -4.47973,6.77632 -1.44035,1.16975 -1.11839,0.23848 0.84462,-2.44299 z m 10.22634,-2.55555 c -1.77512,-1.77512 -0.82486,-5.17631 1.92623,-6.8944 2.73567,-1.70845 2.75449,-1.67149 0.66667,1.30928 -2.5099,3.58338 -2.80723,5.70519 -0.60911,4.34668 0.95373,-0.58944 1.17741,-0.36575 0.58797,0.58798 -1.10383,1.78605 -1.36908,1.85313 -2.57176,0.65046 z m -27.55556,-1.85647 c 0,-0.77661 0.6,-1.0412 1.33333,-0.58798 0.73334,0.45323 1.33334,1.08864 1.33334,1.41202 0,0.32339 -0.6,0.58798 -1.33334,0.58798 -0.73333,0 -1.33333,-0.63541 -1.33333,-1.41202 z m -9.33333,-4.58798 c 1.72232,-1.83333 3.4315,-3.33333 3.79817,-3.33333 0.36667,0 -0.74251,1.5 -2.46484,3.33333 -1.72233,1.83333 -3.4315,3.33333 -3.79817,3.33333 -0.36667,0 0.74251,-1.5 2.46484,-3.33333 z m -60,0.14265 c 0,-0.28821 0.93116,-0.88133 2.06925,-1.31806 1.18656,-0.45533 1.72176,-0.2318 1.25464,0.52402 -0.78301,1.26693 -3.32389,1.87393 -3.32389,0.79404 z m 79.33333,-2.14265 c 1.32732,-1.46667 2.7133,-2.66667 3.07997,-2.66667 0.36667,0 -0.41932,1.2 -1.74663,2.66667 -1.32732,1.46667 -2.71331,2.66667 -3.07997,2.66667 -0.36667,0 0.41932,-1.2 1.74663,-2.66667 z m 14.76191,-2.09524 c -0.49043,-1.95401 -0.63455,-3.8099 -0.32026,-4.12418 0.31429,-0.31429 0.97269,1.02731 1.46311,2.98133 0.49043,1.95401 0.63455,3.8099 0.32026,4.12418 -0.31428,0.31429 -0.97269,-1.02731 -1.46311,-2.98133 z m -16.55138,-1.90476 c 0,-1.83333 0.30263,-2.58333 0.67251,-1.66667 0.36989,0.91667 0.36989,2.41667 0,3.33334 -0.36988,0.91666 -0.67251,0.16666 -0.67251,-1.66667 z m -4.77958,-2.66667 c 0.49039,-1.83333 1.44769,-4.23333 2.12733,-5.33333 0.85882,-1.38998 0.96377,-0.9833 0.3441,1.33333 -0.49039,1.83334 -1.44768,4.23334 -2.12733,5.33334 -0.85881,1.38998 -0.96376,0.9833 -0.3441,-1.33334 z m -92.76429,-3.85734 c 0,-1.38821 0.9,-2.86938 2,-3.29149 2.23371,-0.85716 2.76201,1.18717 0.64492,2.49561 -0.74529,0.46062 -1.00988,1.39603 -0.58798,2.07869 0.42191,0.68266 0.1317,1.2412 -0.64491,1.2412 -0.77662,0 -1.41203,-1.13581 -1.41203,-2.52401 z m 112.10527,0.4129 c 0.064,-1.55326 0.37992,-1.8692 0.80556,-0.80556 0.38516,0.9625 0.33779,2.1125 -0.10527,2.55556 -0.44305,0.44305 -0.75818,-0.34445 -0.70029,-1.75 z m 3.02807,0.71111 c 0.37261,-2.04937 2.70225,-1.83552 3.26818,0.3 0.36953,1.39442 0.19985,1.38371 -0.80527,-0.0509 -0.89775,-1.28132 -1.48823,-1.36983 -2.00151,-0.3 -0.47083,0.98138 -0.63385,0.99935 -0.4614,0.0509 z m -95.13333,-2.6 c 0,-1.46667 0.47142,-2.66667 1.04761,-2.66667 0.57619,0 1.04762,1.2 1.04762,2.66667 0,1.46667 -0.47143,2.66667 -1.04762,2.66667 -0.57619,0 -1.04761,-1.2 -1.04761,-2.66667 z m -15.32619,-3.96747 c -0.47927,-2.18211 -0.43424,-4.67481 0.10007,-5.53934 0.59032,-0.95516 0.3985,-1.21777 -0.48889,-0.66932 -1.00622,0.62187 -1.2236,-0.66168 -0.69903,-4.12733 0.99836,-6.59582 2.37615,-8.01179 2.55896,-2.62987 0.0797,2.34666 0.62423,5.71049 1.21003,7.47516 0.80636,2.42906 0.65554,2.95537 -0.62083,2.16653 -1.28637,-0.79502 -1.46904,-0.0544 -0.77076,3.12483 0.50335,2.29175 0.61518,4.16681 0.24852,4.16681 -0.36667,0 -1.0588,-1.78536 -1.53807,-3.96747 z m 4.12618,1.83414 c -0.47452,-1.23659 -0.56276,-2.54834 -0.1961,-2.91501 0.36667,-0.36667 1.05492,0.34509 1.52944,1.58167 0.47452,1.23659 0.56277,2.54835 0.1961,2.91501 -0.36667,0.36667 -1.05491,-0.34509 -1.52944,-1.58167 z m 4.17042,-1.3407 c -0.37421,-0.37421 -0.3624,-1.89636 0.0263,-3.38256 0.55223,-2.11172 0.98037,-2.31336 1.95937,-0.92279 0.87625,1.24462 1.08461,0.71943 0.6933,-1.74751 -0.30769,-1.93979 0.24103,-4.93979 1.21937,-6.66667 1.64853,-2.90981 1.74524,-2.68349 1.32051,3.09 -0.41437,5.63281 -3.50775,11.34058 -5.2188,9.62953 z m -12.08153,-1.41486 c -0.48889,-0.48889 -0.85085,-2.13889 -0.80437,-3.66667 0.0777,-2.55412 0.18737,-2.52064 1.36198,0.41581 1.30575,3.26429 1.0349,4.84336 -0.55761,3.25086 z m 19.11112,-2.22222 c 0,-1.95556 0.56554,-3.55556 1.25677,-3.55556 0.69123,0 1.01005,1.28119 0.70848,2.84708 -0.82984,4.30903 -1.96525,4.71835 -1.96525,0.70848 z m -22.87411,-2.31385 c -0.36503,-1.88373 -0.27261,-4.53986 0.20538,-5.90252 1.40329,-4.00045 2.72091,0.94426 1.47838,5.54799 l -1.02006,3.77949 z m 120.24828,2.09163 c 0,-0.73334 0.58162,-2.23334 1.2925,-3.33334 0.71087,-1.1 1.2925,-1.4 1.2925,-0.66666 0,0.73333 -0.58163,2.23333 -1.2925,3.33333 -0.71088,1.1 -1.2925,1.4 -1.2925,0.66667 z m -93.37417,-10 c 0,-0.73334 0.6,-1.33334 1.33333,-1.33334 0.73333,0 1.33333,0.6 1.33333,1.33334 0,0.73333 -0.6,1.33333 -1.33333,1.33333 -0.73333,0 -1.33333,-0.6 -1.33333,-1.33333 z m -2.56141,-2.11111 c 0.064,-1.55326 0.37992,-1.8692 0.80556,-0.80556 0.38516,0.9625 0.33779,2.1125 -0.10527,2.55556 -0.44305,0.44305 -0.75818,-0.34445 -0.70029,-1.75 z m 94.20303,-1.99577 c 0.47148,-1.80294 1.07587,-2.40733 1.40873,-1.40874 0.32064,0.96192 -0.051,2.38288 -0.82575,3.15768 -0.98942,0.98943 -1.16295,0.46885 -0.58298,-1.74894 z m -20.97496,-7.89312 c 0,-0.73334 0.63542,-1.33334 1.41203,-1.33334 0.77661,0 1.0412,0.6 0.58797,1.33334 -0.45322,0.73333 -1.08863,1.33333 -1.41202,1.33333 -0.32339,0 -0.58798,-0.6 -0.58798,-1.33333 z m 9.54386,-6.66667 c 0,-1.83333 0.30264,-2.58333 0.67252,-1.66667 0.36988,0.91667 0.36988,2.41667 0,3.33334 -0.36988,0.91666 -0.67252,0.16666 -0.67252,-1.66667 z m 16.09622,-7 c -0.74422,-0.91667 -1.60332,-2.86667 -1.90912,-4.33333 -0.3058,-1.46667 -1.18675,-2.54454 -1.95767,-2.39527 -0.77093,0.14927 -2.12059,-1.30644 -2.99926,-3.23491 -1.57881,-3.4651 -1.54854,-3.45835 2.5762,0.57435 2.29558,2.24435 4.29776,4.90006 4.44927,5.90157 0.15152,1.00151 0.74403,2.57092 1.31669,3.48759 0.57266,0.91667 0.77925,1.66667 0.4591,1.66667 -0.32015,0 -1.191,-0.75 -1.93521,-1.66667 z m -21.64007,-0.17007 c 0,-0.27688 1.05,-1.32688 2.33333,-2.33334 2.11474,-1.65849 2.1619,-1.61133 0.50341,0.50341 -1.74183,2.221 -2.83674,2.9273 -2.83674,1.82993 z m 15.82992,-3.16326 c -1.65849,-2.11475 -1.61133,-2.16191 0.50341,-0.50341 1.28333,1.00646 2.33333,2.05646 2.33333,2.33333 0,1.09738 -1.09491,0.39107 -2.83674,-1.82992 z m -14.86696,-4.40053 c 1.62963,-1.7149 3.22086,-2.85133 3.53608,-2.5254 0.31521,0.32593 -1.01812,1.72902 -2.96297,3.11799 l -3.53608,2.5254 z m 22.48148,-2.26614 c -0.55,-0.55 -1.55,-1.075 -2.22222,-1.16667 -0.67222,-0.0917 -1.80111,-0.24166 -2.50865,-0.33333 -0.70753,-0.0917 -1.96739,-1.43907 -2.79969,-2.99424 -1.06357,-1.9873 -1.07751,-2.55825 -0.0469,-1.92131 0.8065,0.49844 1.46636,0.37085 1.46636,-0.28354 0,-2.07446 3.90294,-1.2848 6.20111,1.25464 1.55471,1.71795 1.70598,2.44445 0.50895,2.44445 -1.36282,0 -1.37149,0.39974 -0.0434,2 1.69222,2.039 1.26051,2.81607 -0.55556,1 z m -2.33333,-3.85963 c -0.24445,-0.59502 -1.22793,-1.19684 -2.18552,-1.33739 -1.36825,-0.20081 -1.39894,0.15672 -0.14334,1.66963 1.59944,1.9272 3.1653,1.70381 2.32886,-0.33224 z M 225.0566,124.39823 c -4.32527,-5.23856 -4.71331,-6.01457 -1.54205,-3.08388 4.3664,4.03517 5.2631,3.82477 2.85734,-0.67044 -2.46439,-4.60476 -0.30081,-2.72192 2.68252,2.33444 1.92388,3.26074 2.19242,4.32704 0.79836,3.17007 -2.7754,-2.30338 -2.69943,-0.28849 0.10602,2.81149 1.21365,1.34108 1.90758,2.43832 1.54204,2.43832 -0.36553,0 -3.26543,-3.15 -6.44423,-7 z m -97.78664,-0.33333 c -0.42211,-1.1 -0.1863,-2 0.52402,-2 0.71032,0 1.29149,0.9 1.29149,2 0,1.1 -0.23581,2 -0.52402,2 -0.28821,0 -0.86938,-0.9 -1.29149,-2 z m 106.18637,-1 c -2.57995,-3.33587 -3.0547,-4.83201 -1.78273,-5.61813 0.71407,-0.44132 2.23926,1.01722 3.38933,3.2412 2.05416,3.97231 0.92233,5.64683 -1.6066,2.37693 z M 122.4188,120.73156 c 0,-0.73333 0.6,-1.33333 1.33333,-1.33333 0.73333,0 1.33333,0.6 1.33333,1.33333 0,0.73334 -0.6,1.33334 -1.33333,1.33334 -0.73333,0 -1.33333,-0.6 -1.33333,-1.33334 z m -8.52482,-4.7778 c -0.4676,-1.21854 0.39763,-4.19235 1.95106,-6.70586 3.19569,-5.17074 3.95218,-5.64345 2.96009,-1.84967 -0.38354,1.46667 -1.22737,2.66667 -1.87517,2.66667 -0.64781,0 -1.17783,0.63541 -1.17783,1.41202 0,0.77661 0.6,1.0412 1.33333,0.58798 1.88576,-1.16546 1.57873,0.89808 -0.55138,3.70585 -1.63875,2.1601 -1.87513,2.17648 -2.6401,0.18301 z m 16.52482,-1.81017 c 0,-0.69006 0.59313,-1.62122 1.31806,-2.06925 0.75581,-0.46712 0.97934,0.0681 0.52401,1.25464 -0.88638,2.30989 -1.84207,2.73252 -1.84207,0.81461 z m -5.12281,-2.74536 c 0,-1.83333 0.30263,-2.58333 0.67252,-1.66667 0.36988,0.91667 0.36988,2.41667 0,3.33334 -0.36989,0.91666 -0.67252,0.16666 -0.67252,-1.66667 z m 3.55296,-6.34037 c -0.74676,-5.087957 0.84315,-8.582537 1.96061,-4.30937 0.4184,1.59997 0.28924,4.18356 -0.28701,5.74133 -0.93352,2.52353 -1.11598,2.36742 -1.6736,-1.43196 z m 4.41809,0.11609 c -0.0999,-0.85669 -0.55518,-2.53123 -1.01182,-3.72119 -0.53963,-1.40627 -0.20068,-2.027817 0.96835,-1.775717 1.00156,0.21598 2.00142,-0.94156 2.25631,-2.61214 0.53609,-3.51368 -1.91275,-4.09495 -2.80865,-0.66667 -0.33537,1.28333 -0.67936,0.29947 -0.76443,-2.18635 -0.14788,-4.32119 2.54656,-8.04337 5.84533,-8.07494 0.73334,-0.007 -0.1577,1.13287 -1.98008,2.53308 -1.82237,1.4002 -2.88687,2.97236 -2.36555,3.49368 0.52132,0.52132 1.97753,0.11236 3.23602,-0.90881 1.98429,-1.61009 2.1279,-1.59116 1.08135,0.14253 -0.66375,1.09956 -1.0337,3.64956 -0.82212,5.66668 0.21158,2.0171 -0.2188,3.667457 -0.95639,3.667457 -0.7376,0 -1.60111,1.35 -1.91892,3 -0.3178,1.65 -0.65953,2.29908 -0.7594,1.44239 z m -9.51491,-3.77572 c 0,-1.1 0.58117,-1.999997 1.29149,-1.999997 0.71032,0 0.94612,0.899997 0.52401,1.999997 -0.42211,1.1 -1.00328,2 -1.29148,2 -0.28821,0 -0.52402,-0.9 -0.52402,-2 z m -4,-1.33333 c 0,-1.099997 0.58117,-1.999997 1.29149,-1.999997 0.71032,0 0.94612,0.9 0.52401,1.999997 -0.42211,1.1 -1.00328,2 -1.29148,2 -0.28821,0 -0.52402,-0.9 -0.52402,-2 z m 83.66667,-0.216377 c 0.91667,-0.36988 2.41667,-0.36988 3.33333,0 0.91667,0.369887 0.16667,0.672517 -1.66666,0.672517 -1.83334,0 -2.58334,-0.30263 -1.66667,-0.672517 z m 33.8772,-1.78362 c 0,-1.83334 0.30263,-2.58334 0.67251,-1.66667 0.36988,0.91667 0.36988,2.41667 0,3.33333 -0.36988,0.916667 -0.67251,0.16667 -0.67251,-1.66666 z m -10.77193,-0.77778 c 0.064,-1.55326 0.37992,-1.8692 0.80555,-0.80556 0.38516,0.9625 0.33779,2.1125 -0.10526,2.55556 -0.44306,0.44305 -0.75819,-0.34445 -0.70029,-1.75 z m -102.66668,-1.33334 c 0.064,-1.55326 0.37993,-1.8692 0.80556,-0.80555 0.38516,0.9625 0.33779,2.1125 -0.10526,2.55556 -0.44306,0.44305 -0.75819,-0.34445 -0.7003,-1.75001 z m 95.3928,0.0596 c -0.45727,-1.1916 -0.79336,-2.86748 -0.74687,-3.72417 0.0465,-0.85669 0.65937,-0.12051 1.36197,1.63596 0.70261,1.75647 1.0387,3.43235 0.74687,3.72417 -0.29182,0.29183 -0.90471,-0.44435 -1.36197,-1.63596 z m -18.41472,-1.52594 c 0.9625,-0.38516 2.1125,-0.33779 2.55555,0.10526 0.44306,0.44306 -0.34444,0.75819 -1.75,0.7003 -1.55325,-0.064 -1.8692,-0.37992 -0.80555,-0.80556 z m -73.75001,-1.75585 c 0.45323,-0.73333 1.08864,-1.33333 1.41203,-1.33333 0.32339,0 0.58798,0.6 0.58798,1.33333 0,0.73333 -0.63542,1.33333 -1.41203,1.33333 -0.77661,0 -1.0412,-0.6 -0.58798,-1.33333 z m 98.10527,0.44238 c -0.0579,-0.85669 -0.45056,-2.65669 -0.8726,-4 -0.7294,-2.32162 -0.69178,-2.32453 0.76103,-0.0588 0.84061,1.31096 1.23328,3.11096 0.8726,4 -0.4733,1.16666 -0.68505,1.18303 -0.76103,0.0588 z m -105.33334,-2.55352 c 0.064,-1.55326 0.37992,-1.8692 0.80556,-0.80556 0.38516,0.9625 0.33779,2.1125 -0.10526,2.55556 -0.44306,0.44305 -0.75819,-0.34445 -0.7003,-1.75 z m 82.22808,1.22807 c 0.91666,-0.36989 2.41666,-0.36989 3.33333,0 0.91667,0.36988 0.16667,0.67251 -1.66667,0.67251 -1.83333,0 -2.58333,-0.30263 -1.66666,-0.67251 z m 26.57059,-4.63425 c -2.12374,-5.406494 -1.79828,-9.243729 0.58212,-6.863334 1.23568,1.235677 3.18736,12.380624 2.16807,12.380624 -0.32062,0 -1.5582,-2.48278 -2.75019,-5.51729 z m 6.22367,0.1848 c -0.77049,-2.88664 -0.93556,-4.960853 -0.36683,-4.609354 1.18021,0.729404 3.09992,8.525604 2.29702,9.328504 -0.29112,0.29111 -1.1597,-1.8325 -1.93019,-4.71915 z m -106.94602,-0.28727 c -0.12759,-2.54347 0.71043,-4.052019 2.81842,-5.073551 2.60763,-1.263659 2.71177,-1.219365 0.79624,0.338668 -1.21207,0.985853 -2.48036,3.268953 -2.81843,5.073553 -0.59971,3.20132 -0.61907,3.19309 -0.79623,-0.33867 z m 110.59036,0.84198 c 0.064,-1.55326 0.37992,-1.8692 0.80555,-0.80555 0.38516,0.9625 0.33779,2.1125 -0.10526,2.55555 -0.44306,0.44306 -0.75819,-0.34444 -0.70029,-1.75 z m -115.43861,-0.55555 c 0.45323,-0.73334 1.08864,-1.33334 1.41203,-1.33334 0.32339,0 0.58797,0.6 0.58797,1.33334 0,0.73333 -0.63541,1.33333 -1.41202,1.33333 -0.77661,0 -1.0412,-0.6 -0.58798,-1.33333 z m 76.41667,-0.91082 c 0.9625,-0.38516 2.1125,-0.3378 2.55556,0.10526 0.44306,0.44306 -0.34444,0.75819 -1.75,0.70029 -1.55326,-0.064 -1.8692,-0.37992 -0.80556,-0.80555 z m 2.66667,-2.66667 c 0.9625,-0.38516 2.1125,-0.33779 2.55556,0.10526 0.44305,0.44306 -0.34445,0.75819 -1.75,0.7003 -1.55326,-0.064 -1.8692,-0.37993 -0.80556,-0.80556 z m -79.09825,-4.299665 c 2.52706,-2.89374 7.34825,-6.170748 7.34825,-4.99468 0,0.30543 -2.25,2.237397 -5,4.293261 -4.09498,3.061354 -4.52003,3.188313 -2.34825,0.701419 z m 85.76492,1.632998 c 0.9625,-0.38516 2.1125,-0.337792 2.55555,0.105264 0.44306,0.443055 -0.34444,0.758187 -1.75,0.700292 -1.55325,-0.06398 -1.8692,-0.37992 -0.80555,-0.805556 z M 118.4188,77.842673 c 0,-0.855556 0.39479,-1.160761 0.87732,-0.678235 0.48253,0.482527 1.83253,0.132527 3,-0.777778 1.87811,-1.464407 1.91184,-1.386265 0.29275,0.678235 -2.09701,2.673894 -4.17007,3.060549 -4.17007,0.777778 z m 11.64444,0.05677 c 0.90445,-0.911225 1.98032,-1.320895 2.39084,-0.910379 0.41052,0.410516 -0.32948,1.156063 -1.64444,1.656772 -1.90027,0.723579 -2.05342,0.570428 -0.7464,-0.746393 z m 5.68889,-3.83455 c 1.1,-0.710875 2.6,-1.292499 3.33334,-1.292499 0.73333,0 0.43333,0.581624 -0.66667,1.292499 -1.1,0.710874 -2.6,1.292499 -3.33333,1.292499 -0.73334,0 -0.43334,-0.581625 0.66666,-1.292499 z M 122.0739,72.60888 c 0.9103,-1.167473 1.25397,-2.523809 0.76369,-3.01408 -0.78997,-0.789975 3.90737,-6.196574 5.38368,-6.196574 0.31936,0 -0.0618,2.531169 -0.84708,5.624819 -0.78526,3.093651 -1.6798,4.868608 -1.98789,3.94435 -0.4476,-1.34281 -1.00295,-1.334401 -2.76383,0.04185 -1.92087,1.501292 -1.99127,1.449914 -0.54857,-0.400362 z m -3.6551,-1.210654 c 0,-0.733333 0.63541,-1.333333 1.41202,-1.333333 0.77661,0 1.0412,0.6 0.58798,1.333333 -0.45323,0.733333 -1.08864,1.333333 -1.41202,1.333333 -0.32339,0 -0.58798,-0.6 -0.58798,-1.333333 z m 12,-1.190682 c 0,-0.654874 0.98486,-1.56861 2.18859,-2.030523 1.82996,-0.702222 1.91245,-0.507114 0.50341,1.190682 -1.92017,2.31366 -2.692,2.554454 -2.692,0.839841 z m 91.53555,-0.475985 c 0.34201,-0.55 2.83642,-1.042171 5.54314,-1.093713 3.96624,-0.07553 4.40379,-0.316099 2.25465,-1.23962 -1.46667,-0.630248 -4.41667,-1.188077 -6.55556,-1.23962 -6.0241,-0.145167 -3.60316,-0.979897 5.22222,-1.8006 4.9698,-0.462158 6.73742,-0.330132 4.66667,0.348563 l -3.33333,1.09251 3.66666,0.132907 c 2.20501,0.07993 3.66667,0.882963 3.66667,2.014479 0,1.356549 -2.19781,2.007629 -7.87648,2.333333 -4.33206,0.248469 -7.59665,0.0018 -7.25464,-0.548239 z M 183.4188,67.848518 c 0.91667,-0.369883 2.41667,-0.369883 3.33333,0 0.91667,0.369883 0.16667,0.672515 -1.66666,0.672515 -1.83334,0 -2.58334,-0.302632 -1.66667,-0.672515 z m 10.66667,0 c 0.91666,-0.369883 2.41666,-0.369883 3.33333,0 0.91667,0.369883 0.16667,0.672515 -1.66667,0.672515 -1.83333,0 -2.58333,-0.302632 -1.66666,-0.672515 z m -58.33334,-3.116959 c 0,-1.466667 0.47232,-2.666667 1.0496,-2.666667 0.57727,0 1.13998,1.2 1.25046,2.666667 0.11049,1.466667 -0.36183,2.666667 -1.04959,2.666667 -0.68776,0 -1.25047,-1.2 -1.25047,-2.666667 z m 51.66667,-0.883041 c 0.91667,-0.369883 2.41667,-0.369883 3.33333,0 0.91667,0.369883 0.16667,0.672515 -1.66666,0.672515 -1.83334,0 -2.58334,-0.302632 -1.66667,-0.672515 z m -41.33559,-1.230329 c -1.0392,-1.0392 0.18003,-7.56813 1.70027,-9.104888 0.71887,-0.72668 0.87954,0.887353 0.39819,4 -0.91545,5.919683 -1.02272,6.180631 -2.09846,5.104888 z m 72.68726,-0.176738 c 2.02675,-0.306473 5.02675,-0.298283 6.66667,0.0182 1.63991,0.316482 -0.0183,0.567233 -3.685,0.557223 -3.66667,-0.01001 -5.00842,-0.268951 -2.98167,-0.575423 z m -44.01834,-1.295659 c 1.28334,-0.33537 3.38334,-0.33537 4.66667,0 1.28333,0.33537 0.23333,0.609764 -2.33333,0.609764 -2.56667,0 -3.61667,-0.274394 -2.33334,-0.609764 z M 136.4188,59.398226 c 0.45322,-0.733334 1.08863,-1.333334 1.41202,-1.333334 0.32339,0 0.58798,0.6 0.58798,1.333334 0,0.733333 -0.63541,1.333333 -1.41202,1.333333 -0.77662,0 -1.04121,-0.6 -0.58798,-1.333333 z m 78.66667,-1.333334 c -2.54448,-1.093398 -2.5292,-1.1502 0.33333,-1.239619 1.65,-0.05154 3,0.506286 3,1.239619 0,0.733334 -0.15,1.291163 -0.33333,1.23962 -0.18333,-0.05154 -1.53333,-0.609371 -3,-1.23962 z m 9.66667,0.392356 c 1.65,-0.317804 4.35,-0.317804 6,0 1.65,0.317804 0.3,0.577826 -3,0.577826 -3.3,0 -4.65,-0.260022 -3,-0.577826 z M 150.4188,56.65287 c 0,-0.776613 0.6,-1.041203 1.33333,-0.587978 0.73334,0.453225 1.33334,1.088635 1.33334,1.412023 0,0.323388 -0.6,0.587977 -1.33334,0.587977 -0.73333,0 -1.33333,-0.63541 -1.33333,-1.412022 z m 20.35871,0.488035 c 1.29729,-0.338058 3.09729,-0.315826 4,0.04941 0.90271,0.365231 -0.15871,0.641824 -2.35871,0.614651 -2.2,-0.02717 -2.93858,-0.325998 -1.64129,-0.664056 z m 64.30796,-0.409346 -6.66667,-0.91439 7,-0.209472 c 3.91743,-0.117227 7,0.377686 7,1.123862 0,0.733333 -0.15,1.239071 -0.33333,1.123862 -0.18333,-0.11521 -3.33333,-0.620947 -7,-1.123862 z m -98,-1.333333 c 2.61116,-1.687464 4.37624,-1.687464 3.33333,0 -0.45323,0.733333 -1.83864,1.324145 -3.07869,1.312916 -1.94303,-0.0176 -1.97823,-0.199051 -0.25464,-1.312916 z m 48.35871,0.409345 c 1.29729,-0.338058 3.09729,-0.315825 4,0.04941 0.90271,0.36523 -0.15871,0.641823 -2.35871,0.61465 -2.2,-0.02717 -2.93858,-0.325998 -1.64129,-0.664056 z m -17.94205,-1.320162 c 0.9625,-0.385161 2.1125,-0.337793 2.55556,0.105263 0.44305,0.443056 -0.34445,0.758187 -1.75,0.700292 -1.55326,-0.06398 -1.8692,-0.37992 -0.80556,-0.805555 z m 49.935,-0.04596 c 2.02675,-0.306473 5.02675,-0.298283 6.66667,0.0182 1.63992,0.316482 -0.0183,0.567232 -3.685,0.557222 -3.66666,-0.01001 -5.00842,-0.26895 -2.98167,-0.575422 z M 190.1688,53.154071 c 0.9625,-0.38516 2.1125,-0.337792 2.55556,0.105264 0.44305,0.443055 -0.34445,0.758187 -1.75,0.700292 -1.55326,-0.06398 -1.8692,-0.37992 -0.80556,-0.805556 z m 21.28525,-2.733843 c 3.13605,-0.28166 7.93605,-0.277698 10.66666,0.0088 2.73062,0.286504 0.16476,0.516953 -5.70191,0.51211 -5.86667,-0.0048 -8.10081,-0.239255 -4.96475,-0.520915 z M 184.4188,46.06489 c 0.45323,-0.733333 1.08864,-1.333333 1.41202,-1.333333 0.32339,0 0.58798,0.6 0.58798,1.333333 0,0.733333 -0.63541,1.333333 -1.41202,1.333333 -0.77661,0 -1.0412,-0.6 -0.58798,-1.333333 z M 85.752128,279.39824 c 0.45323,-0.73334 0.18864,-1.33334 -0.58798,-1.33334 -0.77661,0 -1.41202,0.6 -1.41202,1.33334 0,0.73333 0.26459,1.33333 0.58798,1.33333 0.32339,0 0.9588,-0.6 1.41202,-1.33333 z M 130.4188,278.0649 c 0,-0.73333 -0.63541,-1.33333 -1.41202,-1.33333 -0.77662,0 -1.04121,0.6 -0.58798,1.33333 0.45322,0.73334 1.08863,1.33334 1.41202,1.33334 0.32339,0 0.58798,-0.6 0.58798,-1.33334 z m -60.000002,-2.5781 c 0,-0.68462 1.65,-1.49473 3.66666,-1.80023 2.01667,-0.30549 0.4432,-0.64535 -3.49659,-0.75522 -6.22804,-0.1737 -6.94655,0.0613 -5.50341,1.80022 1.8359,2.21212 5.33334,2.70737 5.33334,0.75523 z m 106.666672,-1.4219 c 1.1,-0.71087 1.4,-1.2925 0.66666,-1.2925 -0.73333,0 -2.23333,0.58163 -3.33333,1.2925 -1.1,0.71088 -1.4,1.2925 -0.66667,1.2925 0.73334,0 2.23334,-0.58162 3.33334,-1.2925 z m -106.666672,-4 -4.66667,-0.98229 5.33333,-0.34241 5.33334,-0.34241 -5.64191,-0.91946 c -8.04621,-1.31129 -8.58175,-2.74676 -1.02476,-2.74676 7.79842,0 7.47815,-0.68054 -0.89163,-1.89461 -5.29969,-0.76874 -6.17757,-0.5801 -5.90616,1.26912 0.17533,1.19464 1.17656,2.7149 2.22496,3.37836 1.5149,0.95869 1.3588,1.22972 -0.7605,1.32043 l -2.66667,0.11413 2.66667,1.1459 c 1.46666,0.63025 4.46666,1.10909 6.66666,1.0641 3.90584,-0.0799 3.89015,-0.10493 -0.66666,-1.0641 z m 33.333332,-4.52401 c 0,-0.28821 -0.9,-0.86938 -2,-1.29149 -1.1,-0.42211 -2.000002,-0.1863 -2.000002,0.52402 0,0.71031 0.900002,1.29148 2.000002,1.29148 1.1,0 2,-0.2358 2,-0.52401 z m 90.66667,-2.80932 c 0,-1.1 -0.23581,-2 -0.52401,-2 -0.28821,0 -0.86938,0.9 -1.29149,2 -0.42211,1.1 -0.1863,2 0.52401,2 0.71032,0 1.29149,-0.9 1.29149,-2 z m -71.02778,-0.13889 c -0.44306,-0.44306 -1.59306,-0.49042 -2.55556,-0.10526 -1.06364,0.42563 -0.7477,0.74157 0.80556,0.80555 1.40556,0.0579 2.19306,-0.25723 1.75,-0.70029 z m 15.69445,-0.52778 c -0.45323,-0.73333 -1.42405,-1.33333 -2.15738,-1.33333 -0.73334,0 -0.96252,0.6 -0.50929,1.33333 0.45322,0.73334 1.42404,1.33334 2.15738,1.33334 0.73333,0 0.96251,-0.6 0.50929,-1.33334 z m -63.651132,-0.9161 c -1.27478,-0.33373 -3.67478,-0.34584 -5.33333,-0.0269 -1.65855,0.31892 -0.61555,0.59197 2.31779,0.60677 2.93333,0.0148 4.29033,-0.24614 3.01554,-0.57986 z m -9.01554,-2.26172 c 0,-1.01447 -1.12394,-2.13841 -2.49764,-2.49764 -1.92094,-0.50234 -2.34683,-0.0764 -1.84449,1.84449 0.7521,2.87604 4.34213,3.41605 4.34213,0.65315 z m 9.66666,-0.42982 c -1.65,-0.31781 -4.35,-0.31781 -6,0 -1.65,0.3178 -0.3,0.57782 3,0.57782 3.3,0 4.65,-0.26002 3,-0.57782 z m 0.0254,-2.60027 c -0.90271,-0.36523 -2.70271,-0.38747 -4,-0.0494 -1.29729,0.33806 -0.5587,0.63688 1.6413,0.66406 2.2,0.0272 3.26141,-0.24942 2.3587,-0.61465 z m 56.123472,-1.12542 c -0.42211,-1.1 -1.28445,-2 -1.91631,-2 -0.63186,0 -0.80347,0.9 -0.38136,2 0.42211,1.1 1.28445,2 1.91631,2 0.63186,0 0.80347,-0.9 0.38136,-2 z m -53.815512,-1.70078 c 0.36667,-0.37007 -2.63333,-0.30411 -6.66666,0.14658 -4.09881,0.45801 -6.5485,0.32795 -5.55396,-0.29486 1.36184,-0.85283 1.16045,-1.27616 -0.85826,-1.80407 -2.41702,-0.63206 -2.73827,0.13454 -1.6898,4.03239 0.16463,0.61205 14.03721,-1.34177 14.76868,-2.08004 z m -2.30796,-2.50714 c -0.90271,-0.36523 -2.70271,-0.38746 -4,-0.0494 -1.29729,0.33806 -0.5587,0.63688 1.6413,0.66405 2.2,0.0272 3.26141,-0.24942 2.3587,-0.61465 z m -7.02537,-0.96991 c 0,-0.28113 -1.20083,-0.82518 -2.66851,-1.20898 -1.46768,-0.38381 -2.33227,-0.15379 -1.92131,0.51115 0.71767,1.16121 4.58982,1.74993 4.58982,0.69783 z m 1.66666,-3.03855 c -0.91666,-0.36988 -2.41666,-0.36988 -3.33333,0 -0.91667,0.36989 -0.16667,0.67252 1.66667,0.67252 1.83333,0 2.58333,-0.30263 1.66666,-0.67252 z m 83.244152,-3.36696 c -0.42563,-1.06364 -0.74157,-0.7477 -0.80555,0.80556 -0.0579,1.40556 0.25724,2.19306 0.70029,1.75 0.44306,-0.44306 0.49043,-1.59306 0.10526,-2.55556 z m 22.32883,1.73492 c 0.4017,-0.64996 -0.46289,-1.49378 -1.92131,-1.87517 -2.60824,-0.68207 -3.50722,0.42359 -1.76278,2.16803 1.2353,1.2353 2.81737,1.10954 3.68409,-0.29286 z m -98.887982,-1.09016 c -1.63991,-0.31648 -4.63991,-0.32467 -6.66666,-0.0182 -2.02675,0.30648 -0.685,0.56542 2.98167,0.57543 3.66666,0.01 5.32491,-0.24074 3.68499,-0.55723 z m 73.892492,-1.97809 c -0.42564,-1.06364 -0.74158,-0.7477 -0.80556,0.80556 -0.0579,1.40555 0.25724,2.19305 0.70029,1.75 0.44306,-0.44306 0.49043,-1.59306 0.10527,-2.55556 z m 7.08918,-1.16202 c 0,-0.69006 -0.6,-1.25465 -1.33333,-1.25465 -0.73334,0 -1.33334,0.93541 -1.33334,2.07869 0,1.14328 0.6,1.70787 1.33334,1.25465 0.73333,-0.45323 1.33333,-1.38864 1.33333,-2.07869 z m 10.77469,-1.0528 c -2.18156,-4.07628 -1.89422,-6.23754 0.55864,-4.20185 1.1,0.91292 2,2.39008 2,3.28258 0,0.89249 1.62561,2.36339 3.61246,3.26867 3.1052,1.41481 3.85411,1.31547 5.33334,-0.70749 0.94648,-1.29439 1.72087,-2.91604 1.72087,-3.60366 0,-0.68763 2.16859,-3.65059 4.81908,-6.58437 4.2625,-4.71808 4.73753,-5.94216 4.113,-10.59843 -0.38835,-2.89535 -1.75326,-6.42138 -3.03313,-7.83563 -1.27988,-1.41424 -2.08072,-2.74927 -1.77966,-2.96672 0.30106,-0.21746 2.22602,-1.44638 4.2777,-2.73094 9.2853,-5.81355 11.78805,-18.21076 5.03891,-24.9599 -2.14359,-2.14359 -4.82248,-3.89744 -5.95309,-3.89744 -3.45727,0 -4.53084,-4.20028 -3.81963,-14.94406 l 0.68033,-10.27739 5.92033,-0.88781 c 5.09646,-0.76426 6.19636,-0.49373 7.90385,1.94406 2.31036,3.29849 11.21946,3.98016 13.65556,1.04483 3.69031,-4.44655 9.51009,-17.20859 9.51009,-20.85444 0,-4.30655 -3.98787,-9.35853 -7.38733,-9.35853 -1.12969,0 -3.78144,-1.27715 -5.89276,-2.83812 -5.12348,-3.78795 -11.09886,-2.5973 -10.48473,2.08918 0.22743,1.73553 -0.72544,4.41403 -2.11749,5.95222 -1.39608,1.54266 -1.84046,2.79672 -0.99101,2.79672 0.84699,0 1.53998,-0.6 1.53998,-1.33333 0,-0.73333 0.644,-1.33333 1.4311,-1.33333 0.7871,0 1.22889,1.05 0.98174,2.33333 -0.63969,3.32164 -5.71044,3.03429 -5.88209,-0.33333 -0.28724,-5.63544 -0.43187,-5.75951 -5.86408,-5.0309 l -5.33334,0.71535 v -7.66621 c 0,-6.61673 0.54759,-8.28987 4,-12.22195 3.29569,-3.75358 4,-5.72144 4,-11.176027 0,-6.44642 -3.05971,-11.9536 -6.64126,-11.9536 -0.71936,0 -1.69995,-1.650001 -2.17908,-3.666668 -1.2998,-5.470851 -4.42207,-8.333334 -9.08963,-8.333334 -5.98719,0 -9.54152,3.078892 -11.21176,9.712048 -0.80293,3.188724 -2.67901,6.900984 -4.16907,8.249464 -3.9636,3.58701 -3.79275,13.931647 0.2908,17.607387 1.65,1.48522 3.96153,3.03703 5.13673,3.44846 1.62962,0.57052 2.19363,2.81617 2.37646,9.46203 0.26931,9.789 -0.33848,10.51865 -9.98687,11.98938 -4.44349,0.67733 -5.92532,0.33531 -7.87332,-1.8172 -1.3198,-1.45836 -3.95663,-2.64932 -5.85964,-2.64658 -5.13546,0.007 -11.91453,4.68302 -12.98167,8.95366 -0.50961,2.03941 -2.62571,5.29875 -4.70245,7.24297 -5.4615,5.11299 -4.97389,9.52985 1.87483,16.98261 6.00831,6.53822 9.7164,9.038 13.40668,9.038 3.529,0 2.69187,-1.72641 -1.72407,-3.55556 -3.83951,-1.59038 -5.44593,-4 -2.66667,-4 0.73334,0 1.33334,0.6 1.33334,1.33334 0,0.73333 1.5,1.33333 3.33333,1.33333 2.07407,0 3.33333,0.75555 3.33333,2 0,1.1 0.40276,2 0.89501,2 1.97768,0 5.77165,-4.56986 5.77165,-6.95201 0,-1.39629 0.6,-2.16788 1.33333,-1.71466 0.75736,0.46807 1.40015,-0.79389 1.488,-2.92131 0.1181,-2.85975 0.31823,-3.11481 0.84639,-1.07869 l 0.69173,2.66667 1.05989,-2.66667 c 0.76013,-1.91246 1.0864,-2.07205 1.15361,-0.56426 0.0698,1.56486 1.11645,1.95231 4.09372,1.51534 l 4,-0.58708 v 11.21682 11.21681 l -4.71688,1.70565 c -6.92229,2.50313 -11.37403,9.86779 -10.3748,17.16339 0.42687,3.11667 1.25669,5.66667 1.84405,5.66667 0.58736,0 1.4597,1.23437 1.93853,2.74304 0.47884,1.50868 2.31927,3.29383 4.08985,3.967 3.15132,1.19813 4.49002,3.95662 1.92015,3.95662 -2.23326,0 -5.63037,8.10476 -4.79395,11.43732 0.96397,3.84077 7.4999,10.1512 9.65754,9.32434 0.86046,-0.32975 2.21317,1.26128 3.00601,3.53561 0.79284,2.27434 1.78743,3.78925 2.2102,3.36647 0.42278,-0.42277 0.12007,-1.98062 -0.67268,-3.46189 z m -6.9539,-7.55039 c -5.48477,-2.98 -6.66135,-12.60946 -1.77003,-14.48643 2.3273,-0.89308 2.42813,-0.21786 0.50425,3.37693 -1.74604,3.26252 0.73553,10.45804 3.60675,10.45804 1.01103,0 1.83824,0.6 1.83824,1.33334 0,1.63286 0.11594,1.65177 -4.17921,-0.68188 z m 6.84588,-0.65146 c -3.5969,-3.59689 -3.4078,-9.50557 0.41926,-13.10091 3.83864,-3.60621 6.80631,-3.67352 10.2474,-0.23242 3.4275,3.4275 3.39166,8.05204 -0.0968,12.48686 -3.29833,4.19315 -6.9322,4.48416 -10.56989,0.84647 z m 12,-6.55447 c 0,-1.24805 -0.86486,-3.43386 -1.92191,-4.85735 -1.53513,-2.06731 -2.40721,-2.29244 -4.33333,-1.11867 -1.32629,0.80822 -2.61898,2.90822 -2.87265,4.66666 -0.25367,1.75844 -0.0322,2.77574 0.49207,2.26066 0.5243,-0.51508 1.79921,-0.0906 2.83313,0.94335 2.31583,2.31582 5.80269,1.17732 5.80269,-1.89465 z M 169.91882,208.5649 c -0.45833,-2.29167 -0.83333,-5.51887 -0.83333,-7.17157 0,-2.0964 -1.23658,-3.51711 -4.08999,-4.69904 -2.95388,-1.22353 -3.60202,-1.9979 -2.33333,-2.78774 1.41849,-0.88309 1.43581,-1.61131 0.09,-3.78288 -2.35547,-3.80068 -2.11849,-4.16455 1.75347,-2.69244 1.88107,0.71519 3.68107,1.30034 4,1.30034 0.31893,0 0.57987,-7.8 0.57987,-17.33334 V 154.0649 h -6 c -5.72385,0 -6,-0.17695 -6,-3.84449 0,-3.98872 2.37179,-5.43041 9,-5.47064 1.8601,-0.0113 3,-0.83306 3,-2.16275 0,-1.59683 -0.81582,-1.93979 -3.19433,-1.34282 -2.2132,0.55548 -3.44178,0.15685 -4,-1.29784 -1.5911,-4.14636 -0.73666,-5.82301 3.52766,-6.92215 2.99621,-0.77228 4.4648,-2.01831 4.7594,-4.03812 0.23434,-1.60666 0.91436,-2.92119 1.51116,-2.92119 0.5968,0 1.42523,-1.35 1.84095,-3 0.73002,-2.89744 0.68975,-2.91152 -1.17783,-0.41183 -1.78652,2.39121 -1.93368,2.13254 -1.93368,-3.39893 0,-5.98424 0.002,-5.98686 4.38573,-5.4751 4.12912,0.48205 4.35465,0.77823 3.85455,5.06198 -0.29215,2.50249 -0.15412,6.05231 0.30673,7.8885 0.70325,2.80194 1.53025,3.2847 5.14546,3.00362 3.81621,-0.29671 4.35606,0.0876 4.73302,3.36899 0.35626,3.10123 -0.24036,3.93602 -3.66667,5.13044 -6.06591,2.11458 -4.96027,4.02228 2.06662,3.56577 5.77811,-0.37538 6.18347,-0.18361 6.55823,3.10266 0.36332,3.18584 -0.21967,3.66839 -6.44336,5.33333 l -6.84282,1.83057 0.40488,18 c 0.41195,18.31398 1.21315,21.33333 5.66089,21.33333 2.07227,0 2.50341,1.0173 2.50341,5.90693 v 5.90692 l -4.24503,-1.21745 c -5.27398,-1.51256 -5.70098,-1.08381 -5.43993,5.46236 0.20447,5.12758 0.0869,5.27458 -4.21902,5.27458 -3.89421,0 -4.53004,-0.50341 -5.26269,-4.16667 z m 4.11674,-2.55049 c 0.16222,-2.31536 -0.2654,-3.70599 -1,-3.25199 -1.50412,0.9296 -1.75159,7.30372 -0.28341,7.29983 0.55,-0.001 1.12754,-1.82298 1.28341,-4.04784 z m 5.66241,-15.26827 c -0.0298,-0.74135 -1.82981,0.72943 -4,3.26839 -4.41163,5.16127 -5.45064,4.38405 -1.26048,-0.94287 1.47694,-1.87762 2.37074,-3.72846 1.98623,-4.11298 -0.38452,-0.38451 -1.50992,0.40972 -2.5009,1.76497 -2.01827,2.76015 -6.17067,3.8824 -6.17067,1.66772 0,-0.79067 -0.40633,-1.03125 -0.90297,-0.53461 -0.49663,0.49663 0.44405,2.1579 2.09041,3.69172 1.80364,1.68035 2.68289,3.66201 2.2122,4.98592 -0.42964,1.20844 1.32968,-0.19628 3.9096,-3.12159 2.57992,-2.92532 4.66638,-5.92532 4.63658,-6.66667 z m 2.62234,4.10413 c 0.85873,-1.03471 1.05229,-2.1959 0.43012,-2.58042 -0.62216,-0.38452 -1.85638,0.46206 -2.74271,1.88129 -1.85207,2.96564 -0.0265,3.51754 2.31259,0.69913 z m -7.05287,-19.70833 c 0.10008,-6.45904 -0.0345,-11.74371 -0.29909,-11.74371 -0.26458,0 -1.48917,1.95 -2.72133,4.33334 -2.0615,3.98753 -2.06424,4.1873 -0.0342,2.5034 1.21332,-1.00646 2.20604,-1.22992 2.20604,-0.49659 0,0.73333 -0.9,2.08027 -2,2.99319 -1.1,0.91291 -2,2.25985 -2,2.99318 0,0.73334 0.99823,0.50987 2.21829,-0.49659 2.02195,-1.66796 2.06918,-1.55015 0.53365,1.33098 -1.05483,1.97915 -1.13644,2.82208 -0.2183,2.25464 2.16128,-1.33574 1.7837,0.87137 -0.77368,4.52254 -2.10784,3.00937 -2.10411,3.14594 0.0633,2.31423 2.1212,-0.81398 2.14019,-0.65093 0.24004,2.06191 -1.13482,1.62018 -2.03184,3.56229 -1.99337,4.31578 0.0385,0.7535 1.08846,-0.0953 2.33333,-1.8863 1.66731,-2.39872 2.31132,-6.34913 2.44535,-15 z m 4.03442,-2.74371 c -0.36988,-0.91666 -0.67251,-0.16666 -0.67251,1.66667 0,1.83333 0.30263,2.58333 0.67251,1.66667 0.36988,-0.91667 0.36988,-2.41667 0,-3.33334 z m -6.74416,-9.78554 c -0.39027,-1.01702 -0.0168,-1.70633 0.82992,-1.5318 0.84672,0.17454 1.78281,-0.80372 2.08019,-2.1739 0.39143,-1.80353 0.0452,-2.19296 -1.25415,-1.41072 -1.40768,0.84744 -1.467,0.66579 -0.27502,-0.84209 0.8359,-1.05744 1.5109,-3.52372 1.5,-5.48063 -0.0154,-2.75968 -0.58224,-3.4497 -2.52644,-3.07528 -2.10751,0.40587 -2.2858,0.0701 -1.11976,-2.10865 1.72663,-3.22623 2.84547,-3.3993 1.66823,-0.25806 -0.79329,2.11673 -0.64187,2.14768 1.63112,0.33334 1.40163,-1.11881 2.06988,-1.27452 1.51669,-0.35341 -0.73971,1.23168 0.11973,1.43923 3.41073,0.82368 6.36456,-1.19043 8.24314,-3.53709 2.20987,-2.76051 -5.4282,0.6987 -8.64171,-0.6191 -7.19963,-2.95243 0.52375,-0.84745 0.20605,-2.43996 -0.706,-3.53891 -1.25604,-1.51344 -1.28389,-2.3725 -0.11479,-3.5416 1.09536,-1.09536 1.54349,-1.11321 1.54349,-0.0615 0,1.88603 3.51588,1.40615 5.68017,-0.77528 1.32,-1.33045 0.91422,-1.53362 -2.0135,-1.00813 -2.29432,0.41181 -3.68254,0.0674 -3.70907,-0.92024 -0.0233,-0.8681 -0.94412,-0.38525 -2.04621,1.073 -1.1021,1.45825 -2.73301,2.65825 -3.62426,2.66667 -0.89125,0.008 -1.75587,0.61529 -1.92138,1.34863 -0.1655,0.73333 0.79258,1.2691 2.12907,1.19059 3.03434,-0.17825 2.78887,4.27741 -0.51331,9.31718 -2.23388,3.40932 -1.61455,4.32332 2.45093,3.61709 0.60451,-0.10501 0.61365,0.57393 0.0203,1.50877 -1.56702,2.46892 -1.75724,14.50592 -0.21416,13.55225 0.7021,-0.43392 0.95723,-1.62106 0.56696,-2.63809 z m -5.47221,-15.51418 c 0.88889,-0.88889 0.22222,-1.0112 -2,-0.36695 -1.83334,0.53152 -3.93334,1.56639 -4.66667,2.29972 -0.88889,0.88889 -0.22222,1.01121 2,0.36695 1.83333,-0.53151 3.93333,-1.56638 4.66667,-2.29972 z m -11.03666,55.55745 c -3.94605,-2.76391 -4.11624,-11.1344 -0.29668,-14.59106 1.51226,-1.36857 2.66667,-1.74663 2.66667,-0.87332 0,0.84699 -0.6,1.53999 -1.33333,1.53999 -0.73334,0 -1.33334,0.63541 -1.33334,1.41202 0,0.77661 0.6,1.0412 1.33334,0.58798 1.90905,-1.17986 1.65017,0.22472 -0.80732,4.38024 -1.96532,3.32327 -1.96532,3.40776 0,1.03158 1.62889,-1.96942 2.14065,-2.11286 2.14065,-0.6 0,1.0935 -0.75,2.7962 -1.66667,3.78378 -1.33333,1.43649 -1.33333,1.60742 0,0.85465 1.00549,-0.56768 1.66667,-0.16041 1.66667,1.02661 0,1.08217 0.75,2.27021 1.66667,2.6401 0.91666,0.36988 1.05017,0.71988 0.29667,0.77777 -0.75349,0.0579 -2.70349,-0.82876 -4.33333,-1.97034 z m 31.65915,-14.64429 c -1.5583,-1.87764 -0.33565,-5.94677 1.78683,-5.94677 0.97499,0 0.92777,0.52957 -0.14266,1.6 -2.22115,2.22115 -2.0168,4.40577 0.23715,2.53516 1.43585,-1.19166 1.97837,-0.98462 2.48373,0.94785 0.73639,2.81599 -2.25378,3.40769 -4.36505,0.86376 z M 145.75215,166.0649 c 0.45323,-0.73333 1.08864,-1.33333 1.41203,-1.33333 0.32338,0 0.58797,0.6 0.58797,1.33333 0,0.73333 -0.63541,1.33333 -1.41202,1.33333 -0.77661,0 -1.04119,-0.6 -0.58798,-1.33333 z m -9.99999,-8 c -3.40474,-3.40474 -3.52729,-10.80784 -0.22834,-13.79335 1.34107,-1.21366 4.32724,-2.20665 6.63593,-2.20665 4.85708,0 7.82155,3.5634 8.93183,10.73636 0.43345,2.80032 0.29979,3.67323 -0.34197,2.23346 -0.92086,-2.06587 -1.35331,-1.856 -3.4342,1.66667 -2.83051,4.79169 -7.57555,5.35121 -11.56325,1.36351 z m 9.22222,-0.48606 c -0.30555,-0.26734 -2.05555,-1.26557 -3.88888,-2.2183 -3.04907,-1.5845 -3.17728,-1.54305 -1.50341,0.48607 1.00646,1.22006 2.75646,2.21829 3.88889,2.21829 1.13243,0 1.80896,-0.21873 1.5034,-0.48606 z m 2.11111,-7.38689 c 0,-8.65955 -6.87572,-8.7532 -9.32813,-0.12705 -0.92846,3.26576 -0.90264,3.27928 1.27399,0.66666 1.38134,-1.65801 2.02552,-1.92109 1.70309,-0.69553 -0.67389,2.56144 1.79896,5.39245 4.35106,4.98126 1.31936,-0.21258 1.99999,-1.8547 1.99999,-4.82534 z m -21.13407,5.42646 c -1.83664,-2.02947 -1.95923,-3.17747 -0.71916,-6.73473 1.68343,-4.82908 2.77513,-4.55778 3.34982,0.83248 0.28958,2.71609 0.0669,3.14496 -0.86634,1.6688 -0.69084,-1.0927 -1.26527,-1.51562 -1.27649,-0.93982 -0.0112,0.5758 0.94858,2.5258 2.13292,4.33334 2.50557,3.82397 0.62516,4.42662 -2.62075,0.83993 z m 76.02296,-3.77573 c -1.64281,-1.64281 -0.94936,-3.4873 0.77777,-2.0688 0.91667,0.75286 3.16667,1.64462 5,1.98168 2.95365,0.54304 2.86505,0.63354 -0.77777,0.79443 -2.26111,0.0999 -4.51111,-0.21842 -5,-0.70731 z m 2.43445,-7.53 c -1.09451,-1.56262 -1.99001,-3.55763 -1.99001,-4.43335 0,-0.87571 -0.75,-1.94221 -1.66667,-2.36999 -1.33333,-0.62222 -1.33333,-0.93333 0,-1.55555 0.91667,-0.42778 1.71404,-2.37778 1.77193,-4.33334 0.0579,-1.95555 0.40756,-2.80658 0.77702,-1.89118 0.41941,1.03918 1.9026,1.35545 3.94846,0.84197 4.52414,-1.13548 8.5026,2.70312 8.5026,8.20372 0,4.60026 -1.5506,6.46826 -6.34333,7.64182 -2.1161,0.51815 -3.60099,-0.10672 -5,-2.1041 z m 9.49061,-9.67808 c -1.1703,-3.04977 -4.24995,-2.20144 -6.00692,1.65468 -1.4423,3.16551 -1.3924,3.368 0.45265,1.83674 1.72322,-1.43014 2.07365,-1.37418 2.07365,0.33117 0,1.12869 0.75,2.30884 1.66667,2.62257 1.82925,0.62605 2.97088,-3.43026 1.81395,-6.44516 z m -79.48061,2.35053 c 0,-2.07423 4.99998,-4.54682 7.73654,-3.82588 1.89369,0.49889 1.84497,0.62158 -0.29822,0.75098 -1.40892,0.0851 -3.65892,1.14766 -5,2.36132 -1.37464,1.24403 -2.43832,1.55532 -2.43832,0.71358 z m 67.47601,-10.68937 c -0.429,-0.69412 0.1279,-2.01553 1.23755,-2.93645 2.71507,-2.25331 3.48711,-1.19617 1.30542,1.78747 -0.96964,1.32607 -2.11398,1.84311 -2.54297,1.14898 z m -20.80935,-21.42154 c 0,-0.65488 0.94907,-1.55488 2.10905,-2 3.2617,-1.25164 3.69267,-0.98027 1.89095,1.19068 -1.83954,2.2165 -4,2.65363 -4,0.80932 z m -21.36631,-2.87093 c -1.84351,-3.444627 -1.17481,-10.888717 1.04356,-11.617017 1.30093,-0.42711 1.35815,0.28863 0.25505,3.19 -1.26441,3.32565 -1.03187,4.02501 2.09594,6.30346 2.69221,1.961127 3.10186,2.826677 1.74495,3.686887 -2.66772,1.69119 -3.53968,1.42596 -5.1395,-1.56333 z m 7.43031,-3.399497 c -1.50817,-8.03923 2.6651,-12.20709 9.74996,-9.73729 8.5171,2.96908 5.91794,12.498827 -3.65803,13.412047 -5.03682,0.48033 -5.3476,0.29287 -6.09193,-3.674757 z m 12.91558,-1.05194 c 1.36829,-2.077 1.27883,-2.62928 -0.90149,-5.56545 -1.50937,-2.03263 -2.42248,-2.28153 -4.25398,-1.15958 -1.28263,0.78572 -2.59561,2.21924 -2.91773,3.18559 -0.34816,1.04449 0.0252,1.37948 0.92064,0.82605 0.82847,-0.51202 1.50631,-0.64461 1.50631,-0.29464 0,0.34997 0.40417,1.68954 0.89815,2.97684 0.70025,1.82482 0.39121,2.146 -1.40259,1.45765 -1.41863,-0.54438 -1.97556,-0.35673 -1.4526,0.48943 0.97936,1.584627 6.15664,0.28006 7.60329,-1.91589 z M 166.42701,81.894821 c -0.009,-3.679258 1.56114,-5.502557 5.99179,-6.959552 2.45883,-0.80857 2.48702,-0.736921 0.3617,0.919269 -1.26773,0.987903 -3.21404,3.539375 -4.32512,5.669939 l -2.02015,3.873756 z m 6.69929,-0.496593 c 0,-0.733333 0.58163,-2.233333 1.2925,-3.333333 0.71087,-1.1 1.2925,-1.4 1.2925,-0.666667 0,0.733334 -0.58163,2.233334 -1.2925,3.333334 -0.71087,1.1 -1.2925,1.4 -1.2925,0.666666 z M 72.085458,241.18186 c -0.91666,-0.36988 -2.41666,-0.36988 -3.33333,0 -0.91667,0.36988 -0.16667,0.67251 1.66667,0.67251 1.83333,0 2.58333,-0.30263 1.66666,-0.67251 z m 79.666672,-4.60989 c 0,-0.94484 -0.85887,-0.54788 -1.95759,0.90476 -2.5687,3.39613 -2.59829,5.33453 -0.0424,2.77865 1.1,-1.1 2,-2.75754 2,-3.68341 z m -85.694442,3.35404 c -0.44306,-0.44305 -1.59306,-0.49042 -2.55556,-0.10526 -1.06364,0.42563 -0.7477,0.74158 0.80556,0.80555 1.40555,0.0579 2.19305,-0.25723 1.75,-0.70029 z m 87.951762,-4.16907 c -0.33805,-1.29729 -0.63688,-0.55871 -0.66405,1.64129 -0.0272,2.2 0.24942,3.26142 0.61465,2.35871 0.36523,-0.90271 0.38746,-2.70271 0.0494,-4 z m -80.590652,1.36698 c -1.65,-0.3178 -4.35,-0.3178 -6,0 -1.65,0.31781 -0.3,0.57783 3,0.57783 3.3,0 4.65,-0.26002 3,-0.57783 z m -9,-5.72569 c -1.46667,-0.63024 -3.56667,-1.1459 -4.66667,-1.1459 -1.26064,0 -1.01418,0.42362 0.66667,1.1459 1.46666,0.63025 3.56666,1.14591 4.66666,1.14591 1.26064,0 1.01419,-0.42362 -0.66666,-1.14591 z m 13.71589,-6 c -0.31893,-2.22312 -1.7132,-2.79571 -8.38256,-3.44252 -4.4,-0.42672 -6.5,-0.94675 -4.66667,-1.15562 1.94553,-0.22165 -0.51056,-1.14334 -5.89923,-2.21379 -8.64943,-1.7182 -13.58338,-1.57854 -7.95827,0.22525 1.38829,0.44519 3.72417,1.3708 5.19084,2.05693 2.12696,0.99502 1.85711,1.10531 -1.33334,0.54494 -2.2,-0.38641 -5.71392,-0.97749 -7.80872,-1.31351 -2.09479,-0.33602 -4.49479,-1.11408 -5.33333,-1.72903 -2.34956,-1.72306 -8.85795,-4.33445 -8.85795,-3.55411 0,1.74119 17.09873,8.52686 23.50227,9.32693 3.92382,0.49025 6.83366,1.37766 6.46632,1.97204 -0.83014,1.34319 2.17803,1.94916 9.67612,1.94916 5.02571,0 5.73675,-0.35084 5.40452,-2.66667 z m 7.50839,1.19069 c 3.36834,-1.29256 2.43868,-3.05626 -1.45329,-2.75711 -1.95929,0.1506 -3.80929,1.01465 -4.11111,1.92012 -0.58634,1.75902 2.10618,2.16403 5.5644,0.83699 z m 6.10905,-4.52402 c 0,-0.73333 -0.6,-1.33333 -1.33333,-1.33333 -0.73333,0 -1.33333,0.6 -1.33333,1.33333 0,0.73333 0.6,1.33333 1.33333,1.33333 0.73333,0 1.33333,-0.6 1.33333,-1.33333 z m -19.33333,-4 c -0.45323,-0.73333 -1.53864,-1.32415 -2.41203,-1.31292 -0.95415,0.0123 -0.78969,0.53631 0.41203,1.31292 2.5615,1.65537 3.02307,1.65537 2,0 z m 72.222222,-3.33333 c 0,-1.1 -0.5,-2 -1.11111,-2 -1.33162,0 -1.46507,1.86826 -0.22222,3.11111 1.23589,1.23589 1.33333,1.15469 1.33333,-1.11111 z m 6.68241,-4.63385 c 0.21531,-1.41082 -0.0757,-2.85384 -0.64667,-3.20672 -0.57097,-0.35288 -1.18116,1.23545 -1.35597,3.52963 -0.33334,4.37476 1.32657,4.10712 2.00264,-0.32291 z m -91.571302,1.30051 c 0,-0.73333 -0.63541,-1.33333 -1.41202,-1.33333 -0.77661,0 -1.0412,0.6 -0.58798,1.33333 0.45323,0.73334 1.08864,1.33334 1.41202,1.33334 0.32339,0 0.58798,-0.6 0.58798,-1.33334 z m 6.30556,0.52778 c -0.44306,-0.44305 -1.59306,-0.49042 -2.55556,-0.10526 -1.06364,0.42563 -0.7477,0.74158 0.80556,0.80555 1.40555,0.0579 2.19305,-0.25723 1.75,-0.70029 z m -13.63889,-3.19444 c -0.45323,-0.73334 -1.42405,-1.33334 -2.15738,-1.33334 -0.73334,0 -0.96251,0.6 -0.50929,1.33334 0.45323,0.73333 1.42405,1.33333 2.15738,1.33333 0.73333,0 0.96251,-0.6 0.50929,-1.33333 z m 23.22222,0.85423 c -0.30556,-0.2635 -2.35556,-0.88173 -4.55556,-1.37383 -2.92122,-0.65344 -3.46061,-0.52973 -2,0.45868 1.8005,1.21841 7.89354,2.069 6.55556,0.91515 z m -16.88889,-3.07061 c -0.91667,-0.36988 -2.41667,-0.36988 -3.33333,0 -0.91667,0.36989 -0.16667,0.67252 1.66666,0.67252 1.83334,0 2.58334,-0.30263 1.66667,-0.67252 z m 86.333342,-0.45029 c 0,-0.73333 -0.6,-1.33333 -1.33334,-1.33333 -0.73333,0 -1.33333,0.6 -1.33333,1.33333 0,0.73333 0.6,1.33333 1.33333,1.33333 0.73334,0 1.33334,-0.6 1.33334,-1.33333 z m -66.000012,-1.33333 c 0.48077,-0.7779 -0.87504,-1.33334 -3.25464,-1.33334 -2.24328,0 -4.07869,0.6 -4.07869,1.33334 0,0.73333 1.46459,1.33333 3.25465,1.33333 1.79005,0 3.62546,-0.6 4.07868,-1.33333 z m -4.21697,-5 c 0.33388,-0.55 -2.48071,-1.06431 -6.25465,-1.14291 -4.58546,-0.0955 -5.97709,0.20515 -4.19504,0.90629 3.48102,1.3696 9.67673,1.50989 10.44969,0.23662 z m 4.15031,-4.50548 c 0.74385,-0.68192 -0.44937,-1.16119 -2.89095,-1.16119 -2.28669,0 -5.25669,-0.3566 -6.6,-0.79244 -2.03127,-0.65906 -2.10574,-0.55028 -0.44239,0.64625 1.77778,1.27883 1.77778,1.43742 0,1.4273 -1.1,-0.006 -4.29753,-0.54461 -7.10563,-1.19633 -2.80809,-0.65171 -4.71191,-0.7874 -4.23071,-0.30152 0.48121,0.48587 3.67874,1.54691 7.10563,2.35785 6.33692,1.49958 11.87745,1.11627 14.16405,-0.97992 z m 68.310822,-0.0779 c -0.42564,-1.06364 -0.74158,-0.7477 -0.80556,0.80556 -0.0579,1.40555 0.25724,2.19305 0.70029,1.75 0.44306,-0.44306 0.49043,-1.59306 0.10527,-2.55556 z m -15.57749,-3.75 c 1.13909,-2.1284 1.01399,-2.66666 -0.61975,-2.66666 -1.15803,0 -2.04691,1.15802 -2.04691,2.66666 0,1.46667 0.27888,2.66667 0.61975,2.66667 0.34087,0 1.26198,-1.2 2.04691,-2.66667 z m -59.333332,-2.66666 c -3.66545,-1.5751 -5.77062,-1.5751 -3.33334,0 1.1,0.71087 2.9,1.25951 4,1.2192 1.31874,-0.0483 1.09166,-0.46363 -0.66666,-1.2192 z m 5,-2.21638 c -0.91667,-0.36988 -2.41667,-0.36988 -3.33334,0 -0.91666,0.36988 -0.16666,0.67252 1.66667,0.67252 1.83333,0 2.58333,-0.30264 1.66667,-0.67252 z m 62.333332,-0.45029 c 0,-0.73333 -0.6,-1.33333 -1.33333,-1.33333 -0.73333,0 -1.33333,0.6 -1.33333,1.33333 0,0.73333 0.6,1.33333 1.33333,1.33333 0.73333,0 1.33333,-0.6 1.33333,-1.33333 z m -70.000002,-1.26091 c -2.47847,-0.99772 -2.43142,-1.11154 0.66667,-1.61288 l 3.33333,-0.5394 -3.51736,-0.74663 c -3.28869,-0.6981 -3.75713,-0.005 -2.58465,3.82649 0.0561,0.18333 1.15201,0.29116 2.43534,0.23962 1.98133,-0.0796 1.93104,-0.25566 -0.33333,-1.1672 z m 62.972222,0.45535 c -0.44305,-0.44305 -1.59305,-0.49042 -2.55555,-0.10526 -1.06365,0.42564 -0.7477,0.74158 0.80555,0.80556 1.40556,0.0579 2.19306,-0.25724 1.75,-0.7003 z m 9.27193,-2.11111 c -0.42563,-1.06364 -0.74157,-0.7477 -0.80555,0.80556 -0.0579,1.40555 0.25724,2.19305 0.70029,1.75 0.44306,-0.44306 0.49043,-1.59306 0.10526,-2.55556 z m 5.75585,1.66203 c 0,-0.69006 -0.5,-1.56367 -1.11111,-1.94135 -0.61111,-0.37769 -1.11111,0.1869 -1.11111,1.25464 0,1.06774 0.5,1.94135 1.11111,1.94135 0.61111,0 1.11111,-0.56459 1.11111,-1.25464 z m -16,-3.55468 c 0,-1.35679 0.73354,-1.86116 2,-1.37518 1.1,0.42211 2,0.1863 2,-0.52401 0,-0.71032 -1.2,-1.29149 -2.66666,-1.29149 -1.46667,0 -2.66667,0.25093 -2.66667,0.55762 0,0.30669 -0.36419,1.50669 -0.80932,2.66666 -0.44513,1.15998 -0.14513,2.10905 0.66667,2.10905 0.81179,0 1.47598,-0.96419 1.47598,-2.14265 z m 19.63837,-2.47572 c 0.23453,-1.75131 -0.21026,-3.5777 -0.98842,-4.05863 -0.91542,-0.56576 -1.30243,0.79471 -1.09638,3.85417 0.34709,5.15382 1.40806,5.25787 2.0848,0.20446 z m -72.029962,1.11567 c -1.27017,-1.27017 -11.60841,-2.93896 -11.60841,-1.87382 0,1.96176 1.96312,2.70986 7.11111,2.70986 2.93334,0 4.95712,-0.37622 4.4973,-0.83604 z m 60.391592,-0.4973 c 0,-0.73333 -0.6,-1.33333 -1.33333,-1.33333 -0.73333,0 -1.33333,0.6 -1.33333,1.33333 0,0.73334 0.6,1.33334 1.33333,1.33334 0.73333,0 1.33333,-0.6 1.33333,-1.33334 z m 7.16667,0.26967 c 0.36156,-0.58501 0.10616,-1.93501 -0.56756,-3 -1.02103,-1.61399 -1.22834,-1.55487 -1.24536,0.35515 -0.014,1.57589 -0.74909,2.05709 -2.35375,1.54089 -1.96951,-0.63356 -2.02149,-0.52627 -0.33333,0.6881 2.40152,1.72752 3.61977,1.84011 4.5,0.41586 z m -61.833342,-2.93633 c 0,-0.73334 -0.63541,-1.33334 -1.41202,-1.33334 -0.77661,0 -1.0412,0.6 -0.58798,1.33334 0.45323,0.73333 1.08864,1.33333 1.41203,1.33333 0.32339,0 0.58797,-0.6 0.58797,-1.33333 z m 72.210272,-1.04103 c -1.27988,-0.42662 -1.2974,-0.98239 -0.0773,-2.45249 1.26859,-1.52856 1.16905,-1.7441 -0.50819,-1.10048 -2.17797,0.83576 -2.42831,-1.33304 -0.50857,-4.406 0.59996,-0.96038 0.40947,-1.66667 -0.44952,-1.66667 -0.81989,0 -1.06259,-0.69271 -0.53934,-1.53935 0.59417,-0.96138 0.36524,-1.1771 -0.60973,-0.57453 -0.8586,0.53064 -1.22802,1.50372 -0.82094,2.1624 0.40709,0.65868 -0.48313,1.96155 -1.97825,2.89527 -1.49512,0.93371 -2.7184,2.22681 -2.7184,2.87353 0,0.64673 0.9,0.42893 2,-0.48399 1.94567,-1.61476 2.71718,-0.54217 2.15789,3 -0.0868,0.55 0.47752,1 1.25413,1 0.77661,0 1.04545,0.59313 0.59742,1.31806 -0.48708,0.7881 0.12431,0.95777 1.52056,0.42198 1.51957,-0.58312 1.75717,-1.08876 0.68026,-1.44773 z m -81.654712,-0.77025 c -0.30556,-0.26287 -2.95556,-0.84587 -5.88889,-1.29555 -3.63196,-0.55678 -4.69532,-0.41082 -3.33333,0.45753 1.82171,1.16146 10.51658,1.95156 9.22222,0.83802 z m 40.635132,-4.29777 c 1.27134,-3.31307 0.9221,-5.46199 -0.52402,-3.22429 -0.93919,1.45329 -1.29808,1.5229 -1.31292,0.25465 -0.0112,-0.95995 -0.56408,-1.40935 -1.22857,-0.99868 -1.38732,0.85741 -0.33856,6.07737 1.22101,6.07737 0.56935,0 1.39937,-0.94908 1.8445,-2.10905 z m -39.524022,-0.17929 c -2.01667,-0.3055 -5.31667,-0.3055 -7.33333,0 -2.01667,0.3055 -0.36667,0.55545 3.66666,0.55545 4.03334,0 5.68334,-0.24995 3.66667,-0.55545 z m 4.01555,-2.62777 c -1.27479,-0.33372 -3.67479,-0.34583 -5.33334,-0.0269 -1.65855,0.31893 -0.61554,0.59197 2.31779,0.60677 2.93333,0.0148 4.29033,-0.24614 3.01555,-0.57986 z m -9.37666,-1.22278 c -0.44306,-0.44306 -1.59306,-0.49043 -2.55556,-0.10527 -1.06364,0.42564 -0.7477,0.74158 0.80556,0.80556 1.40556,0.0579 2.19306,-0.25724 1.75,-0.70029 z m 126.868432,-5.19445 c 2.14096,-2.64395 2.1338,-2.64503 -0.84065,-0.12668 -1.65,1.39699 -2.95263,3.49699 -2.89474,4.66667 0.0893,1.80505 0.21649,1.8242 0.84065,0.12668 0.40447,-1.1 1.7071,-3.2 2.89474,-4.66667 z m -119.840652,2 c -1.02002,-1.90592 -2.64999,-2.60579 -5.71358,-2.45328 l -4.28642,0.21338 4.33333,0.53776 c 4.39456,0.54536 5.70585,2.25943 2.66667,3.48577 -0.91667,0.36988 -0.29556,0.71988 1.38024,0.77778 2.64258,0.0913 2.85753,-0.24862 1.61976,-2.56141 z m 34.760382,0.33334 c 0.0801,-1.99526 0.25974,-1.94696 1.23962,0.33333 1.46001,3.39763 1.46001,-0.10777 0,-4.66667 -0.75623,-2.36133 -1.10628,-2.62999 -1.20043,-0.92131 -0.0731,1.32661 -0.58291,2.13419 -1.13291,1.79461 -0.55,-0.33957 -1.08652,0.82502 -1.19228,2.58798 -0.10576,1.76296 0.34424,3.20539 1,3.20539 0.65576,0 1.23446,-1.05 1.286,-2.33333 z m 6.57295,0.33333 c 0,-1.1 -0.6,-2 -1.33333,-2 -0.73334,0 -1.33334,0.9 -1.33334,2 0,1.1 0.6,2 1.33334,2 0.73333,0 1.33333,-0.9 1.33333,-2 z m -47.666672,-0.21638 c -0.91666,-0.36988 -2.41666,-0.36988 -3.33333,0 -0.91667,0.36989 -0.16667,0.67252 1.66667,0.67252 1.83333,0 2.58333,-0.30263 1.66666,-0.67252 z m 29.000002,-1.74173 c 0,-0.71032 -0.9,-0.94613 -2.000002,-0.52402 -1.1,0.42211 -2,1.00328 -2,1.29149 0,0.28821 0.9,0.52401 2,0.52401 1.100002,0 2.000002,-0.58117 2.000002,-1.29148 z m 90.30007,-2.70852 c -0.11048,-1.46666 -0.67319,-2.66666 -1.25047,-2.66666 -1.26202,0 -1.29707,0.47032 -0.24027,3.22428 1.10585,2.88182 1.73218,2.64754 1.49074,-0.55762 z M 76.418798,157.3896 c -3.0477,-1.06235 -11.09638,-1.35332 -10.49445,-0.37938 0.3585,0.58007 3.16642,1.00731 6.2398,0.94942 3.07339,-0.0579 4.98798,-0.31441 4.25465,-0.57004 z m -0.33334,-2.87441 c -0.91666,-0.36988 -2.41666,-0.36988 -3.33333,0 -0.91667,0.36988 -0.16667,0.67252 1.66667,0.67252 1.83333,0 2.58333,-0.30264 1.66666,-0.67252 z m 24.638892,0.0775 c -0.44305,-0.44306 -1.593052,-0.49043 -2.555552,-0.10527 -1.06365,0.42564 -0.7477,0.74158 0.80555,0.80556 1.405562,0.0579 2.193062,-0.25724 1.750002,-0.70029 z m 11.69445,-0.52778 c 0.45322,-0.73333 0.18863,-1.33333 -0.58798,-1.33333 -0.77661,0 -1.41202,0.6 -1.41202,1.33333 0,0.73333 0.26459,1.33333 0.58798,1.33333 0.32338,0 0.95879,-0.6 1.41202,-1.33333 z m -43.694452,-0.80556 c -0.44305,-0.44305 -1.59305,-0.49042 -2.55555,-0.10526 -1.06365,0.42563 -0.7477,0.74158 0.80555,0.80556 1.40556,0.0579 2.19306,-0.25724 1.75,-0.7003 z m 11.02778,-1.11575 c 0,-1.4073 -2.55882,-1.99855 -3.31989,-0.76711 -0.46062,0.7453 0.0979,1.35509 1.2412,1.35509 1.14328,0 2.07869,-0.26459 2.07869,-0.58798 z m -6.66667,-1.25659 c 0,-0.28118 -1.48184,-0.7945 -3.29298,-1.14072 -1.81114,-0.34622 -2.97573,-0.11617 -2.58798,0.51123 0.68278,1.10475 5.88096,1.66116 5.88096,0.62949 z m 12,-0.8221 c 0,-0.73335 -0.63541,-1.33335 -1.41202,-1.33335 -0.77661,0 -1.0412,0.6 -0.58798,1.33334 0.45323,0.73333 1.08864,1.33333 1.41203,1.33333 0.32339,0 0.58797,-0.6 0.58797,-1.33333 z m 16.000002,-0.58799 c 0,-0.32339 -0.6,-0.9588 -1.333332,-1.41202 -0.73333,-0.45323 -1.33333,-0.18864 -1.33333,0.58798 0,0.77661 0.6,1.41202 1.33333,1.41202 0.733332,0 1.333332,-0.26459 1.333332,-0.58798 z m 20,-5.18858 c 1.40527,-0.59238 1.23988,-0.75095 -0.55617,-0.53326 -1.4059,0.1704 -2.80158,1.20982 -3.10151,2.30982 -0.35075,1.28637 -0.1523,1.47664 0.55618,0.53326 0.60583,-0.80671 2.0015,-1.84613 3.1015,-2.30982 z m -51.027772,-0.36233 c -0.44306,-0.44306 -1.59306,-0.49042 -2.55556,-0.10526 -1.06364,0.42563 -0.7477,0.74157 0.80556,0.80555 1.40555,0.0579 2.19305,-0.25724 1.75,-0.70029 z m 2.02777,-2.74415 c -0.91666,-0.36989 -2.41666,-0.36989 -3.33333,0 -0.91667,0.36988 -0.16667,0.67251 1.66667,0.67251 1.83333,0 2.58333,-0.30263 1.66666,-0.67251 z m 5.66667,-2.44518 c -3.39236,-1.14754 -14.20754,-1.62177 -12.51314,-0.54868 1.01556,0.64317 4.54647,1.13122 7.84647,1.08455 3.3,-0.0467 5.4,-0.28781 4.66667,-0.53587 z m 22.609732,-0.57965 c 0.42191,-0.68266 0.15732,-1.61807 -0.587982,-2.07869 -0.7453,-0.46062 -1.35508,0.0979 -1.35508,1.2412 0,2.34204 0.80007,2.68688 1.943062,0.83749 z m -15.977812,-2.93921 c -0.58497,-3.03754 -1.64002,-4.61744 -2.47651,-3.70848 -0.62887,0.68337 1.51355,6.55556 2.39174,6.55556 0.34819,0 0.38634,-1.28119 0.0848,-2.84708 z m 42.923642,0.90573 c 0,-1.06774 -0.5,-1.63233 -1.11111,-1.25464 -0.61112,0.37768 -1.11112,1.25129 -1.11112,1.94134 0,0.69006 0.5,1.25465 1.11112,1.25465 0.61111,0 1.11111,-0.87361 1.11111,-1.94135 z m -54.888892,-0.72532 c -0.45323,-0.73333 -2.13864,-1.27352 -3.74536,-1.20043 -2.71945,0.12373 -2.69099,0.20667 0.41202,1.20043 1.83334,0.58714 3.51875,1.12733 3.74536,1.20043 0.22661,0.0731 0.0412,-0.4671 -0.41202,-1.20043 z m -0.77778,-4.48112 c -0.30556,-0.26462 -3.25556,-0.83813 -6.55556,-1.27446 -4.00638,-0.52974 -5.11394,-0.40102 -3.33333,0.3874 2.54648,1.12754 11.04706,1.89006 9.88889,0.88706 z m -0.88889,-3.06859 c -0.91667,-0.36988 -2.41667,-0.36988 -3.33333,0 -0.91667,0.36989 -0.16667,0.67252 1.66666,0.67252 1.83334,0 2.58334,-0.30263 1.66667,-0.67252 z m 127.646252,-2.86231 c -0.0176,-1.94304 -0.19905,-1.97823 -1.31291,-0.25465 -1.68747,2.61117 -1.68747,4.37625 0,3.33334 0.73333,-0.45323 1.32414,-1.83864 1.31291,-3.07869 z m -133.674032,1.60647 c -0.44305,-0.44306 -1.59305,-0.49043 -2.55555,-0.10527 -1.06365,0.42564 -0.7477,0.74158 0.80555,0.80556 1.40556,0.0579 2.19306,-0.25724 1.75,-0.70029 z m 91.756402,-3.55601 c 0.0341,-2.00114 -0.4859,-3.63844 -1.1555,-3.63844 -0.66961,0 -0.90382,1.1994 -0.52047,2.66534 0.38336,1.46594 0.15333,3.00135 -0.51115,3.41202 -1.2342,0.76278 -1.35923,0.0489 -1.68685,-9.63196 -0.10339,-3.05503 -0.54919,-5.91624 -0.99067,-6.35824 -0.44148,-0.44201 -0.69329,2.65756 -0.55957,6.88793 0.13372,4.23037 -0.30168,8.40921 -0.96754,9.28632 -0.87967,1.15874 -0.17989,1.51556 2.55956,1.30511 3.12863,-0.24035 3.78078,-0.90882 3.83219,-3.92808 z m -83.061952,2.14519 c -0.91667,-0.36989 -2.41667,-0.36989 -3.33334,0 -0.91666,0.36988 -0.16666,0.67251 1.66667,0.67251 1.83333,0 2.58333,-0.30263 1.66667,-0.67251 z m 9.87155,-13.11448 c -0.14718,-10.0552 -0.66559,-13.998217 -1.84065,-13.999997 -1.58775,-0.002 -1.54823,2.481037 0.31821,19.997517 0.27348,2.56666 0.53181,5.41666 0.57407,6.33333 0.0422,0.91667 0.31902,1.66667 0.61503,1.66667 0.29602,0 0.44602,-6.29889 0.33334,-13.99752 z m 64.957392,12.94097 c 0.35914,-0.58111 -0.50545,-1.14382 -1.92131,-1.25047 -1.41586,-0.10666 -2.5743,0.36879 -2.5743,1.05655 0,1.51783 3.58189,1.67234 4.49561,0.19392 z m -74.162282,-2.52922 c -1.28333,-0.33537 -3.38333,-0.33537 -4.66666,0 -1.28334,0.33537 -0.23334,0.60976 2.33333,0.60976 2.56667,0 3.61667,-0.27439 2.33333,-0.60976 z m 24.33334,-0.41423 c 0,-0.73334 -0.26459,-1.33334 -0.58798,-1.33334 -0.32339,0 -0.9588,0.6 -1.41202,1.33334 -0.45323,0.73333 -0.18864,1.33333 0.58798,1.33333 0.77661,0 1.41202,-0.6 1.41202,-1.33333 z m -24,-2.50862 c 0,-0.49235 -2.4,-0.66631 -5.33334,-0.38657 -2.93333,0.27974 -5.33333,0.91145 -5.33333,1.4038 0,0.49236 2.4,0.66631 5.33333,0.38657 2.93334,-0.27973 5.33334,-0.91144 5.33334,-1.4038 z m 70.666672,-4.45896 c 0,-6.84917 -1.60526,-5.60787 -2.14685,1.6601 -0.23729,3.18443 0.11993,5.06947 0.87253,4.60434 0.70087,-0.43317 1.27432,-3.25216 1.27432,-6.26444 z m 3.77248,0.28415 c 0.12929,-3.29972 -0.30667,-5.14381 -1.10011,-4.65343 -0.72285,0.44674 -1.22246,3.15552 -1.11024,6.0195 0.11222,2.86397 0.60727,4.95801 1.10011,4.65342 0.49284,-0.30459 0.99245,-3.01336 1.11024,-6.01949 z m -71.105822,4.01676 c 0.45323,-0.73333 0.18864,-1.33333 -0.58798,-1.33333 -0.77661,0 -1.41202,0.6 -1.41202,1.33333 0,0.73333 0.26459,1.33333 0.58798,1.33333 0.32339,0 0.9588,-0.6 1.41202,-1.33333 z m -10.36111,-2.13889 c -0.44306,-0.44305 -1.59306,-0.49042 -2.55556,-0.10526 -1.06364,0.42563 -0.7477,0.74158 0.80556,0.80555 1.40556,0.0579 2.19306,-0.25723 1.75,-0.70029 z m 89.027782,-0.52778 c 0.45322,-0.73333 0.18863,-1.33333 -0.58798,-1.33333 -0.77661,0 -1.41202,0.6 -1.41202,1.33333 0,0.73334 0.26459,1.33334 0.58798,1.33334 0.32338,0 0.95879,-0.6 1.41202,-1.33334 z M 71.752128,114.0649 c 2.63945,-0.8453 2.77822,-1.06752 0.66667,-1.06752 -1.46667,0 -4.16667,0.48038 -6,1.06752 -2.63945,0.84529 -2.77822,1.06752 -0.66667,1.06752 1.46667,0 4.16667,-0.48039 6,-1.06752 z m 86.666672,-0.8102 c 0,-1.10351 -2.58897,-1.72754 -3.18255,-0.76711 -0.38508,0.62308 0.17346,1.13286 1.2412,1.13286 1.06774,0 1.94135,-0.16459 1.94135,-0.36575 z m -92.361112,-1.32869 c -0.44306,-0.44306 -1.59306,-0.49043 -2.55556,-0.10526 -1.06364,0.42563 -0.7477,0.74157 0.80556,0.80555 1.40555,0.0579 2.19305,-0.25724 1.75,-0.70029 z m 4.36111,-4.52778 -6,-0.93282 5.33333,-0.29397 c 4.28778,-0.23634 4.81056,-0.51862 2.66667,-1.43988 -1.46667,-0.63024 -2.01667,-1.18807 -1.22222,-1.23962 0.79444,-0.0515 1.44444,-0.99371 1.44444,-2.09371 0,-1.1 -0.24516,-1.754837 -0.54481,-1.455187 -0.29964,0.299637 -2.29964,0.0415 -4.44444,-0.57359 -2.43625,-0.69871 -3.89964,-0.62345 -3.89964,0.20054 0,0.725427 -0.6,0.948127 -1.33333,0.494907 -0.73334,-0.453227 -1.33334,0.0709 -1.33334,1.16479 0,2.74573 -4.26154,3.84337 -8.56675,2.20653 -2.26496,-0.86114 -3.28788,-0.88147 -2.77721,-0.0552 1.37828,2.23011 13.01117,5.17016 20.01063,5.05741 l 6.66667,-0.10739 z m -11,-2.21637 c 0.91666,-0.36989 2.41666,-0.36989 3.33333,0 0.91667,0.36988 0.16667,0.67251 -1.66667,0.67251 -1.83333,0 -2.58333,-0.30263 -1.66666,-0.67251 z m 85.666672,-0.006 c 0,-1.95556 -0.41223,-3.14334 -0.91605,-2.63951 -1.34073,1.34073 -1.4931,6.19506 -0.19446,6.19506 0.61078,0 1.11051,-1.6 1.11051,-3.55555 z m 4,2.22222 c 0,-0.73333 -0.26459,-1.33333 -0.58798,-1.33333 -0.32339,0 -0.9588,0.6 -1.41202,1.33333 -0.45323,0.73348 -0.18864,1.33348 0.58797,1.33348 0.77662,0 1.41203,-0.6 1.41203,-1.33333 z m 3.63888,-10.138887 c -0.44305,-0.44305 -1.59305,-0.49042 -2.55555,-0.10526 -1.06364,0.42563 -0.7477,0.74157 0.80555,0.80555 1.40556,0.0579 2.19306,-0.25723 1.75,-0.70029 z m -75.053612,-5.46299 c 0.57349,-1.49448 1.30694,-1.42659 4.05738,0.37557 1.84654,1.2099 3.35734,1.57124 3.35734,0.80299 0,-0.76826 1.2,-1.7777 2.66667,-2.2432 5.09064,-1.61571 2.62342,-2.66529 -5.66583,-2.4103 -5.11575,0.15736 -8.84906,-0.35753 -9.6675,-1.33334 -1.93708,-2.30952 -9.90387,-2.94351 -18.51531,-1.47342 -3.42647,0.58494 -4.89386,0.41844 -4.33149,-0.49148 0.51328,-0.8305 -0.14788,-1.11503 -1.66755,-0.71763 -1.38492,0.36217 -2.92116,0.006 -3.41386,-0.79101 -0.49271,-0.797217 -2.21043,-1.407106 -3.81715,-1.355305 -6.37456,0.205516 9.44226,5.505965 20.74536,6.952075 6.91168,0.88427 11.66666,2.10737 11.66666,3.00096 0,2.13633 3.74323,1.87844 4.58528,-0.31591 z m 1.81117,-10.86942 c 2.56732,-1.628569 -0.27057,-3.340641 -9.06311,-5.467686 -4.03334,-0.975722 -8.23334,-1.997625 -9.33334,-2.270895 -1.1,-0.27327 -0.2,0.385131 2,1.463114 l 4,1.959968 -3.66666,0.06014 c -5.31342,0.08715 -4.76127,3.755344 0.66666,4.428945 8.0148,0.994627 13.6551,0.931036 15.39645,-0.173585 z m -7.72978,-1.528555 c 0,-0.733333 1.5,-1.333333 3.33333,-1.333333 1.83334,0 3.33334,0.6 3.33334,1.333333 0,0.733334 -1.5,1.333334 -3.33334,1.333334 -1.83333,0 -3.33333,-0.6 -3.33333,-1.333334 z m 13.81849,-9.292623 c -0.73381,-0.733812 -3.10142,2.704454 -3.1314,4.547463 -0.0112,0.690161 0.83052,0.0911 1.87056,-1.331237 1.04005,-1.422342 1.60742,-2.869644 1.26084,-3.216226 z m -7.15182,1.643293 c -1.83334,-0.340731 -3.63334,-1.072315 -4,-1.625743 -0.36667,-0.553428 -3.59758,-1.328357 -7.17981,-1.722064 -3.97493,-0.436867 -5.79356,-0.260109 -4.66667,0.453569 1.01556,0.64317 1.24648,1.187776 0.51314,1.210235 -0.73333,0.02246 -0.43333,0.622458 0.66667,1.333333 1.1,0.710875 5.6,1.219978 10,1.13134 4.4,-0.08864 6.5,-0.439939 4.66667,-0.78067 z m 41.333332,-7.148046 c 0,-0.705351 -1.8,0.04834 -4,1.674871 -2.2,1.62653 -4,3.485349 -4,4.130709 0,0.645359 1.8,-0.108332 4,-1.674871 2.2,-1.566538 4,-3.425357 4,-4.130709 z m -43.438652,1.634445 c 0.6666,-1.07857 -11.32473,-3.152516 -12.36153,-2.137975 -0.25677,0.251252 -0.0714,1.096741 0.41202,1.878864 1.05225,1.702573 10.9251,1.916654 11.94951,0.259111 z M 114.4188,64.731561 c 0,-0.733333 -0.6,-1.333333 -1.33334,-1.333333 -0.73333,0 -1.33333,0.6 -1.33333,1.333333 0,0.733334 0.6,1.333334 1.33333,1.333334 0.73334,0 1.33334,-0.6 1.33334,-1.333334 z m -41.333342,-4.10032 c 3.06787,-1.074833 2.99384,-1.136556 -0.92958,-0.775019 -2.3446,0.216052 -3.95919,-0.09861 -3.58798,-0.699253 0.37122,-0.600641 -0.58412,-1.092075 -2.12298,-1.092075 -2.34979,0 -2.52256,0.312213 -1.07869,1.949284 1.9373,2.196528 2.97438,2.279431 7.71923,0.617063 z m 44.508752,-0.635597 c 0.45533,-1.186567 0.2318,-1.721762 -0.52402,-1.254644 -0.72493,0.448033 -1.31806,1.379196 -1.31806,2.06925 0,1.91791 0.95569,1.495284 1.84208,-0.814606 z m 10.86498,-5.668132 c -0.35344,-0.353441 -1.46232,0.03768 -2.46418,0.869147 -1.00186,0.831471 -2.24808,1.08526 -2.76936,0.563975 -0.52129,-0.521285 -0.54195,0.109823 -0.0459,1.402463 0.85043,2.21618 1.04508,2.220667 3.41198,0.07864 1.38056,-1.249386 2.22092,-2.560789 1.86748,-2.91423 z m 3.95961,3.737382 c 0.45322,-0.733333 0.18863,-1.333333 -0.58798,-1.333333 -0.77661,0 -1.41202,0.6 -1.41202,1.333333 0,0.733334 0.26459,1.333334 0.58798,1.333334 0.32338,0 0.95879,-0.6 1.41202,-1.333334 z M 76.110838,57.190312 c -0.90271,-0.365231 -2.70271,-0.387463 -4,-0.04941 -1.29729,0.338058 -0.55871,0.636883 1.64129,0.664056 2.2,0.02717 3.26142,-0.24942 2.35871,-0.614651 z m -7.38649,-1.264307 c -0.44305,-0.443055 -1.59305,-0.490424 -2.55555,-0.105263 -1.06365,0.425635 -0.7477,0.741577 0.80555,0.805556 1.40556,0.0579 2.19306,-0.257237 1.75,-0.700293 z M 240.72436,50.592672 c -0.44306,-0.443056 -1.59306,-0.490424 -2.55556,-0.105263 -1.06364,0.425635 -0.7477,0.741577 0.80556,0.805555 1.40555,0.0579 2.19305,-0.257237 1.75,-0.700292 z M 99.512088,46.722689 c 12.562742,-0.518185 21.573372,-2.506813 21.573372,-4.761198 0,-1.774401 -3.16288,-1.511902 -5.26227,0.436736 -1.43648,1.333334 -1.60741,1.333334 -0.85464,0 0.58882,-1.042936 0.10965,-1.666667 -1.28038,-1.666667 -1.41701,0 -1.94616,0.717122 -1.46136,1.98049 0.63123,1.644945 0.32578,1.709324 -1.80283,0.379985 -1.99369,-1.245083 -4.25714,-1.245117 -10.19255,-1.51e-4 -4.196352,0.880195 -7.859752,1.370332 -8.140892,1.089194 -1.13086,-1.130855 14.094462,-5.315237 20.328262,-5.586826 9.00177,-0.392183 13.68214,-1.100394 14.825,-2.243246 1.45145,-1.451454 12.23774,-1.135962 13.17802,0.385448 0.45489,0.736025 2.4403,1.026804 4.41203,0.646176 3.00394,-0.579892 3.15277,-0.488285 0.91828,0.565242 -1.46666,0.691511 -4.55349,0.94581 -6.8596,0.565108 -2.30612,-0.380702 -5.45612,-0.01615 -7,0.810109 -1.64482,0.880279 -2.80706,0.971292 -2.80706,0.219815 0,-0.705363 1.05,-1.556873 2.33333,-1.892243 1.75588,-0.45886 1.59089,-0.648041 -0.66667,-0.764432 -1.65,-0.08507 -3,0.471633 -3,1.237114 0,0.76548 -1.02825,1.21548 -2.285,1 -1.31491,-0.225454 -2.48853,0.598818 -2.76443,1.941551 -0.37022,1.801808 0.37809,2.309339 3.285,2.228004 7.6306,-0.213506 22.26467,-3.395375 22.78419,-4.953941 0.29469,-0.884068 1.12121,-1.607397 1.83671,-1.607397 0.7155,0 0.93009,0.6 0.47687,1.333334 -1.2418,2.009269 2.59809,1.605926 8.96527,-0.941715 5.39023,-2.156742 5.51297,-2.32317 2.36032,-3.200427 l -3.32559,-0.925378 3.60393,-0.132907 c 3.86554,-0.142555 10.39607,2.331477 10.39607,3.938462 0,0.537163 -0.93117,1.333982 -2.06925,1.770707 -1.19457,0.458397 -1.72245,0.232912 -1.24883,-0.533432 1.62692,-2.6324 -3.19829,-2.773462 -8.21932,-0.240286 -2.8211,1.423281 -8.5181,3.000684 -12.66001,3.505339 -4.14191,0.504655 -9.24191,1.430451 -11.33333,2.057325 l -3.8026,1.139771 3.83485,0.114604 c 2.10916,0.06303 9.30916,-0.748601 16,-1.803629 6.69083,-1.055028 16.96515,-2.616836 22.83182,-3.470684 14.38888,-2.09419 15.21813,-2.698803 9.58963,-6.991867 -3.43842,-2.622613 -5.727,-3.365742 -9.09232,-2.952386 -4.29066,0.527013 -34.57251,3.092122 -45.83064,3.882212 -19.83607,1.392085 -39.736672,4.145122 -41.719252,5.771416 -2.02821,1.663715 -1.76402,1.787605 2.38591,1.118856 l 4.66667,-0.752018 -3.33333,2.64895 c -1.83334,1.456923 -5.57243,3.027222 -8.3091,3.489554 -2.73667,0.462332 -4.61896,1.417934 -4.18286,2.123559 0.4361,0.705626 2.0752,0.894017 3.64243,0.418648 1.56724,-0.475369 8.44151,-1.094964 15.27615,-1.376879 z M 150.1688,34.487408 c 0.9625,-0.385161 2.1125,-0.337792 2.55555,0.105263 0.44306,0.443056 -0.34444,0.758187 -1.75,0.700293 -1.55325,-0.06398 -1.86919,-0.379921 -0.80555,-0.805556 z m 21.25,-2.696825 c 1.65,-0.317804 4.35,-0.317804 6,0 1.65,0.317804 0.3,0.577825 -3,0.577825 -3.3,0 -4.65,-0.260021 -3,-0.577825 z m 49.66667,14.274311 c 0,-0.733333 -0.63541,-1.333333 -1.41202,-1.333333 -0.77662,0 -1.04121,0.6 -0.58798,1.333333 0.45322,0.733333 1.08863,1.333333 1.41202,1.333333 0.32339,0 0.58798,-0.6 0.58798,-1.333333 z M 65.085458,44.731561 c 1.72359,-1.113865 1.68839,-1.295322 -0.25464,-1.312917 -1.24005,-0.01123 -2.62546,0.579583 -3.07869,1.312917 -1.04291,1.687463 0.72217,1.687463 3.33333,0 z m 8.74078,0.36431 c -2.40015,-0.610727 -2.35067,-0.793651 0.66666,-2.464751 3.95655,-2.191262 1.54196,-2.468395 -3.65397,-0.419382 -3.48758,1.375324 -3.56456,1.557588 -1.0868,2.572953 1.46667,0.601027 3.56667,1.065346 4.66667,1.031821 1.1,-0.03352 0.83335,-0.357814 -0.59256,-0.720641 z m 11.40168,-2.387196 c 3.8513,0.556273 4.02842,0.477603 1.19088,-0.528917 -1.83334,-0.650311 -2.48334,-1.242192 -1.44445,-1.315291 1.03889,-0.0731 1.55969,-0.462107 1.15734,-0.864464 -1.32738,-1.327377 -7.50439,0.9317 -8.3136,3.040479 -0.62634,1.632206 -0.40582,1.74637 1.04597,0.541494 1.0118,-0.839722 3.87554,-1.232708 6.36386,-0.873301 z M 210.90097,41.398227 c -0.42211,-1.1 -1.00328,-2 -1.29149,-2 -0.28821,0 -0.52401,0.9 -0.52401,2 0,1.1 0.58117,2 1.29149,2 0.71031,0 0.94612,-0.9 0.52401,-2 z m 4,0 c -0.42211,-1.1 -1.28445,-2 -1.91631,-2 -0.63186,0 -0.80347,0.9 -0.38136,2 0.42211,1.1 1.28445,2 1.91631,2 0.63186,0 0.80347,-0.9 0.38136,-2 z m 9.2375,-0.666667 c -0.38354,-1.466666 -1.22737,-2.666666 -1.87518,-2.666666 -0.6478,0 -1.17782,1.2 -1.17782,2.666666 0,1.466667 0.84383,2.666667 1.87517,2.666667 1.21874,0 1.63106,-0.933516 1.17783,-2.666667 z m 7.61367,-1.333333 c 0,-0.733333 -0.63541,-1.333333 -1.41203,-1.333333 -0.77661,0 -1.0412,0.6 -0.58797,1.333333 0.45322,0.733333 1.08863,1.333333 1.41202,1.333333 0.32339,0 0.58798,-0.6 0.58798,-1.333333 z m 7.57748,-1.583333 c -0.42563,-1.063644 -0.74158,-0.747702 -0.80555,0.805555 -0.0579,1.405556 0.25723,2.193056 0.70029,1.75 0.44305,-0.443055 0.49042,-1.593055 0.10526,-2.555555 z m 1.28594,-3.513527 c 4.27539,-2.392631 -1.49047,-2.407118 -12.86342,-0.03232 l -11.33334,2.366525 11.05081,-0.580856 c 6.07795,-0.31947 11.99363,-1.108478 13.14595,-1.753349 z M 126.10934,26.445525 c -2.00353,-0.304232 -5.60353,-0.310355 -8,-0.01361 -2.39646,0.296749 -0.75721,0.545666 3.64279,0.55315 4.4,0.0075 6.36075,-0.235311 4.35721,-0.539543 z m 14.64279,-1.299732 c -1.28333,-0.335371 -3.38333,-0.335371 -4.66666,0 -1.28334,0.33537 -0.23334,0.609763 2.33333,0.609763 2.56667,0 3.61667,-0.274393 2.33333,-0.609763 z m 45.30556,-6.553122 c -0.44306,-0.443056 -1.59306,-0.490424 -2.55556,-0.105263 -1.06364,0.425635 -0.7477,0.741577 0.80556,0.805555 1.40556,0.0579 2.19306,-0.257237 1.75,-0.700292 z"
       id="path1" />
  </g>
</svg>
