<?xml version="1.0" encoding="UTF-8" standalone="no"?>
<!-- Created with Inkscape (http://www.inkscape.org/) -->

<svg
   version="1.1"
   id="svg1"
   width="444"
   height="441.33334"
   viewBox="0 0 444 441.33334"
   sodipodi:docname="church"
   inkscape:version="1.4.3 (0d15f75042, 2025-12-25)"
   xmlns:inkscape="http://www.inkscape.org/namespaces/inkscape"
   xmlns:sodipodi="http://sodipodi.sourceforge.net/DTD/sodipodi-0.dtd"
   xmlns="http://www.w3.org/2000/svg"
   xmlns:svg="http://www.w3.org/2000/svg">
  <defs
     id="defs1" />
  <sodipodi:namedview
     id="namedview1"
     pagecolor="#ffffff"
     bordercolor="#000000"
     borderopacity="0.25"
     inkscape:showpageshadow="2"
     inkscape:pageopacity="0.0"
     inkscape:pagecheckerboard="0"
     inkscape:deskcolor="#d1d1d1"
     inkscape:zoom="0.44694108"
     inkscape:cx="-67.122942"
     inkscape:cy="81.666246"
     inkscape:window-width="1366"
     inkscape:window-height="736"
     inkscape:window-x="0"
     inkscape:window-y="0"
     inkscape:window-maximized="1"
     inkscape:current-layer="g1" />
  <g
     inkscape:groupmode="layer"
     inkscape:label="Image"
     id="g1">
    <path
       style="fill:#ffffff"
       d="m 245.85274,423.71221 c 0,-1.4743 8.86289,-4.03099 16.82765,-4.85431 6.39835,-0.6614 6.3737,-0.64142 -1.49432,1.21112 -4.4,1.03598 -9.65,2.5246 -11.66666,3.30804 -2.01667,0.78344 -3.66667,0.93425 -3.66667,0.33515 z m 12,-0.2199 c 0,-0.71031 0.9,-1.29148 2,-1.29148 1.1,0 2,0.2358 2,0.52401 0,0.28821 -0.9,0.86938 -2,1.29149 -1.1,0.42211 -2,0.1863 -2,-0.52402 z m -36,-5.35536 c 8.7563,-4.07194 25.37888,-7.73245 38.51897,-8.48238 l 11.48103,-0.65525 -14.10522,1.91177 c -7.75787,1.05147 -19.15787,3.44673 -25.33333,5.32279 -15.76545,4.78943 -17.40267,5.08444 -10.56145,1.90307 z m 126.66667,-2.64423 c -5.5,-1.30346 -8.5,-2.37841 -6.66667,-2.38877 1.83333,-0.0104 7.53333,1.06327 12.66667,2.38588 12.05403,3.10572 7.10259,3.10811 -6,0.003 z m -157.33334,-0.52943 c 0,-2.60767 46.20636,-14.07143 64.66667,-16.04375 4.4,-0.4701 10.32593,-1.1897 13.16874,-1.5991 3.16129,-0.45526 4.86012,-0.24501 4.37412,0.54136 -0.43704,0.70715 -5.46297,1.6128 -11.16874,2.01256 -13.0734,0.91595 -47.48124,7.94131 -60.37901,12.32813 -10.54581,3.58686 -10.66178,3.61689 -10.66178,2.7608 z m 187.76785,-0.10573 c -0.37213,-0.37213 -9.62213,-2.73233 -20.55556,-5.2449 -10.93342,-2.51256 -18.78914,-4.60809 -17.45713,-4.65673 3.23056,-0.11797 38.36736,7.92534 40.91151,9.36522 1.74308,0.98651 1.7288,1.13713 -0.11111,1.17246 -1.16111,0.0223 -2.41558,-0.26392 -2.78771,-0.63605 z m -205.76006,-1.86452 c 0.73593,-0.73593 10.33525,-4.31908 21.3318,-7.96255 23.42605,-7.76172 48.5399,-12.18873 73.01988,-12.87178 l 16.3072,-0.45501 -15.33333,1.19699 c -29.91707,2.33546 -65.21384,9.57523 -87.33181,17.91273 -5.13249,1.93473 -8.72968,2.91556 -7.99374,2.17962 z m 186.99221,0.32475 c 0.91667,-0.36989 2.41667,-0.36989 3.33334,0 0.91666,0.36988 0.16666,0.67251 -1.66667,0.67251 -1.83333,0 -2.58333,-0.30263 -1.66667,-0.67251 z m -217.74516,-2.34145 c 1.4235,-1.15987 3.41636,-2.10885 4.42857,-2.10885 1.01222,0 2.7404,-0.9 3.8404,-2 1.1,-1.1 3.68215,-2 5.7381,-2 2.05595,0 5.61309,-0.375 7.90476,-0.83333 2.69136,-0.53827 4.16667,-0.30222 4.16667,0.66667 0,0.92568 -2.75314,1.5 -7.19068,1.5 -4.82706,0 -7.41905,0.59509 -7.88541,1.81041 -0.38209,0.99573 -2.39629,2.15371 -4.47598,2.57329 -2.0797,0.41959 -4.98127,1.15388 -6.44793,1.63177 -2.6295,0.85678 -2.6306,0.83949 -0.0785,-1.23996 z m 205.41183,0.55782 c -3.56801,-0.90791 -3.64001,-1.01783 -0.66667,-1.01783 1.83334,0 5.13334,0.45802 7.33334,1.01783 3.56801,0.9079 3.64001,1.01783 0.66666,1.01783 -1.83333,0 -5.13333,-0.45803 -7.33333,-1.01783 z m 25.33333,-3.35516 c -5.13333,-1.69325 -8.77269,-3.13104 -8.08747,-3.19507 2.11965,-0.1981 17.34777,4.21462 18.68747,5.41515 1.85276,1.66029 -0.0344,1.26504 -10.6,-2.22008 z m -49.77678,-0.0189 c -6.11056,-0.95426 -11.46056,-2.08547 -11.88889,-2.5138 -1.07776,-1.07776 -0.33318,-0.99876 16.99901,1.8037 8.43333,1.3636 13.23333,2.47159 10.66666,2.4622 -2.56666,-0.009 -9.66621,-0.79783 -15.77678,-1.7521 z m -4.88988,-6.06361 c -9.70905,-1.77176 -11.15877,-2.24854 -5.33334,-1.75403 9.05765,0.76889 27.10783,4.21252 22,4.19719 -1.83333,-0.006 -9.33333,-1.10496 -16.66666,-2.44319 z m 38,1.4377 c -2.67965,-0.85817 -2.81038,-1.07521 -0.66667,-1.10671 1.46667,-0.0216 3.86667,0.47646 5.33333,1.10671 3.39764,1.46001 -0.10777,1.46001 -4.66666,0 z m -270,-3.37067 c 2.93333,-0.96675 6.53333,-1.74093 8,-1.72039 1.46666,0.0205 0.26666,0.82831 -2.66667,1.79506 -2.93333,0.96675 -6.53333,1.74093 -8,1.72039 -1.46666,-0.0205 -0.26666,-0.82831 2.66667,-1.79506 z m 245.33333,-0.9743 c -15.64923,-2.57074 -27.02498,-5.48821 -16,-4.10342 9.62727,1.20923 35.8887,5.89262 36.50656,6.51047 0.92523,0.92524 -3.0917,0.45373 -20.50656,-2.40705 z m -164.94775,0.68972 c 4.61207,-0.26111 11.81207,-0.25895 16,0.005 4.18793,0.26375 0.41442,0.47738 -8.38558,0.47474 -8.8,-0.003 -12.22649,-0.21842 -7.61442,-0.47953 z m 202.28108,-2.42314 c -10.14761,-2.80061 -44.57377,-8.48252 -64,-10.56297 -16.99438,-1.82001 -17.0726,-1.84311 -4,-1.18134 7.33334,0.37124 21.42601,1.88362 31.31706,3.36084 17.12629,2.55781 46.6507,8.6518 47.88199,9.8831 1.0927,1.09269 -4.53818,0.33868 -11.19905,-1.49963 z m -186.66666,-1.85649 c -15.41014,-0.70484 -15.68049,-0.76712 -7.33334,-1.68946 8.21162,-0.90736 25.97617,0.48937 27.66168,2.17488 0.43052,0.43052 -0.36723,0.66208 -1.77279,0.51458 -1.40555,-0.1475 -9.75555,-0.5975 -18.55555,-1 z M 79.85274,393.54549 c 3.66667,-1.07794 9.06667,-1.89661 12,-1.81927 5.25078,0.13844 5.23015,0.15629 -1.33333,1.15271 -18.75254,2.84687 -17.90241,2.79375 -10.66667,0.66656 z m 223.01555,1.04565 c 1.65855,-0.31892 4.05855,-0.30681 5.33333,0.0269 1.27478,0.33373 -0.0822,0.59466 -3.01555,0.57986 -2.93333,-0.0148 -3.97633,-0.28784 -2.31778,-0.60677 z m 88.06778,0.0322 c 0.9625,-0.38516 2.1125,-0.33779 2.55556,0.10526 0.44305,0.44306 -0.34445,0.75819 -1.75,0.7003 -1.55326,-0.064 -1.8692,-0.37992 -0.80556,-0.80556 z M 56.23155,392.63946 c 1.33139,-1.30709 25.95074,-6.11204 35.62119,-6.95219 6.75239,-0.58663 7.16826,-0.51119 2.66667,0.48376 -13.40495,2.96275 -39.14675,7.31163 -38.28786,6.46843 z m 155.46553,0.73755 c -0.81895,-0.33731 -8.91895,-1.42318 -18,-2.41304 -11.49973,-1.2535 -14.28526,-1.84239 -9.17767,-1.94025 7.31359,-0.14013 33.18186,3.24786 34.44534,4.51133 0.81951,0.81952 -5.21276,0.68834 -7.26767,-0.15804 z M 380.079,392.83957 c -15.05297,-4.51563 -73.25223,-11.93385 -93.81424,-11.9578 -6.74005,-0.008 -12.62546,-0.61428 -13.07869,-1.34761 -1.01731,-1.64605 0.55206,-1.64281 24.66667,0.051 27.61237,1.93952 87.7155,11.22003 90.46399,13.96852 0.98901,0.989 -4.00282,0.55625 -8.23773,-0.71414 z m 5.10707,-2.12258 c -6.62373,-1.89973 -25.97383,-6.11873 -35.80291,-7.80628 -2.82493,-0.48501 -4.84286,-1.17522 -4.48428,-1.5338 1.40744,-1.40745 42.99147,7.52516 47.5982,10.2245 2.79657,1.63867 0.5302,1.3645 -7.31101,-0.88442 z m 16.33334,-2.73254 c 0.91666,-0.36988 2.41666,-0.36988 3.33333,0 0.91667,0.36988 0.16667,0.67252 -1.66667,0.67252 -1.83333,0 -2.58333,-0.30264 -1.66666,-0.67252 z M 69.85274,383.53056 c 2.56667,-0.64217 9.46667,-1.47437 15.33334,-1.84933 8.15833,-0.52143 9.09895,-0.43031 3.99999,0.38749 -11.14818,1.78802 -24.74663,2.81623 -19.33333,1.46184 z m 310.17057,-0.27239 c 0.35941,-0.58154 5.26807,-0.98774 10.90812,-0.90268 11.63254,0.17546 10.50549,0.81094 -2.65347,1.49615 -4.89947,0.25513 -8.61406,-0.0119 -8.25465,-0.59347 z m -326.5039,-0.60705 c 0.91667,-0.36989 2.41667,-0.36989 3.33333,0 0.91667,0.36988 0.16667,0.67251 -1.66666,0.67251 -1.83334,0 -2.58334,-0.30263 -1.66667,-0.67251 z m 10.33333,-1.78957 c 5.39022,-1.18623 14.91375,-1.75186 13.88889,-0.82491 -0.30555,0.27637 -4.75555,0.83911 -9.88889,1.25055 -7.17282,0.5749 -8.09875,0.47637 -4,-0.42564 z m 303.10488,-0.0938 c -5.83403,-1.46335 10.29435,-3.91485 23.96075,-3.64202 l 12.93437,0.25821 -13.33333,0.81689 -13.33334,0.81688 15.33334,0.458 c 8.43333,0.2519 13.83333,0.64584 12,0.87541 -6.8571,0.85867 -34.5738,1.16608 -37.56179,0.41661 z M 46.93608,379.95667 c 0.9625,-0.38516 2.1125,-0.33779 2.55555,0.10527 0.44306,0.44305 -0.34444,0.75818 -1.75,0.70029 -1.55325,-0.064 -1.8692,-0.37992 -0.80555,-0.80556 z m 8.91666,-1.70446 c 4.07378,-1.08893 14.89989,-1.78638 13.88889,-0.89476 -0.30555,0.26947 -4.45555,0.8216 -9.22222,1.22696 -5.46073,0.46437 -7.187,0.34149 -4.66667,-0.3322 z m 25.75,0.37113 c 0.9625,-0.38516 2.1125,-0.33779 2.55556,0.10526 0.44305,0.44306 -0.34445,0.75819 -1.75,0.7003 -1.55326,-0.064 -1.8692,-0.37992 -0.80556,-0.80556 z m 75.25,-2.74586 c -8.39614,-0.39967 -9.66667,-0.78844 -9.66667,-2.95792 0,-1.92104 -1.55445,-2.83113 -6.73229,-3.94158 -8.43016,-1.80795 -15.93437,-1.85998 -15.93437,-0.11049 0,0.78826 -4.81482,1.33334 -11.77778,1.33334 -6.47778,0 -12.17252,0.39473 -12.65497,0.87719 -0.75859,0.75859 -8.79736,0.95008 -23.56725,0.5614 -2.76545,-0.0728 -4,-0.77605 -4,-2.27866 0,-2.33345 -3.86523,-2.16827 -17.68486,0.75576 -4.45193,0.94197 -7.31192,0.90631 -9.56273,-0.11923 -2.34203,-1.0671 -4.37588,-1.05712 -7.51411,0.0369 -6.30039,2.19633 -9.28849,1.78169 -4.77721,-0.66291 2.08694,-1.13087 7.05453,-2.39261 11.03909,-2.80385 3.98457,-0.41125 7.55034,-1.24231 7.92394,-1.84681 0.3736,-0.6045 2.54931,-0.72508 4.8349,-0.26796 3.0863,0.61726 3.89621,0.41138 3.14748,-0.80008 -0.64238,-1.0394 0.008,-1.89695 1.79268,-2.36364 2.70176,-0.70653 2.80082,-1.505 2.80082,-22.57693 0,-20.9556 -0.10851,-21.84449 -2.66667,-21.84449 -3.56976,0 -3.64622,-5.32682 -0.0898,-6.25685 1.41727,-0.37062 4.22478,-3.16404 6.2389,-6.20759 8.02452,-12.12586 25.01837,-26.71733 35.72037,-30.67065 2.40935,-0.89002 2.49757,-2.2126 1.76505,-26.45948 -0.64319,-21.2903 -1.11903,-25.71737 -2.86945,-26.69695 -1.15411,-0.64588 -2.09838,-2.64451 -2.09838,-4.4414 0,-2.88491 0.58488,-3.26807 5,-3.27551 4.12822,-0.007 5.38689,-0.68848 7.21897,-3.9088 1.22044,-2.1452 4.76046,-5.74141 7.86672,-7.99157 4.61698,-3.34452 6.94117,-4.0912 12.73463,-4.0912 5.97304,0 7.80291,0.62868 11.64264,4 5.44712,4.78264 6.73854,4.92413 9.46143,1.03666 2.44512,-3.4909 2.99186,-27.58708 0.67844,-29.9005 -0.974,-0.97399 -0.94016,-2.40017 0.11171,-4.70879 1.18903,-2.60963 1.06124,-4.38298 -0.60283,-8.36566 -2.9447,-7.04766 -2.68987,-14.30042 0.65173,-18.54857 1.51989,-1.93223 3.46989,-3.4949 4.33333,-3.4726 0.86344,0.0223 0.52725,0.648 -0.74709,1.39044 -4.33086,2.52319 -5.36617,6.25851 -2.73629,9.87234 2.91701,4.00839 10.07624,4.78912 9.44506,1.03001 -0.22222,-1.32342 0.47385,-2.38611 1.60821,-2.45527 4.31352,-0.26298 9.33436,-2.24328 9.35375,-3.68927 0.0122,-0.90791 0.49006,-0.78065 1.18427,0.31536 0.64011,1.01062 1.83092,1.42521 2.64625,0.92131 0.81532,-0.5039 1.4824,-0.18077 1.4824,0.71807 0,0.89883 0.31412,1.32012 0.69805,0.93619 0.38393,-0.38393 0.30043,-1.73423 -0.18555,-3.00068 -0.61137,-1.59321 -1.18006,-1.82296 -1.84583,-0.74571 -0.67367,1.09002 -1.21322,0.90285 -1.79918,-0.62412 -0.48916,-1.27472 -0.28923,-1.84254 0.48112,-1.36644 0.72493,0.44803 1.31806,0.19803 1.31806,-0.55557 0,-0.7536 0.9068,-1.0222 2.01512,-0.5969 1.4976,0.57468 1.78183,0.16534 1.10675,-1.59391 -0.67099,-1.74857 -0.44689,-2.08197 0.85755,-1.27578 1.18377,0.73161 1.44787,0.57677 0.80112,-0.46968 -0.53064,-0.85861 -1.50034,-1.23012 -2.15488,-0.82559 -1.53346,0.94773 -6.61938,-8.97928 -6.64608,-12.97223 -0.0297,-4.44048 -2.29757,-7.59339 -3.79403,-5.27465 -0.91733,1.42138 -1.31889,1.33255 -2,-0.44239 -1.27783,-3.32995 -1.02857,-6.00274 0.5598,-6.00274 0.77662,0 1.0412,0.6 0.58798,1.33333 -0.45322,0.73334 -0.18864,1.33334 0.58798,1.33334 1.79881,0 1.83703,-2.24662 0.0569,-3.34678 -0.7453,-0.46062 -0.97453,-1.45324 -0.5094,-2.20583 0.46512,-0.75258 0.0249,-2.90931 -0.97826,-4.79271 -1.43397,-2.692242 -1.46759,-3.544022 -0.15726,-3.983982 2.91546,-0.97889 1.90672,-5.45114 -1.33333,-5.9113 -1.65,-0.23434 -3,-1.32607 -3,-2.42607 0,-1.1 1.35,-2.19173 3,-2.42607 2.35072,-0.33385 3,-1.29286 3,-4.43109 0,-3.09485 0.53027,-3.90397 2.33333,-3.56032 1.28333,0.2446 2.5293,1.82092 2.76882,3.50294 0.25908,1.81944 1.81922,3.58432 3.85158,4.35702 1.87886,0.71434 3.1161,1.5988 2.74944,1.96546 -1.55032,1.55032 -7.70317,-2.14753 -7.70317,-4.62958 0,-1.44154 -0.70197,-3.05482 -1.55992,-3.58506 -1.04887,-0.64824 -1.28099,-0.23721 -0.70851,1.25464 1.12527,2.93242 -0.21747,6.21873 -2.54089,6.21873 -1.02154,0 -1.85735,0.66419 -1.85735,1.47598 0,0.8118 0.9,1.13063 2,0.70852 1.57377,-0.60391 2,0.377 2,4.6027 0,3.9091 -0.45345,5.114162 -1.66667,4.429212 -1.33333,-0.752772 -1.33333,-0.581842 0,0.85465 0.91667,0.98758 1.73627,3.3256 1.82134,5.1956 0.11038,2.42654 0.33465,2.70391 0.78328,0.96877 0.40054,-1.54909 1.38041,-2.14275 2.70059,-1.63615 1.55552,0.59691 1.72362,0.37206 0.67439,-0.90209 -0.76867,-0.93346 -1.60354,-4.09719 -1.85526,-7.030532 -0.42557,-4.95921 -0.20046,-5.36292 3.209,-5.75522 2.09211,-0.24073 3.66666,0.22728 3.66666,1.08985 0,0.90498 -1.07031,1.17204 -2.66666,0.66538 -2.27276,-0.72139 -2.66664,-0.23963 -2.66664,3.26154 0,2.25937 0.75,5.378192 1.66667,6.930722 1.33333,2.25822 1.33333,2.94349 0,3.42635 -2.00692,0.72679 -2.20598,9.45592 -0.32826,14.39469 0.73612,1.93615 3.66885,6.32521 6.51718,9.75347 2.84833,3.42826 6.14605,8.1534 7.32826,10.50031 2.58422,5.13015 2.80208,12.87348 0.4306,15.30431 -1.03827,1.06426 -1.78599,5.52125 -1.88835,11.25608 l -0.16946,9.49417 6.43976,0.76269 c 3.54187,0.41948 10.67088,2.81529 15.84226,5.32402 l 9.40249,4.56132 0.37943,-12.80274 c 0.33502,-11.30443 0.6728,-12.85891 2.88632,-13.28271 3.0424,-0.5825 4.77865,1.86775 4.80602,6.78241 0.0112,2.01667 0.74041,3.66667 1.62041,3.66667 1.24445,0 1.24445,0.35555 0,1.6 -1.72075,1.72075 -2.26137,17.08017 -0.6,17.04625 3.05288,-0.0623 3.7561,-3.0886 3.71323,-15.97959 -0.045,-13.51961 0.0564,-14.01462 2.95344,-14.42606 2.94249,-0.4179 3,-0.16597 3,13.14265 0,11.82511 0.27102,13.46472 2.10905,12.7594 1.15998,-0.44513 2.65998,-0.80932 3.33333,-0.80932 0.67336,0 1.22429,-6.01883 1.22429,-13.37518 0,-10.87864 0.38762,-13.52393 2.07671,-14.17209 1.50066,-0.57586 0.57066,-1.56175 -3.35274,-3.55425 -5.02211,-2.55047 -6.05081,-2.62899 -13.71184,-1.04663 -11.90798,2.45955 -12.99517,3.27731 -13.11096,9.86173 -0.0544,3.09086 -0.60816,8.31975 -1.23068,11.61975 -0.95749,5.07579 -1.12766,4.04888 -1.10469,-6.66666 0.0498,-23.22588 -0.6165,-33.95389 -2.43251,-39.16764 -4.30799,-12.36814 -1.9033,-17.91295 14.81704,-34.165702 10.89664,-10.5919 12.89522,-14.21268 13.4451,-24.35818 0.23581,-4.35074 0.7683,-8.24999 1.18332,-8.66501 1.4516,-1.4516 0.73702,-6.11957 -1.27757,-8.34566 -2.0125,-2.22379 -1.45322,-6.63115 0.84147,-6.63115 0.65487,0 1.19068,-2.46677 1.19068,-5.48172 v -5.48172 l -4.68408,0.87874 c -3.66264,0.68712 -4.86802,0.39938 -5.52762,-1.31951 -0.47737,-1.24401 -0.0357,-2.70339 1.01741,-3.36191 1.23911,-0.77482 1.99997,-0.53325 2.27697,0.72292 0.22881,1.03762 2.32881,2.07182 4.66667,2.29823 2.67618,0.25917 4.11494,1.06569 3.88428,2.17741 -0.2015,0.97118 0.2485,1.38577 1,0.92131 0.7515,-0.46445 1.35734,-0.059 1.34629,0.9009 -0.032,2.77916 -3.6515,12.44596 -4.52262,12.07869 -2.24869,-0.94806 -2.33353,-0.11389 -0.15075,1.4822 2.4999,1.82797 7.36012,1.46976 7.36012,-0.54247 0,-0.59542 -0.9,-1.98259 -2,-3.08259 -2.2597,-2.25969 -2.69103,-4.10827 -0.66667,-2.85714 0.82178,0.50788 1.33333,-1.76393 1.33333,-5.92131 0,-3.70995 0.55093,-6.74536 1.22429,-6.74536 0.67335,0 2.17335,-0.36419 3.33333,-0.80932 1.15998,-0.44512 2.10905,-0.14512 2.10905,0.66667 0,0.81179 -0.9,1.47598 -2,1.47598 -1.55796,0 -2,1.78752 -2,8.08766 0,4.44821 0.66125,9.32321 1.46944,10.83333 1.02051,1.90683 1.05266,3.61131 0.10526,5.57901 -3.44116,7.14707 -2.82493,17.11202 1.72121,27.83334 0.8111,1.91286 0.30294,2.32569 -2.81992,2.29093 -3.63768,-0.0405 -3.6927,-0.13061 -1.22115,-2 2.39784,-1.81364 2.41186,-1.9576 0.19068,-1.9576 -1.58331,0 -2.13686,-0.67919 -1.63002,-2 0.42211,-1.1 0.3063,-2 -0.25735,-2 -0.56365,0 -1.09955,-1.35 -1.19089,-3 -0.26844,-4.84916 -1.08934,-7.58875 -2.78076,-9.28016 -1.22645,-1.22645 -1.5865,-0.88025 -1.5865,1.52547 0,8.40503 -3.33157,14.14074 -14.99116,25.80911 -12.96246,12.972212 -16.6162,19.112912 -13.11654,22.044462 1.15924,0.97104 1.3577,1.38563 0.44103,0.92131 -0.91666,-0.46433 -1.66666,-0.25912 -1.66666,0.45603 0,0.71515 1.76886,2.08324 3.93081,3.04021 l 3.93081,1.73995 -3.59748,1.5539 -3.59748,1.5539 4.14119,-0.0462 c 4.75712,-0.0531 7.58289,1.30443 6.46854,3.10748 -0.87139,1.40994 1.15088,1.70282 2.4927,0.36101 0.48411,-0.48411 5.23411,-0.76714 10.55555,-0.62895 6.89464,0.17904 9.10055,-0.13692 7.67536,-1.09938 -1.1,-0.74285 -1.4,-1.42361 -0.66667,-1.51279 0.73333,-0.0892 2.23333,-0.29574 3.33333,-0.45902 1.1,-0.16327 3.2,-0.4593 4.66667,-0.65784 2.3293,-0.3153 2.24495,-0.49603 -0.66667,-1.42849 l -3.33333,-1.06752 3.33333,-0.23434 c 3.06295,-0.21534 2.95479,-0.38918 -1.33333,-2.14305 -4.24009,-1.73422 -4.32226,-1.86197 -0.8989,-1.39746 4.09252,0.55529 3.2347,-1.16398 -1.1011,-2.20688 -2.06414,-0.49649 -1.85971,-0.67636 0.90476,-0.79608 3.98001,-0.17237 8.2771,3.26638 6.88877,5.51274 -0.59456,0.96202 -0.0465,1.12583 1.62304,0.48515 2.31959,-0.89011 2.2997,-0.72203 -0.24926,2.10674 -1.52347,1.69072 -3.14585,4.13792 -3.60529,5.43822 -0.71079,2.01168 -0.43937,2.15227 1.82035,0.9429 1.46063,-0.7817 2.51966,-0.94559 2.35339,-0.36418 -0.16626,0.5814 0.44628,2.40709 1.36122,4.05709 1.04554,1.88555 1.15077,3 0.28327,3 -0.75914,0 -1.23025,0.75 -1.04692,1.66667 0.64018,3.20087 -3.55436,1.63818 -4.47364,-1.66667 l -0.92721,-3.33333 -0.13291,3.41183 c -0.0731,1.8765 0.74801,4.5765 1.82469,6 1.1027,1.45789 1.97612,1.86032 2,0.9215 0.0233,-0.91666 1.20335,-1.66666 2.62227,-1.66666 1.41893,0 4.2486,-0.63445 6.28816,-1.40989 2.90764,-1.10548 3.29429,-1.66575 1.79083,-2.59494 -2.07457,-1.28216 -1.34843,-1.76306 4.67448,-3.09577 1.90741,-0.42206 1.60028,-0.6341 -1.07869,-0.74473 -2.29452,-0.0948 -3.40362,-0.70761 -2.86317,-1.58209 0.99032,-1.60237 10.96386,-0.39233 13.48099,1.63558 1.84669,1.48779 8.46087,0.0582 8.46087,-1.82869 0,-0.7323 -0.93116,-0.97412 -2.06925,-0.5374 -1.13809,0.43673 -1.72441,0.23609 -1.30294,-0.44586 0.42147,-0.68196 -1.79737,-1.47026 -4.93075,-1.75179 l -5.69706,-0.51187 6.66667,-0.25336 c 5.11104,-0.19424 6.19998,-0.58341 4.66666,-1.66779 -1.68712,-1.19315 -1.70649,-1.53114 -0.12383,-2.16052 1.28341,-0.51038 0.65153,-1.2866 -2,-2.45687 -2.13189,-0.94092 -2.97617,-1.78076 -1.87617,-1.8663 1.30271,-0.10131 0.89952,-0.76569 -1.15645,-1.90561 -2.57805,-1.42937 -2.77177,-1.89768 -1.05717,-2.55563 1.40935,-0.54082 3.87088,1.20707 7.48979,5.31836 4.22362,4.7983 5.37776,7.16565 5.33166,10.93622 -0.0809,6.61518 -3.16577,17.78704 -4.56093,16.51739 -0.6276,-0.57115 -0.67972,-0.24027 -0.11581,0.73528 1.17199,2.02751 1.18056,17.0821 0.0165,28.89294 -0.77639,7.87703 -0.72532,8.03512 3.32189,10.28467 l 4.1104,2.28466 -0.45538,-11.98347 c -0.25838,-6.79926 -1.13366,-12.66174 -2.02325,-13.55133 -3.60173,-3.60172 0.35657,-18.1163 4.50627,-16.52391 1.04163,0.39971 1.76249,0.29834 1.60191,-0.22527 -0.16058,-0.52361 1.34662,-3.34129 3.34933,-6.26153 2.00271,-2.92023 3.64129,-4.6367 3.64129,-3.81437 0,0.82232 -1.10747,2.8628 -2.46105,4.5344 -2.24607,2.77378 -2.27842,3.25258 -0.37035,5.48105 2.13996,2.49928 8.16474,3.40931 8.16474,1.23326 0,-0.66468 1.35,-0.95802 3,-0.65188 1.65,0.30614 2.25,0.19997 1.33333,-0.23594 -2.37896,-1.13128 -2.07088,-3.67742 0.33333,-2.75483 1.1,0.42211 2,0.25134 2,-0.37948 0,-0.63081 -1.6187,-1.55321 -3.59712,-2.04976 -2.82082,-0.70798 -3.18051,-1.1664 -1.66667,-2.12413 1.06175,-0.67171 1.32693,-1.23049 0.58928,-1.24172 -0.73766,-0.0112 -2.18919,-1.93619 -3.22564,-4.27769 -1.68131,-3.79833 -1.99377,-3.978 -2.89844,-1.66667 -0.75903,1.93924 -1.03754,1.35009 -1.10769,-2.34314 -0.0536,-2.82377 0.67843,-5.38974 1.71179,-6 0.99303,-0.58644 2.09017,-2.61338 2.43807,-4.50432 0.54503,-2.96229 0.22454,-3.36008 -2.31588,-2.87444 -3.12506,0.59739 -5.30757,-1.45481 -3.92547,-3.6911 0.53887,-0.87191 1.66365,-0.88879 3.2337,-0.0485 2.15358,1.15256 2.3156,0.83945 1.53661,-2.96939 -0.68252,-3.33718 -1.55564,-4.26364 -4.03806,-4.28481 -1.74198,-0.0148 -3.41987,-0.777 -3.72864,-1.69367 -0.37064,-1.10036 0.8715,-1.66667 3.65566,-1.66667 3.99196,0 4.17016,-0.21351 3.3385,-4 -0.68678,-3.12692 -0.41888,-4.000002 1.2274,-4.000002 1.15826,0 2.16972,0.750002 2.24767,1.666672 0.0779,0.91667 0.22795,2.86667 0.33333,4.33333 0.14314,1.99213 0.98025,2.55611 3.30935,2.22958 2.42271,-0.33966 3.00641,0.1062 2.61833,2 -0.54503,2.65968 -4.90883,2.64089 -6.85174,-0.0295 -0.64394,-0.88506 -0.77131,-0.12402 -0.30123,1.79993 0.44793,1.83334 1.17671,4.99202 1.61952,7.01929 0.50408,2.30784 1.56201,3.55412 2.82957,3.33334 2.7778,-0.48384 3.58773,2.45751 0.95491,3.46782 -1.38754,0.53245 -1.79855,0.28648 -1.18368,-0.7084 0.58893,-0.9529 0.3497,-1.15805 -0.63833,-0.54742 -1.00122,0.61879 -1.29807,2.77066 -0.81014,5.87268 0.42356,2.69281 1.04703,6.69603 1.38548,8.89603 0.34219,2.22427 3.25819,6.95954 6.56859,10.66666 7.39202,8.27789 8.72874,13.73722 5.01035,20.46291 -2.1098,3.81613 -2.72198,7.50719 -2.82805,17.05121 -0.12006,10.80319 0.14414,12.25388 2.33606,12.82708 2.82782,0.73949 6.37387,7.15541 7.61691,13.78135 0.46645,2.48643 1.36469,4.20152 1.99608,3.8113 0.63139,-0.39022 2.9215,0.20763 5.08914,1.32856 3.44603,1.78202 4.0619,3.00329 4.90225,9.72116 0.5286,4.22571 0.6074,19.2331 0.17511,33.34977 l -0.78599,25.66667 h 9.80437 c 9.21358,0 10.00322,0.23633 13.10452,3.92202 4.57665,5.43904 9.84059,30.74464 6.39534,30.74464 -0.9925,0 -1.45845,6.55211 -1.45845,20.50838 v 20.50839 l 5.92376,1.49162 c 3.25807,0.82039 7.90807,1.52827 10.33333,1.57307 2.42527,0.0448 7.70958,1.23183 11.74291,2.63784 l 7.33333,2.55638 -8.66666,-0.8572 c -4.76672,-0.47148 -10.01672,-0.76922 -11.66672,-0.66167 -1.65,0.10755 -4.35,0.16931 -6,0.13723 -1.65,-0.0321 -7.8,0.004 -13.66667,0.08 -5.86666,0.0761 -11.56666,0.12652 -12.66666,0.11207 -1.1,-0.0145 -4.7,0.0514 -8,0.14622 -3.3,0.0949 -22.2,0.0156 -42,-0.17625 -56.74177,-0.54966 -58.00814,-0.53947 -70.66667,0.56823 -6.6,0.57755 -16.09711,1.12334 -21.10469,1.21286 -7.00192,0.12518 -9.49938,0.70167 -10.81366,2.49611 -1.51121,2.06334 -4.00621,2.30268 -21.56197,2.0684 -10.91916,-0.14568 -24.20301,-0.47196 -29.51968,-0.72505 z m 14.33333,-3.00999 c 0,-0.79733 -4.42205,-1.25283 -11,-1.13307 -9.43502,0.17176 -10.14638,0.33297 -5,1.13307 9.37976,1.45827 16,1.45827 16,0 z m -20,-24.54814 v -20.54814 l 4.1023,-3.45186 c 4.02575,-3.38744 8.22057,-4.26757 12.50463,-2.62362 3.82452,1.46761 6.28533,8.51168 6.87296,19.67385 1.16862,22.19833 1.96107,27.73511 3.75631,26.24519 0.92171,-0.76494 2.07062,-0.99601 2.55315,-0.51349 0.48253,0.48253 0.76729,-4.47268 0.63281,-11.01157 l -0.2445,-11.88889 -0.84432,10.66667 -0.84432,10.66667 -0.0868,-14.66667 c -0.0543,-9.18597 0.2936,-13.17193 0.93108,-10.66667 l 1.01782,4 0.16146,-4 c 0.0888,-2.2 -1.17221,-6.518 -2.80224,-9.59556 -2.74368,-5.18017 -2.44808,-10.11043 0.3417,-5.69916 1.97904,3.12931 1.47343,0.2006 -0.68642,-3.9761 -1.81815,-3.51591 -9.45908,-9.40243 -12.1897,-9.39086 -0.64678,0.003 0.62404,1.11684 2.82404,2.47576 4.84161,2.99064 9.65639,8.18592 7.58638,8.18592 -0.82147,0 -3.58018,-1.83205 -6.13045,-4.07122 -2.55028,-2.23917 -6.48265,-4.60058 -8.73861,-5.24758 -3.53057,-1.01256 -4.55499,-0.68757 -7.35652,2.33375 -1.79012,1.93057 -3.95142,5.19198 -4.80288,7.24759 -0.85146,2.0556 -1.95531,3.73746 -2.45301,3.73746 -1.26898,0 -1.43006,7.38735 -0.57422,26.33334 0.57622,12.75574 1.14649,16.33333 2.60357,16.33333 1.51806,0 1.86574,-3.82918 1.86574,-20.54814 z m 50.5658,17.69299 c -1.84657,-3.45034 -1.50906,-4.00685 1.34796,-2.22261 1.41923,0.88632 2.32598,2.02319 2.015,2.52638 -0.73462,1.18863 4.27066,2.51004 9.59526,2.53318 2.60401,0.0113 4.4971,-0.78032 5,-2.09085 0.99093,-2.58232 0.76313,-29.56261 -0.36495,-43.22428 -0.5344,-6.47177 -1.36915,-9.89727 -2.36593,-9.70883 -0.8471,0.16015 -1.90391,-0.65666 -2.34845,-1.81512 -0.57352,-1.49456 -0.22301,-1.88171 1.20686,-1.33302 1.10832,0.4253 2.01512,0.19211 2.01512,-0.51821 0,-0.71032 -1.5,-1.29149 -3.33333,-1.29149 -3.37979,0 -4.45372,-1.81686 -1.97825,-3.34677 2.85798,-1.76634 -0.26656,-3.09584 -4.11929,-1.75277 -5.50672,1.91965 -6.36684,0.52576 -1.25053,-2.02659 4.91291,-2.45089 7.02457,-1.88203 9.38484,2.52817 0.95976,1.79334 2.00258,3.00305 2.31737,2.68826 1.16425,-1.16425 -4.33381,-8.75532 -6.30829,-8.70972 -1.12522,0.026 -3.54585,0.90473 -5.37919,1.95275 -3.99548,2.28403 -7.17688,2.57092 -5.91778,0.53365 0.65552,-1.06066 0.14449,-1.05868 -1.84706,0.007 -1.51432,0.81044 -3.2019,2.2203 -3.75018,3.13302 -0.65151,1.08458 -0.20415,1.01627 1.2913,-0.19717 4.33266,-3.51562 3.56647,-0.56209 -1.1009,4.24374 -4.77906,4.92085 -6.10311,8.07711 -2.86746,6.83547 1.42492,-0.54679 2.0018,2.49845 2.72315,14.37518 0.50339,8.28792 0.8803,16.71894 0.83758,18.73561 -0.0582,2.74657 0.56101,3.66667 2.46752,3.66667 4.64963,0 5.8741,8.57507 1.39185,9.74721 -1.89049,0.49437 -2.56573,0.18737 -2.12336,-0.96541 0.35674,-0.92966 0.11332,-2.53588 -0.54093,-3.56938 -0.82382,-1.30135 -1.19584,-0.37533 -1.20998,3.01186 -0.0275,6.59563 1.05202,8.96297 3.98645,8.74193 1.89953,-0.14309 2.17801,-0.70843 1.2256,-2.48803 z m 4.45958,-7.40217 c 1.29729,-0.33806 3.09729,-0.31582 4,0.0494 0.90271,0.36523 -0.15871,0.64182 -2.35871,0.61465 -2.2,-0.0272 -2.93858,-0.326 -1.64129,-0.66406 z m -2.74694,-32.91708 c 0.34658,-8.47397 0.6743,-9.49227 3.0549,-9.49227 2.39139,0 2.67563,0.91785 2.75355,8.89168 0.0812,8.31227 -0.11785,8.93081 -3.0549,9.49226 -3.08994,0.59068 -3.13537,0.44399 -2.75355,-8.89167 z m 0.59785,-13.55772 c 0.90724,-2.36424 4.62822,-2.09235 5.45767,0.39879 0.34725,1.0429 -0.71851,1.66666 -2.84767,1.66666 -2.52466,0 -3.19809,-0.53292 -2.61,-2.06545 z m 116.85769,27.22024 0.26576,-28.48812 -3.95583,-7.33333 c -3.90212,-7.23377 -24.54417,-29.33334 -27.39873,-29.33334 -0.80807,0 -1.0984,0.6 -0.64518,1.33334 1.30362,2.1093 -1.49381,1.54981 -3.33333,-0.66667 -0.98963,-1.19243 -3.61287,-1.91933 -6.49659,-1.80022 -4.23923,0.17509 -4.36712,0.27 -1.03528,0.76823 2.0908,0.31266 5.61914,1.67386 7.84075,3.02491 2.22162,1.35104 4.95939,2.10337 6.08394,1.67184 1.18804,-0.45589 1.69684,-0.22185 1.21446,0.55865 -0.45659,0.73878 1.58019,3.69075 4.52618,6.55992 3.52364,3.43176 5.01605,4.30426 4.3618,2.55 -0.90455,-2.42536 -0.77829,-2.49055 1.3953,-0.72038 3.71252,3.02347 12.99595,17.28598 12.14626,18.6608 -0.41776,0.67596 0.003,1.7159 0.93514,2.31097 1.98411,1.26671 1.98839,1.33479 2.19915,34.97084 0.0892,14.23889 0.49257,25.55854 0.89633,25.15478 0.40376,-0.40376 0.8537,-13.55376 0.99987,-29.22222 z m -23.73398,-56.56523 c -2.48565,-2.11105 -2.94891,-2.89328 -1.22367,-2.06617 2.47832,1.18816 6.97355,5.48671 5.72027,5.46999 -0.27313,-0.004 -2.2966,-1.53536 -4.4966,-3.40382 z M 86.85274,366.61506 c -1.28333,-0.33537 -3.38333,-0.33537 -4.66666,0 -1.28334,0.33537 -0.23334,0.60976 2.33333,0.60976 2.56666,0 3.61666,-0.27439 2.33333,-0.60976 z m 103.11983,-29.51322 c 0.11895,-21.56973 0.50699,-26.85625 2.01375,-27.43445 1.02653,-0.39391 1.84734,-1.78504 1.82402,-3.09139 -0.0394,-2.20572 -0.17945,-2.19411 -1.96331,0.16282 -2.26827,2.99694 -2.40003,2.69348 -4.33931,-9.99356 -2.55494,-16.71478 -7.78005,-24.34504 -17.72468,-25.88346 l -4.59697,-0.71114 5.23314,2.036 c 7.19162,2.79796 7.11169,2.9841 -0.99277,2.31202 -5.72655,-0.47489 -8.38495,0.0683 -13.82478,2.82488 -8.97925,4.55013 -17.44692,14.95704 -14.53733,17.86663 0.43363,0.43363 0.78841,-0.20986 0.78841,-1.42997 0,-3.40711 9.36632,-13.02093 15.33333,-15.73851 14.44069,-6.57679 26.09128,0.31174 27.92757,16.51245 0.66186,5.83925 0.45624,7.67153 -0.86262,7.68708 -1.3111,0.0155 -1.34165,0.26828 -0.1258,1.04108 0.8832,0.56137 1.54453,2.20218 1.46962,3.64625 -0.0749,1.44407 0.2829,6.67559 0.79513,11.62559 0.58231,5.62726 0.4412,9 -0.37655,9 -0.83591,0 -0.86868,1.53134 -0.0908,4.24363 0.66938,2.334 0.80315,6.684 0.29727,9.66667 -0.50589,2.98267 -0.68934,6.02303 -0.40767,6.75636 0.28167,0.73334 0.60348,3.43334 0.71512,6 0.57969,13.32726 0.70491,14.0598 2.01887,11.80963 0.70347,-1.2047 1.34534,-14.21357 1.42637,-28.90861 z m 94.2007,6.09898 c -0.26036,-4.58333 -0.47338,-0.83333 -0.47338,8.33334 0,9.16667 0.21302,12.91667 0.47338,8.33333 0.26036,-4.58333 0.26036,-12.08333 0,-16.66667 z m 8.75382,-15.11834 c 4.32317,-3.71528 7.17725,-4.02402 11.1936,-1.21085 4.48641,3.1424 6.1766,10.59789 5.9687,26.3281 -0.15678,11.86197 0.15144,14.33443 1.78695,14.33443 2.65295,0 2.68991,-20.12273 0.0575,-31.31448 -2.96537,-12.60744 -12.01813,-17.73726 -20.78444,-11.77769 l -3.29666,2.24118 2.53998,-2.90784 c 1.39699,-1.59931 1.99699,-2.88898 1.33334,-2.86594 -0.66366,0.023 -2.35916,1.62181 -3.76778,3.55281 -1.40863,1.931 -1.75666,3.01372 -0.77342,2.40604 1.37888,-0.85219 1.52199,-0.52123 0.6258,1.44719 -1.55152,3.4078 -2.46889,34.78144 -1.10047,37.63579 0.63527,1.32509 1.36564,-5.33347 1.77719,-16.20208 0.68881,-18.19056 0.75163,-18.49717 4.43971,-21.66666 z m -189.74102,33.05168 c 0,-2.78667 -0.72,-5.78667 -1.6,-6.66667 -1.24444,-1.24444 -1.24444,-1.6 0,-1.6 1.10313,0 1.6,-3.12528 1.6,-10.06376 v -10.06376 l -6.02377,-5.69024 c -3.31308,-3.12963 -5.61308,-6.10094 -5.11111,-6.60291 1.40395,-1.40395 -2.05862,-1.08132 -4.93897,0.4602 -4.97294,2.66143 -6.43421,8.08154 -6.67316,24.75193 -0.12516,8.73136 -0.80859,16.24171 -1.51873,16.68966 -0.71015,0.44794 -0.34087,1.17911 0.82062,1.62482 1.85993,0.71372 2.11179,-1.25186 2.11179,-16.48112 0,-15.51371 0.27417,-17.56565 2.66667,-19.95815 3.21001,-3.21002 3.88978,-3.26217 7.70332,-0.59106 1.9013,1.33172 2.96334,3.45834 2.96334,5.93374 0,2.2678 0.96181,4.41835 2.33334,5.21719 2.17333,1.26585 2.15964,1.36182 -0.19966,1.39958 -2.36389,0.0378 -2.47557,0.84948 -1.67288,12.15781 0.96372,13.57695 1.29465,14.54941 4.95123,14.54941 2.10771,0 2.58797,-0.94025 2.58797,-5.06667 z m -6.66666,-25.6 c 0,-0.73334 0.9,-1.33334 2,-1.33334 1.1,0 2,0.6 2,1.33334 0,0.73333 -0.9,1.33333 -2,1.33333 -1.1,0 -2,-0.6 -2,-1.33333 z m 14.52944,6 c -0.053,-11.73334 -0.56366,-24.33334 -1.13477,-28 -0.68143,-4.37501 -1.09259,3.6458 -1.19611,23.33333 -0.10409,19.79883 0.28177,29.31992 1.13477,28 0.71087,-1.1 1.24912,-11.6 1.19611,-23.33333 z m 23.25445,0.6102 c 0.70661,-19.50765 0.50767,-24.86516 -1.05209,-28.33333 -3.30884,-7.35727 -5.55337,-9.35224 -9.64268,-8.57052 -3.4436,0.65829 -3.52554,0.57699 -1.1611,-1.15193 2.83026,-2.06954 1.99906,-3.99006 -1.19622,-2.76392 -4.72102,1.81163 -7.38911,9.12483 -7.37307,20.2095 0.008,5.86666 0.55118,11.51298 1.20598,12.54736 0.7346,1.16043 0.60394,2.82002 -0.34114,4.33334 -1.16572,1.86661 -1.13648,3.08547 0.12236,5.10121 0.90974,1.45671 1.65407,3.55671 1.65407,4.66666 0,1.10995 0.53322,2.01809 1.18494,2.01809 0.65172,0 1.58204,2.11668 2.06737,4.70372 0.48533,2.58705 1.34508,4.41779 1.91055,4.06831 1.17537,-0.72642 5.5038,3.92137 5.5038,5.90988 0,0.72495 1.40532,1.3181 3.12293,1.3181 h 3.12292 z m -12.45056,0.0565 c 0,-0.73333 0.86459,-1.33333 1.92131,-1.33333 1.05672,0 2.29213,0.6 2.74536,1.33333 0.45322,0.73334 -0.41137,1.33334 -1.92131,1.33334 -1.50995,0 -2.74536,-0.6 -2.74536,-1.33334 z m -3.76951,-21.4145 c -0.0515,-11.53932 0.072,-12.06257 2.75334,-11.66666 3.60187,0.53182 4.56336,3.33388 1.42329,4.14785 -2.26367,0.58679 -2.25957,0.63319 0.0689,0.77865 1.68357,0.10516 2.21697,0.82964 1.66666,2.26371 -0.44512,1.15998 -0.80932,5.35998 -0.80932,9.33334 0,6.19973 -0.35801,7.22428 -2.52445,7.22428 -2.28733,0 -2.52952,-1.13475 -2.57839,-12.08117 z m 23.76951,39.33582 c 0,-3.71294 -0.51892,-5.75798 -1.33333,-5.25465 -0.85017,0.52543 -1.4247,-4.15694 -1.58545,-12.92131 -0.17628,-9.61086 -0.40783,-11.33902 -0.7698,-5.74536 -0.67924,10.49672 0.92973,30.00001 2.47494,30.00001 0.6675,0 1.21364,-2.73542 1.21364,-6.07869 z m 83.36869,-4.08664 c -0.31668,-3.57574 -0.64636,-14.30134 -0.73262,-23.83468 -0.0862,-9.53333 -0.56466,-16.31247 -1.06312,-15.06474 -1.42363,3.56359 -0.30622,50.11564 1.14175,47.56609 0.67637,-1.19093 0.97066,-5.09093 0.65399,-8.66667 z m 14.00519,7.83199 c 0.0383,-2.20492 0.1162,-2.20338 1.41528,0.028 0.7561,1.29876 1.93786,2.01335 2.62612,1.58798 1.47489,-0.91153 1.71697,-24.61615 0.25139,-24.61574 -0.55,1.6e-4 -0.94633,-5.39984 -0.88073,-12 0.0947,-9.52873 -0.27033,-12.00028 -1.77242,-12.00028 -1.4697,0 -1.79375,1.75982 -1.45261,7.88876 0.2415,4.33882 -0.0109,8.33882 -0.56091,8.88889 -1.47926,1.47945 -1.21415,3.51208 0.33333,2.55568 0.85863,-0.53065 1.24781,3.59503 1.09313,11.58798 l -0.24022,12.41203 -0.85291,-10.00001 c -0.4691,-5.5 -0.961,-8.05 -1.09312,-5.66666 -0.13212,2.38333 -0.87562,4.33333 -1.65223,4.33333 -0.77662,0 -1.09911,-0.50631 -0.71666,-1.12513 0.38245,-0.61882 0.0102,-3.46882 -0.82727,-6.33333 l -1.52263,-5.20821 -0.93629,4 c -0.64315,2.74765 -0.99207,0.6604 -1.11446,-6.66666 -0.098,-5.86667 -0.7598,-11.56667 -1.47067,-12.66667 -1.14889,-1.77778 -1.3065,-1.77778 -1.41847,0 -0.0693,1.1 -0.39796,6.35 -0.73039,11.66667 -0.38445,6.14857 -0.10341,9.66666 0.77222,9.66666 0.75715,0 1.37664,0.63541 1.37664,1.41203 0,0.77661 -0.6,1.0412 -1.33333,0.58797 -1.69179,-1.04558 -1.74792,1.04994 -0.0732,2.73334 0.69306,0.69666 1.47961,4.86666 1.74788,9.26666 l 0.48777,8.00001 0.25211,-9.00001 c 0.13866,-4.95 0.85211,-9 1.58545,-9 0.73333,0 1.33333,1.2 1.33333,2.66667 0,1.54333 0.88889,2.66667 2.11011,2.66667 1.7321,0 2.01661,1.31373 1.58812,7.33333 -0.28711,4.03334 -0.0367,7.33334 0.55655,7.33334 0.5932,0 1.0968,-1.05 1.1191,-2.33334 z m 2.96236,-3.66666 c 0.0148,-2.93334 0.28785,-3.97634 0.60677,-2.31779 0.31893,1.65855 0.30682,4.05855 -0.0269,5.33333 -0.33373,1.27478 -0.59466,-0.0822 -0.57987,-3.01554 z M 241.958,346.75642 c 0.064,-1.55326 0.37992,-1.8692 0.80556,-0.80556 0.38516,0.9625 0.33779,2.1125 -0.10526,2.55556 -0.44306,0.44306 -0.75819,-0.34444 -0.7003,-1.75 z m 38.56141,-23.88893 v -43.33333 h -4.0698 -4.0698 l 0.78001,39.66666 c 0.87704,44.60125 1.12196,47.00001 4.79886,47.00001 2.47289,0 2.56073,-1.48648 2.56073,-43.33334 z m -3.63685,34 c 0,-3.3 0.26002,-4.65 0.57782,-3 0.31781,1.65 0.31781,4.35 0,6 -0.3178,1.65 -0.57782,0.3 -0.57782,-3 z m -1.59122,-18.11111 c 0.064,-1.55326 0.37992,-1.8692 0.80555,-0.80556 0.38516,0.9625 0.33779,2.1125 -0.10526,2.55556 -0.44306,0.44306 -0.75819,-0.34444 -0.70029,-1.75 z M 71.38743,363.1101 c -0.86497,-1.04221 -1.60966,-9.58824 -1.82993,-21 -0.23675,-12.26559 -0.85487,-19.00089 -1.70476,-18.57594 -1.379,0.6895 -1.18562,33.08648 0.22604,37.86836 0.5431,1.83974 0.21587,2.3307 -1.19308,1.79003 -1.0678,-0.40975 -2.78704,-0.2097 -3.82053,0.44455 -1.26931,0.80354 0.0128,1.19618 3.95083,1.20997 4.6746,0.0164 5.54089,-0.32784 4.37143,-1.73697 z m 156.75542,-7.22428 c -0.30647,-2.02675 -0.56541,-0.685 -0.57542,2.98167 -0.01,3.66667 0.24074,5.32492 0.55722,3.685 0.31648,-1.63992 0.32467,-4.63992 0.0182,-6.66667 z m 21.34878,8.17612 c -0.44306,-0.44306 -1.59306,-0.49043 -2.55556,-0.10527 -1.06364,0.42564 -0.7477,0.74158 0.80556,0.80556 1.40555,0.0579 2.19305,-0.25724 1.75,-0.70029 z m -14.84378,-7.29109 c 0.0866,-2.14685 -0.35693,-3.90336 -0.98553,-3.90336 -0.6286,0 -1.14291,2.2 -1.14291,4.88889 0,5.68572 1.89484,4.80836 2.12844,-0.98553 z m 18.8053,3.5786 c 0.58644,-1.01826 2.26626,-2.14866 3.73292,-2.512 1.5781,-0.39095 0.67012,-0.72376 -2.22428,-0.81529 -2.69002,-0.0851 -5.92189,-0.55028 -7.18193,-1.0338 -1.60933,-0.61756 -2.10462,-0.32002 -1.66461,1 0.34451,1.03352 1.32638,1.95413 2.18193,2.0458 0.85556,0.0917 2.30556,0.25085 3.22223,0.35375 1.15994,0.1302 1.05859,0.58005 -0.33334,1.47958 -1.22336,0.7906 -1.37853,1.30043 -0.39958,1.31292 0.88022,0.0112 2.08022,-0.8127 2.66666,-1.83096 z M 375.31786,331.0323 c 0.0906,-15.93863 -0.20192,-29.34606 -0.65015,-29.79429 -0.44824,-0.44823 -0.81497,12.88504 -0.81497,29.62948 0,16.74445 0.29257,30.15188 0.65016,29.79429 0.35758,-0.35759 0.72432,-13.69085 0.81496,-29.62948 z m -44.13179,7.96002 c 0,-20.01348 -0.0699,-20.52356 -2.71749,-19.8312 -2.54047,0.66434 -2.70457,1.65593 -2.51909,15.22102 0.10912,7.98072 0.732,14.84017 1.38416,15.24323 0.65217,0.40306 1.18576,2.39742 1.18576,4.43192 0,3.27288 0.89426,5.47687 2.22222,5.47687 0.24444,0 0.44444,-9.24383 0.44444,-20.54184 z m 9.5192,17.2085 c 1.36632,3.14164 0.49553,-30.43715 -0.90765,-35 -1.33689,-4.34731 -3.52843,-3.71307 -2.30362,0.66667 0.56398,2.01667 0.93799,11.16667 0.83115,20.33333 -0.10684,9.16667 0.12404,15.46667 0.51306,14 l 0.70731,-2.66666 z m 6.07146,-4.30795 c -0.33806,-1.29729 -0.63689,-0.55871 -0.66406,1.64129 -0.0272,2.2 0.24942,3.26142 0.61465,2.35871 0.36523,-0.90271 0.38747,-2.70271 0.0494,-4 z m -85.75732,1.66336 c 1.375,-1.04122 2.5,-3.4112 2.5,-5.26662 0,-1.85542 0.375,-3.1474 0.83333,-2.87108 0.45833,0.27632 1.60699,-0.33462 2.55257,-1.35765 1.43168,-1.54895 1.20867,-1.88228 -1.33333,-1.99296 -2.81713,-0.12266 -2.8469,-0.19979 -0.38591,-1 3.28177,-1.0671 3.95641,-3.67603 1.22193,-4.72535 -1.15333,-0.44257 -1.67596,-0.20972 -1.21249,0.54019 0.44804,0.72494 0.1292,1.31806 -0.70853,1.31806 -2.70831,0 -0.53655,-3.23183 2.79795,-4.16364 2.78501,-0.77827 2.86392,-0.94081 0.56781,-1.16969 -2.28552,-0.22782 -2.19023,-0.41839 0.66667,-1.33333 1.83333,-0.58714 2.37632,-1.12733 1.20665,-1.20043 -1.16968,-0.0731 -3.21267,-1.33291 -4.53999,-2.79957 -2.35957,-2.6073 -2.32706,-2.67011 1.46002,-2.82134 2.35846,-0.0942 2.93907,-0.39732 1.48455,-0.77511 -1.65851,-0.43076 -2.14055,-1.4025 -1.57682,-3.17866 0.45431,-1.43139 0.18508,-2.55823 -0.61123,-2.55823 -2.42178,0 -1.56455,-2.65729 0.91015,-2.82133 2.07584,-0.1376 2.08836,-0.21955 0.11353,-0.74257 -3.16447,-0.83809 -4.31609,-4.69686 -1.81883,-6.09439 2.49419,-1.39582 2.28718,-9.00837 -0.24498,-9.00837 -0.94401,0 -1.71639,-0.6 -1.71639,-1.33334 0,-0.73333 0.67347,-1.33333 1.4966,-1.33333 0.93781,0 1.05595,-0.62228 0.31641,-1.66667 -2.42598,-3.42599 -1.29269,-8.15906 2.18699,-9.13379 3.09631,-0.86733 3.02817,-0.94318 -0.95815,-1.06663 -3.4289,-0.1062 -4.12035,-0.57887 -3.44008,-2.35164 0.60496,-1.5765 0.35907,-1.91444 -0.84949,-1.16751 -0.93549,0.57816 -5.68745,0.98153 -10.55992,0.89637 -4.87246,-0.0852 -9.75902,0.43103 -10.85902,1.1471 -1.46334,0.95258 -0.39001,1.31289 4,1.34277 4.37033,0.0297 5.45678,0.39189 4,1.33333 -1.1,0.71088 -3.5,1.31088 -5.33334,1.33334 -2.64462,0.0324 -2.9201,0.30788 -1.33333,1.33333 1.20172,0.77661 1.36618,1.30065 0.41202,1.31292 -0.87338,0.0112 -1.9588,-0.57959 -2.41202,-1.31292 -0.45322,-0.73333 -1.53864,-1.28596 -2.41202,-1.22807 -1.07561,0.0713 -1.02742,0.32986 0.14936,0.80133 1.32547,0.53106 1.21139,1.08065 -0.4812,2.31831 -2.06111,1.50711 -2.05135,1.78941 0.13742,3.97818 2.25238,2.25239 2.16881,2.32646 -1.90099,1.68505 l -4.25694,-0.6709 5.38371,5.22472 c 5.29252,5.13621 8.04733,6.48266 8.04733,3.93323 0,-0.71032 -0.9,-0.94613 -2,-0.52402 -1.1,0.42211 -2,0.10328 -2,-0.70851 0,-2.27901 3.98073,-1.74429 4.9028,0.65858 0.45051,1.17401 0.11465,2.56994 -0.74635,3.10207 -1.02901,0.63597 -0.41023,1.49387 1.80571,2.50352 3.87415,1.76518 4.47669,4.25017 1.03784,4.28026 -1.99407,0.0174 -2.04253,0.20835 -0.33334,1.31292 1.68678,1.09008 1.69907,1.29569 0.0785,1.31291 -1.37279,0.0146 -1.18661,0.55779 0.65196,1.90219 3.19918,2.33929 4.60288,1.56212 4.60288,-2.54844 0,-3.65087 1.54931,-5.01174 4.44199,-3.90171 1.58974,0.61004 1.98396,3.07762 1.86457,11.67099 l -0.15141,10.89739 -6.57601,-0.47315 c -3.76514,-0.27091 -6.25331,0.049 -5.82106,0.7484 0.41523,0.67185 2.58953,1.09453 4.83177,0.9393 2.24225,-0.15523 4.07681,0.25799 4.07681,0.91827 0,0.66028 -1.16459,1.20051 -2.58797,1.20051 -1.42339,0 -2.87292,0.46105 -3.22118,1.02454 -0.34826,0.5635 1.86633,0.89423 4.92131,0.73496 3.05498,-0.15927 4.35451,0.0606 2.88784,0.48852 l -2.66666,0.7781 2.66666,1.1124 c 2.38457,0.99473 2.31404,1.09483 -0.66666,0.94625 -6.75157,-0.33656 -9.33334,0.28543 -9.33334,2.24857 0,1.32441 1.32459,2 3.92131,2 2.15672,0 4.30132,0.61486 4.76578,1.36637 0.46445,0.7515 0.34986,1.28045 -0.25465,1.17544 -0.60451,-0.10502 -2.8991,-0.0777 -5.0991,0.0607 -3.48549,0.21925 -3.65699,0.39901 -1.33334,1.39752 2.38033,1.02286 2.40768,1.15597 0.25465,1.23962 -1.32662,0.0515 -2.0412,0.69371 -1.58798,1.42704 1.2228,1.97854 10.28876,1.5347 13.16667,-0.64459 z m -3.41667,-16.26622 c 0.9625,-0.38516 2.1125,-0.3378 2.55556,0.10526 0.44305,0.44305 -0.34445,0.75819 -1.75,0.70029 -1.55326,-0.064 -1.8692,-0.37992 -0.80556,-0.80555 z m -2.66667,-50.66667 c 0.9625,-0.38516 2.1125,-0.33779 2.55556,0.10526 0.44305,0.44306 -0.34445,0.75819 -1.75,0.70029 -1.55326,-0.064 -1.8692,-0.37992 -0.80556,-0.80555 z m 98.06551,66.91082 c 0.4221,-1.1 0.1863,-2 -0.52402,-2 -0.71032,0 -1.29149,0.9 -1.29149,2 0,1.1 0.23581,2 0.52402,2 0.28821,0 0.86938,-0.9 1.29149,-2 z m 14.65028,0.0427 c 0.41309,-1.07652 0.22853,-2.28026 -0.41014,-2.67498 -0.63867,-0.39472 -1.4651,0.0361 -1.8365,0.9573 -0.37141,0.92124 -0.8434,-4.02502 -1.04888,-10.99169 l -0.37358,-12.66667 -0.46035,10.6622 c -0.48188,11.16086 0.24961,16.67114 2.21308,16.67114 0.6409,0 1.50327,-0.88079 1.91637,-1.9573 z M 144.1506,340.53416 c -0.29577,-2.38334 -0.53776,-0.43334 -0.53776,4.33333 0,4.76667 0.24199,6.71667 0.53776,4.33333 0.29577,-2.38333 0.29577,-6.28333 0,-8.66666 z m 227.14071,-10.94228 c -0.9359,-5.58502 -1.12459,-4.12634 -1.11363,8.60894 0.0122,14.21911 0.0941,14.70775 1.12684,6.7244 0.61249,-4.73492 0.60655,-11.63492 -0.0132,-15.33334 z m -292.18207,6.36241 c 0.0423,-3.06893 0.71458,-7.26893 1.49405,-9.33333 1.12635,-2.98313 1.07813,-3.41792 -0.23497,-2.1185 -1.8738,1.85428 -3.68169,12.75635 -3.59824,21.69836 l 0.056,6 1.10316,-5.33333 c 0.60674,-2.93333 1.13774,-7.84427 1.18,-10.9132 z m 277.36962,3.24653 c -0.0223,-6.78333 -0.49403,-11.43333 -1.0483,-10.33333 -1.0096,2.00366 -0.52872,22.66667 0.52752,22.66667 0.30873,0 0.54308,-5.55 0.52078,-12.33334 z m -8.38197,4.08334 c -0.42563,-1.06365 -0.74157,-0.7477 -0.80555,0.80555 -0.0579,1.40556 0.25723,2.19306 0.70029,1.75 0.44305,-0.44305 0.49042,-1.59305 0.10526,-2.55555 z m -31.99172,-10.08334 c -0.33537,-1.28333 -0.60976,-0.23333 -0.60976,2.33334 0,2.56666 0.27439,3.61666 0.60976,2.33333 0.33537,-1.28333 0.33537,-3.38333 0,-4.66667 z m -173.34161,-3.25 c -0.42564,-1.06364 -0.74158,-0.7477 -0.80556,0.80556 -0.0579,1.40556 0.25724,2.19306 0.7003,1.75 0.44305,-0.44306 0.49042,-1.59306 0.10526,-2.55556 z m 95.11429,-5.41423 -0.64156,-8.33577 -0.43819,6.49726 c -0.38493,5.7075 0.2049,10.16445 1.34613,10.17184 0.20635,0.001 0.0865,-3.74866 -0.26638,-8.33333 z m 13.97489,6.99757 c -0.45322,-0.73334 -2.02405,-1.33334 -3.49071,-1.33334 -1.46667,0 -2.29585,0.6 -1.84262,1.33334 0.45322,0.73333 2.02404,1.33333 3.49071,1.33333 1.46667,0 2.29584,-0.6 1.84262,-1.33333 z M 78.90652,322.87648 c 0.52042,-0.8074 -0.10378,-0.32325 -1.38711,1.07588 -1.28333,1.39914 -2.2953,3.52742 -2.24882,4.72951 0.0534,1.38178 0.56359,0.98608 1.38711,-1.07589 0.71642,-1.79383 1.72839,-3.9221 2.24882,-4.7295 z m 236.71555,3.24375 c 0.28596,-1.87378 -0.40762,-4.00042 -1.63652,-5.01792 -1.17305,-0.97125 -1.38281,-1.386 -0.46614,-0.92167 2.09396,1.06067 2.21456,-1.48382 0.13134,-2.77132 -1.06123,-0.65588 -0.75244,-1.54619 1,-2.88326 2.45268,-1.87132 2.44489,-1.90756 -0.23866,-1.11169 -2.45698,0.72867 -2.75622,0.28705 -2.61847,-3.86446 0.10159,-3.06161 -0.88499,-5.95796 -2.84473,-8.35145 l -3.00025,-3.6643 -0.0479,7.4 c -0.0516,7.96893 -1.57849,10.6 -6.15136,10.6 -4.50003,0 -6.08474,-3.06213 -5.63669,-10.89177 l 0.40677,-7.10823 5.54172,-0.40389 5.54172,-0.4039 -5.47698,-5.26277 c -5.86475,-5.63538 -12.91781,-7.53774 -10.38245,-2.80037 0.9067,1.69417 0.83814,2.94211 -0.21975,4 -1.16124,1.16124 -1.09538,1.53759 0.26905,1.53759 1.31301,0 1.14201,0.73442 -0.62584,2.68788 -2.34616,2.59247 -2.34685,2.75048 -0.0196,4.45223 2.1858,1.59829 2.20705,1.84335 0.22584,2.60361 -3.27081,1.25513 -2.6846,4.90091 0.81293,5.05586 2.87809,0.1275 2.86454,0.17629 -0.33333,1.20042 -2.46883,0.79066 -2.69118,1.10199 -0.85735,1.20043 1.62848,0.0874 2.21329,0.81749 1.70851,2.13291 -0.539,1.40462 0.11314,2.00608 2.19069,2.02041 2.39883,0.0166 2.57999,0.26481 0.95815,1.31292 -1.4502,0.9372 -0.29959,1.29811 4.18562,1.31292 4.34044,0.0143 7.12459,0.84619 9.33333,2.78866 1.73125,1.52254 2.30501,2.32984 1.27504,1.79399 -1.24248,-0.6464 -1.548,-0.44892 -0.90787,0.58684 0.53064,0.8586 1.5208,1.21747 2.20034,0.79749 0.67954,-0.41998 1.93555,0.77277 2.79112,2.65055 1.78758,3.92331 2.20449,3.8256 2.89175,-0.67771 z m -63.10266,-0.58607 c 0,-2.46161 -0.70832,-3.33334 -2.70852,-3.33334 -3.30814,0 -5.05234,3.82235 -2.48577,5.44749 3.28766,2.08173 5.19429,1.30571 5.19429,-2.11415 z M 141.46242,320.5497 c -0.31892,-1.65855 -0.59197,-0.61554 -0.60677,2.31779 -0.0148,2.93333 0.24614,4.29033 0.57986,3.01555 0.33373,-1.27479 0.34584,-3.67479 0.0269,-5.33334 z m -38.69886,2.73446 c -0.42564,-1.06365 -0.74158,-0.7477 -0.80556,0.80555 -0.0579,1.40556 0.25724,2.19306 0.7003,1.75 0.44305,-0.44305 0.49042,-1.59305 0.10526,-2.55555 z m 34.69682,-8.08334 c -0.3178,-1.65 -0.57782,-0.3 -0.57782,3 0,3.3 0.26002,4.65 0.57782,3 0.31781,-1.65 0.31781,-4.35 0,-6 z m 11.45147,-0.0474 c 1.61749,-1.30942 5.72567,-3.83648 9.1293,-5.61569 l 6.1884,-3.23491 5.27266,2.54747 c 2.89996,1.40111 6.71518,4.0678 8.47826,5.92599 1.76308,1.85818 4.1056,3.37969 5.2056,3.38113 1.64048,0.002 1.6725,-0.20486 0.17815,-1.15156 -1.2166,-0.77075 -1.64785,-2.97874 -1.2981,-6.64625 0.28807,-3.02064 0.20212,-5.49207 -0.191,-5.49207 -0.39312,0 -0.70272,-4.2 -0.688,-9.33333 0.0154,-5.39129 -0.54227,-9.34898 -1.32048,-9.37037 -0.74098,-0.0204 -3.09723,-1.82037 -5.23612,-4 -2.91556,-2.9711 -5.11563,-3.96297 -8.79029,-3.96297 -6.47157,0 -15.91562,5.10775 -19.65416,10.62983 -2.69946,3.98728 -2.99153,5.98093 -2.91548,19.90068 0.0631,11.55799 0.41523,14.62665 1.39244,12.13616 0.71936,-1.83333 2.63133,-4.40468 4.24882,-5.71411 z m 2.54102,-17.95256 c 0.29981,-5.7482 0.90034,-7.66666 2.39987,-7.66666 1.49953,0 2.10006,1.91846 2.39987,7.66666 0.36647,7.02621 0.16599,7.66667 -2.39987,7.66667 -2.56586,0 -2.76634,-0.64046 -2.39987,-7.66667 z m 10.39987,-2.98221 c 0,-7.69149 0.48681,-10.586 1.86965,-11.11664 2.9876,-1.14645 3.46368,0.29661 3.46368,10.49886 0,8.50093 -0.31076,9.70354 -2.66666,10.31962 -2.49834,0.65333 -2.66667,0.0409 -2.66667,-9.70184 z m 11.46369,9.66808 c -0.43836,-0.43836 -0.79702,-3.99702 -0.79702,-7.90813 0,-6.22222 0.33333,-7.11111 2.66666,-7.11111 2.33703,0 2.66667,0.88889 2.66667,7.19068 0,4.93891 -0.58548,7.41535 -1.86965,7.90813 -1.0283,0.3946 -2.2283,0.3588 -2.66666,-0.0796 z M 71.71009,318.75844 c 1.60659,-4.18671 0.9171,-6.23015 -1.85735,-5.50462 -2.99007,0.78192 -3.33112,-0.51951 -1.25977,-4.80732 1.35904,-2.81331 1.33637,-2.82433 -0.66667,-0.32417 -1.14046,1.4235 -2.07356,3.0735 -2.07356,3.66667 0,0.59317 -0.9,1.07849 -2,1.07849 -1.1,0 -2,0.6 -2,1.33333 0,0.73334 1.74383,1.33334 3.87518,1.33334 3.21873,0 3.75704,0.45172 3.17782,2.66666 -0.82218,3.14402 1.62512,3.63064 2.80435,0.55762 z m 226.47598,1.22601 c -0.91666,-0.36988 -2.41666,-0.36988 -3.33333,0 -0.91667,0.36988 -0.16667,0.67251 1.66667,0.67251 1.83333,0 2.58333,-0.30263 1.66666,-0.67251 z m 62.92593,-5.04289 c -0.50198,-2.67579 -1.17936,-4.59841 -1.50529,-4.27249 -0.32592,0.32593 -0.18188,2.78188 0.3201,5.45768 0.50199,2.6758 1.17937,4.59842 1.50529,4.27249 0.32593,-0.32593 0.18188,-2.78188 -0.3201,-5.45768 z m -209.25926,1.92593 c 1.32732,-1.46667 2.1133,-2.66667 1.74663,-2.66667 -0.36666,0 -1.75265,1.2 -3.07996,2.66667 -1.32732,1.46667 -2.1133,2.66667 -1.74664,2.66667 0.36667,0 1.75265,-1.2 3.07997,-2.66667 z m 216.78754,-8 c -0.4508,-1.26213 -1.0049,-0.52427 -1.5019,2 -0.43314,2.2 -0.46608,4.9 -0.0732,6 0.4508,1.26214 1.0049,0.52427 1.5019,-2 0.43314,-2.2 0.46608,-4.9 0.0732,-6 z M 86.44256,315.6585 c 0.41095,-0.66494 -0.60363,-0.91289 -2.25464,-0.551 -2.14278,0.46968 -2.49262,0.29625 -1.22246,-0.60603 1.38243,-0.98203 1.13709,-1.43197 -1.09976,-2.01692 -2.41521,-0.6316 -2.64899,-1.18295 -1.45083,-3.42173 0.78557,-1.46785 1.06627,-3.61228 0.62377,-4.76541 -0.52593,-1.37055 -0.0626,-2.09659 1.33812,-2.09659 1.17846,0 2.14265,-1.02176 2.14265,-2.27059 0,-1.64903 -1.45998,-0.84497 -5.33333,2.93726 -2.93334,2.86432 -5.33334,6.25207 -5.33334,7.52833 0,4.43065 10.41371,8.7837 12.58982,5.26268 z m 11.41018,-1.30217 c 0,-0.6478 1.34645,-1.52993 2.9921,-1.96028 2.84598,-0.74424 2.87852,-0.89604 0.66621,-3.10835 -2.21231,-2.2123 -2.17936,-2.41231 0.67456,-4.09534 l 3.00046,-1.76944 -3,0.81213 c -3.5244,0.9541 -3.92514,-0.3971 -0.7963,-2.68496 2.70045,-1.97462 1.2906,-4.6826 -2.43789,-4.6826 -2.08705,0 -2.57663,0.63806 -2.04614,2.66667 0.38354,1.46666 0.274,2.66666 -0.24343,2.66666 -0.51742,0 -0.70388,2.02914 -0.41435,4.50919 0.28954,2.48005 -0.13094,4.91546 -0.9344,5.41202 -2.12166,1.31126 -1.78968,3.41213 0.53918,3.41213 1.1,0 2,-0.53002 2,-1.17783 z m 233.33333,-2.31094 c 0,-1.16063 -1.48314,-1.84457 -4,-1.84457 -3.6211,0 -5.34057,2.21499 -3.30199,4.25356 1.36409,1.36409 7.30199,-0.59488 7.30199,-2.40899 z m -106.66666,-0.34797 c 0,-0.64354 -0.9,-1.91701 -2,-2.82993 -1.67094,-1.38675 -2,-1.19424 -2,1.17007 0,1.62661 0.85043,2.82993 2,2.82993 1.1,0 2,-0.52653 2,-1.17007 z m 44.66666,-1.4966 c 0.45323,-0.73333 0.18864,-1.33333 -0.58797,-1.33333 -0.77662,0 -1.41203,0.6 -1.41203,1.33333 0,0.73334 0.26459,1.33334 0.58798,1.33334 0.32339,0 0.9588,-0.6 1.41202,-1.33334 z m 31.33334,0 c 0,-0.73333 -0.63541,-1.33333 -1.41203,-1.33333 -0.77661,0 -1.0412,0.6 -0.58797,1.33333 0.45322,0.73334 1.08863,1.33334 1.41202,1.33334 0.32339,0 0.58798,-0.6 0.58798,-1.33334 z m -135.02778,-0.80555 c -0.44306,-0.44306 -1.59306,-0.49043 -2.55556,-0.10526 -1.06364,0.42563 -0.7477,0.74157 0.80556,0.80555 1.40555,0.0579 2.19305,-0.25724 1.75,-0.70029 z m 163.9386,-4.77778 c -0.42564,-1.06364 -0.74158,-0.7477 -0.80556,0.80556 -0.0579,1.40555 0.25724,2.19305 0.70029,1.75 0.44306,-0.44306 0.49043,-1.59306 0.10527,-2.55556 z m -189.32506,-4.75 c -0.33537,-1.28333 -0.60976,-0.23333 -0.60976,2.33333 0,2.56667 0.27439,3.61667 0.60976,2.33334 0.33537,-1.28334 0.33537,-3.38334 0,-4.66667 z m 217.28747,3.0575 c -0.7889,-2.05583 -6.20657,-2.96393 -6.20657,-1.04034 0,1.06044 5.62784,4.04064 6.49805,3.44103 0.27393,-0.18875 0.14276,-1.26906 -0.29148,-2.40069 z m -244.20657,-0.72417 c 1.32732,-1.46666 2.1133,-2.66666 1.74664,-2.66666 -0.36667,0 -1.75265,1.2 -3.07997,2.66666 -1.32732,1.46667 -2.1133,2.66667 -1.74663,2.66667 0.36666,0 1.75265,-1.2 3.07996,-2.66667 z m 20.60555,-0.11419 c -0.81855,-1.52948 -1.82516,-2.44398 -2.23691,-2.03222 -0.41175,0.41175 0.0103,1.66314 0.93796,2.78086 2.39708,2.88831 3.04542,2.51465 1.29895,-0.74864 z m 207.72779,-1.55247 c -2.1853,-3.29124 -5.1293,-3.94546 -6,-1.33334 -0.32247,0.96742 0.57685,1.66667 2.14353,1.66667 1.4845,0 3.06991,0.6 3.52313,1.33333 0.45323,0.73334 1.16182,1.33334 1.57466,1.33334 0.41283,0 -0.14576,-1.35 -1.24132,-3 z m -147,0.33333 c 0.45322,-0.73333 0.22404,-1.33333 -0.50929,-1.33333 -0.73333,0 -1.70416,0.6 -2.15738,1.33333 -0.45322,0.73333 -0.22405,1.33333 0.50929,1.33333 0.73333,0 1.70415,-0.6 2.15738,-1.33333 z M 81.18608,298.20082 c 1.32731,-1.46666 2.1133,-2.66666 1.74663,-2.66666 -0.36667,0 -1.75265,1.2 -3.07997,2.66666 -1.32731,1.46667 -2.1133,2.66667 -1.74663,2.66667 0.36667,0 1.75265,-1.2 3.07997,-2.66667 z m 31.48234,-1.84357 c -0.66946,-0.81937 -1.84698,-4.18976 -2.61672,-7.48976 l -1.39953,-6 0.52949,8 c 0.29122,4.4 0.56135,8.52347 0.60028,9.16326 0.0389,0.63979 0.9782,0.41019 2.08724,-0.51024 1.27967,-1.06203 1.5717,-2.21783 0.79924,-3.16326 z m 95.85099,1.0214 c 0,-0.28114 -1.2,-0.51116 -2.66667,-0.51116 -1.46667,0 -2.66667,0.54383 -2.66667,1.20851 0,0.66468 1.2,0.8947 2.66667,0.51116 1.46667,-0.38355 2.66667,-0.92737 2.66667,-1.20851 z m 164.69855,-1.74401 c -0.5987,-1.88637 -2.01675,-2.77365 -4.45507,-2.78757 -2.89158,-0.0165 -3.19366,-0.29139 -1.57682,-1.43484 1.55255,-1.09798 1.57987,-1.30139 0.12212,-0.90918 -1.03283,0.27789 -2.06587,1.73712 -2.29565,3.24275 -0.34516,2.26169 0.15216,2.62854 2.8613,2.11066 2.2322,-0.42671 3.54979,0.0786 4.12703,1.58293 1.2014,3.13078 2.27724,1.53547 1.21709,-1.80475 z m -14.03189,1.23285 c 0,-0.73333 -0.26459,-1.33333 -0.58797,-1.33333 -0.32339,0 -0.9588,0.6 -1.41203,1.33333 -0.45322,0.73333 -0.18863,1.33333 0.58798,1.33333 0.77661,0 1.41202,-0.6 1.41202,-1.33333 z M 82.51941,291.53416 c 2.86432,-2.93334 4.90786,-5.33334 4.54119,-5.33334 -0.36667,0 -3.0102,2.4 -5.87452,5.33334 -2.86433,2.93333 -4.90786,5.33333 -4.5412,5.33333 0.36667,0 3.01021,-2.4 5.87453,-5.33333 z m 18.40823,3.07423 c -0.87547,-0.31892 -1.27893,-1.39507 -0.89658,-2.39145 0.38234,-0.99638 -0.56181,-2.48432 -2.09813,-3.30653 -2.18344,-1.16855 -3.43522,-1.04532 -5.73342,0.56441 -5.48256,3.84013 -5.7082,1.98456 -0.34677,-2.85169 2.93333,-2.64599 4.30962,-4.07181 3.05841,-3.16848 -1.25121,0.90333 -3.05121,1.19456 -4,0.64719 -0.94879,-0.54737 -1.26453,-0.48847 -0.70163,0.13088 0.56289,0.61936 -0.93711,3.20566 -3.33333,5.74734 -2.39623,2.54168 -3.50482,4.1327 -2.46353,3.53561 1.33433,-0.76513 1.6786,-0.52902 1.16617,0.79976 -0.59303,1.53779 0.90159,1.79205 8.10675,1.37911 4.8586,-0.27846 8.11753,-0.76723 7.24206,-1.08615 z m 33.89732,1.45354 c -0.44305,-0.44305 -1.59305,-0.49042 -2.55555,-0.10526 -1.06365,0.42564 -0.74771,0.74158 0.80555,0.80556 1.40556,0.0579 2.19306,-0.25724 1.75,-0.7003 z m 213.52469,-2.91563 c 1.16476,-0.24683 1.54358,0.35918 1.04184,1.66667 -0.58072,1.51335 0.091,2.05452 2.55001,2.05452 2.93661,0 3.16486,-0.32426 1.89649,-2.69422 -0.79304,-1.48182 -1.06966,-3.43182 -0.6147,-4.33334 0.45496,-0.90151 -0.11729,-0.47443 -1.27167,0.94907 -1.52639,1.88222 -2.10445,2.06406 -2.1193,0.66666 -0.0175,-1.64446 -0.19937,-1.63853 -1.2616,0.0411 -1.05519,1.66851 -1.37966,1.6018 -2.16514,-0.44513 -1.2584,-3.27934 -3.14346,-0.18138 -2.16541,3.55869 0.54199,2.07257 0.92493,2.28971 1.50324,0.8524 0.4268,-1.06072 1.59961,-2.10313 2.60624,-2.31645 z m -121.64111,-2.61214 c -0.45455,-2.75 -0.83305,-6.09173 -0.84113,-7.42607 -0.0106,-1.7502 -0.85042,-2.30737 -3.01467,-2 -2.59186,0.3681 -3.02584,1.27816 -3.18992,6.68925 -0.14523,4.78931 0.32542,6.40018 2,6.84533 5.41296,1.43893 5.89745,1.04443 5.04572,-4.10851 z m -5.14021,-1.66667 c 0.32289,-2.2 0.81898,-4 1.10241,-4 0.28343,0 0.51533,1.8 0.51533,4 0,2.2 -0.49608,4 -1.10241,4 -0.60632,0 -0.83822,-1.8 -0.51533,-4 z m 120.28441,4 c -0.78494,-1.46667 -1.72716,-2.66667 -2.09382,-2.66667 -0.36667,0 -0.0245,1.2 0.76049,2.66667 0.78493,1.46667 1.72715,2.66667 2.09382,2.66667 0.36667,0 0.0245,-1.2 -0.76049,-2.66667 z m -135.08918,-1.58333 c -0.42564,-1.06365 -0.74158,-0.7477 -0.80556,0.80555 -0.0579,1.40556 0.25724,2.19306 0.7003,1.75 0.44305,-0.44305 0.49042,-1.59305 0.10526,-2.55555 z m 153.3114,1.13889 c 0,-0.97778 -0.79047,-1.77778 -1.75661,-1.77778 -1.31266,0 -1.38372,0.44929 -0.28118,1.77778 0.81148,0.97777 1.60196,1.77777 1.75661,1.77777 0.15465,0 0.28118,-0.8 0.28118,-1.77777 z m -143.55555,-0.88889 c 0,-0.73334 -0.26459,-1.33334 -0.58798,-1.33334 -0.32339,0 -0.9588,0.6 -1.41202,1.33334 -0.45323,0.73333 -0.18864,1.33333 0.58797,1.33333 0.77662,0 1.41203,-0.6 1.41203,-1.33333 z m -81.69445,-0.80556 c -0.44305,-0.44305 -1.59305,-0.49042 -2.55555,-0.10526 -1.06365,0.42563 -0.74771,0.74158 0.80555,0.80555 1.40556,0.0579 2.19306,-0.25723 1.75,-0.70029 z m 189.51886,-7.12388 c 0.18295,-4.00946 -0.25911,-6.73723 -1.09183,-6.73723 -0.91031,0 -1.39925,-6.53906 -1.39925,-18.71358 0,-18.33975 0.0536,-18.68489 2.68359,-17.27736 2.48076,1.32766 2.66331,2.62021 2.41513,17.10056 -0.14766,8.61539 0.18013,16.3902 0.72843,17.27736 0.54829,0.88716 0.36149,1.61302 -0.41513,1.61302 -0.82265,0 -1.41202,3.06088 -1.41202,7.33333 0,7.29762 0.53731,8.06675 4.55762,6.52402 1.65476,-0.63499 2.16079,-3.148 2.34926,-11.66667 l 0.24021,-10.85735 0.85291,10 c 0.82068,9.62205 0.87177,9.37008 1.35192,-6.66666 0.95945,-32.0452 0.23265,-52.08465 -2.01336,-55.51249 -2.97362,-4.53831 -6.00523,-4.0716 -6.00523,0.92451 0,2.24328 -0.5328,3.7494 -1.18399,3.34694 -1.18196,-0.73049 -1.51887,0.41119 -3.99747,13.54616 -1.56773,8.30797 -2.44909,47.8421 -1.09673,49.19446 0.51967,0.51968 0.94486,2.68027 0.94486,4.80133 0,6.57417 2.16591,2.89603 2.49108,-4.23035 z m 3.10218,3.26277 c 0.0272,-2.2 0.326,-2.93858 0.66406,-1.64129 0.33806,1.29729 0.31583,3.09729 -0.0494,4 -0.36524,0.90271 -0.64183,-0.15871 -0.61466,-2.35871 z m 5.51093,-49.33333 c 0.006,-5.13334 0.24691,-7.06996 0.53554,-4.3036 0.28863,2.76636 0.2838,6.96636 -0.0107,9.33333 -0.29455,2.36698 -0.53071,0.1036 -0.52479,-5.02973 z M 216.1583,288.06193 c -0.44306,-0.44305 -1.59306,-0.49042 -2.55556,-0.10526 -1.06364,0.42564 -0.7477,0.74158 0.80556,0.80556 1.40555,0.0579 2.19305,-0.25724 1.75,-0.7003 z m -88.97223,-1.11575 c 0,-0.32339 -0.6,-0.9588 -1.33333,-1.41202 -0.73333,-0.45323 -1.33333,-0.18864 -1.33333,0.58797 0,0.77662 0.6,1.41203 1.33333,1.41203 0.73333,0 1.33333,-0.26459 1.33333,-0.58798 z m 10,-0.74536 c 1.05617,-1.7089 -4.68898,-1.7089 -7.33333,0 -1.52183,0.98349 -0.98279,1.29738 2.25464,1.31292 2.34006,0.0112 4.62547,-0.57958 5.07869,-1.31292 z m 207.97598,-2.74235 c -0.51379,-1.61883 -1.31858,-2.41404 -1.78841,-1.76715 -0.46983,0.64689 -1.53389,1.30272 -2.36457,1.45739 -1.03376,0.19249 -1.45449,-3.0684 -1.33334,-10.33401 0.0974,-5.83839 -0.27299,-10.61494 -0.82299,-10.61456 -0.55,3.7e-4 -1,5.47066 -1,12.15619 0,11.49705 0.14438,12.11775 2.66534,11.45851 1.46594,-0.38335 3.02602,-0.11341 3.46685,0.59986 1.35517,2.19273 2.16546,0.15776 1.17712,-2.95623 z m -53.00375,0.60346 c -0.44306,-0.44305 -1.59306,-0.49042 -2.55556,-0.10526 -1.06364,0.42564 -0.7477,0.74158 0.80556,0.80556 1.40555,0.0579 2.19305,-0.25724 1.75,-0.7003 z m -155.75,-1.00687 c -1.59257,-1.3734 -7.88889,-2.07546 -7.88889,-0.87964 0,0.74731 1.9,1.35874 4.22222,1.35874 2.32222,0 3.97222,-0.2156 3.66667,-0.4791 z m 14.74111,-6.64606 c 1.81318,-1.2145 2.66314,-2.20818 1.88882,-2.20818 -0.77433,0 -3.49276,1.95 -6.04096,4.33334 -2.5482,2.38333 -3.39817,3.37701 -1.88881,2.20817 1.50935,-1.16884 4.22778,-3.11884 6.04095,-4.33333 z m -50.45227,3.90167 c 2.14844,1.3278 5.16139,-0.54332 4.33646,-2.69306 -0.69086,-1.80036 -1.19538,-1.79968 -4.68778,0.006 -2.37087,1.22602 -3.53739,2.63253 -2.95923,3.56801 0.71422,1.15563 1.08936,1.13925 1.49081,-0.0651 0.29504,-0.88511 1.11392,-1.25239 1.81974,-0.81617 z m 214.07959,-4.4178 c -0.33806,-1.29729 -0.63689,-0.55871 -0.66406,1.64129 -0.0272,2.2 0.24942,3.26142 0.61465,2.35871 0.36523,-0.90271 0.38747,-2.70271 0.0494,-4 z m -203.88368,-0.41742 c -0.32763,-2.23229 -0.0957,-4.3677 0.51533,-4.74535 0.61107,-0.37766 1.01323,-6.50125 0.8937,-13.60797 -0.19582,-11.64263 -0.31154,-12.19561 -1.1693,-5.58797 -0.76073,5.86016 -0.96254,4.25306 -1.00459,-8 -0.0779,-22.70538 -0.0965,-22.93463 -1.77897,-21.89483 -1.0646,0.65797 -1.25178,6.03281 -0.64119,18.41203 0.47427,9.61554 0.92346,22.4328 0.99821,28.4828 0.0778,6.29757 0.70159,11 1.4592,11 0.72781,0 1.05524,-1.82642 0.72761,-4.05871 z m -0.70407,-11.27463 c 0.0148,-2.93333 0.28785,-3.97634 0.60677,-2.31778 0.31893,1.65855 0.30682,4.05855 -0.0269,5.33333 -0.33373,1.27478 -0.59466,-0.0822 -0.57987,-3.01555 z m 33.70402,13.73156 c 0.51759,-0.51431 -0.47973,-1.24232 -2.21626,-1.6178 -4.4204,-0.95579 -22.53248,-0.30268 -20.83232,0.75121 0.7994,0.49553 0.3751,1.065 -0.99344,1.33333 -1.31386,0.2576 3.34637,0.46837 10.35606,0.46837 7.00969,0 13.16837,-0.4208 13.68596,-0.93511 z m 70.8204,-1.7068 c -0.57766,-1.50538 -1.83627,-1.86339 -4.49805,-1.27948 -7.19564,1.57852 -7.64946,2.43598 -1.69594,3.20443 7.0093,0.90473 7.25102,0.82961 6.19399,-1.92495 z m 97.44219,0.72802 c -0.39015,-1.49196 0.10671,-2.88046 1.17783,-3.29149 1.50127,-0.57609 1.82745,-5.71334 1.71975,-27.08611 -0.0731,-14.50635 -0.56327,-24.87518 -1.08926,-23.04184 -0.79048,2.75522 -1.14088,2.06148 -2.02037,-4 -0.99271,-6.84183 -1.15057,-7.08758 -2.35519,-3.66667 -0.71014,2.01667 -2.14117,3.66667 -3.18005,3.66667 -1.38072,0 -1.88889,1.81472 -1.88889,6.74535 0,4.62491 0.46777,6.45626 1.48804,5.8257 1.08032,-0.66768 1.35432,5.42938 1,22.25218 -0.35898,17.04378 -0.0767,23.17249 1.06751,23.1743 0.85556,10e-4 2.00556,0.45247 2.55556,1.00247 1.68695,1.68695 2.23187,1.12222 1.52507,-1.58056 z m -3.42566,-4.08611 c 0,-1.83333 0.30263,-2.58333 0.67252,-1.66667 0.36988,0.91667 0.36988,2.41667 0,3.33334 -0.36989,0.91666 -0.67252,0.16666 -0.67252,-1.66667 z m 0.31487,-11.2207 c -0.39834,-1.03806 -0.50849,-3.58806 -0.24477,-5.66667 0.39129,-3.08417 0.59999,-2.73703 1.13467,1.88737 0.67406,5.83003 0.37858,7.08491 -0.8899,3.7793 z m 3.83776,-27.44597 c 0,-3.3 0.26002,-4.65 0.57782,-3 0.31781,1.65 0.31781,4.35 0,6 -0.3178,1.65 -0.57782,0.3 -0.57782,-3 z m 36.1804,33.66667 c 0.96083,-13.56035 0.18757,-31.00067 -1.42689,-32.18255 -0.61417,-0.4496 -1.3237,-2.01745 -1.57676,-3.48412 -0.60359,-3.49842 -1.5399,-4.39639 -1.5399,-1.47686 0,1.2655 -0.6,1.93009 -1.33334,1.47686 -0.81344,-0.50273 -1.33333,1.51548 -1.33333,5.17596 0,3.3 -0.6,6.37082 -1.33333,6.82404 -0.73334,0.45323 -1.25163,3.93864 -1.15176,7.74536 0.0999,3.80672 0.4416,5.57131 0.7594,3.92131 0.58932,-3.05965 3.58031,-4.05928 5.04667,-1.68666 0.44643,0.72234 0.83739,6.72234 0.8688,13.33333 0.0314,6.611 0.53786,12.02 1.12545,12.02 0.58759,0 1.44033,-5.25 1.89499,-11.66667 z m -124.18484,9.45875 c -0.90271,-0.36523 -2.70271,-0.38746 -4,-0.0494 -1.29729,0.33805 -0.55871,0.63688 1.64129,0.66405 2.2,0.0272 3.26142,-0.24942 2.35871,-0.61465 z m 44.97462,-1.41972 c 0,-1.28041 -3.6015,-1.7057 -14.44444,-1.7057 -12.25527,0 -14.44445,0.31822 -14.44445,2.09964 0,1.80566 2.02241,2.04448 14.44445,1.7057 10.63765,-0.29012 14.44444,-0.84347 14.44444,-2.09964 z m -25,0.0419 c 1.28333,-0.33537 3.38333,-0.33537 4.66667,0 1.28333,0.33537 0.23333,0.60976 -2.33334,0.60976 -2.56666,0 -3.61666,-0.27439 -2.33333,-0.60976 z m 58.43757,-7.51 c -1.72166,-1.72166 -1.90252,0.7111 -0.4284,5.76243 l 0.97277,3.33334 0.4466,-3.8291 c 0.24563,-2.106 -0.20031,-4.476 -0.99097,-5.26667 z m -161.11333,3.30486 c 1.20553,-1.20553 -2.50765,-3.36534 -10.32424,-6.00519 l -5.33333,-1.80119 -0.37555,-16.34722 c -0.40222,-17.50848 0.33758,-20.05549 5.82523,-20.05549 4.79016,0 5.88365,3.82466 5.88365,20.57901 0,13.01326 0.32139,15.42099 2.05845,15.42099 1.20736,0 1.89646,0.94476 1.66667,2.28499 -0.21548,1.25675 0.55821,2.48149 1.71932,2.72164 1.55204,0.32101 2.11112,-0.6176 2.11112,-3.54426 0,-2.18949 -0.35,-3.94317 -0.77778,-3.89707 -3.11843,0.33607 -4.14561,-0.6723 -1.44445,-1.41799 2.89466,-0.79911 3.43634,-1.87832 4.11601,-8.20043 0.60857,-5.66081 0.8661,-3.86948 1.15775,8.05312 0.25208,10.30509 0.70886,14.02162 1.39291,11.33333 0.5598,-2.2 1.08882,-2.95 1.17558,-1.66667 0.0868,1.28334 0.90775,2.33416 1.82442,2.33516 1.29158,0.001 1.47151,-3.82451 0.79954,-17 -0.47693,-9.351 -1.02119,-21.20182 -1.20948,-26.33516 l -0.34234,-9.33333 -0.91439,6.66667 -0.91439,6.66666 -0.20947,-5.55555 c -0.11521,-3.05556 -0.84164,-5.76628 -1.61429,-6.02383 -0.77265,-0.25755 -1.61467,-2.72622 -1.87116,-5.48592 -0.59704,-6.42391 -2.462,-8.58185 -8.91949,-10.32067 -4.58178,-1.23374 -5.74174,-1.03937 -9.51135,1.59385 -2.36125,1.64942 -5.25409,4.0665 -6.42854,5.37128 -1.17445,1.30479 -2.62005,1.93325 -3.21244,1.39659 -0.59239,-0.53666 -0.70031,0.0743 -0.23982,1.35759 0.46049,1.28333 0.35106,2.33333 -0.24318,2.33333 -0.59424,0 -1.81457,2.45033 -2.71185,5.44517 -2.02779,6.76816 -0.58381,49.27738 1.73127,50.96669 1.78514,1.30261 23.63203,-0.0325 25.13562,-1.5361 z m 8.03891,-18.87576 c 0,-3.3 0.26002,-4.65 0.57783,-3 0.3178,1.65 0.3178,4.35 0,6 -0.31781,1.65 -0.57783,0.3 -0.57783,-3 z M 149.958,236.08974 c 0.064,-1.55326 0.37992,-1.8692 0.80556,-0.80555 0.38516,0.9625 0.33779,2.1125 -0.10526,2.55555 -0.44306,0.44306 -0.75819,-0.34444 -0.7003,-1.75 z m 53.28327,35.07255 c 2.41114,0.63053 2.8898,0.35371 2.25389,-1.30344 -0.49111,-1.27981 0.0737,-2.4644 1.44177,-3.0241 2.00971,-0.82217 1.96527,-1.03685 -0.41752,-2.01663 -2.55022,-1.04862 -2.53749,-1.1006 0.29148,-1.19022 1.966,-0.0623 2.71811,-0.71927 2.24244,-1.95885 -0.39365,-1.02582 -0.0108,-2.30082 0.85086,-2.83333 1.16354,-0.7191 1.10116,-1.26311 -0.24243,-2.11445 -1.30015,-0.82382 -0.87137,-1.17835 1.52431,-1.26038 2.91154,-0.0997 3.00849,-0.2414 0.76615,-1.1199 -2.48939,-0.97528 -2.47928,-1.09367 0.33333,-3.90628 2.70245,-2.70245 2.90052,-4.17625 2.90052,-21.58172 0,-16.21078 -0.37108,-19.47065 -2.80614,-24.65101 -2.88984,-6.14786 -11.16743,-14.58687 -13.12261,-13.3785 -0.60633,0.37474 -1.84388,-0.21205 -2.7501,-1.30398 -2.99551,-3.60937 -14.85313,-1.97714 -19.5168,2.68653 -1.09715,1.09715 -2.88738,1.99482 -3.97827,1.99482 -1.0909,0 -1.70125,0.45662 -1.35633,1.01471 1.07823,1.74462 -2.73665,5.78758 -5.66956,6.0085 -2.1108,0.15901 -2.7514,1.04293 -2.60452,3.59383 0.10713,1.86063 -0.8595,5.93616 -2.14806,9.05675 -2.49708,6.04729 -2.528,6.55169 -2.23708,36.49576 l 0.18947,19.50289 5.66667,-0.57997 c 3.11667,-0.31896 11.06667,0.5896 17.66667,2.01904 10.17242,2.20316 12.43105,2.32868 14.8303,0.82417 1.55667,-0.97614 4.20787,-1.41457 5.89156,-0.97427 z m -21.38853,-26.19956 c 0,-13.89322 0.40656,-17.64466 2.09524,-19.33334 3.45832,-3.45832 6.93289,-2.44976 9.70515,2.81711 0.8988,1.70757 1.53294,9.29166 1.53294,18.33333 v 15.42099 h -6.66666 -6.66667 z m 6.66667,10.57143 c 0,-4.23058 -0.48246,-5.31157 -2.33334,-5.22807 -1.39391,0.0629 -1.66232,0.37602 -0.66666,0.77777 0.91666,0.36989 1.66666,2.72252 1.66666,5.22807 0,2.50556 0.3,4.55556 0.66667,4.55556 0.36667,0 0.66667,-2.4 0.66667,-5.33333 z m 0.0194,-24 -0.64723,-6 -0.42943,5.66666 c -0.3173,4.18704 -1.01867,5.70705 -2.68609,5.82134 -2.03754,0.13965 -2.03009,0.21388 0.0767,0.76443 1.63942,0.42842 2.3896,2.06765 2.52254,5.512 l 0.18921,4.90223 0.81079,-5.33333 c 0.44594,-2.93333 0.51954,-8.03333 0.16355,-11.33333 z m 5.31393,6.07868 c 0,-0.32338 -0.6,-0.95879 -1.33333,-1.41202 -0.73334,-0.45322 -1.33334,-0.18863 -1.33334,0.58798 0,0.77661 0.6,1.41202 1.33334,1.41202 0.73333,0 1.33333,-0.26459 1.33333,-0.58798 z m -22.30796,2.33066 c 1.29729,-0.33806 3.09729,-0.31582 4,0.0494 0.90271,0.36523 -0.15871,0.64182 -2.35871,0.61465 -2.2,-0.0272 -2.93858,-0.326 -1.64129,-0.66406 z m 0.97463,-3.07601 c 1.67329,-1.08137 1.58254,-1.29584 -0.55556,-1.31292 -1.40555,-0.0112 -2.20077,-0.3752 -1.76715,-0.80882 0.43363,-0.43363 2.04234,-0.39043 3.57492,0.096 3.14907,0.99948 2.44083,3.3698 -0.99757,3.33867 -1.94303,-0.0176 -1.97823,-0.19906 -0.25464,-1.31292 z m 0,-26.66667 c -1.55293,-1.00358 -1.16279,-1.29706 1.74535,-1.31291 2.16145,-0.0118 3.39687,0.54344 2.92131,1.31291 -1.02316,1.65551 -2.10495,1.65551 -4.66666,0 z m 2.41666,-4.91082 c 0.9625,-0.38516 2.1125,-0.33779 2.55556,0.10527 0.44305,0.44305 -0.34445,0.75818 -1.75,0.70029 -1.55326,-0.064 -1.8692,-0.37992 -0.80556,-0.80556 z m 122.19825,35.24366 c -0.0285,-18.5164 -0.51209,-35.19102 -1.07474,-37.05473 -1.40799,-4.66383 -6.20684,-5.01166 -6.20684,-0.44989 0,2.27629 -0.5271,3.03157 -1.66667,2.3882 -1.25545,-0.7088 -1.29446,-0.53695 -0.15811,0.69653 1.08778,1.18075 1.11944,2.9053 0.11352,6.1829 -1.03842,3.38348 -0.95932,5.48596 0.30943,8.22478 1.1966,2.5831 1.63549,10.11651 1.47301,25.28397 -0.22063,20.59537 0.70725,27.06207 3.883,27.06207 0.65652,0 1.45371,-1.35 1.77151,-3 0.49543,-2.57219 0.60372,-2.47713 0.7594,0.66667 0.0999,2.01666 0.33158,3.66644 0.51491,3.66616 0.18333,-2.7e-4 0.31005,-15.15027 0.28158,-33.66666 z m -5.05936,28.77827 c -0.48889,-0.48888 -0.779,-7.23888 -0.64469,-15 l 0.24419,-14.11111 0.76452,14.66667 c 0.84952,16.29744 0.86524,15.6737 -0.36402,14.44444 z m 1.88304,-29.22222 c 0.064,-1.55326 0.37992,-1.8692 0.80556,-0.80555 0.38516,0.9625 0.33779,2.1125 -0.10526,2.55555 -0.44306,0.44306 -0.75819,-0.34444 -0.7003,-1.75 z m 0.64222,-10.22222 c -0.72188,-2.39591 -0.38822,-10.41852 0.4005,-9.6298 0.9818,0.9818 1.78341,11.29647 0.87791,11.29647 -0.42694,0 -1.00222,-0.75 -1.27841,-1.66667 z M 289.958,218.75638 c 0.064,-1.55326 0.37992,-1.8692 0.80556,-0.80556 0.38516,0.9625 0.33779,2.1125 -0.10526,2.55556 -0.44306,0.44305 -0.75819,-0.34445 -0.7003,-1.75 z m 2.87074,-5.88889 c 0,-2.56667 0.2744,-3.61667 0.60977,-2.33334 0.33537,1.28334 0.33537,3.38334 0,4.66667 -0.33537,1.28334 -0.60977,0.23334 -0.60977,-2.33333 z m -70.32858,46.98023 c -0.0106,-6.4058 -0.26869,-17.3469 -0.57355,-24.31356 l -0.55429,-12.66667 -0.85291,10 -0.85291,10 -0.24022,-11 c -0.14422,-6.60459 0.29257,-11 1.09313,-11 1.68298,0 1.76553,-8.90884 0.0921,-9.94306 -0.68266,-0.42191 -1.71658,-0.007 -2.29759,0.92131 -1.06266,1.69845 -0.70758,58.20492 0.37681,59.96352 0.31939,0.51797 1.3115,0.65907 2.20468,0.31356 1.10666,-0.4281 1.61783,-4.33827 1.60472,-12.2751 z m -2.95093,-6.98023 c 0,-3.3 0.26002,-4.65 0.57782,-3 0.3178,1.65 0.3178,4.35 0,6 -0.3178,1.65 -0.57782,0.3 -0.57782,-3 z m 38.30351,18.65424 c 3.03686,-0.0185 4.05019,-0.41927 2.90148,-1.14757 -1.42387,-0.90276 -1.33585,-1.54849 0.45523,-3.33957 1.93779,-1.93779 2.82831,-4.11243 3.20794,-7.83377 0.0561,-0.55 1.75202,-1.00918 3.76868,-1.02041 2.01667,-0.0112 3.06667,-0.46123 2.33334,-1 -1.83694,-1.34958 -2.295,-4.31292 -0.66667,-4.31292 0.73333,0 1.32415,-1.05 1.31292,-2.33333 -0.0174,-1.99407 -0.20835,-2.04253 -1.31292,-0.33334 -1.11788,1.72981 -1.29526,1.69978 -1.31292,-0.22222 -0.0112,-1.22222 0.57421,-2.42222 1.30098,-2.66667 0.72677,-0.24444 1.67884,-7.75479 2.11572,-16.68966 l 0.79433,-16.24522 -4.76588,-3.08811 c -2.62124,-1.69847 -4.77331,-3.88427 -4.78239,-4.85735 -0.009,-0.97308 -1.84283,-3.59555 -4.075,-5.82772 -3.65021,-3.65022 -4.61856,-3.96894 -9.62581,-3.16825 -5.25392,0.84014 -12.63269,6.04632 -8.70097,6.13908 1.01259,0.0239 0.74853,0.6053 -0.64277,1.41528 -1.29876,0.7561 -2.01335,1.93786 -1.58798,2.62612 0.42537,0.68826 -0.91201,1.3112 -2.97195,1.38429 l -3.74536,0.13291 3.33333,0.94239 c 3.25673,0.92073 3.26638,0.96025 0.41962,1.7197 -2.25664,0.60202 -2.73547,1.45894 -2.1233,3.79987 0.52153,1.99433 0.29673,2.71744 -0.66082,2.12564 -0.79818,-0.4933 -1.86956,-0.22004 -2.38085,0.60724 -0.51129,0.82729 -0.10275,2.02789 0.90787,2.668 1.44228,0.91353 1.4621,1.16824 0.0921,1.18426 -0.95995,0.0112 -1.35829,0.6467 -0.88522,1.41216 0.47308,0.76546 0.13503,2.26546 -0.75123,3.33334 -0.88626,1.06787 -1.0656,1.94159 -0.39853,1.94159 0.66707,0 1.30229,1.18725 1.41159,2.63833 0.10931,1.45109 -0.51301,2.50109 -1.38292,2.33334 -0.87139,-0.16804 -1.39193,0.80291 -1.15916,2.16213 0.25362,1.48093 -0.14612,2.11571 -1,1.58798 -1.65123,-1.02052 -1.99745,21.85084 -0.41293,27.27822 0.84664,2.89997 1.07825,2.55328 1.78153,-2.66667 l 0.80837,-6 0.20026,6.22429 c 0.34854,10.83298 0.46164,10.9214 12.7458,9.96496 5.93329,-0.46196 12.88779,-0.85271 15.45446,-0.86834 z m -18,-28.52237 c 0,-11.14926 0.56371,-19.84753 1.33333,-20.57384 3.09569,-2.9215 7.19806,-3.02664 9.96918,-0.25552 2.57873,2.57873 2.74638,4.04944 2.40154,21.06821 l -0.37072,18.29595 -6.66666,0.39037 -6.66667,0.39037 z m 9.0219,5.86813 c 1.07715,0 1.05171,-0.45973 -0.0886,-1.6 -0.88,-0.88 -1.6,-4.18 -1.6,-7.33333 0,-5.00299 0.38216,-5.75647 3,-5.91491 l 3,-0.18158 -3,-0.57783 c -2.49625,-0.4808 -3.03517,-1.51376 -3.20947,-6.15175 l -0.20947,-5.57393 -0.79053,6.66666 c -0.43479,3.66667 -0.44809,9.51667 -0.0296,13 0.41853,3.48334 0.37245,6.33334 -0.10241,6.33334 -0.47485,0 -0.53163,1.95 -0.12618,4.33333 0.72222,4.24539 0.74639,4.25892 1.19097,0.66667 0.24958,-2.01667 1.13394,-3.66667 1.96523,-3.66667 z m -1.23857,-36.27011 c 2.38694,-0.86007 4.25041,-0.89616 5.0488,-0.0978 0.79839,0.79839 -0.59801,1.30155 -3.78334,1.36323 -4.98772,0.0966 -5.00302,0.0813 -1.26546,-1.26546 z m 3.55,-2.39656 c -1.60903,-1.03983 -1.39816,-1.29649 1.07869,-1.31291 1.71676,-0.0114 2.71416,0.56941 2.25465,1.31291 -0.99092,1.60333 -0.85236,1.60333 -3.33334,0 z m 36.94098,51.66667 c -0.3178,-1.65 -0.57782,-0.3 -0.57782,3 0,3.3 0.26002,4.65 0.57782,3 0.3178,-1.65 0.3178,-4.35 0,-6 z m -9.99854,-11.33333 0.27578,-18.33334 0.78178,18.66667 c 0.76938,18.37045 0.78617,18.21706 1.05756,-9.66667 0.23768,-24.41886 -5.4e-4,-28.33333 -1.72422,-28.33333 -1.1,0 -2.00919,0.75 -2.02042,1.66667 -0.0137,1.11682 -0.43376,1.01292 -1.27333,-0.31494 -0.80044,-1.26597 -1.16671,8.24416 -1.0142,26.33333 0.18503,21.94554 0.62143,28.31494 1.94,28.31494 1.28363,0 1.76898,-4.50073 1.97705,-18.33333 z m 6.49207,-5.01047 -1.03089,-19.98953 -0.20181,19.44444 c -0.17284,16.65332 0.35916,22.43904 1.91977,20.87842 0.1891,-0.18909 -0.12009,-9.33909 -0.68707,-20.33333 z m 18.56549,17.26511 c 0,-1.87661 -0.54367,-3.07601 -1.20816,-2.66534 -0.66448,0.41068 -0.89451,1.94609 -0.51115,3.41202 0.95939,3.66874 1.71931,3.33871 1.71931,-0.74668 z m -168.86558,-7.56756 c 1.11442,-0.71246 1.07777,-0.98515 -0.13442,-1 -0.99483,-0.0122 -1.75268,-2.03592 -1.88005,-5.02042 l -0.21338,-5 -0.56175,4.65502 c -0.30897,2.56026 -1.26295,5.10107 -2.11995,5.64625 -1.15625,0.73553 -1.12826,0.9965 0.10847,1.01165 0.91666,0.0112 1.74837,1.67042 1.84824,3.68708 0.17845,3.60365 0.19222,3.60938 0.80109,0.33334 0.34073,-1.83334 1.30902,-3.77415 2.15175,-4.31292 z m 168.47323,-36.02042 c -0.31781,-1.65 -0.57783,-0.3 -0.57783,3 0,3.3 0.26002,4.65 0.57783,3 0.3178,-1.65 0.3178,-4.35 0,-6 z M 108.1867,216.53416 c -0.84003,-2.52292 -5.00063,-2.88161 -5.00063,-0.4311 0,1.23684 1.14,2.09776 2.77778,2.09776 1.6293,0 2.54834,-0.68909 2.22285,-1.66666 z m 43.24382,-1.28889 c -0.95675,-0.95675 -1.57778,-1.03548 -1.57778,-0.2 0,1.7797 1.57681,3.35652 2.46667,2.46666 0.37889,-0.37889 -0.0211,-1.39889 -0.88889,-2.26666 z m -24.6,-12.93323 c 6.34142,-2.57366 13.39207,-0.79895 18.54896,4.66895 5.97215,6.33232 8.90364,5.96889 11.73898,-1.45536 1.26207,-3.30469 2.79771,-5.69763 3.41252,-5.31765 1.1641,0.71945 7.27071,-7.00907 7.3803,-9.34049 0.0345,-0.73334 0.83,-1.16847 1.76784,-0.96697 0.93784,0.20151 1.35078,-0.20703 0.91764,-0.90787 -1.34618,-2.17816 1.91822,-3.11635 4.31439,-1.23995 2.08748,1.63467 2.11099,1.57335 0.28538,-0.74421 -1.83181,-2.32542 -1.77342,-2.45706 0.73661,-1.66041 1.58754,0.50387 3.8107,0.045 5.32288,-1.0986 4.4815,-3.38927 12.84455,-2.54516 19.00626,1.91836 6.11459,4.42938 16.25713,16.58639 16.25713,19.48605 0,1.11673 1.35359,1.88026 3.33333,1.88026 2.67547,0 3.33333,-0.66444 3.33333,-3.36666 0,-2.64051 -0.82571,-3.53181 -3.82825,-4.13232 -2.33033,-0.46606 -5.79714,-3.12107 -8.86013,-6.78539 -6.45143,-7.71798 -15.8786,-13.71563 -21.55836,-13.71563 -6.8566,0 -17.73169,4.77108 -23.32548,10.23327 -5.00757,4.88976 -7.21503,9.17914 -2.88024,5.59666 2.02249,-1.67148 2.05532,-1.57478 0.37916,1.11689 -1.22503,1.96721 -2.1499,2.43739 -2.78215,1.41439 -0.58148,-0.94085 -1.85261,0.36647 -3.29277,3.38652 -1.89225,3.96809 -3.07925,4.91894 -6.14057,4.91894 -2.18384,0 -4.12875,-0.87 -4.58129,-2.04931 -1.17709,-3.06744 -7.67517,-5.95133 -13.39704,-5.9457 -5.66179,0.006 -12.89485,3.81407 -17.35159,9.13633 -5.06244,6.04558 -3.37605,7.87866 1.95205,2.12186 2.75,-2.97127 6.94,-6.18965 9.31111,-7.15196 z m 51.02222,-18.77789 c 1.1,-0.71087 2.6,-1.29249 3.33333,-1.29249 0.73334,0 0.43334,0.58162 -0.66666,1.29249 -1.1,0.71088 -2.6,1.2925 -3.33334,1.2925 -0.73333,0 -0.43333,-0.58162 0.66667,-1.2925 z m 103.20914,22.86762 c 1.30578,-2.11279 -5.50917,-4.56651 -10.22558,-3.6817 -4.34233,0.81462 -4.66157,0.60402 -6.61239,-4.36229 -2.78612,-7.09277 -7.74644,-10.12639 -15.97255,-9.76847 -3.59903,0.15659 -8.16105,1.17578 -10.13782,2.26486 -5.70447,3.1428 -12.63223,9.66698 -11.76132,11.07615 0.43776,0.7083 3.03944,-0.8281 5.78152,-3.41421 6.12413,-5.7758 11.94438,-8.31529 19.05779,-8.31529 5.23001,0 5.61921,0.31064 10.85842,8.66667 l 5.43398,8.66666 h 6.43905 c 3.54148,0 6.75398,-0.50957 7.1389,-1.13238 z m 34.12419,0.62898 c 0,-0.27688 -1.05,-1.32688 -2.33333,-2.33334 -2.11474,-1.65849 -2.1619,-1.61133 -0.50341,0.50341 1.74183,2.221 2.83674,2.92731 2.83674,1.82993 z m 1.33334,-4.60771 c 0,-0.61111 -0.87361,-1.11111 -1.94135,-1.11111 -1.06774,0 -1.63233,0.5 -1.25465,1.11111 0.37769,0.61111 1.2513,1.11111 1.94135,1.11111 0.69006,0 1.25465,-0.5 1.25465,-1.11111 z m -47.83455,-4.57777 c -1.31682,-1.30703 -1.46998,-1.15388 -0.7464,0.74639 0.50071,1.31496 1.24626,2.05496 1.65678,1.64444 0.41051,-0.41051 8.4e-4,-1.48639 -0.91038,-2.39083 z m 5.67662,-0.38037 c 0.45533,-1.18656 0.2318,-1.72176 -0.52401,-1.25464 -0.72494,0.44803 -1.31806,1.3792 -1.31806,2.06925 0,1.91791 0.95568,1.49528 1.84207,-0.81461 z m 22.88455,-3.0617 c -2.10584,-2.06167 -2.14025,-1.95846 -0.5385,1.61552 0.94108,2.09984 1.95339,3.09091 2.24956,2.20238 0.29618,-0.88854 -0.4738,-2.60659 -1.71106,-3.8179 z m 9.20155,3.46429 c 0.28113,-0.91667 0.83068,-3.95426 1.22122,-6.75019 0.64882,-4.64511 0.45764,-5.04758 -2.21684,-4.66667 -2.43089,0.34622 -2.94784,1.32066 -3.05047,5.75019 -0.068,2.93333 0.11617,5.78333 0.40919,6.33333 0.83994,1.57656 3.07455,1.16694 3.6369,-0.66666 z m 9.40516,-4.07471 c 0,-3.05847 -0.64389,-4.45654 -2.10313,-4.56646 -2.13848,-0.16108 -2.58674,3.03423 -0.82544,5.88406 0.51985,0.84114 0.19145,1.83323 -0.72979,2.20463 -0.92123,0.37141 -0.47497,0.72265 0.99169,0.78055 2.15016,0.0849 2.66667,-0.74854 2.66667,-4.30278 z m -153.9473,-3.01056 c 2.32172,-3.75662 2.8044,-6.13045 2.30447,-11.33334 -0.55214,-5.74623 -0.31883,-6.58139 1.83855,-6.58139 1.99987,0 2.47095,1.03178 2.47095,5.41202 0,3.26849 0.52809,5.08564 1.33333,4.58798 0.73333,-0.45323 1.33333,-3.18864 1.33333,-6.07869 0,-3.67205 0.5753,-5.25465 1.91015,-5.25465 2.14145,0 4.04466,4.58242 2.76389,6.65474 -0.45728,0.7399 -0.19601,1.34526 0.58061,1.34526 1.93674,0 1.77854,-4.34603 -0.25465,-6.99553 -0.91666,-1.19454 -3.46666,-2.45324 -5.66666,-2.79711 -2.2,-0.34387 1.19295,-0.5312 7.5399,-0.41628 6.34695,0.11491 11.26154,-0.24108 10.92131,-0.79108 -0.34022,-0.55 -3.24777,-1 -6.46121,-1 -3.21345,0 -6.21345,-0.6 -6.66667,-1.33333 -0.45322,-0.73333 0.0925,-1.33333 1.2128,-1.33333 1.26273,0 1.74516,-0.76011 1.26937,-2 -0.82445,-2.14848 -6.75477,-2.58676 -15.48217,-1.14421 -3.53884,0.58494 -5,1.50244 -5,3.13963 0,1.97237 0.78579,2.16949 5.33333,1.33791 2.93334,-0.5364 5.33334,-0.45583 5.33334,0.17903 0,0.63487 -1.95,1.16349 -4.33334,1.17472 -2.38333,0.0112 -5.23333,0.65976 -6.33333,1.44118 -1.53288,1.08893 -1.06577,1.24814 2,0.68169 3.67951,-0.67986 3.75964,-0.61876 1,0.76257 -2.7719,1.38747 -3,2.39857 -3,13.2979 0,6.48793 0.25106,11.79624 0.55792,11.79624 0.30686,0 1.87951,-2.13837 3.49478,-4.75193 z M 170.93607,165.29 c 0.9625,-0.38516 2.1125,-0.33779 2.55556,0.10527 0.44305,0.44305 -0.34445,0.75818 -1.75,0.70029 -1.55326,-0.064 -1.8692,-0.37992 -0.80556,-0.80556 z m 109.45043,10.48983 c 0.17513,-12.85322 -1.21171,-15.44429 -7.64856,-14.29002 -2.68686,0.48182 -6.5352,1.58537 -8.55187,2.45234 -3.62237,1.55726 -3.66666,1.7254 -3.66666,13.91749 0,8.09713 0.50509,12.34118 1.46875,12.34118 0.99251,0 1.31676,-3.74628 1,-11.55373 -0.34088,-8.40185 -0.0141,-11.70579 1.19791,-12.11111 0.91667,-0.30656 1.69594,-0.0574 1.73172,0.55373 1.44978,24.76505 1.32499,24.05749 3.95613,22.43136 0.97507,-0.60263 1.44183,-4.64969 1.28408,-11.13352 -0.32513,-13.36367 -0.30167,-13.52006 2.02807,-13.52006 2.14619,0 2.34743,1.591 2.00614,15.86018 -0.13918,5.819 0.35674,8.87613 1.56162,9.62669 2.43651,1.51779 3.4699,-2.62822 3.63267,-14.57453 z m 36.13291,11.23031 c 0,-1.26484 -3.99117,-1.90229 -4.70266,-0.75109 -0.43343,0.70131 0.44735,1.2751 1.9573,1.2751 1.50995,0 2.74536,-0.2358 2.74536,-0.52401 z m 10.392,-4.19509 c -1.08299,-1.083 -8.27515,-1.76152 -9.6009,-0.90576 -0.80177,0.51753 0.64223,1.27876 3.2089,1.69162 4.29785,0.69133 7.47819,0.30032 6.392,-0.78586 z m -19.72534,-0.61423 c 0,-1.67056 -1.41498,-1.67056 -4,0 -1.61728,1.04517 -1.42591,1.29641 1,1.31292 1.65,0.0112 3,-0.57959 3,-1.31292 z m 5.33334,0.74536 c 0,-1.4073 -2.55882,-1.99855 -3.31989,-0.76711 -0.46062,0.7453 0.0979,1.35508 1.2412,1.35508 1.14328,0 2.07869,-0.26459 2.07869,-0.58797 z m -6.66667,-4.74536 c 0,-0.73333 -0.56459,-1.33333 -1.25464,-1.33333 -0.69006,0 -1.62547,0.6 -2.07869,1.33333 -0.45323,0.73333 0.11136,1.33333 1.25464,1.33333 1.14328,0 2.07869,-0.6 2.07869,-1.33333 z m 7.0649,-0.88539 c -0.62289,-1.62323 -0.34326,-1.95455 1.04185,-1.23446 1.04129,0.54135 0.72857,0.0398 -0.69492,-1.11461 -2.5219,-2.04513 -2.50483,-2.1028 0.66666,-2.25241 4.31635,-0.20362 7.87109,0.0814 11.92151,0.9559 2.49951,0.53965 2.95705,0.33646 1.82908,-0.81227 -1.91292,-1.94812 -20.08706,-3.06339 -21.17717,-1.29956 -0.44511,0.72021 0.0436,1.30947 1.08605,1.30947 1.23038,0 1.76696,1.16946 1.52943,3.33333 -0.27482,2.50359 0.25825,3.33333 2.14151,3.33333 1.79088,0 2.26411,-0.63403 1.656,-2.21872 z m -128.39823,-1.1933 c 0,-1.14328 -0.6,-1.70787 -1.33334,-1.25464 -0.73333,0.45322 -1.33333,1.38863 -1.33333,2.07869 0,0.69005 0.6,1.25464 1.33333,1.25464 0.73334,0 1.33334,-0.93541 1.33334,-2.07869 z m 118.66666,-3.25464 c 0,-0.73334 -0.63541,-1.33334 -1.41202,-1.33334 -0.77661,0 -1.0412,0.6 -0.58798,1.33334 0.45323,0.73333 1.08864,1.33333 1.41203,1.33333 0.32338,0 0.58797,-0.6 0.58797,-1.33333 z m 5.37224,-8.37616 c 1.27974,0.33466 2.68777,0.0244 3.12895,-0.68943 0.44119,-0.71385 -0.2411,-1.54356 -1.51618,-1.8438 -3.07332,-0.72367 -12.08551,2.3049 -9.55436,3.21077 1.04648,0.37452 2.73791,0.23838 3.75873,-0.30254 1.02083,-0.54091 2.90311,-0.70966 4.18286,-0.375 z m 23.9611,0.37616 c 0,-0.73334 -0.26459,-1.33334 -0.58798,-1.33334 -0.32339,0 -0.9588,0.6 -1.41202,1.33334 -0.45323,0.73333 -0.18864,1.33333 0.58797,1.33333 0.77662,0 1.41203,-0.6 1.41203,-1.33333 z m -16.87323,-2.05751 c -0.43425,-1.13162 -1.0755,-1.77154 -1.42501,-1.42204 -0.3495,0.34951 -0.23997,1.27538 0.24341,2.05751 1.31473,2.12728 2.08317,1.71401 1.1816,-0.63547 z m 5.3554,0.0575 c -0.81147,-2.11463 -3.14884,-2.77445 -3.14884,-0.88888 0,1.41002 1.45745,2.88889 2.84704,2.88889 0.5881,0 0.7239,-0.9 0.3018,-2 z m -161.11356,-4.40917 c -0.41051,-0.41051 -1.48639,-8.4e-4 -2.39084,0.91038 -1.30702,1.31682 -1.15387,1.46998 0.7464,0.7464 1.31496,-0.50071 2.05496,-1.24626 1.64444,-1.65678 z m 131.34365,0.58809 c -1.41092,-1.41091 -26.13856,-1.29916 -28.69174,0.12967 -1.0071,0.56361 5.29628,1.02474 14.00752,1.02474 8.92248,0 15.33454,-0.50409 14.68422,-1.15441 z m 11.59329,1.01552 c -0.44305,-0.44305 -1.59305,-0.49042 -2.55555,-0.10526 -1.06365,0.42563 -0.74771,0.74158 0.80555,0.80555 1.40556,0.0579 2.19306,-0.25723 1.75,-0.70029 z m -134.30555,-1.81926 c 0,-0.71032 -0.9,-0.94613 -2,-0.52402 -1.1,0.42211 -2,1.00328 -2,1.29149 0,0.28821 0.9,0.52401 2,0.52401 1.1,0 2,-0.58117 2,-1.29148 z m 13.33333,-0.0418 c 0,-0.73333 -0.6,-1.33333 -1.33333,-1.33333 -0.73334,0 -1.33334,0.6 -1.33334,1.33333 0,0.73333 0.6,1.33333 1.33334,1.33333 0.73333,0 1.33333,-0.6 1.33333,-1.33333 z m 129.33333,-1.936 c 0,-0.17455 -1.35,-1.44444 -3,-2.82197 -1.65,-1.37753 -2.25,-1.65053 -1.33333,-0.60665 2.09354,2.38407 2.17692,4.50402 0.12732,3.2373 -0.93213,-0.57609 -1.17826,-0.36713 -0.62396,0.52974 0.7323,1.1849 4.82997,0.89778 4.82997,-0.33842 z m 13.25085,1.40907 c -1.11668,-1.11668 -10.60326,-1.85421 -11.21057,-0.87157 -0.30857,0.49927 2.24076,1.05279 5.66516,1.23005 3.4244,0.17726 5.91983,0.0159 5.54541,-0.35848 z m -162.80846,-2.23345 c 1.77747,-0.0749 1.6886,-0.3239 -0.44239,-1.23962 -3.83266,-1.64695 -4.2884,-1.57559 -5.2058,0.81512 -0.60342,1.5725 -0.25499,1.92994 1.29973,1.33333 1.1683,-0.44831 3.1251,-0.85729 4.34846,-0.90883 z m 115.50421,-0.63798 c 9.45216,-1.21344 4.6383,-3.51866 -6.26205,-2.99871 -6.79174,0.32396 -8.40917,0.84173 -8.78466,2.81211 -0.38942,2.04352 0.22388,2.30894 3.98661,1.72532 2.44576,-0.37935 7.4228,-1.07177 11.0601,-1.53872 z m -96.27993,-0.20928 c -1.65,-0.31781 -4.35,-0.31781 -6,0 -1.65,0.3178 -0.3,0.57782 3,0.57782 3.3,0 4.65,-0.26002 3,-0.57782 z m 7.39757,-5.22993 c -0.43962,-3.52482 -0.53257,-3.43188 -1.1697,1.16969 -0.39686,2.86632 -0.19313,4.49981 0.47758,3.8291 0.64333,-0.64333 0.95478,-2.89279 0.69212,-4.99879 z m -19.7309,4.24959 c 0,-1.4073 -2.55882,-1.99855 -3.31989,-0.7671 -0.46062,0.74529 0.0979,1.35508 1.2412,1.35508 1.14328,0 2.07869,-0.26459 2.07869,-0.58798 z m 11,-2.96173 c -0.91667,-0.36988 -2.41667,-0.36988 -3.33334,0 -0.91666,0.36989 -0.16666,0.67252 1.66667,0.67252 1.83333,0 2.58333,-0.30263 1.66667,-0.67252 z m 74.01873,-1.02458 c 0.68935,-0.68935 -7.55379,-1.10143 -19.6854,-0.98408 -3.25679,0.0315 -2.04833,-0.50249 4,-1.7675 9.998,-2.0911 16.67848,-4.45724 12.95815,-4.58961 -1.30635,-0.0465 -2.72054,-0.98452 -3.14265,-2.08452 -1.34909,-3.51566 -21.90519,-2.22542 -22.07204,1.38539 -0.0875,1.89375 -3.21016,6.0368 -3.97416,5.27279 -0.36201,-0.362 -0.65819,0.26753 -0.65819,1.39895 0,1.58316 0.94722,1.87173 4.11111,1.25244 3.03768,-0.59459 3.58994,-0.44878 2.11509,0.55844 -1.39875,0.95525 2.13114,1.20659 11.79651,0.83994 7.5859,-0.28776 14.13411,-0.86477 14.55158,-1.28224 z m 8.3146,0.57429 c 0,-0.73333 -0.6,-1.33333 -1.33333,-1.33333 -0.73334,0 -1.33334,0.6 -1.33334,1.33333 0,0.73333 0.6,1.33333 1.33334,1.33333 0.73333,0 1.33333,-0.6 1.33333,-1.33333 z m 12.33333,-2.21637 c -0.91666,-0.36989 -2.41666,-0.36989 -3.33333,0 -0.91667,0.36988 -0.16667,0.67251 1.66667,0.67251 1.83333,0 2.58333,-0.30263 1.66666,-0.67251 z m 11,-0.4503 c -0.45322,-0.73333 -1.38863,-1.33333 -2.07869,-1.33333 -0.69005,0 -1.25464,0.6 -1.25464,1.33333 0,0.73334 0.93541,1.33334 2.07869,1.33334 1.14328,0 1.70787,-0.6 1.25464,-1.33334 z m -95.16788,-7.02222 c -1.31682,-1.30702 -1.46997,-1.15387 -0.74639,0.74639 0.50071,1.31496 1.24625,2.05496 1.65677,1.64445 0.41052,-0.41052 8.4e-4,-1.48639 -0.91038,-2.39084 z m 92.83455,2.10312 c -1.28333,-0.33537 -3.38333,-0.33537 -4.66667,0 -1.28333,0.33537 -0.23333,0.60977 2.33334,0.60977 2.56666,0 3.61666,-0.2744 2.33333,-0.60977 z m -46,-7.96394 c -0.91667,-0.36988 -2.41667,-0.36988 -3.33333,0 -0.91667,0.36989 -0.16667,0.67252 1.66666,0.67252 1.83334,0 2.58334,-0.30263 1.66667,-0.67252 z m 11,-0.45029 c 1.04291,-1.68746 -0.72217,-1.68746 -3.33333,0 -1.72359,1.11386 -1.68839,1.29532 0.25464,1.31292 1.24005,0.0112 2.62547,-0.57959 3.07869,-1.31292 z m 69.69444,-1.58333 c -0.82409,-2.4723 -3.69444,-2.88235 -3.69444,-0.52778 0,1.16111 0.95,2.11111 2.11111,2.11111 1.16111,0 1.87361,-0.7125 1.58333,-1.58333 z m -97.69444,-7.75 c -0.45322,-0.73334 -1.42405,-1.33334 -2.15738,-1.33334 -0.73333,0 -0.96251,0.6 -0.50929,1.33334 0.45323,0.73333 1.42405,1.33333 2.15738,1.33333 0.73334,0 0.96251,-0.6 0.50929,-1.33333 z m 31.33333,-60.000002 c 0,-1.77778 -0.88889,-2.66667 -2.66666,-2.66667 -1.77778,0 -2.66667,0.88889 -2.66667,2.66667 0,1.77778 0.88889,2.66667 2.66667,2.66667 1.77777,0 2.66666,-0.88889 2.66666,-2.66667 z m 0,-7.41202 c 0,-1.05673 -0.6,-1.92132 -1.33333,-1.92132 -0.73333,0 -1.33333,1.23542 -1.33333,2.74536 0,1.50995 0.6,2.37454 1.33333,1.92131 0.73333,-0.45322 1.33333,-1.68863 1.33333,-2.74535 z m -12,-21.176 c 0,-0.32339 -0.6,-0.9588 -1.33333,-1.41202 -0.73333,-0.45323 -1.33333,-0.18864 -1.33333,0.58798 0,0.77661 0.6,1.41202 1.33333,1.41202 0.73333,0 1.33333,-0.26459 1.33333,-0.58798 z m -5.06765,121.768502 c 0.36529,-1.10937 2.96342,-2.01395 6.50461,-2.2647 7.14465,-0.5059 5.76252,1.74425 -1.94157,3.16094 -4.09865,0.7537 -5.04513,0.5678 -4.56304,-0.89624 z m -68.9173,-27.01636 c 1.2604,-1.92362 2.54375,-3.4975 2.85188,-3.4975 0.9645,0 -2.13987,5.13864 -3.67907,6.08991 -0.80545,0.4978 -0.43322,-0.66878 0.82719,-2.59241 z m 4.75688,-9.60861 c 0.064,-1.55326 0.37992,-1.8692 0.80556,-0.80555 0.38516,0.9625 0.33779,2.1125 -0.10526,2.55555 -0.44306,0.44306 -0.75819,-0.34444 -0.7003,-1.75 z m 94.88643,1.2253 c -0.92123,-0.3714 -1.33582,-1.22403 -0.92131,-1.89473 0.41452,-0.6707 0.0828,-1.21946 -0.73705,-1.21946 -0.81989,0 -1.1464,-0.5571 -0.72558,-1.238 0.42082,-0.68091 -0.59377,-1.4992 -2.25464,-1.81843 -2.86481,-0.55063 -1.58829,-0.78178 8.20433,-1.48564 1.03993,-0.0748 2.13993,-0.88336 2.44445,-1.79692 0.47632,-1.42898 -5.02101,-2.50009 -9.33522,-1.8189 -0.55,0.0868 -1,-0.45384 -1,-1.20152 0,-0.74767 1.5,-1.0874 3.33333,-0.75496 1.84805,0.33512 3.33333,-0.0286 3.33333,-0.81615 0,-0.88769 -2.00059,-1.15226 -5.33308,-0.70528 -2.93319,0.39342 -5.6686,0.17243 -6.07868,-0.49111 -0.41009,-0.66353 0.18979,-1.20642 1.33307,-1.20642 1.14328,0 2.07869,-0.6 2.07869,-1.33333 0,-0.73334 1.2,-1.33334 2.66667,-1.33334 1.46667,0 2.66667,-0.6 2.66667,-1.33333 0,-0.73333 -0.63541,-1.33333 -1.41203,-1.33333 -0.77661,0 -1.0412,-0.6 -0.58797,-1.333342 0.45322,-0.73333 -0.44678,-1.33333 -2,-1.33333 -1.66063,0 -2.46198,-0.58584 -1.94518,-1.42205 0.48338,-0.78212 -0.16538,-2.18562 -1.44171,-3.11889 -1.93648,-1.41599 -1.99908,-1.82022 -0.3782,-2.44221 1.18822,-0.45596 4.44873,1.77626 8.39754,5.74913 l 6.45516,6.494512 1.78952,-3.44932 c 2.10008,-4.047902 2.36806,-9.811172 0.4562,-9.811172 -0.73333,0 -1.33333,-1.2 -1.33333,-2.66666 0,-1.48149 0.88889,-2.66667 2,-2.66667 1.1,0 2,0.63541 2,1.41202 0,0.77661 -0.75,0.96144 -1.66667,0.41072 -1.23804,-0.74379 -1.21905,-0.44883 0.0738,1.1469 1.8252,2.25274 1.76197,15.696292 -0.0738,15.696762 -0.55,1.5e-4 -1,1.96676 -1,4.37025 0,4.37134 -2.93962,10.00883 -6.2809,12.04529 -0.97635,0.59507 -1.42716,1.64507 -1.00179,2.33334 0.83862,1.3569 0.76956,1.37153 -1.72562,0.36557 z m 2.34164,-17.84177 c 1.46061,-0.98841 0.92122,-1.11212 -2,-0.45868 -4.90257,1.09662 -5.96682,1.85977 -2.55555,1.83251 1.40555,-0.0112 3.45555,-0.62945 4.55555,-1.37383 z m 13.87202,11.85383 c -0.52362,-0.84723 -1.14447,-4.59723 -1.37967,-8.33333 -0.2352,-3.73611 -0.76068,-9.114212 -1.16774,-11.951342 -0.61149,-4.26191 -0.38539,-5.02229 1.30097,-4.37517 2.25091,0.86375 2.83012,-1.15471 0.70776,-2.4664 -0.73334,-0.45323 -1.33334,-3.73247 -1.33334,-7.2872 0,-6.05697 0.18854,-6.41154 3,-5.6419 2.4908,0.68186 2.59707,0.90491 0.62606,1.31409 -1.96076,0.40707 -2.22058,1.3447 -1.49281,5.38726 0.48462,2.69193 1.41029,5.56481 2.05705,6.38417 0.72617,0.91998 0.40469,2.12983 -0.84052,3.16326 -2.92813,2.43014 -2.57199,13.026792 0.65022,19.346982 1.46667,2.87678 2.66667,5.40365 2.66667,5.61526 0,1.11999 -3.9813,0.16036 -4.79465,-1.15568 z m -5.87202,-35.708432 c 0,-1.93865 -1.07997,-2.68632 -4.33333,-3 -3.30517,-0.31868 -4.33333,-1.05053 -4.33333,-3.08448 0,-2.15961 0.82397,-2.62964 4.33333,-2.47192 3.89414,0.17501 4.33333,-0.18007 4.33333,-3.50341 0,-4.55354 2.81293,-7.34508 5.09839,-5.05961 0.86256,0.86255 1.56828,2.04827 1.56828,2.63494 0,1.71673 -3.70721,1.22479 -4.52157,-0.6 -0.40908,-0.91667 -0.68999,-0.46667 -0.62423,1 0.30754,6.85996 -0.0967,7.66156 -3.53253,7.00477 -2.70743,-0.51756 -3.05752,-0.29305 -1.83674,1.1779 0.82954,0.99953 2.33479,1.81733 3.345,1.81733 1.0703,0 1.83674,1.39094 1.83674,3.33333 0,1.83334 -0.3,3.33334 -0.66667,3.33334 -0.36667,0 -0.66667,-1.16199 -0.66667,-2.58219 z m 11.96667,-3.62893 c 1.74182,-0.86383 1.77209,-4.04761 0.0486,-5.11278 -0.75582,-0.46712 -0.97935,0.0681 -0.52402,1.25464 0.43673,1.13809 0.12985,2.06926 -0.68194,2.06926 -0.81179,0 -1.47598,-0.63541 -1.47598,-1.41203 0,-0.77661 -0.66709,-0.99974 -1.48241,-0.49584 -0.81532,0.50389 -2.00613,0.0893 -2.64625,-0.92131 -1.54771,-2.44354 -1.50097,-3.83749 0.12866,-3.83749 0.73333,0 1.26228,0.45 1.17544,1 -0.4028,2.55102 0.31097,3.19948 1.98889,1.80692 2.63769,-2.18908 6.3886,-0.33145 5.90616,2.92501 -0.2221,1.49922 -1.16883,2.87786 -2.10383,3.06363 -0.935,0.18578 -1.085,0.0328 -0.33333,-0.34001 z m -45.3,-44.45555 c -1.85848,-1.20104 -0.52978,-1.81353 2.33333,-1.0756 1.52491,0.39303 2.67102,-7.29637 1.45838,-9.7844 -1.30553,-2.6786 1.93205,-5.78713 4.85798,-4.66435 1.34378,0.51566 2.01698,2.5873 2.01698,6.20688 v 5.43289 l 4.95283,-0.39105 c 4.11538,-0.32492 5.00423,0.0599 5.25678,2.27563 0.24542,2.15323 0.16944,2.20674 -0.39461,0.2779 -0.46928,-1.60475 -1.53819,-2.15177 -3.25678,-1.66667 -1.40702,0.39716 -3.75822,1.06253 -5.22489,1.47862 -2.0507,0.58177 -2.66667,0.1198 -2.66667,-2 0,-1.51609 -0.63541,-2.75652 -1.41202,-2.75652 -0.77661,0 -1.0412,0.6 -0.58798,1.33333 0.45323,0.73334 0.18864,1.33334 -0.58797,1.33334 -0.77662,0 -1.41203,1.2 -1.41203,2.66666 0,2.87296 -2.1278,3.40491 -5.33333,1.33334 z m 9.33333,-11.33334 c 0,-2.29349 -0.72789,-3.32696 -2.33333,-3.31291 -2.01349,0.0176 -2.05918,0.2143 -0.33333,1.43484 1.51311,1.07009 1.59223,1.57973 0.32502,2.09346 -0.92123,0.37347 -1.33582,1.2278 -0.92131,1.89849 1.45588,2.35567 3.26295,1.18497 3.26295,-2.11388 z"
       id="path1" />
  </g>
</svg>
