<?xml version="1.0" encoding="UTF-8" standalone="no"?>
<!-- Created with Inkscape (http://www.inkscape.org/) -->

<svg
   version="1.1"
   id="svg1"
   width="285.51913"
   height="391.38104"
   viewBox="0 0 285.51913 391.38105"
   sodipodi:docname="cross"
   inkscape:version="1.4.3 (0d15f75042, 2025-12-25)"
   xmlns:inkscape="http://www.inkscape.org/namespaces/inkscape"
   xmlns:sodipodi="http://sodipodi.sourceforge.net/DTD/sodipodi-0.dtd"
   xmlns="http://www.w3.org/2000/svg"
   xmlns:svg="http://www.w3.org/2000/svg">
  <defs
     id="defs1" />
  <sodipodi:namedview
     id="namedview1"
     pagecolor="#ffffff"
     bordercolor="#000000"
     borderopacity="0.25"
     inkscape:showpageshadow="2"
     inkscape:pageopacity="0.0"
     inkscape:pagecheckerboard="0"
     inkscape:deskcolor="#d1d1d1"
     inkscape:zoom="0.64772515"
     inkscape:cx="118.87758"
     inkscape:cy="98.035409"
     inkscape:window-width="1366"
     inkscape:window-height="736"
     inkscape:window-x="0"
     inkscape:window-y="0"
     inkscape:window-maximized="1"
     inkscape:current-layer="g1" />
  <g
     inkscape:groupmode="layer"
     inkscape:label="Image"
     id="g1"
     transform="translate(-15.240428,-19.642814)">
    <path
       style="fill:#ffffff"
       d="m 139.49254,410.45652 c -6.75536,-1.32387 -17.82213,-13.94707 -17.82213,-20.32862 0,-1.84105 -1.49782,-3.34082 -4.65318,-4.65921 -12.08881,-5.05103 -21.507077,-16.75492 -22.891857,-28.44726 -0.8878,-7.49602 2.00597,-18.1001 6.932797,-25.40501 l 2.98607,-4.42737 -3.52025,-6.23929 c -3.047227,-5.40092 -3.520247,-7.77807 -3.520247,-17.69094 0,-10.53475 0.29614,-11.81582 3.698667,-16 2.03427,-2.5016 5.93427,-7.79634 8.66667,-11.76608 4.66431,-6.77652 4.968,-7.83608 4.968,-17.33334 0,-8.94606 -0.58051,-11.33141 -5.0209,-20.63134 l -5.02091,-10.51574 6.47966,-6.85128 c 3.92695,-4.15217 7.72834,-9.98966 9.64925,-14.81759 2.85179,-7.16756 3.16201,-9.94298 3.09396,-27.68027 -0.0521,-13.59117 -0.57837,-20.2169 -1.69433,-21.33333 -1.07753,-1.078 -6.6228,-1.61939 -16.58672,-1.61939 H 90.269073 l -5.05221,5.59037 c -9.651408,10.67945 -25.748281,15.47646 -35.321302,10.52606 -4.44832,-2.30031 -16.223336,-14.67708 -16.229891,-17.05931 -0.0026,-0.94808 -3.152608,-3.22378 -7,-5.05712 -8.647813,-4.12079 -12.534225,-10.26551 -11.152178,-17.63246 1.150472,-6.13254 11.305596,-17.64601 17.558458,-19.90708 2.737762,-0.98999 5.948088,-3.70203 7.933381,-6.702 4.407661,-6.660428 11.977713,-10.426478 20.945298,-10.420138 8.549478,0.006 14.209985,3.10406 19.058647,10.430888 3.081735,4.65681 4.178577,5.29468 10.386697,6.04046 3.81761,0.4586 12.191107,0.83904 18.607767,0.84541 l 11.66667,0.0116 -0.0992,-11.666668 -0.0992,-11.66666 -6.8964,-5.4056 c -11.93165,-9.35238 -15.710567,-17.05573 -12.94179,-26.38186 1.73684,-5.85021 11.803,-16.87921 15.40564,-16.87921 1.0939,0 3.81782,-2.97236 6.05316,-6.60525 6.64953,-10.80685 17.29037,-15.28031 28.90649,-12.15241 7.21833,1.94369 12.70962,6.66992 16.07968,13.83941 2.19767,4.67534 3.70422,6.06296 7.97022,7.34109 20.19162,6.04955 18.84645,28.96458 -2.28935,38.9992 -7.57286,3.59536 -7.37113,2.89789 -5.89362,20.376788 l 0.86231,10.20117 8.13769,-0.007 c 4.47572,-0.004 13.96694,-0.39292 21.09158,-0.86473 l 12.95389,-0.85784 3.39083,-5.12388 c 4.89553,-7.397648 12.83915,-12.257758 20.03472,-12.257758 7.70638,0 15.52248,5.11248 18.85263,12.331438 1.87222,4.0585 3.26038,5.38598 5.65934,5.41194 5.93974,0.0643 13.34405,3.07154 17.02669,6.91539 3.03522,3.16808 3.76429,5.29329 4.20836,12.26727 0.50414,7.9174 0.27898,8.72933 -3.66709,13.22365 -2.31231,2.63358 -6.74397,5.75827 -9.84814,6.94376 -4.68603,1.78961 -6.16044,3.28131 -8.68713,8.78896 -3.65763,7.97288 -10.31976,12.83769 -19.25846,14.06288 -5.38466,0.73805 -7.52478,0.25548 -14.84166,-3.34661 -4.70235,-2.31496 -10.38273,-6.29669 -12.62307,-8.8483 l -4.07334,-4.63927 h -18.04073 -18.04074 l 0.0293,24.33333 c 0.0347,28.8413 0.98164,32.08352 11.77423,40.31406 3.77473,2.87865 6.86315,5.36454 6.86315,5.52421 0,0.15967 -2.34657,4.68638 -5.2146,10.05935 -11.65389,21.83245 -11.71258,27.72804 -0.44065,44.26278 4.06421,5.96178 8.19928,12.77033 9.18903,15.13011 2.42662,5.78557 2.27334,17.80475 -0.30938,24.2596 -2.05064,5.12506 -2.01488,5.40916 1.29404,10.27866 5.06919,7.45999 6.94984,17.48541 4.95348,26.40609 -2.47279,11.04959 -12.59748,23.5618 -21.74613,26.87411 -3.1661,1.1463 -4.46742,2.8713 -6.34086,8.40527 -4.87565,14.40228 -17.36739,22.01374 -31.5628,19.23182 z m 20.57304,-6.67579 c 6.11437,-4.56504 8.25198,-8.68686 8.83692,-17.03971 0.41742,-5.96067 1.2424,-8.52356 3.27297,-10.16781 1.49318,-1.20911 2.35489,-2.55836 1.91491,-2.99834 -0.43999,-0.43998 0.0355,-1.82681 1.0567,-3.08183 1.65835,-2.03814 1.57184,-2.17748 -0.81,-1.30454 -1.46667,0.53753 -0.28352,-1.00013 2.62921,-3.41702 2.91274,-2.4169 5.71774,-4.25935 6.23334,-4.09435 0.51559,0.165 1.83508,-2.235 2.93218,-5.33334 1.09711,-3.09833 2.04211,-4.67287 2.1,-3.49896 0.0579,1.1739 -0.56624,4.06065 -1.38697,6.415 -1.09384,3.13778 -2.07278,4.05976 -3.66667,3.45331 -1.77966,-0.67713 -1.86174,-0.51242 -0.45214,0.90728 1.4096,1.41968 0.92545,2.3958 -2.66667,5.37646 -2.41392,2.00301 -3.70715,3.65798 -2.87384,3.67771 0.83332,0.0197 4.58332,-2.84471 8.33334,-6.36541 3.75002,-3.52071 6.81822,-6.1996 6.81822,-5.95309 0,2.20949 -5.64669,7.7212 -13.35571,13.03646 -5.12404,3.53295 -9.07651,6.66347 -8.78327,6.95671 1.71705,1.71705 11.24543,-1.97727 15.88398,-6.1585 11.48699,-10.35449 14.78774,-26.53633 8.13573,-39.88518 -1.89893,-3.81065 -3.93473,-6.92845 -4.52401,-6.92845 -2.42692,0 -2.42694,-4.29169 -5e-5,-9.6386 3.02892,-6.6733 3.39325,-16.65223 0.8318,-22.78265 -0.99634,-2.38457 -4.53067,-8.3073 -7.85406,-13.16162 -10.74795,-15.69898 -11.37496,-23.23423 -3.34102,-40.15142 3.18647,-6.70979 4.10332,-9.82127 2.894,-9.82127 -0.97355,0 -1.55946,0.35 -1.30202,0.77778 0.65206,1.08352 -2.804,4.11471 -3.68592,3.23278 -1.31219,-1.31218 -4.89609,13.24749 -5.11678,20.787 l -0.21733,7.42466 -0.78267,-7.33333 c -1.16454,-10.91128 -2.8302,-5.20147 -4.08408,14 -0.85436,13.08348 -1.67925,17.33674 -4.52534,23.33333 -3.40025,7.16418 -4.28056,13.64309 -2.67013,19.65167 0.44003,1.64175 1.29843,2.67699 1.90756,2.30053 2.10146,-1.29878 0.16925,12.80599 -2.24969,16.42236 -1.33376,1.99399 -2.44216,4.22544 -2.46312,4.95878 -0.0209,0.73333 -1.0442,1.34098 -2.27388,1.35033 -1.22968,0.009 -2.67813,0.45936 -3.21878,1 -2.6659,2.66591 -13.65103,-0.34943 -19.45029,-5.33895 -1.23478,-1.06238 -4.53478,-2.77858 -7.33333,-3.81377 l -5.08826,-1.88217 4.66667,0.34228 c 2.60604,0.19114 6.25153,1.73381 8.25589,3.49368 4.79884,4.21345 10.08829,6.86149 13.56318,6.79007 1.84906,-0.038 1.00444,-0.71511 -2.40864,-1.93097 -7.92031,-2.82148 -11.86825,-6.32747 -14.03603,-12.46476 -1.53817,-4.35475 -1.63464,-6.40516 -0.44916,-9.54588 0.92241,-2.44373 1.0055,-3.99986 0.21358,-3.99986 -0.71291,0 -0.91933,-0.60979 -0.45871,-1.35509 0.46061,-0.74529 1.25707,-1.09576 1.76989,-0.77882 0.51282,0.31694 0.70884,-1.76811 0.43558,-4.63344 -0.36616,-3.83955 0.0567,-5.42211 1.60787,-6.01735 1.85452,-0.71165 1.87104,-1.04129 0.13895,-2.77338 -1.08116,-1.08115 -1.95655,-2.97288 -1.94532,-4.20383 0.0156,-1.70499 0.28457,-1.82157 1.12939,-0.4894 2.06159,3.25085 2.85726,-18.68356 0.97194,-26.79391 -0.9944,-4.27776 -1.19495,-7.20603 -0.46252,-6.75337 1.52016,0.93951 0.43351,-2.88068 -3.0023,-10.55483 -1.78155,-3.9792 -2.07785,-6.34996 -1.18343,-9.46864 1.59204,-5.5511 1.59338,-8.87406 0.003,-6.36325 -0.7966,1.25729 -1.32558,0.30872 -1.72215,-3.08818 -0.4822,-4.1304 -0.2107,-4.8083 1.72317,-4.30258 2.09751,0.54851 2.14219,0.16562 0.51795,-4.43797 -1.69669,-4.80892 -1.47458,-7.96251 1.21978,-17.31929 0.74716,-2.59469 0.63762,-2.89015 -0.49432,-1.33334 -1.08346,1.49012 -1.32048,-0.54941 -0.92972,-8 0.55814,-10.64206 0.572,-10.66469 -5.04733,8.24245 -2.90502,9.77442 -4.50127,12.73654 -10.25772,19.03502 l -6.81733,7.45924 4.08562,8.29906 c 7.25785,14.7428 8.29738,26.37502 3.23954,36.25016 -1.11344,2.17393 -4.9154,7.72445 -8.4488,12.33449 -3.5334,4.61003 -6.779277,10.33136 -7.213067,12.71406 -1.0649,5.84923 2.155907,15.79309 7.163097,22.11518 4.07348,5.1432 4.08722,5.21365 1.47659,7.57623 -1.44932,1.31162 -4.43578,5.9882 -6.63659,10.3924 -9.304727,18.62041 -2.327587,37.36315 16.25993,43.67914 5.91712,2.01062 7.00066,2.87072 6.63543,5.26713 -0.24009,1.57526 0.43756,3.86265 1.50588,5.0831 1.06831,1.22045 2.9249,4.15885 4.12575,6.52977 4.99202,9.85612 21.77086,13.13275 31.20005,6.09284 z m -24.45254,-3.39932 c -8.30281,-7.30843 -11.28108,-13.54968 -9.38678,-19.67095 1.73757,-5.61484 3.17957,-8 4.83657,-8 0.67928,0 0.0461,1.95 -1.40703,4.33333 -3.96737,6.50696 -3.24212,7.02513 2.95614,2.11204 5.6337,-4.46558 7.25368,-5.03067 15.56459,-5.42926 7.65488,-0.36713 13.09855,8.84678 9.99897,16.92415 -1.16975,3.04831 -7.56713,6.05974 -12.87312,6.05974 -5.6433,0 -10.46018,-4.7789 -10.9379,-10.85164 -0.42514,-5.40433 -2.34974,-6.22327 -5.02608,-2.13866 -1.8923,2.88802 -1.7874,3.47382 1.48106,8.27027 4.49732,6.59979 12.87914,11.60542 17.96316,10.72761 7.74489,-1.33724 15.55446,-9.71529 15.55446,-16.68672 0,-1.54637 0.53753,-2.47936 1.19452,-2.07332 1.85721,1.14782 -0.64204,9.9925 -3.76204,13.31358 -1.53461,1.63352 -2.35301,3.40724 -1.81865,3.9416 0.53435,0.53435 -0.15859,0.53788 -1.53987,0.008 -1.93392,-0.74212 -2.25867,-0.52837 -1.41226,0.92953 0.60454,1.04129 0.6269,1.46718 0.0497,0.94643 -0.57721,-0.52076 -2.6234,-0.14009 -4.5471,0.84591 -6.03204,3.09179 -10.3688,2.17723 -16.88832,-3.56147 z m 20.11219,-9.09299 c 1.43503,-2.32193 -0.19936,-2.81366 -2.02808,-0.61018 -1.05166,1.26718 -1.15281,2.03222 -0.26869,2.03222 0.77985,0 1.8134,-0.63992 2.29677,-1.42204 z m -7.87457,-1.90107 c 1.09437,-1.09437 1.67033,-2.50664 1.2799,-3.13836 -0.39042,-0.63173 0.79955,-1.83633 2.6444,-2.67689 4.89957,-2.2324 5.661,-1.79966 2.08107,1.18272 -1.73124,1.44227 -2.70777,2.6223 -2.17007,2.6223 0.5377,0 0.45417,0.77834 -0.18562,1.72963 -0.6398,0.9513 0.1139,0.28279 1.67488,-1.48557 2.11383,-2.39465 3.02272,-2.751 3.5614,-1.39629 0.45329,1.13995 0.75493,0.8235 0.80811,-0.84777 0.0467,-1.46666 -0.44697,-3.50662 -1.09697,-4.53323 -0.97558,-1.54084 -1.81372,-1.36951 -4.80297,0.98184 -3.91099,3.07638 -6.35372,2.75805 -5.04316,-0.65723 0.72399,-1.88669 0.43419,-1.87387 -2.60143,0.11515 -3.87125,2.53654 -6.21467,0.74079 -2.72583,-2.08878 1.54146,-1.25018 1.92862,-1.29735 1.23996,-0.15108 -1.33973,2.22998 0.54989,2.04036 3.74425,-0.37574 3.36872,-2.54797 5.53926,-2.52099 3.41183,0.0424 -2.0964,2.52601 -0.14,2.52578 3.19736,-3.7e-4 2.42471,-1.83535 2.37503,-1.97475 -1.18648,-3.32883 -2.86191,-1.08809 -4.21111,-0.98441 -5.86402,0.45065 -1.18077,1.02515 -2.84188,1.61053 -3.69134,1.30085 -2.02831,-0.73945 -3.69077,2.0223 -3.93997,6.54528 -0.22942,4.16378 2.64085,7.47607 4.23842,4.89115 0.62852,-1.01695 0.42795,-1.25586 -0.54796,-0.65272 -2.56363,1.58441 -1.7281,0.035 1.43768,-2.66603 2.9473,-2.51463 2.95728,-2.51336 1,0.12668 -1.78453,2.40703 -1.77035,2.50552 0.14566,1.01157 1.16747,-0.9103 2.5445,-1.23327 3.06006,-0.71771 0.51557,0.51557 -0.43964,1.99702 -2.12268,3.29212 -1.71739,1.32154 -2.28699,2.36774 -1.29816,2.38438 0.96905,0.0163 2.6573,-0.86575 3.75168,-1.96013 z M 112.53955,375.9022 c -3.44877,-2.41561 -10.86914,-12.19155 -10.86914,-14.3195 0,-0.76688 1.69752,1.27314 3.77228,4.53338 5.19659,8.16586 7.45771,9.87548 10.49124,7.93236 2.05813,-1.31833 2.07719,-1.43864 0.13279,-0.838 -2.46782,0.76232 -7.63922,-4.54584 -11.27116,-11.56923 -3.17221,-6.13439 -1.90333,-21.41022 2.32087,-27.94041 1.77135,-2.73834 4.27065,-5.32183 5.55398,-5.74109 1.28333,-0.41925 2.33333,-1.32185 2.33333,-2.00577 0,-0.68391 -1.05,-1.29759 -2.33333,-1.36373 -1.28333,-0.0661 -0.31754,-0.70034 2.14621,-1.40935 2.46375,-0.709 4.81375,-0.95488 5.22222,-0.54641 0.40848,0.40847 -0.25732,0.74268 -1.47954,0.74268 -1.22222,0 -2.22222,0.58515 -2.22222,1.30033 0,0.83546 1.25777,0.82212 3.51825,-0.0373 5.92539,-2.25283 4.94843,-0.44273 -1.36201,2.52353 -5.80929,2.73068 -10.4924,6.98437 -5.63905,5.12197 1.43945,-0.55237 1.96503,-0.35545 1.41719,0.53098 -0.47893,0.77493 -1.70536,1.0887 -2.7254,0.69727 -2.1748,-0.83454 -5.40745,4.75774 -6.5746,11.37369 -0.8267,4.68606 1.45779,15.52121 3.75779,17.82287 0.88779,0.88843 0.97584,0.66598 0.26388,-0.66667 -0.58767,-1.1 0.79595,-0.26492 3.07471,1.85574 2.27875,2.12066 4.02155,4.44566 3.87288,5.16667 -0.14867,0.72101 0.56321,1.61376 1.58195,1.9839 1.24239,0.45139 1.50382,0.10918 0.79399,-1.03934 -0.69909,-1.13115 -0.52843,-1.38486 0.50282,-0.74752 0.8586,0.53065 1.2159,1.52335 0.79399,2.20602 -0.42191,0.68266 0.43289,1.2412 1.89956,1.2412 1.46667,0 3.09157,0.6875 3.61089,1.52779 0.6612,1.06983 -0.0828,1.27002 -2.48202,0.66785 -3.91241,-0.98195 -7.98315,0.16745 -6.88514,1.94407 1.06347,1.72073 0.25118,1.48139 -3.21721,-0.94797 z m 0.4568,-9.86658 c -1.33139,-1.47117 -2.77344,-2.32211 -3.20456,-1.89099 -0.43112,0.43112 0.37988,1.6348 1.80222,2.67484 3.65319,2.67128 4.23492,2.34611 1.40234,-0.78385 z m 50.67406,7.22861 c -2.69172,-2.15822 -3.30443,-3.20936 -1.87332,-3.21382 2.13001,-0.007 7.45079,4.86777 6.4207,5.88204 -0.30106,0.29644 -2.34738,-0.90426 -4.54738,-2.66822 z m 4.41667,-2.79792 c 0.9625,-0.38516 2.1125,-0.3378 2.55555,0.10526 0.44306,0.44305 -0.34444,0.75819 -1.75,0.70029 -1.55326,-0.064 -1.8692,-0.37992 -0.80555,-0.80555 z m -32.98962,-14.75585 c 0.0652,-6.26458 0.44199,-8.1895 1.23962,-6.33333 0.63024,1.46666 1.18807,4.09758 1.23962,5.84647 l 0.0937,3.17981 2.66667,-3.39011 c 1.46666,-1.86457 2.66666,-4.34548 2.66666,-5.51315 0,-1.16766 0.6,-2.12302 1.33334,-2.12302 0.73333,0 1.33333,3 1.33333,6.66666 0,7.11872 -0.78755,8.37436 -2.44398,3.89659 -0.94185,-2.54605 -1.23246,-2.38431 -3.59358,2 -1.41287,2.62354 -3.03241,4.77008 -3.59898,4.77008 -0.56657,0 -0.98796,-4.05 -0.93641,-9 z m -14.76038,-1.07869 c 0,-4.60182 0.50552,-7.09959 1.33333,-6.58798 0.73333,0.45323 1.33333,1.68864 1.33333,2.74536 0,1.16051 1.31994,1.92131 3.33334,1.92131 2.8676,0 3.33618,-0.60545 3.35375,-4.33333 0.0155,-3.2883 0.33212,-3.85101 1.31291,-2.33334 1.70653,2.64067 1.70653,13.33334 0,13.33334 -0.73333,0 -1.33333,-0.9 -1.33333,-2 0,-1.24445 -1.25926,-2 -3.33333,-2 -2.66667,0 -3.33334,0.66666 -3.33334,3.33333 0,1.83333 -0.6,3.33333 -1.33333,3.33333 -0.73333,0 -1.33333,-3.33541 -1.33333,-7.41202 z m 27.71434,-0.92131 c -0.64155,-8.26999 -0.27464,-9.31396 1.56908,-4.4646 1.14006,2.99856 1.76945,3.35173 3.9211,2.2002 1.40969,-0.75444 2.83322,-2.12859 3.1634,-3.05366 0.33018,-0.92507 1.06797,-1.24644 1.63954,-0.71416 0.57156,0.53228 0.26326,1.90273 -0.68511,3.04545 -1.41135,1.70057 -1.40514,2.67406 0.0342,5.36354 2.41596,4.51427 0.72094,5.66519 -2.07006,1.40558 -2.8555,-4.35805 -4.61986,-4.40223 -4.61986,-0.11568 0,6.31453 -2.41024,3.3211 -2.95232,-3.66667 z m 12.91976,0.39948 c 0.87462,-6.3586 2.63432,-9.39948 5.43931,-9.39948 1.86989,0 2.60538,1.77571 4.00388,9.66667 0.58661,3.30986 0.38529,5 -0.59557,5 -0.81495,0 -1.48172,-0.9 -1.48172,-2 0,-2.73324 -3.94516,-2.52375 -6.27739,0.33333 -1.69485,2.07625 -1.81478,1.67955 -1.08851,-3.60052 z m 6.03256,-4.8115 c 0,-3.84359 -1.97581,-3.37382 -3.04756,0.72457 -0.45857,1.75358 -0.0512,2.68745 1.17239,2.68745 1.12283,0 1.87517,-1.36895 1.87517,-3.41202 z m -69.023987,0.74535 c 0,-2.56666 0.27439,-3.61666 0.60976,-2.33333 0.33537,1.28333 0.33537,3.38333 0,4.66667 -0.33537,1.28333 -0.60976,0.23333 -0.60976,-2.33334 z m 84.357327,-12.43643 c -1.46667,-2.27191 -4.7054,-5.50313 -7.19718,-7.18049 -5.49583,-3.69955 -4.11921,-4.08288 1.70646,-0.47517 2.28656,1.41601 5.26584,4.45755 6.62063,6.75898 3.23148,5.48943 2.30808,6.22223 -1.12991,0.89668 z m -49.37963,1.8344 c -1.49212,-0.60482 -3.58178,-2.21679 -4.64369,-3.58215 -1.85844,-2.38954 -1.82782,-2.39512 0.81795,-0.14915 1.51177,1.28333 3.41602,2.33333 4.23166,2.33333 0.81565,0 1.85382,0.6 2.30704,1.33334 0.94753,1.53314 0.91204,1.53398 -2.71296,0.0646 z m 54.63048,-2.39797 c -1.31404,-2.01666 -4.1465,-5.31666 -6.29435,-7.33333 -3.45872,-3.24747 -3.60108,-3.66667 -1.24522,-3.66667 1.46298,0 4.07643,1.20118 5.80767,2.66929 2.72958,2.3147 2.79348,2.55035 0.48105,1.77391 -2.50416,-0.8408 -2.53491,-0.73939 -0.50467,1.66405 2.44088,2.88956 5.55747,8.55942 4.70492,8.55942 -0.30812,0 -1.63535,-1.65 -2.9494,-3.66667 z m -27.81747,-2.82798 c 1.41164,-1.37206 2.80212,-2.28656 3.08995,-2.03222 0.84089,0.74303 -2.7142,4.52687 -4.25321,4.52687 -0.77185,0 -0.24839,-1.12259 1.16326,-2.49465 z m -33.26867,-8.89023 c -0.45726,-1.1916 -0.76238,-3.76748 -0.67805,-5.72417 0.11485,-2.66465 0.41423,-2.21894 1.19275,1.77572 1.10451,5.66733 0.86119,7.53395 -0.5147,3.94845 z m 43.18033,-0.33344 c -1.28957,-0.46589 -0.35246,-1.25315 2.66667,-2.24026 3.53859,-1.15695 5.34305,-2.94324 7.52416,-7.44835 4.23518,-8.74786 5.28318,-17.58354 2.42463,-20.44209 -1.25288,-1.25288 -1.91449,-2.64144 -1.47024,-3.08569 0.44425,-0.44425 -0.43593,-2.96568 -1.95596,-5.60317 -1.84155,-3.19539 -2.00741,-3.90569 -0.4971,-2.12879 3.58991,4.22359 8.72838,16.10056 9.35352,21.61959 0.4547,4.01424 0.34307,4.36494 -0.5455,1.71375 -1.05178,-3.13818 -1.17834,-3.02108 -2.16148,2 -1.35977,6.94455 -5.34098,14.78858 -8.02953,15.82028 -1.23135,0.47251 -1.78324,0.26116 -1.31144,-0.50222 1.00758,-1.63031 -1.01583,-1.742 -2.74277,-0.1514 -0.69667,0.64167 -2.1614,0.84343 -3.25496,0.44835 z m -59.3356,-4.29695 c 0.44803,-0.72494 0.24434,-1.31806 -0.45265,-1.31806 -1.54308,0 -5.07294,-8.55802 -6.90886,-16.75027 -1.58906,-7.09069 -0.88561,-8.84148 7.56813,-18.83607 7.50792,-8.87637 9.78572,-14.47682 9.7765,-24.0375 -0.009,-9.82704 -1.62898,-15.56288 -6.61321,-23.42219 -2.19301,-3.45802 -3.38729,-6.28731 -2.65396,-6.28731 2.28768,0 8.97127,11.84424 10.66305,18.89641 3.02939,12.62789 0.35035,22.40907 -9.57119,34.94443 -3.71159,4.6894 -5.15059,7.78463 -5.15059,11.07869 0,2.51415 -0.55575,4.22771 -1.23501,3.8079 -0.70888,-0.43811 -0.98118,1.28331 -0.63918,4.04069 0.58631,4.7271 2.56501,9.14382 6.60138,14.73513 1.84831,2.56034 1.84094,2.91593 -0.0756,3.65139 -1.22924,0.47171 -1.78035,0.2598 -1.30876,-0.50324 z m 57.74056,0.43778 c 0.9625,-0.38516 2.1125,-0.33779 2.55555,0.10527 0.44306,0.44305 -0.34444,0.75818 -1.75,0.70029 -1.55326,-0.064 -1.8692,-0.37992 -0.80555,-0.80556 z m -55.81215,-7.46492 c -3.34278,-2.63296 -5.93965,-10.15579 -4.13034,-11.9651 1.14554,-1.14554 1.52706,-0.71167 1.5308,1.74084 0.003,1.79667 1.19393,5.21667 2.64707,7.6 2.92565,4.79841 2.92265,4.96375 -0.0475,2.62426 z m 68.27267,-7.62426 c 0,-1.83333 0.30263,-2.58333 0.67252,-1.66666 0.36988,0.91666 0.36988,2.41666 0,3.33333 -0.36989,0.91667 -0.67252,0.16667 -0.67252,-1.66667 z m -2.68484,-7.66666 c -1.45493,-3.40006 -1.42202,-3.47848 0.45265,-1.0785 1.11192,1.4235 2.02167,3.0735 2.02167,3.66667 0,2.02654 -0.90445,1.08048 -2.47432,-2.58817 z m -69.42042,-2.44445 c 0.064,-1.55326 0.37992,-1.8692 0.80556,-0.80555 0.38516,0.9625 0.33779,2.1125 -0.10527,2.55555 -0.44305,0.44306 -0.75818,-0.34444 -0.70029,-1.75 z m 16.06712,-36.43911 c 0.0641,-4.54963 0.43032,-7.95818 0.81395,-7.57455 0.86834,0.86833 0.62777,14.28845 -0.27226,15.18848 -0.36197,0.36197 -0.60573,-3.0643 -0.54169,-7.61393 z m 3.16134,-8.98783 c -1.11947,-2.67926 -1.72752,-5.17926 -1.35123,-5.55555 0.3763,-0.3763 0.68417,-0.35745 0.68417,0.0419 0,0.39933 0.90806,2.89933 2.0179,5.55556 1.10984,2.65622 1.71789,4.8295 1.35122,4.8295 -0.36666,0 -1.58259,-2.19213 -2.70206,-4.87139 z m -12.36763,-28.84216 c 2.73135,-2.48074 6.16817,-7.16004 7.63738,-10.39844 1.46921,-3.23841 2.68447,-4.8169 2.70058,-3.50777 0.053,4.30565 -7.65072,14.75449 -12.63739,17.14063 -1.46666,0.7018 -0.43192,-0.75368 2.29943,-3.23442 z m 64.36724,144.38021 c 1.32732,-1.46667 2.1133,-2.66667 1.74663,-2.66667 -0.36666,0 -1.75265,1.2 -3.07996,2.66667 -1.32732,1.46667 -2.1133,2.66667 -1.74664,2.66667 0.36667,0 1.75265,-1.2 3.07997,-2.66667 z m -23.71597,-36.48125 c -0.27407,-0.82221 0.2999,-2.29315 1.27549,-3.26875 2.12203,-2.12202 2.33015,-6.41545 0.36972,-7.62706 -0.77226,-0.47728 -2.42226,0.23731 -3.66667,1.58797 -1.54022,1.67174 -3.68655,2.31935 -6.72283,2.02848 -6.29708,-0.60324 -8.96391,0.57464 -6.90845,3.05132 0.87905,1.0592 1.15392,2.6448 0.61082,3.52356 -0.62469,1.01077 -0.42194,1.24824 0.55188,0.64639 0.84664,-0.52325 1.53934,-0.35769 1.53934,0.36792 0,0.72561 1.35,1.5156 3,1.75554 4.87809,0.70935 10.48751,-0.45494 9.9507,-2.06537 z m -50.28403,-5.35549 c 0,-0.27687 -1.05,-1.32687 -2.33333,-2.33333 -2.11474,-1.6585 -2.1619,-1.61133 -0.50341,0.50341 1.74183,2.22099 2.83674,2.9273 2.83674,1.82992 z m 40.75738,-7.82992 c -0.30757,-1.65 -0.60381,-4.07366 -0.6583,-5.38591 -0.082,-1.97378 -0.42144,-2.08894 -1.96536,-0.66666 -1.4288,1.31621 -1.50694,2.16993 -0.33334,3.64184 1.18279,1.48345 1.15225,1.69389 -0.13371,0.92131 -1.03477,-0.62166 -1.66667,-0.25025 -1.66667,0.97963 0,1.08951 1.05,2.25532 2.33333,2.59069 1.28334,0.33537 2.47957,0.67936 2.6583,0.76443 0.17874,0.0851 0.0733,-1.19533 -0.23425,-2.84533 z m 7.96121,0.24931 c 1.05521,-1.70736 -3.25654,-6.81958 -4.89679,-5.80585 -0.63532,0.39265 -1.15513,2.1785 -1.15513,3.96856 0,2.33277 0.73304,3.25464 2.58797,3.25464 1.42339,0 2.98217,-0.63781 3.46395,-1.41735 z m -0.47415,-6.87154 c -0.95675,-0.95675 -1.57777,-1.03547 -1.57777,-0.2 0,1.77971 1.57681,3.35652 2.46666,2.46667 0.37889,-0.37889 -0.0211,-1.39889 -0.88889,-2.26667 z m 2.06258,-6.2854 c -0.10665,-1.41587 -0.66936,-2.28046 -1.25047,-1.92131 -1.47842,0.91371 -1.32392,4.4956 0.19392,4.4956 0.68776,0 1.1632,-1.15843 1.05655,-2.57429 z m -22.14157,-3.1146 c -1.31682,-1.30702 -1.46997,-1.15387 -0.74639,0.7464 0.50071,1.31496 1.24625,2.05496 1.65677,1.64444 0.41052,-0.41051 8.4e-4,-1.48639 -0.91038,-2.39084 z m 15.83455,-5.23627 c 0,-0.69592 -0.9,-0.36531 -2,0.73469 -1.1,1.1 -2,2.41632 -2,2.92516 0,0.50884 0.9,0.17823 2,-0.73469 1.1,-0.91292 2,-2.22924 2,-2.92516 z m 8,1.59183 c 0,-0.73333 -0.6,-1.33333 -1.33333,-1.33333 -0.73334,0 -1.33334,0.6 -1.33334,1.33333 0,0.73333 0.6,1.33333 1.33334,1.33333 0.73333,0 1.33333,-0.6 1.33333,-1.33333 z m -10.66667,-2.66667 c 0,-0.73333 -0.63541,-1.33333 -1.41202,-1.33333 -0.77661,0 -1.0412,0.6 -0.58798,1.33333 0.45323,0.73334 1.08864,1.33334 1.41203,1.33334 0.32338,0 0.58797,-0.6 0.58797,-1.33334 z m 17.12294,-25.46336 c -1.33847,-0.82722 -1.39284,-1.46673 -0.22406,-2.63551 0.97699,-0.97699 1.30054,-4.2997 0.88178,-9.05552 -0.48738,-5.53521 -0.28776,-6.98592 0.75852,-5.51227 1.08463,1.52766 1.38755,0.58298 1.28265,-4 -0.12419,-5.42564 -1.94815,-15.53742 -2.33074,-12.92131 -0.0868,0.59328 -0.82181,0.66828 -1.63344,0.16666 -1.04939,-0.64856 -0.9985,-1.20693 0.17617,-1.93292 1.15433,-0.71341 0.76534,-1.30227 -1.29146,-1.95508 -1.61882,-0.51379 -3.16802,-0.70946 -3.44266,-0.43482 -0.27464,0.27464 -0.6776,5.63941 -0.89546,11.92171 -0.26724,7.70633 0.14636,12.076 1.27134,13.43151 0.99645,1.20065 1.34326,3.63005 0.86184,6.03714 -1.00171,5.00858 1.36864,9.89529 4.26138,8.78524 1.67453,-0.64258 1.73915,-1.02031 0.32414,-1.89483 z m -14.45627,-2.49479 c 0,-0.71032 0.8333,-0.97172 1.85177,-0.58089 2.15814,0.82815 3.15926,-6.03937 2.35484,-16.15368 -0.35592,-4.47512 -0.86964,-5.78239 -1.76046,-4.47985 -0.84894,1.24128 -1.12315,-0.2155 -0.84346,-4.48086 0.33609,-5.12558 0.0348,-6.2065 -1.59413,-5.71902 -1.10471,0.33059 -3.73218,0.89825 -5.83882,1.26147 -4.25909,0.73433 -6.39463,2.11098 -3.27467,2.11098 1.35204,0 2.06075,1.4516 2.17355,4.45184 0.092,2.44851 0.78745,6.0828 1.54534,8.0762 0.88969,2.34007 0.90694,3.33324 0.0487,2.80281 -0.73112,-0.45186 -1.32931,-0.12195 -1.32931,0.73312 0,0.85507 -0.9,1.20931 -2,0.7872 -1.1,-0.42211 -2,-0.1863 -2,0.52401 0,0.71032 0.47939,1.29149 1.0653,1.29149 0.58591,0 2.53591,2.38386 4.33333,5.29747 3.15858,5.12003 5.26804,6.75286 5.26804,4.07771 z m 6.77983,-5.51493 c -1.17461,-2.93645 -1.28427,-2.96993 -1.36198,-0.4158 -0.0465,1.52777 0.31548,3.17777 0.80437,3.66666 1.5925,1.5925 1.86335,0.0134 0.55761,-3.25086 z m -15.88856,-14.83565 c -0.98943,-0.98942 -1.16295,-0.46885 -0.58299,1.74895 0.47148,1.80294 1.07587,2.40733 1.40874,1.40873 0.32064,-0.96192 -0.051,-2.38288 -0.82575,-3.15768 z m 33.04382,-7.69127 c 0.95231,-1.83333 2.95006,-4.67159 4.43944,-6.30724 l 2.70795,-2.97391 -3.54124,-3.54124 c -1.94768,-1.94768 -3.539,-4.50942 -3.53626,-5.69276 0.003,-1.25023 1.11178,-0.33625 2.64707,2.18182 1.45315,2.38333 3.25091,4.33333 3.99502,4.33333 0.74411,0 1.35293,0.84691 1.35293,1.88203 0,2.42582 4.57688,1.80152 4.9461,-0.67466 0.15369,-1.03072 -2.74755,-4.1734 -6.44721,-6.98375 -9.89881,-7.51936 -10.82957,-10.62917 -11.8393,-39.55695 -0.61438,-17.60104 -0.97283,-21.22933 -1.25138,-12.66666 -0.23136,7.11166 -0.73348,10.52132 -1.23263,8.37011 -0.63447,-2.73443 -1.31454,-3.33507 -2.75677,-2.4348 -1.55377,0.96991 -1.65322,2.33695 -0.5278,7.25506 0.76269,3.33298 0.87423,5.74322 0.24785,5.3561 -2.9288,-1.8101 -0.85415,10.38575 3.00271,17.65146 3.9548,7.45021 4.10471,8.29903 3.32403,18.82196 -0.94313,12.71255 0.44225,29.09835 1.88653,22.31344 0.46831,-2.2 1.63064,-5.5 2.58296,-7.33334 z m -26.39658,-8.66666 c 3.41285,0 5.968,-0.38437 5.67812,-0.85416 -0.28989,-0.46978 1.04166,-1.88202 2.95898,-3.1383 1.91733,-1.25628 3.07677,-1.62191 2.57653,-0.81251 -0.50023,0.8094 -0.30952,1.47163 0.42381,1.47163 0.73334,0 1.70416,-0.6 2.15738,-1.33333 0.45323,-0.73333 1.46211,-1.33333 2.24195,-1.33333 0.83931,0 0.67117,0.92058 -0.41202,2.25594 -1.00646,1.24077 -1.13117,1.83703 -0.27714,1.32503 0.85403,-0.51201 1.85666,-0.17718 2.22807,0.74405 0.37661,0.93415 0.76696,0.49553 0.88256,-0.99169 0.114,-1.46667 0.40828,-3.71667 0.65395,-5 0.52551,-2.74514 -0.70319,-2.98975 -3.34866,-0.66666 -1.04387,0.91666 -0.75444,0.29849 0.64319,-1.37371 1.99296,-2.3845 2.27296,-3.79915 1.29796,-6.55772 -1.62582,-4.59992 -3.79362,-5.18481 -7.0707,-1.90773 -4.02598,4.02598 -9.51145,7.33433 -12.52945,7.55668 -2.58359,0.19034 -2.59439,0.12153 -0.25013,-1.59263 1.34756,-0.98536 2.97083,-1.79156 3.60729,-1.79156 0.63645,0 0.78636,-0.6 0.33313,-1.33333 -0.45322,-0.73334 0.31838,-1.33334 1.71466,-1.33334 3.34189,0 7.86369,-4.78845 5.36685,-5.68332 -0.96149,-0.3446 -3.6053,-0.34339 -5.87512,0.003 -2.41633,0.36841 -5.92186,-0.29895 -8.45724,-1.61005 -2.38166,-1.23161 -4.58866,-1.98092 -4.90444,-1.66514 -1.32276,1.32276 1.1781,4.57752 4.53935,5.90777 l 3.61594,1.43104 -4.33333,0.14153 c -2.89992,0.0949 -4.33333,0.80341 -4.33333,2.14184 0,1.1 0.6,2 1.33333,2 0.73333,0 1.33333,0.63541 1.33333,1.41202 0,0.77661 -0.45,1.13576 -1,0.7981 -0.55,-0.33765 -1,2.568 -1,6.457 0,5.78261 0.3644,6.91259 2,6.2019 1.1,-0.47796 4.79233,-0.86902 8.20518,-0.86902 z m -2.87184,-4.66667 c 0,-0.73333 0.63541,-1.33333 1.41202,-1.33333 0.77661,0 1.0412,0.6 0.58798,1.33333 -0.45323,0.73333 -1.08864,1.33333 -1.41203,1.33333 -0.32338,0 -0.58797,-0.6 -0.58797,-1.33333 z m 6.66666,-4.12482 c 0,-0.66468 0.9,-1.20851 2,-1.20851 1.1,0 2,-0.63541 2,-1.41202 0,-0.77662 0.60979,-1.03516 1.35509,-0.57454 0.74529,0.46062 1.05464,1.3236 0.68744,1.91775 -0.99415,1.60857 -6.04253,2.67573 -6.04253,1.27732 z m -3.32389,-15.85991 c -0.45783,-0.74078 0.046,-0.98779 1.15046,-0.56399 1.08078,0.41474 3.12003,0.13594 4.53165,-0.61953 1.81486,-0.97129 3.01695,-0.92325 4.10419,0.16399 1.16124,1.16124 1.53759,0.69722 1.53759,-1.89574 0,-8.35491 -1.46109,-11.45871 -5.80555,-12.33271 l -4.19445,-0.84383 3.18374,-1.62839 c 1.75105,-0.89562 3.10105,-2.0784 3,-2.6284 -0.10106,-0.55 -0.19292,-2.05 -0.20415,-3.33333 -0.0162,-1.85177 -0.26147,-1.95273 -1.18837,-0.48921 -0.76929,1.21467 -3.49299,1.79175 -7.97958,1.69067 -7.66258,-0.17264 -8.77397,1.32886 -2.81164,3.79854 4.47466,1.85346 5.4711,4.13504 1.33334,3.05299 -1.46667,-0.38354 -2.66667,-0.0973 -2.66667,0.63599 0,0.73333 -1.2,1.64714 -2.66667,2.03068 -1.46666,0.38354 -2.66666,1.69638 -2.66666,2.91741 0,2.80386 3.76907,6.64678 6.5466,6.67488 1.16224,0.0118 2.18972,0.77138 2.28328,1.68805 0.2802,2.74517 0.4429,3 1.91547,3 0.77662,0 1.04545,-0.59313 0.59742,-1.31807 z m 1.38587,-6.58166 c -0.48731,-0.78848 0.0154,-1.43361 1.11706,-1.43361 1.1017,0 2.93711,-1.3335 4.07869,-2.96334 1.14158,-1.62984 2.07561,-2.33443 2.07561,-1.56575 0,2.38871 -6.2916,7.54798 -7.27136,5.9627 z m -9.17309,-2.3225 c -0.48889,-0.48889 -0.88889,-1.50889 -0.88889,-2.26666 0,-0.83548 0.62103,-0.75675 1.57778,0.2 0.86778,0.86777 1.26778,1.88777 0.88889,2.26666 -0.37889,0.37889 -1.08889,0.28889 -1.57778,-0.2 z m 7.51162,-16.89831 c 0.44524,-1.16027 2.1323,-1.5749 4.80932,-1.182 5.08894,0.7469 5.20966,-0.45305 0.45684,-4.5407 -2.01667,-1.73443 -3.11391,-3.15424 -2.43832,-3.15514 0.67559,-8.9e-4 2.32559,0.99137 3.66667,2.20503 1.58921,1.43821 2.43832,1.64297 2.43832,0.58797 0,-0.89027 0.56368,-1.27029 1.25264,-0.8445 0.68895,0.4258 1.16126,-0.43879 1.04959,-1.92131 -0.14447,-1.91789 -1.17895,-2.72008 -3.58597,-2.78075 -3.32737,-0.0839 -3.31534,-0.119 0.73275,-2.13883 3.84337,-1.91768 8.1081,-9.29982 7.70498,-13.33713 -0.0857,-0.85867 0.59551,-1.27289 1.51389,-0.92047 0.9676,0.3713 2.02998,-0.79442 2.52635,-2.77211 0.47111,-1.87707 1.59514,-3.43955 2.49784,-3.47217 0.90269,-0.0326 4.49126,-0.2655 7.97459,-0.5175 3.48334,-0.25201 6.33334,-0.009 6.33334,0.54073 0,1.04328 10.83744,-1.36268 12,-2.66404 0.36666,-0.41045 2.41108,-0.87193 4.54314,-1.02551 2.13207,-0.15357 6.93207,-1.69836 10.66667,-3.43286 3.7346,-1.7345 8.29019,-3.51465 10.12352,-3.9559 1.83333,-0.44125 5.04664,-2.40401 7.14068,-4.36168 2.1159,-1.97811 4.1891,-2.99001 4.66666,-2.27774 1.52569,2.27551 5.21217,2.94622 7.30419,1.3289 3.43311,-2.6541 3.22689,-6.58573 -0.44486,-8.48145 -3.10461,-1.6029 -3.13869,-1.72234 -0.4966,-1.74065 1.56021,-0.0108 3.42969,0.73035 4.15441,1.64701 1.33773,1.69204 3.21586,9.65146 1.98756,8.42316 -0.36802,-0.36803 -2.09575,0.45303 -3.83938,1.82457 -1.74364,1.37154 -6.30186,3.24498 -10.12938,4.16319 -3.82752,0.9182 -8.77056,2.77414 -10.98454,4.12429 -5.25727,3.20606 -3.77494,3.11996 4.05277,-0.23538 3.46459,-1.4851 6.56419,-2.43523 6.88802,-2.11141 0.67129,0.67129 -8.64098,4.9507 -16.20595,7.44736 -3.362,1.10957 -4.51104,2.02753 -3.39855,2.71509 0.92442,0.57132 -4.2538,1.44445 -11.50714,1.9403 -17.94958,1.22704 -18.49993,1.80789 -1.85456,1.95732 7.7,0.0691 14.73663,0.59364 15.63695,1.16559 0.90033,0.57195 -3.89967,0.95495 -10.66666,0.85112 -10.67187,-0.16375 -10.93402,-0.1204 -1.9767,0.32683 9.64065,0.48135 10.45235,0.75571 12.2143,4.12846 7.76272,14.85955 27.04943,18.31116 37.65879,6.73953 1.57668,-1.71968 3.97668,-5.48339 5.33334,-8.36381 1.95065,-4.14157 3.64478,-5.62672 8.09853,-7.09952 10.52107,-3.47917 15.91069,-14.14287 12.14657,-24.03275 -2.36534,-6.21472 -8.44711,-10.35534 -16.84656,-11.46957 -6.05517,-0.80325 -6.7272,-1.2719 -8.9765,-6.25996 -3.42417,-7.593438 -9.02728,-11.234408 -17.28872,-11.234408 -8.00331,0 -13.38506,3.35448 -19.39428,12.088578 l -4.06717,5.91142 h -22.60261 -22.60261 l -0.0147,-11 c -0.008,-6.049998 -0.37716,-13.191918 -0.82018,-15.870928 -0.68282,-4.12906 -0.35074,-5.11432 2.18039,-6.46893 1.64224,-0.8789 4.38656,-1.75176 6.0985,-1.93968 8.08862,-0.88791 15.2096,-9.85198 15.21764,-19.15635 0.006,-7.31939 -5.00239,-12.77216 -13.75693,-14.97658 -5.12698,-1.29099 -6.22229,-2.14697 -6.94236,-5.42545 -1.07268,-4.88387 -6.38676,-11.29022 -11.60262,-13.98744 -5.26089,-2.72052 -16.75063,-2.7419 -21.97377,-0.0409 -4.77683,2.47019 -9.4324,7.92548 -10.54427,12.35551 -0.48289,1.92398 -2.35986,3.58166 -5.06715,4.47514 -5.35565,1.76753 -12.00191,8.50704 -14.64941,14.85495 -3.65419,8.76166 2.13064,19.18923 14.0066,25.24789 l 4.93953,2.51996 0.94895,13.92231 c 0.52192,7.657268 0.55064,14.566778 0.0638,15.354458 -0.48681,0.78768 -2.20488,1.1851 -3.81793,0.88317 -1.61305,-0.30193 -10.43282,-0.61252 -19.59948,-0.69019 l -16.666607,-0.14123 -3.547695,-5.84916 C 75.515536,99.181042 71.0104,96.355492 62.547592,95.754152 c -8.282478,-0.58853 -15.76731,3.1444 -20.557626,10.252748 -1.70095,2.52404 -5.018693,5.39659 -7.372761,6.38343 -5.107797,2.14124 -12.439968,8.91842 -15.060551,13.92059 -4.489883,8.57028 -0.97261,17.0914 8.418699,20.39556 9.470971,3.33219 9.804191,3.59704 11.768997,9.35423 3.487148,10.21791 14.556729,16.43757 25.010346,14.05255 7.189263,-1.64024 14.518515,-6.87373 17.575197,-12.54964 2.5585,-4.75084 2.78288,-4.85359 10.64373,-4.87357 4.41657,-0.0112 8.864727,-0.54893 9.884797,-1.19489 1.1307,-0.71601 -1.7319,-0.9619 -7.333327,-0.6299 -6.04052,0.35802 -8.27451,0.13937 -6.52135,-0.63827 1.46667,-0.65056 3.19451,-0.8744 3.83965,-0.49742 0.64513,0.37698 0.89214,-0.1481 0.54891,-1.16685 -0.34324,-1.01874 -1.86686,-1.85226 -3.38584,-1.85226 -1.51897,0 -3.21598,-0.45 -3.77113,-1 -0.55515,-0.55 -2.27602,-1 -3.824154,-1 -1.548135,0 -3.831579,-1.18752 -5.07432,-2.63893 -1.415534,-1.65323 -3.102026,-2.31565 -4.515048,-1.77342 -1.375654,0.52789 -1.926441,0.33307 -1.411934,-0.49942 0.463972,-0.75073 -0.537601,-1.99426 -2.225718,-2.76342 -2.351448,-1.07139 -3.069302,-0.9908 -3.069302,0.34458 0,0.98139 0.922486,1.45231 2.111112,1.07772 1.842254,-0.58059 1.856404,-0.4821 0.111111,0.77337 -2.601828,1.87161 -3.444086,1.83569 -5.571429,-0.23766 -0.969048,-0.94444 -4.673005,-2.8174 -8.231016,-4.16213 -4.945749,-1.86921 -6.893192,-3.45991 -8.270008,-6.7551 -3.463702,-8.28981 1.281233,-15.2969 10.39167,-15.34593 2.515695,-0.0135 5.881501,1.99889 10.813837,6.46564 3.938708,3.56691 10.09506,7.57023 13.680783,8.89626 3.585723,1.32603 7.266296,2.97846 8.179056,3.67207 0.91277,0.69361 2.84225,0.95183 4.28776,0.57382 1.4455,-0.37801 2.49869,-0.0917 2.34043,0.63625 -0.34458,1.58492 16.856487,7.58525 21.998667,7.6739 3.39433,0.0585 7.44669,-4.18006 6.65558,-6.96142 -0.65553,-2.30466 3.64354,-10.05215 7.07624,-12.75231 5.95359,-4.6831 18.64978,-2.80795 15.43929,2.28029 -1.35777,2.15189 -4.1242,0.86655 -4.1242,-1.91618 0,-2.3591 -5.22016,-2.48022 -8,-0.18561 -1.1,0.90799 -2.70187,2.9037 -3.55971,4.43492 -1.2861,2.29562 -1.1178,3.22657 0.95934,5.3067 1.38549,1.38747 2.79277,4.02268 3.12731,5.85601 0.33453,1.83334 0.66201,3.63334 0.72773,4 0.0657,0.36667 0.66909,-0.20204 1.34081,-1.26379 0.95632,-1.51162 1.4194,-1.14118 2.13435,1.7074 0.68446,2.72711 1.5138,3.44718 3.31273,2.87622 1.31983,-0.4189 2.7856,-0.13723 3.25726,0.62594 0.47166,0.76316 -0.14783,1.38757 -1.37664,1.38757 -1.55946,0 -2.02864,0.78603 -1.55356,2.60273 0.37434,1.43151 -0.006,2.88414 -0.84449,3.22807 -0.83882,0.34394 0.11682,0.67271 2.12365,0.7306 5.15001,0.14857 8.14019,-7.11705 6.92659,-16.83042 -0.78011,-6.24377 -1.13624,-6.85797 -3.30387,-5.69789 -3.18632,1.70527 -6.99076,1.67005 -5.92472,-0.0548 0.46062,-0.7453 1.34188,-1.04335 1.95836,-0.66234 2.5737,1.59063 5.55871,-1.01545 4.76865,-4.16329 -0.43519,-1.73398 -0.48496,-3.15266 -0.11059,-3.15266 1.48068,0 9.30359,15.46823 8.93205,17.66133 -0.21791,1.28627 0.27692,2.33867 1.09963,2.33867 0.82271,0 1.11015,-0.62405 0.63876,-1.38678 -0.55249,-0.89395 0.32845,-1.08923 2.47892,-0.54949 4.30177,1.07967 17.4779,-1.6604 23.4968,-4.88633 2.57647,-1.38091 5.59337,-2.46857 6.70423,-2.41702 1.3722,0.0637 1.1648,0.4611 -0.64692,1.23962 -2.14009,0.91962 -1.6135,1.20026 2.66667,1.42119 3.46489,0.17885 4.16556,0.45255 2,0.78126 -1.83334,0.27829 -11.30843,2.13247 -21.05577,4.12042 -15.32472,3.12544 -18.27212,4.15186 -21.78536,7.58671 -3.67364,3.59165 -3.82798,4.06002 -1.6109,4.88822 2.30103,0.85956 2.30834,0.97462 0.11869,1.8684 -1.28333,0.52384 -2.3807,1.93824 -2.43859,3.14311 -0.0665,1.38338 -0.3531,1.57649 -0.77778,0.52402 -0.36988,-0.91667 -1.29331,-1.66667 -2.05205,-1.66667 -0.75875,0 -3.55875,-1.82086 -6.22222,-4.04637 -7.23082,-6.0418 -7.99859,-6.62029 -8.78641,-6.62029 -0.39762,0 -1.92295,-1.2 -3.38961,-2.66667 -2.61509,-2.61509 -6.69552,-3.63975 -6.63702,-1.66667 0.0163,0.55 1.20296,2.5 2.63702,4.33334 1.43405,1.83333 2.62071,4.06222 2.63702,4.95308 0.0163,0.89087 1.11288,2.19949 2.43683,2.90804 1.32395,0.70856 3.56039,3.42967 4.96987,6.04692 2.31078,4.29085 3.11176,4.75862 8.14837,4.75862 3.2206,0 5.81606,-0.69113 6.12978,-1.63228 0.29925,-0.89775 0.88771,-0.31826 1.3077,1.28775 0.41998,1.60602 0.37514,2.86949 -0.0997,2.80772 -0.47479,-0.0618 -3.94331,-0.0413 -7.70782,0.0456 -6.1372,0.14158 -6.90871,0.49348 -7.46529,3.40504 -1.06066,5.54845 0.88214,6.66418 4.98429,2.86243 2.04323,-1.8936 4.96662,-3.4429 6.49644,-3.4429 2.24282,0 1.8178,0.65484 -2.1947,3.3814 -6.05527,4.11466 -6.54219,7.28526 -1.11883,7.28526 2.12154,0 4.16597,-0.80424 4.54316,-1.7872 z M 47.881408,163.92878 c -2.945664,-2.00163 -4.788993,-4.19287 -4.393702,-5.22298 0.374547,-0.97606 -0.18112,-2.10547 -1.234816,-2.50981 -1.090615,-0.41851 -1.84919,-2.33253 -1.761142,-4.44368 0.116273,-2.78788 0.315942,-3.04652 0.804317,-1.04185 1.672814,6.86654 9.674387,11.52381 19.798862,11.52381 7.591801,0 10.445229,-0.91052 9.194651,-2.934 -0.419025,-0.678 0.264952,-0.83351 1.530311,-0.34795 1.43936,0.55233 1.965027,0.35544 1.417265,-0.53086 -0.478892,-0.77487 0.02268,-2.1503 1.114606,-3.05651 1.091926,-0.90622 1.98532,-1.16962 1.98532,-0.58533 0,0.58429 1.616908,-0.39224 3.593129,-2.17007 3.240343,-2.91505 3.175264,-2.69041 -0.662826,2.28794 -6.968491,9.03875 -18.242425,12.30565 -26.941793,7.80703 -2.329978,-1.20488 -4.536325,-1.89069 -4.902991,-1.52402 -0.366667,0.36667 1.189091,1.62632 3.45724,2.79922 3.993638,2.06519 5.209268,3.39741 3.100087,3.39741 -0.563102,0 -3.307434,-1.55176 -6.098518,-3.44835 z m 16.122338,2.56531 c 0.916667,-0.36988 2.416667,-0.36988 3.333334,0 0.916666,0.36988 0.166666,0.67251 -1.666667,0.67251 -1.833333,0 -2.583333,-0.30263 -1.666667,-0.67251 z m 163.575574,-1.66567 c -2.1499,-1.03512 -4.7577,-2.26821 -5.7951,-2.74019 -1.0374,-0.47198 -2.80575,-2.32507 -3.92965,-4.11796 -2.03231,-3.24202 -2.02201,-3.24062 1.88619,0.25707 4.52803,4.0524 10.96203,6.5954 9.17401,3.62597 -0.89798,-1.49131 -0.6916,-1.48666 1.17359,0.0264 1.57106,1.27447 3.95665,1.56512 7.80083,0.95041 7.38643,-1.18113 12.60319,-4.43497 15.04594,-9.38455 1.35748,-2.75056 2.01773,-3.28422 2.03825,-1.64746 0.0712,5.67545 -5.75622,12.64225 -10.16941,12.1578 -2.37192,-0.26037 -2.92106,0.0707 -1.98603,1.19734 1.90589,2.29645 -10.33634,2.03548 -15.23862,-0.32484 z m -7.24224,-11.45129 c -3.0721,-2.56667 -5.07887,-4.64169 -4.45949,-4.61116 1.26521,0.0623 12.00036,9.27783 10.80778,9.27783 -0.41946,0 -3.27619,-2.1 -6.34829,-4.66667 z m -61.33334,-2 c -1.70919,-1.10457 -1.66073,-1.29547 0.33334,-1.31292 1.28333,-0.0112 2.33333,0.57959 2.33333,1.31292 0,1.62615 -0.15038,1.62615 -2.66667,0 z M 77.670413,146.0438 c -1.1,-0.71088 -1.4,-1.2925 -0.666667,-1.2925 0.733334,0 2.233334,0.58162 3.333334,1.2925 1.1,0.71087 1.4,1.2925 0.666666,1.2925 -0.733333,0 -2.233333,-0.58163 -3.333333,-1.2925 z m -50.966478,-2.07841 c -1.99823,-1.0844 -4.308091,-3.23278 -5.133024,-4.77418 -1.064337,-1.98873 -1.074071,-2.53939 -0.03352,-1.89629 0.857197,0.52977 1.47897,-0.0958 1.496717,-1.50577 0.01966,-1.56161 0.78033,-0.89079 2.157504,1.90266 1.169929,2.37307 2.748972,3.93037 3.508984,3.46066 0.772209,-0.47726 0.984467,-0.21106 0.481121,0.60337 -0.495397,0.80157 0.161898,2.07603 1.460655,2.83213 3.690879,2.14874 0.131465,1.58608 -3.938435,-0.62258 z m 230.221315,0.0989 c 1.42349,-1.11129 3.32995,-2.02049 4.23656,-2.02049 0.90661,0 2.81228,-1.47966 4.23482,-3.28812 1.42254,-1.80847 2.88533,-2.98923 3.25064,-2.62391 0.36531,0.36531 1.39521,-1.1006 2.28866,-3.25758 1.92092,-4.63751 0.48926,-8.39715 -5.05779,-13.28216 -2.4084,-2.12096 -2.68809,-2.69558 -0.8744,-1.79644 4.15521,2.05995 10,9.26326 10,12.32432 0,3.60876 -2.34562,7.92389 -4.30728,7.92389 -0.85074,0 -3.07963,1.42271 -4.95309,3.16158 -1.87346,1.73887 -5.20629,3.54807 -7.40629,4.02045 -3.77163,0.80983 -3.85223,0.74351 -1.41183,-1.16158 z m -71.92151,-2.02049 c 0.45323,-0.73334 1.83864,-1.32415 3.07869,-1.31292 1.94304,0.0176 1.97823,0.19905 0.25465,1.31292 -2.61117,1.68746 -4.37625,1.68746 -3.33334,0 z m -41.9581,-2.22223 c 0.0231,-0.61111 1.67305,-2.294 3.66667,-3.73977 l 3.62477,-2.62866 -2.11411,3.22226 c -2.15105,3.27854 -5.25341,5.1638 -5.17733,3.14617 z m 96.50897,-3.58967 c -2.68354,-1.49531 -2.62428,-1.63188 1.66667,-3.84105 2.44702,-1.25985 4.44913,-1.68449 4.44913,-0.94366 0,0.74083 -0.86211,1.67779 -1.91581,2.08213 -1.0537,0.40434 -1.5895,1.58551 -1.19068,2.62482 0.83134,2.16646 0.74323,2.16873 -3.00931,0.0778 z m -118.24258,-2.29498 c 0.47148,-1.80294 1.07587,-2.40733 1.40873,-1.40874 0.32064,0.96192 -0.051,2.38288 -0.82575,3.15768 -0.98942,0.98943 -1.16295,0.46885 -0.58298,-1.74894 z m 80.02505,0.55717 c 0.91666,-0.36988 2.41666,-0.36988 3.33333,0 0.91667,0.36988 0.16667,0.67251 -1.66667,0.67251 -1.83333,0 -2.58333,-0.30263 -1.66666,-0.67251 z m 7.66666,-1.78363 c 3.66545,-1.57509 5.77062,-1.57509 3.33334,0 -1.1,0.71088 -2.9,1.25952 -4,1.21921 -1.31874,-0.0483 -1.09166,-0.46363 0.66666,-1.21921 z m 59.4386,-2.11111 c 0.064,-1.55325 0.37992,-1.8692 0.80556,-0.80555 0.38516,0.9625 0.33779,2.1125 -0.10527,2.55555 -0.44305,0.44306 -0.75818,-0.34444 -0.70029,-1.75 z M 20.33708,129.40419 c 0,-1.17168 2.478627,-4.65709 5.508059,-7.74536 5.205615,-5.30671 5.278828,-5.33794 1.333334,-0.56864 -2.2961,2.77552 -4.174727,5.89011 -4.174727,6.92131 0,1.03121 -0.6,2.24574 -1.333333,2.69896 -0.733333,0.45323 -1.333333,-0.13459 -1.333333,-1.30627 z m 196.66666,0.3913 c 1.46667,-0.82531 4.85301,-3.20706 7.52521,-5.29279 2.6722,-2.08573 5.6722,-3.79033 6.66667,-3.78799 0.99447,0.002 -1.79188,2.40042 -6.19188,5.32909 -4.4,2.92866 -8.6,5.30851 -9.33333,5.28854 -0.73333,-0.02 -0.13333,-0.71155 1.33333,-1.53685 z M 81.080596,126.16814 c -0.410958,-0.66494 0.453632,-0.89496 1.92131,-0.51116 3.113317,0.81415 3.506867,1.72015 0.747196,1.72015 -1.056721,0 -2.257548,-0.54404 -2.668506,-1.20899 z m 55.256484,-0.12434 c 1.1,-0.71088 2.6,-1.2925 3.33333,-1.2925 0.73333,0 0.43333,0.58162 -0.66667,1.2925 -1.1,0.71087 -2.6,1.2925 -3.33333,1.2925 -0.73333,0 -0.43333,-0.58163 0.66667,-1.2925 z m -13.33334,-1.25465 c 0,-0.69005 0.59313,-1.62121 1.31806,-2.06925 0.75582,-0.46712 0.97935,0.0681 0.52402,1.25465 -0.88639,2.30989 -1.84208,2.73251 -1.84208,0.8146 z m 32.15467,-12.41202 c 0.16716,-9.00619 0.80383,-8.13197 1.45655,2 0.2244,3.48333 -0.0463,6.33333 -0.60161,6.33333 -0.55528,0 -0.94001,-3.75 -0.85494,-8.33333 z m -56.443297,6.01546 c 3.874577,-0.27019 9.874577,-0.26735 13.333327,0.006 3.45875,0.27366 0.28864,0.49473 -7.0447,0.49126 -7.333327,-0.003 -10.163217,-0.22738 -6.288627,-0.49757 z m 53.985117,-4.34879 c 0,-3.3 0.26002,-4.65 0.57782,-3 0.31781,1.65 0.31781,4.35 0,6 -0.3178,1.65 -0.57782,0.3 -0.57782,-3 z m -20.36315,3.49659 c 0,-0.27687 1.05,-1.32687 2.33333,-2.33333 2.11474,-1.6585 2.1619,-1.61134 0.50341,0.5034 -1.74183,2.221 -2.83674,2.92731 -2.83674,1.82993 z m 11.33333,-0.82993 -2.66667,-1.1459 2.66667,-0.11413 c 1.98256,-0.0849 2.21042,-0.40335 0.88821,-1.2415 -1.43192,-0.90769 -1.36697,-1.28527 0.33333,-1.93773 1.16149,-0.44571 2.11179,-0.22921 2.11179,0.48111 0,0.71032 0.63541,1.29149 1.41203,1.29149 0.77661,0 1.0412,-0.6 0.58797,-1.33334 -0.45322,-0.73333 -0.18863,-1.33333 0.58798,-1.33333 0.77661,0 1.41202,1.24043 1.41202,2.75652 0,2.20389 -0.56808,2.57621 -2.83364,1.85715 -1.90685,-0.60521 -2.53524,-0.41655 -1.92131,0.57682 1.04204,1.68606 1.0162,1.68749 -2.57838,0.14284 z m 43,0.35035 c 3.85,-0.26934 10.15,-0.26934 14,0 3.85,0.26933 0.7,0.4897 -7,0.4897 -7.7,0 -10.85,-0.22037 -7,-0.4897 z m 28.78114,-1.29149 c 1.82358,-0.47069 2.24588,-1.43637 1.65597,-3.78675 -0.58679,-2.33794 0.29273,-4.3902 3.3963,-7.92497 2.30348,-2.62352 4.44465,-4.513518 4.75817,-4.199998 0.31352,0.313518 -0.96633,2.106398 -2.84411,3.984178 -3.25507,3.25507 -4.79142,7.2106 -2.1718,5.59158 0.68329,-0.42229 0.33935,1.0423 -0.76432,3.25465 -1.12061,2.24632 -2.99384,3.95416 -4.24234,3.86779 -1.87294,-0.12958 -1.83852,-0.25718 0.21213,-0.78648 z m 35.21886,0.0581 c 0.91667,-0.36988 2.41667,-0.36988 3.33333,0 0.91667,0.36989 0.16667,0.67252 -1.66666,0.67252 -1.83334,0 -2.58334,-0.30263 -1.66667,-0.67252 z M 75.681556,108.9512 c -2.193872,-2.57276 -3.130379,-4.39159 -2.081128,-4.04184 2.103406,0.70113 7.56688,7.47239 6.647361,8.23853 -0.317557,0.26459 -2.372362,-1.62392 -4.566233,-4.19669 z m -31.339631,-2.03409 c 3.814653,-4.34742 9.432636,-7.582918 12.928941,-7.446028 1.319751,0.0517 0.01741,0.966008 -2.894083,2.031858 -2.911496,1.06585 -7.109316,3.57357 -9.328488,5.57272 l -4.034859,3.6348 z m 25.328488,-0.20665 c -1.722327,-1.83333 -2.495922,-3.33333 -1.719099,-3.33333 0.776823,0 2.395244,1.5 3.59649,3.33333 1.201246,1.83334 1.97484,3.33334 1.719098,3.33334 -0.255742,0 -1.874162,-1.5 -3.596489,-3.33334 z m 56.480657,-8.666658 c 0,-6.96667 0.22473,-9.81667 0.49939,-6.33334 0.27467,3.48334 0.27467,9.183338 0,12.666668 -0.27466,3.48333 -0.49939,0.63333 -0.49939,-6.333328 z m 95.51934,8.760488 c 0,-0.36667 1.2,-1.30889 2.66667,-2.09383 1.46666,-0.78493 2.66666,-1.12715 2.66666,-0.76049 0,0.36667 -1.2,1.30889 -2.66666,2.09383 -1.46667,0.78493 -2.66667,1.12715 -2.66667,0.76049 z m 23.08904,-1.58299 c -0.455,-1.18571 -3.28617,-3.27253 -6.29149,-4.63738 -3.55768,-1.615708 -4.52099,-2.491778 -2.76089,-2.510838 3.30176,-0.0358 8.12182,3.196468 9.99994,6.705758 0.7648,1.42906 1.05062,2.59829 0.63513,2.59829 -0.41548,0 -1.12769,-0.97012 -1.58269,-2.15583 z M 59.33708,103.79136 c 1.283333,-0.33537 3.383333,-0.33537 4.666666,0 1.283334,0.33537 0.233334,0.60977 -2.333333,0.60977 -2.566667,0 -3.616667,-0.2744 -2.333333,-0.60977 z m 98.52062,-12.838358 -0.18729,-11.75746 -4.33333,2.96421 c -2.38334,1.63032 -5.08334,3.88585 -6,5.0123 -1.49001,1.831 -1.66667,1.81871 -1.66667,-0.11596 0,-1.19022 -1.8,-3.44576 -4,-5.01229 -3.6949,-2.631 -4.65321,-2.51495 -4.10337,0.4969 0.11683,0.63997 -0.68182,0.82043 -1.77477,0.40102 -1.54855,-0.59423 -2.10112,0.62049 -2.50332,5.50309 l -0.51612,6.26565 0.0156,-6.79259 c 0.0146,-6.36778 -0.35345,-7.11825 -5.88455,-12 -3.24505,-2.86407 -5.07522,-4.00741 -4.06705,-2.54074 1.00817,1.46667 0.25817,0.98321 -1.66667,-1.07435 -1.92488,-2.05756 -3.49975,-4.42224 -3.49975,-5.25484 0,-0.8326 0.76105,-0.47303 1.69122,0.79905 0.93017,1.27209 3.20555,2.47434 5.0564,2.67167 1.85085,0.19733 4.2398,0.82659 5.30878,1.39835 1.06898,0.57176 -0.6064,-1.43748 -3.72307,-4.46498 -3.11666,-3.02751 -5.66573,-6.53288 -5.6646,-7.78973 0.001,-1.25684 5.25114,-7.82187 11.66667,-14.58894 l 11.6646,-12.30377 4.81421,3.65481 c 9.78384,7.42761 20.78786,18.51908 21.60563,21.77732 0.69944,2.7868 -0.21523,4.3597 -5.38833,9.266 -3.42693,3.25017 -5.36094,4.70941 -4.29781,3.24274 1.76892,-2.44035 1.74167,-2.51695 -0.32111,-0.90251 -1.23975,0.97028 -1.94884,2.55959 -1.57577,3.5318 0.37307,0.9722 0.0328,2.16659 -0.75615,2.65419 -0.97107,0.60015 -0.81584,1.50517 0.48053,2.80153 2.35829,2.3583 3.56487,2.46832 2.72329,0.24833 -0.58043,-1.53112 1.82528,-2.74746 15.77839,-7.97763 4.06111,-1.52227 7.60669,-7.10098 7.5988,-11.95616 -0.006,-3.73227 -4.68681,-11.73288 -6.8643,-11.73288 -0.86634,0 -1.2097,-0.36545 -0.76304,-0.81212 0.44667,-0.44667 2.49667,0.38855 4.55556,1.85603 3.04331,2.16914 3.81678,3.83235 4.1356,8.89289 0.63962,10.15255 -6.3813,19.03439 -14.42799,18.25216 -5.87157,-0.57079 -9.74573,5.15208 -11.44355,16.90427 L 158.045,102.71046 Z m -6.87388,-8.84766 c 1.82238,-1.40021 3.02238,-2.83582 2.66667,-3.19026 -0.35571,-0.35443 -2.3302,0.80453 -4.38776,2.57548 -4.42229,3.80627 -3.06408,4.29142 1.72109,0.61478 z m -17.94422,-5.35526 c -1.31574,-1.45387 -2.92496,-2.31417 -3.57605,-1.91177 -0.65108,0.40239 0.1791,1.8366 1.84487,3.18712 3.79703,3.07845 4.92158,2.25 1.73118,-1.27535 z m 13.54163,1.04372 c -0.42564,-1.06365 -0.74158,-0.74771 -0.80556,0.80555 -0.0579,1.40556 0.25724,2.19306 0.7003,1.75 0.44305,-0.44305 0.49042,-1.59305 0.10526,-2.55555 z m 8.80032,-12.79278 10.31525,-10.3761 -6.33377,-5.95723 c -3.48358,-3.27647 -4.64032,-4.07304 -2.57054,-1.77015 2.59431,2.88648 3.27905,4.48632 2.20443,5.15048 -0.85736,0.52987 -1.25066,2.14184 -0.874,3.58216 0.73778,2.82128 -4.05989,9.48031 -5.97678,8.29561 -0.61735,-0.38154 0.52305,-2.19729 2.53424,-4.03498 2.99387,-2.73561 3.12636,-3.0837 0.73095,-1.9203 -3.08263,1.49716 -4.83117,3.63179 -5.25305,6.41297 -0.13958,0.92016 0.44355,1.28564 1.29584,0.81218 0.85229,-0.47346 0.50819,0.24368 -0.76466,1.59365 -3.47381,3.68426 -10.28982,3.12157 -16.12802,-1.33145 -6.95088,-5.30169 -5.05245,-5.90392 2.41508,-0.76613 5.87905,4.0449 6.30926,4.14063 9.42703,2.09779 4.19278,-2.74722 4.11654,-3.32106 -0.37754,-2.84192 -4.60839,0.49134 -13.32301,-6.15493 -13.04359,-9.94777 0.10647,-1.44506 1.95481,-4.54242 4.10745,-6.88302 2.79051,-3.03417 1.45798,-2.33067 -4.64262,2.45102 -7.79454,6.10943 -12.04424,12.05693 -7.31964,10.24393 1.02345,-0.39273 1.44909,-1.40119 0.94586,-2.24101 -0.50322,-0.83982 0.10023,-0.70349 1.341,0.30297 2.64375,2.1445 2.97934,3.36414 0.58927,2.14163 -0.91666,-0.46887 2.23334,2.77577 7,7.21031 4.76667,4.43454 8.98075,8.08275 9.36462,8.10713 0.38387,0.0244 5.33981,-4.62491 11.01319,-10.33177 z m 0.84196,-15.16942 c -0.72247,-1.34996 -1.62789,-2.45447 -2.01203,-2.45447 -0.38415,0 -0.26629,0.75 0.26191,1.66667 0.52819,0.91666 -0.4864,0.40607 -2.25465,-1.13465 -5.27564,-4.59681 -7.05946,-4.56256 -12.64324,0.24278 l -5.23842,4.50812 5.78653,5.51851 5.78653,5.51851 5.81348,-5.7055 c 4.74538,-4.65723 5.57214,-6.15646 4.49989,-8.15997 z m 11.9589,7.00555 c -0.12453,-1.71221 -0.27412,-1.66876 -0.76758,0.22297 -0.34932,1.33919 -1.28626,1.96401 -2.17866,1.4529 -0.86117,-0.49322 -1.12097,-0.40577 -0.57733,0.19433 0.54364,0.6001 0.25398,2.04629 -0.64369,3.21377 -1.00003,1.3006 -0.47917,1.13898 1.3449,-0.41731 1.63737,-1.39699 2.90743,-3.49699 2.82236,-4.66666 z m -26.48033,-15.84014 c 0.90513,0.20907 1.7693,-0.9873 1.92037,-2.65859 0.2711,-2.99912 0.22543,-2.99152 -3.50535,0.58279 -3.89072,3.72755 -5.2292,5.98515 -1.92037,3.23906 1.02281,-0.84885 2.60022,-1.37232 3.50535,-1.16326 z m -12.96545,51.71345 c 0,-4.03333 0.24995,-5.68333 0.55545,-3.66666 0.3055,2.01666 0.3055,5.31666 0,7.33333 -0.3055,2.01667 -0.55545,0.36667 -0.55545,-3.66667 z m 11.02902,-8.7619 c -3.04782,-3.04782 -2.57066,-4.08165 0.57143,-1.2381 1.46666,1.32732 2.66666,2.62031 2.66666,2.87332 0,0.99086 -1.23637,0.3665 -3.23809,-1.63522 z m -19.42857,-3.39969 c -3.39658,-2.23847 -5.82791,-4.80605 -5.60338,-5.91741 0.21815,-1.07976 -0.30215,-1.8037 -1.15621,-1.60876 -0.85407,0.19494 -1.72946,-0.69557 -1.94532,-1.9789 -0.54146,-3.21912 1.02266,-2.91958 4.59152,0.87931 2.22838,2.372 2.55087,3.3678 1.23242,3.8056 -0.98213,0.32612 -0.46745,0.37697 1.14374,0.11299 1.61119,-0.26398 3.41576,0.38904 4.01014,1.45114 0.59439,1.06211 2.57614,2.52754 4.40389,3.25652 2.45944,0.98091 2.69627,1.34737 0.91117,1.40992 -1.32661,0.0465 -2.0412,0.68452 -1.58797,1.41785 1.12196,1.81537 0.85548,1.68976 -6,-2.82826 z m -13.2029,-13.3707 c -1.81959,-5.21968 -1.86275,-7.80104 -0.13044,-7.80104 0.73334,0 1.33334,1.16459 1.33334,2.58798 0,1.42338 0.56182,2.9352 1.24849,3.35958 1.4086,0.87057 1.34999,6.05244 -0.0685,6.05244 -0.50553,0 -1.57785,-1.88953 -2.38292,-4.19896 z m 15.07621,-0.13437 -2.53998,-3 3.33333,2.65245 c 1.83334,1.45886 3.58334,2.80886 3.88889,3 0.30556,0.19115 -0.0514,0.34755 -0.79335,0.34755 -0.7419,0 -2.4919,-1.35 -3.88889,-3 z m -15.1661,-11.97897 c -0.0247,-2.2185 1.39482,-5.11437 3.62612,-7.39756 2.01667,-2.06356 2.61667,-2.48436 1.33333,-0.9351 -3.58816,4.33168 -2.76671,5.49128 1.33334,1.88222 l 3.66666,-3.22757 -3.4882,3.99515 c -1.91851,2.19734 -4.15027,5.19516 -4.95946,6.66183 -1.36636,2.47655 -1.47414,2.40676 -1.51179,-0.97897 z m 18.62612,-18.20665 c 0,-2.11876 1.18004,-5.26876 2.62231,-7 3.17731,-3.81392 3.54673,-2.32934 0.55613,2.23489 -1.18519,1.80883 -1.84136,4.48772 -1.45816,5.95309 0.3832,1.46536 0.15291,2.6643 -0.51177,2.6643 -0.66468,0 -1.20851,-1.73353 -1.20851,-3.85228 z m 32.12624,-6.23675 c -1.80019,-2.62721 -4.92626,-5.10912 -7.30345,-5.79851 -3.01968,-0.87572 -3.38497,-1.23817 -1.33593,-1.32554 3.2181,-0.13722 9.17418,4.1322 11.29626,8.09735 2.42159,4.52478 0.67106,3.88351 -2.65688,-0.9733 z m -24.4818,-4.74308 c 0.90445,-0.91123 1.98033,-1.3209 2.39084,-0.91038 0.41052,0.41051 -0.32948,1.15606 -1.64444,1.65677 -1.90027,0.72358 -2.05342,0.57043 -0.7464,-0.74639 z m 5.43889,-2.0787 c 0.9625,-0.38517 2.1125,-0.3378 2.55556,0.10526 0.44305,0.44305 -0.34445,0.75819 -1.75,0.70029 -1.55326,-0.064 -1.8692,-0.37992 -0.80556,-0.80555 z M 126.5944,165.06917 c -0.33806,-1.29729 -0.63689,-0.55871 -0.66406,1.64129 -0.0272,2.2 0.24942,3.26142 0.61465,2.35871 0.36523,-0.90271 0.38747,-2.70271 0.0494,-4 z m 37.32016,2.05796 c -0.42563,-1.06364 -0.74157,-0.7477 -0.80555,0.80556 -0.0579,1.40555 0.25723,2.19305 0.70029,1.75 0.44305,-0.44306 0.49042,-1.59306 0.10526,-2.55556 z m 16.75585,-15.29971 c -0.91667,-0.36988 -2.41667,-0.36988 -3.33333,0 -0.91667,0.36989 -0.16667,0.67252 1.66666,0.67252 1.83334,0 2.58334,-0.30263 1.66667,-0.67252 z m -56.33333,-2.86212 c 0,-3.10291 -4.89133,-5.68362 -20,-10.5522 -22.612695,-7.28666 -35.225272,-13.09702 -37.448929,-17.25196 -3.59368,-6.71485 -14.315754,-8.88725 -18.569098,-3.76229 -2.3332,2.81134 -0.34194,6.93151 3.727827,7.71335 4.593345,0.88243 5.285838,0.1654 3.147343,-3.25888 -0.939718,-1.50473 -1.410317,-3.03413 -1.045777,-3.39867 0.364541,-0.36454 2.218677,1.80187 4.120303,4.81424 2.727973,4.32139 5.420934,6.35496 12.762916,9.63782 5.117978,2.28843 9.305415,4.68045 9.305415,5.3156 0,0.63515 0.45,1.03257 1,0.88316 0.55,-0.14941 4.000003,0.4702 7.666663,1.37692 3.66667,0.90671 8.79303,1.37224 11.391917,1.03451 3.85598,-0.50109 4.95975,-0.0957 6,2.2035 0.70111,1.54965 2.10827,3.0842 3.12701,3.41012 1.06403,0.3404 1.47863,-0.012 0.97427,-0.82805 -0.61792,-0.99983 0.41317,-1.0165 3.48108,-0.0563 2.39748,0.75039 5.10906,1.41182 6.02572,1.46985 0.91667,0.0581 1.66667,0.60555 1.66667,1.21667 0,0.61111 0.6,1.11111 1.33333,1.11111 0.73334,0 1.33334,-0.48533 1.33334,-1.0785 z m 13.33333,-4.25484 c 0,-0.73333 -0.93541,-1.33333 -2.07869,-1.33333 -1.14328,0 -1.70787,0.6 -1.25464,1.33333 0.45322,0.73334 1.38863,1.33334 2.07869,1.33334 0.69005,0 1.25464,-0.6 1.25464,-1.33334 z m 17.51185,-8.33333 c -0.43271,-2.70583 -0.88911,-3.42773 -1.21518,-1.92212 -0.49631,2.29168 0.41017,6.25545 1.43056,6.25545 0.26267,0 0.16575,-1.95 -0.21538,-4.33333 z m -23.51185,-1 c -0.45322,-0.73333 -1.53864,-1.32415 -2.41202,-1.31292 -0.95416,0.0123 -0.7897,0.53631 0.41202,1.31292 2.5615,1.65537 3.02307,1.65537 2,0 z m 102.97222,-4.80556 c -0.44305,-0.44305 -1.59305,-0.49042 -2.55555,-0.10526 -1.06365,0.42564 -0.74771,0.74158 0.80555,0.80556 1.40556,0.0579 2.19306,-0.25724 1.75,-0.7003 z m 55.69445,-59.043188 c 4.09054,-1.74662 12.38292,-3.16756 10,-1.71355 -1.1,0.6712 -4.4,1.58752 -7.33334,2.03628 -3.47445,0.53153 -4.40389,0.41905 -2.66666,-0.32273 z"
       id="path1" />
  </g>
</svg>
