<?xml version="1.0" encoding="UTF-8" standalone="no"?>
<!-- Created with Inkscape (http://www.inkscape.org/) -->

<svg
   version="1.1"
   id="svg1"
   width="345.01385"
   height="306.76511"
   viewBox="0 0 345.01385 306.76511"
   sodipodi:docname="jesus"
   inkscape:version="1.4.3 (0d15f75042, 2025-12-25)"
   xmlns:inkscape="http://www.inkscape.org/namespaces/inkscape"
   xmlns:sodipodi="http://sodipodi.sourceforge.net/DTD/sodipodi-0.dtd"
   xmlns="http://www.w3.org/2000/svg"
   xmlns:svg="http://www.w3.org/2000/svg">
  <defs
     id="defs1" />
  <sodipodi:namedview
     id="namedview1"
     pagecolor="#ffffff"
     bordercolor="#000000"
     borderopacity="0.25"
     inkscape:showpageshadow="2"
     inkscape:pageopacity="0.0"
     inkscape:pagecheckerboard="0"
     inkscape:deskcolor="#d1d1d1"
     inkscape:zoom="0.57340116"
     inkscape:cx="123.82256"
     inkscape:cy="257.23701"
     inkscape:window-width="1366"
     inkscape:window-height="736"
     inkscape:window-x="0"
     inkscape:window-y="0"
     inkscape:window-maximized="1"
     inkscape:current-layer="g1" />
  <g
     inkscape:groupmode="layer"
     inkscape:label="Image"
     id="g1"
     transform="translate(-7.39993,-18.617443)">
    <path
       style="fill:#ffffff"
       d="m 109.98534,322.59162 c -3.55277,-3.81346 -3.69405,-7.03112 -0.22725,-5.17574 2.46895,1.32133 4.17531,0.71047 4.17531,-1.49474 0,-0.62926 -1.46537,-1.70124 -3.25639,-2.38219 -2.25162,-0.85606 -3.98199,-3.28104 -5.608,-7.8592 -2.34757,-6.60971 -2.35787,-6.61788 -5.982448,-4.74354 -3.79598,1.96297 -5.95913,6.19071 -4.43189,8.66183 0.57721,0.93396 2.0233,0.38405 4.08606,-1.55382 l 3.192668,-2.99936 v 4.69244 c 0,7.47038 -5.756358,11.11389 -12.151473,7.69133 -6.573509,-3.51803 -6.127362,-14.06256 0.989483,-23.38614 2.472432,-3.23906 4.495332,-6.18401 4.495332,-6.54433 0,-1.20757 -6.812316,-0.671 -9.458061,0.74496 -2.261395,1.21026 -2.4978,2.29172 -1.743673,7.97661 1.062282,8.00787 -1.66048,13.28997 -6.850578,13.28997 -2.483998,0 -3.884605,-1.17525 -5.541562,-4.64992 -2.382999,-4.99721 -1.665463,-7.38842 1.442946,-4.80867 2.917945,2.42168 3.91189,-0.51355 1.653055,-4.88166 -1.0671,-2.06354 -2.341286,-5.88997 -2.831524,-8.50316 -1.17831,-6.28093 2.591138,-10.41894 13.300314,-14.60074 11.679333,-4.56063 22.029081,-15.10101 22.029081,-22.43484 0,-0.71388 -3.66693,-3.25242 -8.148728,-5.64119 -9.9759,-5.3171 -25.956166,-20.01288 -33.962207,-31.23234 -14.169147,-19.85628 -21.889066,-44.93224 -21.889066,-71.10039 0,-26.58687 3.904538,-39.66579 18.325393,-61.384032 29.733943,-44.78023 83.896418,-68.37547 137.674608,-59.97631 20.22321,3.1585 27.47764,5.29279 38.31326,11.27198 33.31473,18.38334 48.62209,34.07844 61.61843,63.17927 7.27687,16.294032 9.92454,32.702012 9.05181,56.095332 -0.72437,19.41623 -3.09891,27.84382 -12.74808,45.24468 -7.49594,13.51782 -15.62275,22.58969 -32.94152,36.77223 -16.08289,13.17046 -16.62724,13.70101 -16.62724,16.20594 0,3.91419 4.71131,10.05386 9.66723,12.5981 2.75031,1.41194 6.43886,4.84556 8.19677,7.63028 1.75792,2.78472 4.77678,6.09875 6.70859,7.36452 1.93182,1.26577 3.18348,2.83359 2.78148,3.48403 -0.40199,0.65045 -0.0284,1.61679 0.8302,2.14744 0.97496,0.60256 1.20389,0.38685 0.60972,-0.57454 -0.52325,-0.84664 -0.38875,-1.53934 0.2989,-1.53934 0.68764,0 2.01186,1.83865 2.9427,4.0859 1.29899,3.13605 1.34376,5.22198 0.19259,8.97283 -1.34396,4.37904 -1.15662,5.38219 1.80266,9.65243 1.81637,2.62103 3.3025,6.11053 3.3025,7.75444 0,4.10726 -5.82873,9.75403 -8.92596,8.64732 -3.87821,-1.38578 -5.74071,-3.27336 -5.74071,-5.81802 0,-1.72215 0.73594,-2.18613 2.66667,-1.68124 3.969,1.03792 3.22462,-1.86604 -1,-3.90117 -3.26153,-1.57118 -3.67155,-2.50001 -3.71087,-8.40609 -0.0531,-7.97152 -2.02595,-11.91804 -7.32866,-14.66018 -5.12017,-2.64774 -4.99125,-1.68627 0.70619,5.2667 5.07294,6.19086 5.73634,9.49649 2.70907,13.4989 -2.19483,2.90184 -2.71642,8.58818 -0.78776,8.58818 0.69006,0 1.62547,-0.6 2.07869,-1.33334 1.62432,-2.6282 3.33334,-1.26099 3.33334,2.66667 0,4.51617 -4.05276,9.33333 -7.85229,9.33333 -1.38543,0 -3.9115,-1.12761 -5.6135,-2.5058 -2.74598,-2.22357 -3.05792,-3.49776 -2.76938,-11.31254 0.35492,-9.61284 -1.24285,-14.06227 -6.97148,-19.41408 -5.15442,-4.81536 -4.59384,-0.15171 0.70754,5.88622 5.72799,6.52382 6.57094,14.29144 2.24226,20.66193 -5.65801,8.32688 -15.55048,8.98011 -18.26062,1.20582 -1.70159,-4.88118 -0.74814,-7.34514 1.9695,-5.0897 1.44741,1.20125 2.36907,1.15653 3.99624,-0.1939 3.64304,-3.02346 1.21015,-9.12326 -6.61307,-16.58047 -8.10571,-7.72649 -9.28986,-11.56791 -7.23725,-23.47783 0.9857,-5.71929 0.84476,-8.8052 -0.59691,-13.07008 l -1.88726,-5.58306 -3.61025,5.45546 c -1.98564,3.00051 -5.42676,6.56014 -7.64692,7.91031 -2.22016,1.35016 -5.04615,4.46478 -6.27997,6.92137 -2.99922,5.97158 -10.45927,10.91063 -14.8766,9.8493 -4.81901,-1.15784 -6.69712,-4.3021 -6.72046,-11.25112 -0.0112,-3.34317 -0.58953,-6.97849 -1.28512,-8.07849 -1.10602,-1.74908 -1.55768,-1.70709 -3.6,0.33471 -2.20452,2.20395 -2.20983,2.67327 -0.0948,8.37991 2.15759,5.82147 2.14354,6.14217 -0.37958,8.66529 -5.20824,5.20824 -14.34979,1.81751 -18.11636,-6.71961 -1.38729,-3.14436 -4.20157,-6.45866 -6.77209,-7.97531 -2.41909,-1.4273 -6.84585,-6.36531 -9.83726,-10.97337 l -5.43891,-8.37829 1.04546,5.33333 c 1.19607,6.10174 1.19053,7.46914 -0.0784,19.33334 -1.44091,13.47219 -1.82697,14.49665 -7.95726,21.11518 -8.48321,9.15887 -9.15281,10.93021 -6.05647,16.02171 3.31875,5.45726 3.29251,10.16179 -0.0755,13.52977 -3.47042,3.47043 -7.23027,3.38137 -10.61473,-0.25141 z m 134.19222,-19.99859 c -0.42564,-1.06364 -0.74158,-0.7477 -0.80556,0.80556 -0.0579,1.40555 0.25724,2.19305 0.70029,1.75 0.44306,-0.44306 0.49043,-1.59306 0.10527,-2.55556 z m 14.12796,-7.91122 c -0.67071,-0.6707 -0.87444,0.96279 -0.47758,3.8291 0.63713,4.60157 0.73008,4.69452 1.1697,1.16969 0.26266,-2.106 -0.0488,-4.35546 -0.69212,-4.99879 z M 82.614281,280.28051 c 1.598838,-1.94648 1.85801,-2.74904 0.652458,-2.02042 -1.1,0.66483 -2.45,1.21796 -3,1.22919 -0.55,0.0112 -1,0.47042 -1,1.02042 v 2.55556 c 0,0.85555 0.156394,1.30555 0.347542,1 0.191148,-0.30556 1.541148,-2.0087 3,-3.78475 z m 24.677789,0.532 c 1.40904,-1.6978 1.32655,-1.8929 -0.50341,-1.19068 -1.20372,0.46191 -2.18859,1.37565 -2.18859,2.03052 0,1.71461 0.77183,1.47382 2.692,-0.83984 z m 19.15008,-0.0387 c 0.45532,-1.18656 0.23179,-1.72176 -0.52402,-1.25464 -0.72493,0.44803 -1.31806,1.3792 -1.31806,2.06925 0,1.91791 0.95569,1.49528 1.84208,-0.81461 z m 43.49125,-2.36499 c 0,-0.23884 -1.58143,-1.88884 -3.51429,-3.66667 -3.28955,-3.02571 -3.41843,-3.04801 -2.01528,-0.34862 1.24888,2.40259 2.58506,3.51969 5.19624,4.34427 0.18333,0.0579 0.33333,-0.0901 0.33333,-0.32898 z m 0.40824,-5.75716 c -0.87547,-0.35615 -1.27894,-1.46277 -0.89659,-2.45915 0.39093,-1.01873 -0.66306,-2.53544 -2.40823,-3.46548 -2.82366,-1.5048 -2.93846,-1.45392 -1.27349,0.56441 1.00646,1.22003 1.38299,2.21826 0.83674,2.21826 -0.54625,0 -0.24625,0.9 0.66667,2 0.91292,1.1 2.33638,1.95263 3.16326,1.89474 1.01942,-0.0714 0.99097,-0.31373 -0.0884,-0.75281 z m 20.9251,-3.90242 c 0,-0.36667 -1.2,-0.0245 -2.66667,0.76049 -1.46667,0.78494 -2.66667,1.72716 -2.66667,2.09382 0,0.36667 1.2,0.0245 2.66667,-0.76049 1.46667,-0.78493 2.66667,-1.72715 2.66667,-2.09382 z m -39.83455,-7.59507 c -1.31682,-1.30702 -1.46998,-1.15387 -0.7464,0.7464 0.50071,1.31496 1.24626,2.05496 1.65678,1.64444 0.41051,-0.41051 8.4e-4,-1.48639 -0.91038,-2.39084 z m 19.05677,1.8 c -0.42778,-0.42777 -1.47778,-0.80505 -2.33333,-0.83838 -0.85556,-0.0333 -1.44842,-0.65476 -1.31746,-1.38095 0.13095,-0.72619 -0.94404,-1.32035 -2.38886,-1.32035 -2.51698,0 -2.50715,0.0904 0.23493,2.15873 2.63138,1.98485 7.58774,3.16398 5.80472,1.38095 z m -15.66667,-8.44447 c 0,-2.38333 -0.25124,-3.57959 -0.55832,-2.65836 -0.30708,0.92124 -1.11163,1.33301 -1.7879,0.91506 -0.67626,-0.41796 -0.52871,0.77831 0.3279,2.65836 0.85661,1.88005 1.66116,3.41827 1.7879,3.41827 0.12673,0 0.23042,-1.95 0.23042,-4.33333 z m 33.18489,-1.8958 c 1.70638,-2.14001 3.17535,-2.9858 3.70299,-2.13206 0.48102,0.7783 -0.10785,1.79209 -1.3086,2.25287 -1.20074,0.46077 -1.84936,1.17158 -1.44136,1.57958 0.408,0.408 2.24875,-0.24556 4.09054,-1.45235 2.48894,-1.63081 3.22689,-3.11307 2.87422,-5.7732 -0.26098,-1.96847 -0.59084,-3.72904 -0.73303,-3.91237 -0.1422,-0.18334 -0.33354,-0.88334 -0.4252,-1.55556 -0.0917,-0.67222 -0.71287,-1.72222 -1.38044,-2.33333 -0.70519,-0.64555 -0.81189,-0.41277 -0.25464,0.55555 0.5364,0.93211 0.26826,1.66667 -0.60841,1.66667 -0.91171,0 -1.27543,-1.117 -0.86936,-2.66981 0.43154,-1.65022 -0.14557,-3.16232 -1.51116,-3.95945 -1.21513,-0.70931 -1.63462,-1.3079 -0.93221,-1.3302 0.70241,-0.0223 3.64057,2.20946 6.52923,4.95946 2.88866,2.75 4.86715,4.31245 4.39663,3.4721 -0.47052,-0.84034 0.0376,-3.24034 1.12922,-5.33333 2.30941,-4.42801 2.5532,-6.30401 0.6678,-5.13877 -1.23436,0.76288 -2.00737,-2.22434 -1.38011,-5.33333 0.14795,-0.73334 -0.17744,-0.88689 -0.7231,-0.34124 -0.54565,0.54566 -1.65952,-0.34663 -2.47527,-1.98285 -1.4296,-2.8675 -2.16828,-2.97556 -20.45204,-2.9921 l -18.96888,-0.0172 -0.19412,3.33334 c -0.10677,1.83333 -0.0669,5.22316 0.0887,7.53296 0.15556,2.3098 -0.35722,4.59521 -1.13951,5.07869 -0.84347,0.52129 -1.46049,-0.37393 -1.51607,-2.19963 -0.0515,-1.69328 -0.66385,-4.27869 -1.3607,-5.74536 -1.18068,-2.48501 -1.22821,-2.46231 -0.69778,0.33334 0.31307,1.65 0.0254,3 -0.6393,3 -0.66468,0 -1.16633,1.35 -1.11479,3 0.0776,2.4839 0.2519,2.60067 1.01321,0.67876 0.76619,-1.93424 1.21731,-1.64841 2.70581,1.71435 1.41859,3.2048 2.37656,3.87054 4.65346,3.23389 1.75084,-0.48955 2.24049,-0.36145 1.25763,0.32902 -1.26643,0.88968 -1.5862,8.31424 -0.52576,12.20724 0.0744,0.27312 1.03527,-0.25034 2.13527,-1.16326 1.4904,-1.23693 2,-1.25847 2,-0.0846 0,0.8664 0.55163,1.23435 1.22584,0.81767 0.67421,-0.41669 2.07687,0.0934 3.11701,1.13356 4.30589,4.30589 15.13884,3.49381 19.06426,-1.42913 z m -27.40711,-1.69218 c 0,-0.69005 0.59313,-1.62121 1.31806,-2.06925 0.75581,-0.46712 0.97934,0.0681 0.52402,1.25465 -0.88639,2.30989 -1.84208,2.73251 -1.84208,0.8146 z m 32.02674,-2.04647 c -1.05166,-1.26717 -1.15281,-2.03222 -0.26869,-2.03222 1.61141,0 3.49013,2.5296 2.56546,3.45427 -0.33559,0.3356 -1.36914,-0.30432 -2.29677,-1.42205 z m -0.0267,-4.69888 c -1.20172,-0.77662 -1.36618,-1.30065 -0.41202,-1.31292 0.87338,-0.0112 1.9588,0.57958 2.41202,1.31292 1.02307,1.65536 0.5615,1.65536 -2,0 z m -20.27432,-7.66667 c -1.06541,-1.28159 -0.26961,-1.66667 3.44439,-1.66667 3.24151,0 4.82993,0.61136 4.82993,1.85895 0,2.31402 -6.31274,2.16732 -8.27432,-0.19228 z m 26.17793,-1.33333 c -1.5412,-3.43022 -1.76957,-7.3993 -0.34371,-5.97343 1.25491,1.25491 2.90367,8.30676 1.94216,8.30676 -0.30255,0 -1.02185,-1.05 -1.59845,-2.33333 z m -31.90361,-7.31888 c -3.45885,-3.42406 -3.57342,-3.7431 -0.84688,-2.35825 1.73422,0.88083 5.03422,1.3207 7.33333,0.97749 2.29912,-0.34322 5.45743,-0.14373 7.01846,0.4433 1.90071,0.71477 3.84558,0.36177 5.88782,-1.06867 1.67726,-1.1748 2.61464,-1.43227 2.08306,-0.57216 -1.20913,1.95641 -0.0931,1.98804 3.43943,0.0975 2.00712,-1.07418 2.49439,-1.06908 1.82188,0.019 -1.84012,2.97739 -10.88537,6.45767 -16.7371,6.43982 -4.85251,-0.0148 -6.76499,-0.77559 -10,-3.97806 z m -42.57087,19.98554 c -1.08112,-1.65 -1.99495,-3.45 -2.03073,-4 -0.0358,-0.55 -0.51507,-1.05102 -1.06507,-1.11338 -0.55,-0.0624 -1.87608,-0.81236 -2.94685,-1.66667 -1.07077,-0.8543 0.0797,0.99672 2.55649,4.11339 4.87275,6.13151 6.64433,7.48664 3.48616,2.66666 z m 28.45194,-1.22222 c -1.52219,-2.84423 -3.88107,-3.24942 -3.88107,-0.66667 0,2.28655 0.86437,3.11112 3.26132,3.11112 1.45638,0 1.60798,-0.59793 0.61975,-2.44445 z m -45.20797,-4.42753 c -0.6935,-1.82403 -3.86937,-7.20473 -7.0575,-11.95712 -5.577268,-8.31376 -5.892388,-8.55403 -8.328314,-6.35025 -2.468949,2.23367 -2.472693,2.21923 -0.151007,-0.58267 2.290683,-2.76447 2.281653,-3.06728 -0.238653,-8.00749 -3.373796,-6.61319 -5.512098,-14.63085 -5.789393,-21.70761 -0.129262,-3.29885 -1.310812,-7.00475 -2.862103,-8.9769 -2.551553,-3.24377 -3.009988,-3.32896 -13.396696,-2.48937 -5.915105,0.47814 -11.526042,1.50946 -12.46875,2.29184 -2.526055,2.09644 -2.084284,-0.27632 0.619318,-3.32637 2.260429,-2.55008 2.241919,-2.58439 -0.592409,-1.09782 -1.609158,0.84399 -3.297412,2.1359 -3.751677,2.87091 -0.956833,1.54819 2.617921,5.59766 3.852023,4.36356 0.453968,-0.45397 0.825396,-0.1754 0.825396,0.61904 0,0.79445 -0.75,1.74877 -1.666666,2.12072 -1.079747,0.43812 -1.197131,1.06417 -0.333334,1.77778 0.733334,0.60582 1.52506,2.0015 1.759393,3.1015 0.767073,3.60079 12.340838,21.25233 15.288424,23.3169 1.583377,1.10904 2.296122,2.01644 1.58388,2.01644 -2.248146,0 14.357713,14.86805 22.57502,20.21253 9.410708,6.12067 11.945718,6.57208 10.133048,1.80438 z M 71.266739,207.22852 c 0,-0.76577 1.05,-2.21577 2.333333,-3.22223 2.15834,-1.69268 2.186636,-1.62993 0.37729,0.83674 -1.075824,1.46667 -2.125824,2.91667 -2.333333,3.22223 -0.20751,0.30555 -0.37729,-0.071 -0.37729,-0.83674 z m 187.409551,26.21973 c 17.42084,-14.83059 25.97895,-23.20494 25.36067,-24.81614 -0.37759,-0.98399 0.0993,-1.78908 1.05972,-1.78908 0.96043,0 3.31886,-2.88941 5.24094,-6.42091 l 3.4947,-6.42091 -2.94946,-3.19626 c -2.58616,-2.80257 -2.60806,-2.91496 -0.1778,-0.91243 3.79418,3.12641 4.14801,2.98846 7.08105,-2.76077 l 2.57357,-5.04462 -3.89636,-2.2362 -3.89636,-2.2362 0.63444,3.4987 c 0.49734,2.74269 0.28484,3.14911 -0.98345,1.88082 -0.88983,-0.88984 -1.61788,-2.33401 -1.61788,-3.20928 0,-1.41314 -6.31353,-1.82231 -16.90317,-1.09545 -3.72696,0.25582 -9.56767,14.23264 -9.67299,23.14745 -0.0498,4.21333 -0.54051,7.66333 -1.09051,7.66667 -1.74568,0.0106 -1.08124,3.03143 1.29796,5.90107 1.26387,1.52441 1.46035,2.03813 0.4366,1.1416 -1.52897,-1.33899 -2.27683,-0.70205 -4.18811,3.56692 -1.27972,2.85835 -4.77619,8.29575 -7.76994,12.08313 -6.1011,7.71847 -7.62953,13.02618 -2.44317,8.48431 1.65,-1.44496 5.43429,-4.69955 8.40955,-7.23242 z m 27.7971,-42.93855 -2.53999,-3 3,2.53998 c 2.81926,2.38696 3.60699,3.46002 2.53999,3.46002 -0.25301,0 -1.60301,-1.35 -3,-3 z m -0.6409,-8.66667 -3.23242,-3.66666 3.66667,3.23242 c 3.42705,3.02118 4.27811,4.10091 3.23242,4.10091 -0.23884,0 -1.88884,-1.65 -3.66667,-3.66667 z m -55.0102,57.42117 c 0,-1.27563 -0.45326,-1.33599 -1.77778,-0.23674 -2.56233,2.12655 -2.18792,-0.15797 0.55556,-3.38979 2.23413,-2.63182 2.23104,-2.66929 -0.0728,-0.88132 -1.32337,1.02705 -2.93025,2.84671 -3.57086,4.04369 -0.91766,1.71467 -0.52511,2.17633 1.85058,2.17633 1.65841,0 3.0153,-0.77048 3.0153,-1.71217 z m -107.51695,-2.38007 c -2.85125,-3.03503 -6.42674,-3.49316 -4.63489,-0.59388 0.4293,0.69462 1.27111,0.95977 1.87068,0.58921 0.59956,-0.37055 1.83157,0.21966 2.73779,1.31159 0.90622,1.09192 1.97879,1.98532 2.38349,1.98532 0.40471,0 -0.65597,-1.48151 -2.35707,-3.29224 z m 80.87222,0.37557 c -0.42564,-1.06364 -0.74158,-0.7477 -0.80556,0.80556 -0.0579,1.40555 0.25724,2.19305 0.70029,1.75 0.44306,-0.44306 0.49043,-1.59306 0.10527,-2.55556 z m -78.24416,-1.58674 c 0,-0.27687 -1.05,-1.32687 -2.33333,-2.33333 -2.11474,-1.6585 -2.1619,-1.61134 -0.50341,0.5034 1.74183,2.221 2.83674,2.92731 2.83674,1.82993 z m -5.33333,-6.62328 c 0,-0.25301 -1.14043,-1.49209 -2.5343,-2.75352 -1.90445,-1.72351 -2.78407,-1.88935 -3.53934,-0.66731 -0.60282,0.97539 -0.44946,1.28283 0.38322,0.76821 0.76355,-0.4719 2.12972,0.0354 3.03594,1.12732 1.57253,1.89478 2.65448,2.51649 2.65448,1.5253 z m 96.79818,-5.30061 c 1.97716,0.69508 7.19459,-13.27226 7.2311,-19.35802 0.0161,-2.68474 1.20794,-7.47863 2.64852,-10.65308 1.70703,-3.76161 2.0451,-5.58057 0.97071,-5.22284 -0.90668,0.30188 -1.85675,1.69916 -2.11126,3.10506 -0.25452,1.4059 -1.04697,3.15618 -1.76102,3.88951 -0.84465,0.86747 -0.95379,-0.0597 -0.31236,-2.65346 1.04831,-4.23911 2.82768,-6.44443 5.69207,-7.0546 1.35295,-0.28821 1.54134,0.9432 0.81593,5.33333 -0.51875,3.13943 -0.52332,5.30675 -0.0101,4.81625 0.51316,-0.4905 1.17169,-4.68716 1.4634,-9.32592 0.29171,-4.63875 1.14039,-8.63744 1.88596,-8.88596 1.75345,-0.58448 1.77309,-13.14756 0.0222,-14.22964 -0.73333,-0.45322 -1.33333,-0.18864 -1.33333,0.58798 0,0.77661 -0.58117,1.41202 -1.29149,1.41202 -0.71031,0 -0.93926,-0.91788 -0.50876,-2.03973 0.49398,-1.2873 1.70817,-1.74601 3.29148,-1.24349 2.17545,0.69046 2.50877,0.0757 2.50877,-4.62693 0,-2.98275 -0.6,-5.42318 -1.33333,-5.42318 -0.73334,0 -1.33334,-1.76459 -1.33334,-3.92131 0,-2.15672 -0.45869,-4.2048 -1.01931,-4.55128 -0.56062,-0.34649 -0.93018,2.0181 -0.82123,5.25464 0.10894,3.23654 -0.33237,5.88461 -0.98069,5.88461 -0.64832,0 -1.18696,-0.75 -1.19697,-1.66666 -0.01,-0.91667 -0.40453,-3.11049 -0.8767,-4.87517 -0.65301,-2.44053 -0.43978,-2.94971 0.89088,-2.12732 1.16752,0.72157 1.42847,0.56194 0.78457,-0.47992 -0.53064,-0.8586 -1.37335,-1.34648 -1.87268,-1.08418 -0.49933,0.2623 -1.95787,-0.62791 -3.2412,-1.97825 -1.28333,-1.35034 -1.88333,-2.4815 -1.33333,-2.51369 0.86236,-0.0505 -8.49414,-3.79359 -10.33334,-4.13391 -0.36666,-0.0678 -3.68898,-0.0523 -7.38292,0.0345 -5.6434,0.13267 -6.74755,0.57326 -6.91214,2.75816 -0.16384,2.17501 0.30057,2.41151 2.83973,1.44612 3.79321,-1.44218 14.84634,-0.48536 18.62092,1.61193 1.55893,0.86619 3.28441,1.44742 3.83441,1.29162 0.55,-0.1558 1,0.62487 1,1.73483 0,1.10995 0.72337,3.17638 1.60749,4.59208 1.31231,2.10135 1.1899,3.03541 -0.66667,5.08689 -2.91022,3.21576 -2.88972,4.41726 0.0592,3.46864 1.49729,-0.48165 1.77232,-0.34137 0.76759,0.3915 -0.86116,0.62815 -8.21315,1.13475 -16.33774,1.12578 -14.35846,-0.0159 -14.85793,-0.11633 -17.84162,-3.5886 -3.25592,-3.7891 -7.36549,-3.24506 -5.82436,0.77105 0.45051,1.17401 0.25677,2.13456 -0.43053,2.13456 -0.68731,0 -0.86651,0.99843 -0.39824,2.21873 0.48793,1.27153 0.30362,1.88018 -0.43173,1.4257 -0.70573,-0.43616 -1.38044,0.21541 -1.49936,1.44794 -0.11892,1.23253 -0.55918,4.34097 -0.97834,6.90763 -1.59111,9.74278 -1.50942,12.73726 0.40918,15 1.09522,1.29168 1.34669,2.33334 0.5633,2.33334 -0.77834,0 -1.11906,1.13228 -0.75716,2.51618 0.3619,1.38391 0.0573,2.88747 -0.67699,3.34126 -2.54457,1.57263 -4.4079,-34.87165 -2.27129,-44.42337 1.92398,-8.60114 5.15605,-12.59025 12.80894,-15.80913 11.6601,-4.90436 24.53752,-2.63721 34.89835,6.14408 1.57752,1.33702 2.33334,1.46522 2.33334,0.39578 0,-0.87001 -0.86212,-1.91265 -1.91581,-2.31699 -1.07017,-0.41067 -1.60319,-1.7164 -1.20756,-2.95816 0.58144,-1.82497 0.4652,-1.88025 -0.64924,-0.30872 -1.10054,1.55193 -1.74028,1.59657 -3.37985,0.23585 -1.1123,-0.92313 -1.73354,-2.43108 -1.38054,-3.351 0.35301,-0.91992 0.0322,-3.27606 -0.71292,-5.23585 -1.29968,-3.41842 0.14038,-5.09742 1.91258,-2.22993 0.45321,0.73337 1.40245,1.33337 2.10941,1.33337 0.70696,0 0.30254,-1.5 -0.8987,-3.33333 -1.20125,-1.83334 -1.80497,-3.33334 -1.34161,-3.33334 0.46336,0 -0.64965,-2.94457 -2.47336,-6.54349 -2.60922,-5.14904 -5.43735,-7.96244 -13.27112,-13.201982 -5.4754,-3.66217 -12.24338,-7.40088 -15.03995,-8.30825 -2.79658,-0.90737 -6.73469,-2.80733 -8.75135,-4.22214 -2.01667,-1.41481 -3.66667,-2.19612 -3.66667,-1.73624 0,0.45988 -0.62913,0.44732 -1.39808,-0.0279 -0.87263,-0.53931 -0.93456,-1.44584 -0.16478,-2.41202 0.67832,-0.85138 0.74962,-2.74796 0.15846,-4.21463 -0.97598,-2.4214 -1.08392,-2.36008 -1.17354,0.66667 -0.14083,4.75628 -4.67357,11.58287 -9.74321,14.67386 -6.14934,3.7493 -7.1223,3.3009 -3.13071,-1.44283 4.03207,-4.79184 4.52878,-7.2139 1.11853,-5.45414 -1.28334,0.66223 -5.48265,1.94302 -9.33181,2.8462 -8.76375,2.05636 -22.51512,10.807622 -24.66279,15.695212 -0.88979,2.02493 -2.02032,3.98169 -2.51231,4.34836 -0.97538,0.72694 -7.82643,15.31058 -7.82643,16.65992 0,0.45694 0.6,0.45997 1.33334,0.007 2.2746,-1.40579 1.47472,0.89601 -1.80961,5.20748 -2.11303,2.77385 -3.0961,5.76456 -3,9.12665 0.0786,2.75044 -0.25969,5.00044 -0.75178,5 -1.32467,-0.001 -0.30041,22.05571 1.46937,31.64206 1.5858,8.5898 5.20972,18.54887 5.46687,15.02381 0.0998,-1.36794 0.50805,-1.15726 1.29181,0.66666 1.60973,3.74604 1.50467,7.42588 -0.1142,4 -0.9903,-2.09568 -1.08981,-1.81018 -0.46478,1.33334 0.43743,2.2 1.94666,5.07337 3.35383,6.38527 1.40717,1.3119 2.55849,2.93182 2.55849,3.59982 0,2.25101 8.19743,13.3836 9.33656,12.67958 0.62055,-0.38353 1.32632,0.33101 1.56837,1.58786 0.32025,1.66292 1.99861,0.32775 6.16362,-4.90327 3.14794,-3.95366 7.79531,-8.59627 10.32749,-10.31693 5.05042,-3.43185 5.22867,-4.0627 3.20588,-11.34624 -1.40412,-5.05588 -0.66165,-7.95669 3.05601,-11.93988 4.05779,-4.3476 6.35364,-10.20938 5.20962,-13.30125 -0.63324,-1.7114 -0.85965,-3.94515 -0.50314,-4.96389 0.39539,-1.12985 0.0607,-1.48917 -0.8581,-0.92131 -1.47199,0.90974 -2.07093,-0.74826 -1.57511,-4.36023 0.14176,-1.03272 -0.39819,-1.40163 -1.26626,-0.86514 -0.83237,0.51444 -1.25484,1.62465 -0.93881,2.46714 1.92746,5.13837 2.30298,7.5318 1.18172,7.5318 -2.30612,0 -2.75017,-8.50347 -0.57312,-10.97499 1.65197,-1.87542 1.71811,-2.6881 0.35269,-4.33333 -1.85454,-2.23484 -4.66598,-2.81461 -3.35409,-0.69193 0.45322,0.73333 0.10478,1.33333 -0.77432,1.33333 -0.8791,0 -2.36664,1.05 -3.30564,2.33334 -1.42145,1.9427 -3.85842,2.33333 -14.55656,2.33333 -12.13415,0 -12.99181,-0.18552 -15.41007,-3.33333 -1.40843,-1.83334 -2.57412,-4.29572 -2.59043,-5.47197 -0.0438,-3.15922 5.45425,-8.52152 10.56336,-10.30256 5.44045,-1.89655 5.78337,-1.91315 4.74282,-0.2295 -0.53435,0.86458 0.27746,0.91145 2.32213,0.13407 1.72902,-0.65737 4.70986,-0.89583 6.62408,-0.52991 1.91422,0.36593 4.58385,-0.0397 5.93251,-0.90141 2.1545,-1.37658 2.16892,-1.47868 0.11879,-0.84124 -1.28334,0.39902 -2.33334,0.14432 -2.33334,-0.566 0,-0.71031 -1.53541,-1.29148 -3.41202,-1.29148 -2.37476,0 -3.10762,-0.50668 -2.41072,-1.66667 0.76609,-1.27517 0.54968,-1.31451 -0.92131,-0.16751 -1.05744,0.82453 -3.72261,1.81385 -5.92261,2.19849 -10.08727,1.76359 -13.16764,3.07974 -11.92265,5.09419 0.43314,0.70083 0.29293,1.18832 -0.31158,1.0833 -2.59753,-0.45122 -4.19895,0.25988 -4.94118,2.19411 -0.51879,1.35194 -0.25859,1.73832 0.7506,1.11461 1.0827,-0.66915 1.23001,-0.19142 0.49258,1.59742 -0.57864,1.40363 -1.0806,3.27566 -1.11547,4.16007 -0.0349,0.88441 -0.5732,1.29295 -1.19627,0.90787 -0.62308,-0.38508 -0.81329,-1.21723 -0.4227,-1.84922 0.39059,-0.63199 0.0595,-1.55122 -0.73582,-2.04273 -0.79529,-0.49152 -1.09472,-1.80903 -0.66541,-2.9278 0.42932,-1.11877 0.0795,-2.87892 -0.77747,-3.91145 -1.22791,-1.47954 -0.94401,-2.44937 1.3399,-4.57715 1.59386,-1.48491 2.577,-3.21911 2.18476,-3.85377 -0.93084,-1.50612 2.01653,-8.00802 4.98737,-11.00214 2.66419,-2.68507 4.66227,-3.1969 2.67394,-0.68496 -1.26267,1.59518 -7.30648,17.01808 -6.65522,16.98311 0.17304,-0.009 3.84917,-1.80929 8.16918,-4 9.45213,-4.79325 16.37706,-5.10618 26.789,-1.21057 6.14036,2.2974 7.91976,3.72549 10.38335,8.33333 2.63966,4.93716 2.96816,7.47583 2.92912,22.6366 -0.0342,13.27286 -0.46541,17.33628 -1.93634,18.24536 -1.0408,0.64325 -2.34466,0.89002 -2.89746,0.54838 -1.46408,-0.90486 -5.50769,5.76142 -4.4918,7.40516 1.4471,2.34146 3.36957,1.5508 3.36957,-1.38581 0,-1.63647 0.68478,-2.54425 1.66666,-2.2094 0.91667,0.31261 1.47896,1.86261 1.24953,3.44445 -0.22943,1.58183 0.18013,2.87606 0.91015,2.87606 0.73001,0 1.69056,1.14457 2.13456,2.54349 1.21434,3.82605 4.79377,4.55492 8.63296,1.75793 1.87337,-1.36483 4.45614,-2.87215 5.73947,-3.34961 3.04312,-1.13219 2.99265,-5.65948 -0.0878,-7.8762 -1.33162,-0.95825 -2.86463,-2.94228 -3.40667,-4.40894 -0.61211,-1.65623 0.85354,-0.72532 3.86802,2.45681 3.95238,4.17217 4.68961,5.77675 3.97052,8.64181 -1.1347,4.52101 -1.13471,4.377 5.8e-4,7.90138 0.86816,2.6951 1.52724,3.16849 4.07799,2.92903 0.41579,-0.039 2.43497,2.04178 4.48709,4.62403 2.05211,2.58225 4.11192,4.31418 4.57736,3.84874 0.46544,-0.46543 0.84625,-0.082 0.84625,0.85196 0,0.9352 0.8681,1.36509 1.9321,0.95679 1.38122,-0.53002 1.6902,-0.0955 1.08369,1.52402 -0.74602,1.99203 -0.57179,2.04034 1.44371,0.40025 2.09766,-1.70694 2.18185,-1.57517 0.99244,1.55323 -1.01482,2.66917 -0.85786,3.58795 0.71613,4.19194 1.35356,0.51941 1.74831,1.76128 1.20158,3.78011 -0.80806,2.98381 -0.80118,2.98534 0.90807,0.2021 0.94725,-1.54246 2.38146,-2.57273 3.18713,-2.2895 z m -3.42401,-1.5727 c 0,-0.73334 0.58162,-2.23334 1.2925,-3.33334 1.14888,-1.77777 1.30001,-1.77777 1.36016,0 0.041,1.21042 0.81994,0.68404 1.97317,-1.33333 1.04803,-1.83333 1.90551,-2.73333 1.90551,-2 0,2.28864 -3.8051,8.17482 -3.87868,6 -0.0601,-1.77778 -0.21128,-1.77778 -1.36016,0 -0.71088,1.1 -1.2925,1.4 -1.2925,0.66667 z m -0.0115,-6.8544 c -0.0161,-0.83658 1.15754,-4.13658 2.6081,-7.33333 1.45056,-3.19675 2.65056,-5.1278 2.66666,-4.29121 0.0161,0.83658 -1.15754,4.13658 -2.6081,7.33333 -1.45056,3.19675 -2.65056,5.1278 -2.66666,4.29121 z m 6.67821,-2.47894 c 0,-0.73333 0.58163,-2.23333 1.2925,-3.33333 0.71088,-1.1 1.2925,-1.4 1.2925,-0.66667 0,0.73334 -0.58162,2.23334 -1.2925,3.33334 -0.71087,1.1 -1.2925,1.4 -1.2925,0.66666 z m -18.63429,-3.33333 c -0.91892,-2.1132 -0.64424,-7.77099 0.32997,-6.79677 0.63573,0.63573 0.88679,2.57508 0.5579,4.30966 -0.32888,1.73458 -0.72843,2.85378 -0.88787,2.48711 z m -45.85103,-3.55556 c -0.48889,-0.48888 -0.88889,-1.50888 -0.88889,-2.26666 0,-0.83547 0.62102,-0.75675 1.57777,0.2 0.86778,0.86778 1.26778,1.88778 0.88889,2.26666 -0.37889,0.37889 -1.08889,0.28889 -1.57777,-0.2 z m 37.77777,-4.36575 c 0,-0.69005 0.59313,-1.62122 1.31806,-2.06925 0.75582,-0.46712 0.97935,0.0681 0.52402,1.25464 -0.88639,2.30989 -1.84208,2.73252 -1.84208,0.81461 z m 26.77193,-10.1898 c 0.064,-1.55326 0.37992,-1.8692 0.80556,-0.80556 0.38516,0.9625 0.33779,2.1125 -0.10526,2.55556 -0.44306,0.44305 -0.75819,-0.34445 -0.7003,-1.75 z m -97.97785,-4.3494 c -0.38315,-0.61995 -1.06702,-3.76995 -1.51972,-7 -0.60906,-4.34573 -0.45369,-5.35277 0.59753,-3.87282 0.78134,1.1 1.45329,1.4 1.49322,0.66666 0.0691,-1.26928 3.96823,6.9022 3.96823,8.31634 0,0.37227 -0.98655,-0.14191 -2.19233,-1.14262 -1.94885,-1.6174 -2.08695,-1.48745 -1.24348,1.17007 0.93304,2.93978 0.26219,4.07202 -1.10345,1.86237 z M 200.43,176.5097 c -1.6585,-2.11474 -1.61134,-2.1619 0.5034,-0.50341 1.28334,1.00646 2.33334,2.05646 2.33334,2.33334 0,1.09738 -1.09492,0.39107 -2.83674,-1.82993 z m -34.07696,-3.33333 c -0.0813,-1.65 0.14224,-2.24626 0.4968,-1.32503 0.35456,0.92124 1.18654,1.34007 1.84884,0.93075 0.6623,-0.40932 0.84686,0.18694 0.41013,1.32503 -1.1565,3.0138 -2.58516,2.53128 -2.75577,-0.93075 z m 19.22031,2.14235 c -0.38136,-0.6283 0.14364,-1.91601 1.16667,-2.86159 2.06123,-1.90519 2.4557,-0.61861 0.67297,2.19492 -0.63044,0.99496 -1.45828,1.29496 -1.83964,0.66667 z m 8.62672,-2.07569 c -1.94695,-1.94694 -2.07454,-3.73333 -0.26667,-3.73333 0.73334,0 1.18334,0.75 1,1.66667 -0.18333,0.91666 0.46127,1.5018 1.43244,1.30029 0.97118,-0.2015 1.38577,0.2485 0.92131,1 -1.05977,1.71475 -1.14517,1.70828 -3.08708,-0.23363 z m -72.46684,-5.36391 c 0.27202,-2.85237 0.58473,-5.00237 0.69492,-4.77777 0.11018,0.22459 1.39394,1.89801 2.8528,3.71871 2.2003,2.74605 2.24353,2.99306 0.25357,1.44901 -2.1846,-1.69509 -2.34496,-1.56402 -1.79525,1.46742 0.36063,1.98879 -0.0212,3.32877 -0.9485,3.32877 -0.99934,0 -1.37598,-1.84701 -1.05754,-5.18614 z m 34.38211,1.92495 c -0.43215,-0.69922 0.35465,-2.30333 1.74843,-3.56469 2.22971,-2.01786 2.49662,-2.03765 2.22173,-0.1647 -0.43011,2.9305 -2.98225,5.32787 -3.97016,3.72939 z m 31.7719,-4.1043 c 0.3052,-2.46212 0.89044,-4.81212 1.30053,-5.22222 1.28492,-1.28492 0.77073,5.5958 -0.57532,7.69882 -0.91836,1.43481 -1.1233,0.73494 -0.72521,-2.4766 z m 8.0556,2.49187 c -0.46712,-0.75581 0.0681,-0.97934 1.25465,-0.52402 2.30989,0.88639 2.73251,1.84208 0.8146,1.84208 -0.69005,0 -1.62121,-0.59313 -2.06925,-1.31806 z m 6.65723,-5.34861 c -1.75832,-0.75557 -1.98541,-1.17087 -0.66667,-1.2192 1.1,-0.0403 2.9,0.50833 4,1.2192 2.43729,1.5751 0.33212,1.5751 -3.33333,0 z m -75.33333,-27.23951 c 0,-0.36666 1.2,-1.30888 2.66666,-2.09382 1.46667,-0.78494 2.66667,-1.12716 2.66667,-0.76049 0,0.36667 -1.2,1.30889 -2.66667,2.09382 -1.46666,0.78494 -2.66666,1.12716 -2.66666,0.76049 z m 37.33333,-10.20372 -3.33333,-2.71728 4.33333,2.1145 c 2.38333,1.16297 4.33333,2.39909 4.33333,2.74692 0,1.32597 -2.12397,0.47207 -5.33333,-2.14414 z m 20.78341,0.0672 c 1.49014,-1.49013 5.07347,-2.99558 7.96296,-3.34544 5.18835,-0.62819 5.20393,-0.61696 1.25363,0.90408 -2.2,0.8471 -5.1835,2.35254 -6.63001,3.34544 -3.98924,2.73824 -5.64883,2.15817 -2.58658,-0.90408 z m -15.9794,-2.40177 c -0.37769,-0.61112 0.16051,-1.11112 1.19599,-1.11112 1.03548,0 1.57368,0.5 1.19599,1.11112 -0.37768,0.61111 -0.91588,1.11111 -1.19599,1.11111 -0.28011,0 -0.81831,-0.5 -1.19599,-1.11111 z m -10.39766,-0.92699 c -0.38762,-0.38762 -3.33762,-1.22188 -6.55556,-1.85391 l -5.85079,-1.14912 5.33333,-0.12567 c 5.20594,-0.12267 9.99427,1.617 8.51695,3.09433 -0.40655,0.40654 -1.05631,0.42202 -1.44393,0.0344 z m 24.26032,-0.67042 c 0,-0.71031 0.9,-1.29148 2,-1.29148 1.1,0 2,0.2358 2,0.52401 0,0.28821 -0.9,0.86938 -2,1.29149 -1.1,0.42211 -2,0.1863 -2,-0.52402 z m -46.91667,-0.86894 c 0.9625,-0.38516 2.1125,-0.33779 2.55556,0.10526 0.44305,0.44306 -0.34445,0.75819 -1.75,0.7003 -1.55326,-0.064 -1.8692,-0.37992 -0.80556,-0.80556 z m 66.58333,0.0278 c 0.91667,-0.36988 2.41667,-0.36988 3.33334,0 0.91666,0.36988 0.16666,0.67251 -1.66667,0.67251 -1.83333,0 -2.58333,-0.30263 -1.66667,-0.67251 z m 6.66667,0 c 0.91667,-0.36988 2.41667,-0.36988 3.33333,0 0.91667,0.36988 0.16667,0.67251 -1.66666,0.67251 -1.83334,0 -2.58334,-0.30263 -1.66667,-0.67251 z m 10.33333,-2.80404 c -0.73333,-0.53877 -3.28096,-3.84377 -5.6614,-7.34444 l -4.32808,-6.36485 3.97531,2.05571 c 2.19692,1.13607 5.12284,4.43081 6.54041,7.36485 2.46673,5.10554 2.31117,6.37333 -0.52624,4.28873 z m -17.72277,-11.54746 c -3.48182,-2.462 -3.94997,-3.2724 -2.26408,-3.91934 1.40066,-0.53748 1.79984,-0.28889 1.17071,0.72907 -0.63379,1.02549 -0.22328,1.264 1.22138,0.70963 2.15098,-0.82541 3.94858,0.81396 4.43929,4.04851 0.13907,0.91667 0.15594,1.63725 0.0375,1.60129 -0.11844,-0.036 -2.1906,-1.46208 -4.60479,-3.16916 z m -63.56501,-1.002 c 0.31506,-1.63593 1.88043,-4.20196 3.4786,-5.702282 l 2.90578,-2.72785 -2.86347,3.823392 c -1.5749,2.10286 -2.56185,4.3114 -2.19321,4.90787 0.36864,0.59646 0.0918,1.44197 -0.61514,1.87889 -0.73263,0.45279 -1.03905,-0.48468 -0.71256,-2.18002 z m 6.49443,-4.76348 c 1.39699,-1.650002 3.49699,-2.952632 4.66667,-2.894742 1.80505,0.0893 1.82421,0.21648 0.12668,0.84065 -1.1,0.40447 -3.2,1.707102 -4.66666,2.894742 -2.64396,2.14096 -2.64504,2.1338 -0.12669,-0.84065 z m 50.12669,-1.000002 c -1.83334,-1.04803 -2.50987,-1.92677 -1.50341,-1.95275 1.55101,-0.0401 1.55101,-0.39319 0,-2.31695 -1.72013,-2.13352 -1.6349,-2.13547 1.42047,-0.0324 1.78771,1.23051 3.38462,3.15187 3.54868,4.2697 0.16407,1.117832 0.20139,2.011162 0.0829,1.985172 -0.11844,-0.026 -1.71535,-0.90472 -3.54868,-1.952752 z m 44,127.376722 c 0,1.19777 0.72458,1.04751 2.44153,-0.50631 1.34285,-1.21526 2.93904,-1.75825 3.5471,-1.20665 0.60806,0.5516 0.64165,0.20063 0.0746,-0.77994 -0.74236,-1.28382 -1.43664,-1.37712 -2.48043,-0.33333 -3.04105,3.04105 -3.89442,1.28637 -0.91618,-1.88382 1.72233,-1.83334 2.84462,-3.33334 2.49398,-3.33334 -0.35064,0 -2.70523,2.22388 -5.23242,4.94196 -2.52719,2.71808 -3.54489,4.14461 -2.26156,3.17007 1.85757,-1.41059 2.33334,-1.42459 2.33334,-0.0686 z m 0.75054,-7.03854 3.91612,-4.32849 -4,3.30852 c -2.2,1.81968 -4.57,3.7675 -5.26666,4.32848 -0.78665,0.63345 -0.75486,1.01998 0.0839,1.01998 0.74279,0 3.11279,-1.94782 5.26666,-4.32849 z m -106.75054,-5.00485 c -0.50059,-1.57719 -1.21015,-2.56762 -1.57682,-2.20096 -0.36667,0.36667 -0.2571,1.9571 0.24348,3.5343 0.50059,1.57719 1.21015,2.56762 1.57682,2.20096 0.36667,-0.36667 0.2571,-1.9571 -0.24348,-3.5343 z m 56.39879,1.85664 c -3.34968,-1.79269 -22.02042,-1.43501 -23.91355,0.45812 -0.78216,0.78216 4.02065,1.2226 12.77648,1.17165 11.45485,-0.0667 13.49886,-0.36578 11.13707,-1.62977 z m 50.35032,-2.8853 c -0.44693,-0.44693 -1.84832,0.27177 -3.11419,1.59711 -2.2003,2.30368 -2.16454,2.33944 0.81261,0.81261 1.7128,-0.87841 2.74852,-1.96278 2.30158,-2.40972 z m -124.0095,-5.44538 c -2.0595,-2.03681 -2.14845,-2.01127 -1.25175,0.35944 0.7082,1.87232 0.51439,2.27338 -0.72764,1.50576 -1.35742,-0.83894 -1.37042,-0.44366 -0.0656,1.99448 1.49947,2.80178 1.73092,2.85576 2.9447,0.68685 0.96979,-1.73292 0.73243,-2.93235 -0.89974,-4.54653 z m 67.26039,4.36552 c 0,-0.25538 -1.1408,-1.07486 -2.53511,-1.82107 -1.76537,-0.9448 -3.89078,-0.8725 -7,0.23809 l -4.46489,1.59484 4,0.76379 c 3.77404,0.72064 10,0.23773 10,-0.77565 z m -71.5399,-1.28231 c -0.43425,-1.13163 -1.0755,-1.77155 -1.425,-1.42205 -0.34951,0.34951 -0.23997,1.27539 0.24341,2.05751 1.31473,2.12728 2.08317,1.71401 1.18159,-0.63546 z m -0.29465,-6.29806 c -1.31682,-1.30702 -1.46998,-1.15387 -0.7464,0.7464 0.50071,1.31496 1.24626,2.05496 1.65678,1.64444 0.41051,-0.41051 8.4e-4,-1.48639 -0.91038,-2.39084 z m 147.42031,-7.31111 c -0.33537,-1.28333 -0.60976,-0.23333 -0.60976,2.33334 0,2.56666 0.27439,3.61666 0.60976,2.33333 0.33537,-1.28333 0.33537,-3.38333 0,-4.66667 z m -90.25243,2.33334 c 0,-0.73334 -0.63541,-1.33334 -1.41202,-1.33334 -0.77662,0 -1.0412,0.6 -0.58798,1.33334 0.45322,0.73333 1.08864,1.33333 1.41202,1.33333 0.32339,0 0.58798,-0.6 0.58798,-1.33333 z m 88.45833,-4.66667 c 0.56599,-3.71706 0.44596,-4.5252 -0.39607,-2.66667 -1.15966,2.55962 -1.91576,9.70113 -0.90581,8.55556 0.26939,-0.30556 0.85523,-2.95556 1.30188,-5.88889 z m -166.214176,0.41667 c -0.425635,-1.06365 -0.741577,-0.74771 -0.805556,0.80555 -0.05789,1.40556 0.257237,2.19306 0.700293,1.75 0.443055,-0.44305 0.490424,-1.59305 0.105263,-2.55555 z m 158.666666,-5.33334 c -0.42564,-1.06364 -0.74158,-0.7477 -0.80556,0.80556 -0.0579,1.40555 0.25724,2.19305 0.7003,1.75 0.44305,-0.44306 0.49042,-1.59306 0.10526,-2.55556 z m -149.30114,-5.40112 c -0.318918,-1.65855 -0.591968,-0.61554 -0.606768,2.31779 -0.0148,2.93333 0.24614,4.29033 0.579858,3.01555 0.33373,-1.27479 0.34584,-3.67479 0.0269,-5.33334 z m -2.690578,-3.34888 c -0.33537,-1.28333 -0.60976,-0.23333 -0.60976,2.33334 0,2.56666 0.27439,3.61666 0.60976,2.33333 0.33537,-1.28333 0.33537,-3.38333 0,-4.66667 z m 146.254808,-4.24259 c 0.26196,-2.24991 0.03,-4.09074 -0.51547,-4.09074 -1.02432,0 -2.68941,6.67844 -2.6179,10.5 0.0671,3.58766 2.56408,-1.51979 3.13337,-6.40926 z m -130.63132,4.22218 c -0.80158,-0.53877 -1.29836,-2.92959 -1.10397,-5.31292 0.1944,-2.38333 -0.0909,-4.33333 -0.63389,-4.33333 -0.54304,0 -0.86055,2.25 -0.70557,5 0.34039,6.04046 0.19429,5.67124 2.23417,5.64625 1.14457,-0.014 1.21012,-0.32729 0.20926,-1 z m 57.29949,-1.04884 c 0.45532,-1.18656 0.23179,-1.72176 -0.52402,-1.25464 -0.72493,0.44803 -1.31806,1.3792 -1.31806,2.06925 0,1.91791 0.95569,1.49528 1.84208,-0.81461 z m -114.052384,-2.10024 3.543639,-2.83617 -4.301005,0.6005 c -3.454989,0.48237 -4.012982,0.25345 -2.83674,-1.16384 0.928944,-1.11931 4.51209,-1.76433 9.801005,-1.76433 4.585207,0 10.21174,-0.375 12.503407,-0.83333 l 4.166667,-0.83334 0.01007,-12.16666 c 0.01642,-19.83106 3.622378,-36.03829 11.533907,-51.83988 l 3.174244,-6.33988 -17.159739,0.86848 c -12.298924,0.62247 -17.427352,0.43548 -18.104468,-0.66012 -0.519601,-0.84073 -1.544728,-1.5286 -2.278062,-1.5286 -0.733333,0 -0.905218,0.6927 -0.381966,1.53934 0.59417,0.96139 0.365243,1.1771 -0.609726,0.57454 -0.858602,-0.53065 -1.215897,-1.52335 -0.793989,-2.20601 0.421908,-0.682672 0.447103,-1.241212 0.05599,-1.241212 -0.391114,0 -1.629651,1.776252 -2.752305,3.947232 -6.632082,12.82503 -8.271112,45.49857 -3.336715,66.51639 1.575717,6.71168 3.17031,12.20305 3.543543,12.20305 0.373232,0 2.273242,-1.27627 4.222243,-2.83616 z m 0.561972,-7.45395 c 2.02675,-0.30647 5.02675,-0.29828 6.666667,0.0182 1.639917,0.31648 -0.01833,0.56723 -3.685,0.55722 -3.666666,-0.01 -5.008416,-0.26895 -2.981667,-0.57542 z m -2.952708,-34.9206 c -2.050503,-3.8314 -1.726204,-6.07984 1.267709,-8.78929 3.165443,-2.86469 3.452308,-1.77188 0.655402,2.49673 -1.829481,2.79214 -1.786653,3.27285 0.473843,5.31857 2.43066,2.19972 6.870755,1.78877 6.870755,-0.63592 0,-0.66109 1.12052,-0.5022 2.490045,0.35308 5.819754,3.6345 9.579312,-4.29921 4.62924,-9.76898 -1.217726,-1.34557 -1.850058,-2.81048 -1.405182,-3.25536 0.890223,-0.89022 6.272938,7.31155 6.280913,9.57037 0.01468,4.15936 -3.826955,6.40151 -11.749634,6.85763 -6.972374,0.40141 -8.310984,0.0993 -9.513091,-2.14683 z m -1.979901,-31.18013 c 0.500709,-1.31496 1.246256,-2.05496 1.656772,-1.64444 0.410516,0.41051 8.46e-4,1.48639 -0.910379,2.39084 -1.316821,1.30702 -1.469972,1.15387 -0.746393,-0.7464 z m 28.580943,72.11443 c 0,-2.21323 -1.030307,-2.46075 -9.367401,-2.25035 -5.152071,0.13002 -9.049499,0.5543 -8.660952,0.94285 0.388548,0.38855 4.003878,0.57305 8.034068,0.41 9.01237,-0.36462 9.872107,2.1441 0.994285,2.90133 -5.821775,0.49656 -5.714078,0.53788 1.333333,0.51155 6.582638,-0.0246 7.666667,-0.38025 7.666667,-2.51538 z m 221.312918,-0.80228 c -0.0152,-1.67537 -0.29949,-1.81483 -1.1066,-0.54282 -0.64219,1.01208 -2.13267,1.34753 -3.64625,0.82063 -2.42777,-0.84515 -2.42302,-0.78469 0.0919,1.16994 3.02281,2.34936 4.69065,1.83131 4.66096,-1.44775 z m -10.31292,-3.88584 c -2.38333,-0.29577 -6.28333,-0.29577 -8.66667,0 -2.38333,0.29577 -0.43333,0.53776 4.33334,0.53776 4.76666,0 6.71666,-0.24199 4.33333,-0.53776 z m 13.95279,-21.03547 c 0.94781,-23.46425 -1.85993,-41.23001 -8.83703,-55.915582 -2.997,-6.30815 -5.44909,-11.98428 -5.44909,-12.61363 0,-0.62935 -0.89662,-1.88839 -1.99247,-2.79787 -1.63554,-1.35738 -2.49435,-1.08805 -4.79404,1.5034 l -2.80157,3.15701 2.65712,-3.95877 2.65711,-3.95878 -3.75114,-5.37456 c -4.83012,-6.92049 -18.77255,-20.30335 -27.30835,-26.21235 -11.2574,-7.79305 -25.17315,-15.02494 -28.40653,-14.76262 -1.69026,0.13713 -2.74701,-0.27846 -2.34833,-0.92354 1.40088,-2.26667 -4.43347,-2.51291 -6.46085,-0.27268 -1.51703,1.6763 -1.73482,3.24898 -0.85702,6.18869 1.02809,3.44307 1.21241,3.56206 1.45813,0.94128 0.1547,-1.65 0.43127,-3.6 0.6146,-4.33333 0.18334,-0.73334 0.40834,-2.0068 0.5,-2.82993 0.12032,-1.08039 0.69103,-1.06141 2.05219,0.0682 1.53411,1.2732 1.58109,2.15164 0.25206,4.71334 -1.14314,2.20341 -1.32944,5.88503 -0.62065,12.26508 0.55704,5.01413 1.04361,10.75648 1.08127,12.7608 0.0567,3.01731 1.23955,4.23764 6.87615,7.09392 8.59294,4.35437 17.45806,13.41306 21.44263,21.91083 3.07807,6.5645 3.09365,6.57515 9.6996,6.62972 5.60854,0.0463 7.092,-0.50397 9.73715,-3.61201 3.06169,-3.59748 3.09275,-3.60377 1.64627,-0.33334 -1.36544,3.08721 -1.20892,3.03799 2.11978,-0.66666 l 3.59407,-4 -2.29679,3.78235 c -1.26324,2.08029 -2.07223,4.00692 -1.79775,4.2814 0.27448,0.27448 4.82242,0.0371 10.10654,-0.5275 8.81232,-0.9416 11.68971,-0.31385 8.26453,1.80303 -0.73862,0.45649 -5.96942,1.1027 -11.624,1.43602 -5.65457,0.33331 -10.8562,1.18118 -11.55916,1.88415 -0.81528,0.81527 -0.21428,1.07324 1.65961,0.71237 1.63761,-0.31538 2.59211,-0.007 2.15676,0.697872 -1.29385,2.0935 -7.29026,1.48782 -7.29026,-0.736362 0,-1.49373 -1.43442,-1.95211 -5.66666,-1.81079 l -5.66667,0.1892 5.33333,0.95492 c 2.93334,0.52521 4.0568,1.04007 2.4966,1.14413 -5.97615,0.398602 -6.11375,3.198942 -0.67069,13.649152 6.37821,12.24561 10.78116,30.19064 11.1935,45.62113 l 0.31393,11.74774 12.02395,-0.32047 c 6.96316,-0.18558 13.13625,0.30283 14.66667,1.16042 3.85209,2.15857 4.83052,-1.3973 5.5955,-20.33543 z m -3.97784,16.55979 c 0.47148,-1.80294 1.07587,-2.40733 1.40873,-1.40874 0.32064,0.96192 -0.0509,2.38288 -0.82575,3.15768 -0.98942,0.98943 -1.16295,0.46885 -0.58298,-1.74894 z m 1.79698,-19.33757 c 0.064,-1.55326 0.37992,-1.8692 0.80556,-0.80555 0.38516,0.9625 0.33779,2.1125 -0.10527,2.55555 -0.44305,0.44306 -0.75818,-0.34444 -0.70029,-1.75 z m -13.69144,-9.45249 c -0.57542,-6.80915 -3.71279,-7.52476 -3.86176,-0.88084 -0.10536,4.69875 -0.2012,4.82436 -1.18794,1.55693 -0.59033,-1.9548 -0.60018,-5.5548 -0.0219,-8 0.5783,-2.4452 1.11288,-3.39582 1.18794,-2.11249 0.15627,2.67159 3.57715,3.16879 4.58678,0.66667 0.36988,-0.91667 0.72807,0.43333 0.79598,3 0.0679,2.56667 0.48526,6.01667 0.92744,7.66667 0.4623,1.72507 0.20545,3 -0.60439,3 -0.77459,0 -1.59457,-2.20362 -1.82217,-4.89694 z m -6.27997,-49.375762 c 0.97086,-1.61665 2.0522,-2.65236 2.40298,-2.30158 0.35077,0.35077 -0.44357,1.67348 -1.7652,2.93936 -2.29592,2.19905 -2.32434,2.17063 -0.63778,-0.63778 z m -2.80052,-9.64861 c 0,-0.69006 0.59313,-1.62122 1.31806,-2.06925 0.75581,-0.46712 0.97934,0.0681 0.52402,1.25464 -0.88639,2.30989 -1.84208,2.73252 -1.84208,0.81461 z M 152.76063,155.42667 c 3.39879,-1.75758 3.76406,-2.40123 2.3379,-4.11965 -1.48292,-1.7868 -1.99877,-1.61307 -4.20556,1.41637 -3.08475,4.23468 -8.84705,4.59393 -12.30996,0.76746 -1.65797,-1.83204 -3.30936,-2.40653 -5.19619,-1.80767 -2.55023,0.80941 -2.61074,0.68095 -0.77629,-1.64782 1.86113,-2.36265 1.82982,-2.39998 -0.48515,-0.57842 -2.37588,1.86949 -2.33298,2.06914 1.07435,5 4.27545,3.67759 13.44538,4.13219 19.5609,0.96973 z m 67.5721,-0.60916 c 2.47725,-1.51035 4.00641,-3.31798 3.5,-4.13736 -0.63001,-1.01939 -1.20406,-0.96208 -1.91692,0.19135 -0.55968,0.90558 -1.60449,1.28379 -2.32181,0.84046 -0.71731,-0.44332 -2.37739,0.37981 -3.68905,1.82918 -3.42802,3.78792 -9.18848,3.38468 -12.54144,-0.87792 -1.51989,-1.93223 -2.76344,-2.79682 -2.76344,-1.92131 0,0.87551 -0.67784,1.17291 -1.50631,0.66089 -0.91347,-0.56456 -1.2656,-0.20196 -0.89471,0.92131 1.76671,5.35053 15.00198,6.84152 22.13368,2.4934 z m -63.73266,-5.99407 c 0,-0.37745 -1.95,-1.87521 -4.33333,-3.32835 -5.07115,-3.09194 -10.73471,-3.30177 -16.33334,-0.60514 -3.27522,1.57754 -3.39601,1.77179 -0.66666,1.07205 5.77213,-1.47984 14.41781,-0.77781 17.56453,1.42624 3.27896,2.29666 3.7688,2.4832 3.7688,1.4352 z m 55.01765,-3.62143 c 4.27654,0 5.99025,-0.41278 4.81211,-1.15907 -4.49399,-2.84674 -16.18537,-0.33764 -17.77912,3.81559 -0.61636,1.60621 -0.0827,1.54203 2.78121,-0.33445 2.17048,-1.42215 6.11798,-2.32207 10.1858,-2.32207 z M 75.692104,99.317438 c 6.884637,-0.58196 9.876485,-1.33434 9.278559,-2.33333 -0.489734,-0.81823 0.03463,-0.73212 1.178223,0.19348 1.133386,0.91734 3.747314,1.5283 5.808729,1.35769 2.880767,-0.23842 4.545677,-1.6814 7.195237,-6.23615 8.102888,-13.92933 20.149718,-23.56675 38.113888,-30.49096 l 10.66666,-4.11143 -0.0753,-13.46516 c -0.0661,-11.81609 -0.41614,-13.80596 -2.85802,-16.24784 -2.73233,-2.73232 -2.91189,-2.74088 -9.92465,-0.47323 -12.56746,4.06383 -19.8989,7.84083 -19.12654,9.85356 0.52661,1.37234 0.26989,1.49008 -0.98492,0.45172 -3.56838,-2.95282 -36.448391,21.51822 -34.774287,25.88086 0.470953,1.22729 0.03442,1.58507 -1.306249,1.07061 -2.245628,-0.86173 -4.624145,1.88999 -2.787476,3.22485 0.643951,0.46801 2.052664,2.05092 3.130473,3.51759 1.407125,1.9148 0.921421,1.74045 -1.722652,-0.61835 l -3.682304,-3.28501 -3.268754,3.95168 c -1.797814,2.17343 -3.040532,4.95679 -2.761595,6.18526 0.35497,1.56332 -0.112031,1.99597 -1.556247,1.44177 -1.571519,-0.60305 -1.889367,-0.12628 -1.333333,2 0.556034,2.12628 0.238186,2.60305 -1.333333,2 -1.57152,-0.60305 -1.889368,-0.12628 -1.333334,2 0.466969,1.78569 0.177198,2.57965 -0.80407,2.2031 -0.843779,-0.32379 -2.66208,1.50574 -4.040669,4.06563 -2.051092,3.80864 -2.199786,5.02393 -0.818351,6.68846 1.880587,2.265972 4.391166,2.420282 19.120355,1.1752 z m 1.447951,-22.14107 -2.539983,-3 3,2.53998 c 2.81926,2.38696 3.606988,3.46002 2.539983,3.46002 -0.253009,0 -1.603009,-1.35 -3,-3 z m 43.830875,-13.33334 c -1.99891,-2.58458 -3.25632,-5 -2.6029,-5 0.32561,0 1.57485,1.5 2.7761,3.33334 2.24777,3.43054 2.1226,4.63513 -0.1732,1.66666 z m 98.19489,31.54424 c -1.77783,-1.90067 -4.43242,-4.02997 -5.89908,-4.73177 -1.46667,-0.70181 -0.3167,0.85328 2.55548,3.45576 6.10033,5.5275 7.99756,6.251532 3.3436,1.27601 z m 20.10092,2.95236 c 0,-0.27688 -1.05,-1.32688 -2.33334,-2.33334 -2.11474,-1.65849 -2.1619,-1.61133 -0.5034,0.50341 1.74182,2.221 2.83674,2.92731 2.83674,1.82993 z M 121.9334,96.699498 c 0,-1.1035 -2.58897,-1.72754 -3.18255,-0.7671 -0.38508,0.62307 0.17346,1.13286 1.2412,1.13286 1.06775,0 1.94135,-0.16459 1.94135,-0.36576 z m 4.17008,-2.85647 c 1.65849,-2.11474 1.61133,-2.1619 -0.50341,-0.5034 -1.28333,1.00646 -2.33333,2.05646 -2.33333,2.33333 0,1.09738 1.09491,0.39107 2.83674,-1.82993 z m 96.49659,-1.66666 c -0.45322,-0.73334 -1.42405,-1.33334 -2.15738,-1.33334 -0.73333,0 -0.96251,0.6 -0.50929,1.33334 0.45323,0.73333 1.42405,1.33333 2.15738,1.33333 0.73334,0 0.96251,-0.6 0.50929,-1.33333 z m 10.71456,-1.28042 c -1.30098,-1.43756 -3.04397,-2.48756 -3.87332,-2.33333 -0.82935,0.15423 -1.34304,-0.51418 -1.14154,-1.48536 0.2015,-0.97117 -0.27763,-1.36776 -1.06474,-0.88129 -1.00507,0.62116 -0.96993,1.44016 0.11804,2.75109 0.85203,1.02663 2.01318,1.57982 2.58033,1.22931 0.56715,-0.35052 1.77264,0.25608 2.67885,1.34801 0.90622,1.09193 1.9672,1.98532 2.35773,1.98532 0.39053,0 -0.35438,-1.17619 -1.65535,-2.61375 z m -115.96401,-3.05292 3.91612,-4.33333 -4.33334,3.91612 c -4.03927,3.65038 -4.9462,4.75055 -3.91612,4.75055 0.22947,0 2.17947,-1.95 4.33334,-4.33334 z m 16.01639,1.98917 c -0.40909,-0.40909 -0.028,-1.69901 0.84699,-2.86649 1.3278,-1.77175 1.28403,-1.84937 -0.26474,-0.46951 -2.12825,1.89615 -3.11279,6.10347 -1.14344,4.88634 0.71775,-0.4436 0.97029,-1.14125 0.56119,-1.55034 z m 103.23306,0.57659 c 0,-0.23884 -1.65,-1.88884 -3.66667,-3.66667 l -3.66666,-3.23242 3.23242,3.66667 c 3.02118,3.42705 4.10091,4.27811 4.10091,3.23242 z m -107.33333,-5.02766 c 0,-0.68182 1.51261,-2.58182 3.36136,-4.22222 1.84875,-1.6404 2.77875,-2.53254 2.06667,-1.98254 -2.2423,1.7319 -3.29318,1.09481 -2.76009,-1.67329 0.42374,-2.20029 0.0959,-2.44908 -1.85288,-1.40613 -1.30224,0.69694 -3.20803,2.34992 -4.23508,3.67329 -1.78797,2.30383 -1.7505,2.30693 0.88132,0.0728 3.36397,-2.85565 5.48145,-3.07586 3.20536,-0.33333 -0.91292,1.1 -1.25097,2 -0.75123,2 0.49973,0 0.44007,0.75 -0.13258,1.66666 -1.33437,2.13595 -1.86769,5.52929 -0.68281,4.3444 0.49498,-0.49497 0.89996,-1.45781 0.89996,-2.13963 z m 10.17007,0.4619 c 1.65849,-2.11474 1.61133,-2.1619 -0.50341,-0.5034 -1.28333,1.00646 -2.33333,2.05646 -2.33333,2.33333 0,1.09738 1.09491,0.39107 2.83674,-1.82993 z m 102.31397,-0.78213 c -0.26622,-0.16818 -1.43404,-1.02647 -2.59515,-1.90732 -1.66133,-1.26032 -2.11112,-1.23683 -2.11112,0.11029 0,0.94151 1.16782,1.7998 2.59516,1.90732 1.42733,0.10752 2.37733,0.0579 2.11111,-0.11029 z M 215.1036,46.120518 c -0.12449,-11.73662 0.24199,-14.48798 2.22107,-16.67484 1.30359,-1.44045 2.12384,-2.79885 1.82278,-3.01868 -1.76447,-1.2884 -14.68408,-3.65686 -15.88819,-2.91268 -0.79347,0.49039 -2.37057,0.12153 -3.50467,-0.81969 -2.30497,-1.91295 -37.43365,-1.98603 -45.82119,-0.0953 -4.61545,1.04041 -4.66361,1.12435 -4.38839,7.64784 0.15306,3.62774 0.96255,10.79588 1.79888,15.92922 l 1.5206,9.33333 22.86779,0.26608 c 14.79744,0.17218 25.45582,0.94361 30.20112,2.1859 4.03334,1.0559 7.78018,1.98616 8.32631,2.06725 0.54614,0.0811 0.92589,-6.17769 0.84389,-13.90841 z m -4.23035,5.05585 c -0.67881,-3.53363 -0.24024,-5.4115 0.97908,-4.19219 1.179,1.179 1.87163,7.85885 0.81488,7.85885 -0.59928,0 -1.40656,-1.65 -1.79396,-3.66666 z m -32.93985,-6.12669 c 0,-0.98634 -1.2,-2.87933 -2.66666,-4.20665 -3.16611,-2.86528 -3.4356,-6.36866 -0.66667,-8.66666 1.1,-0.91292 2,-2.48639 2,-3.49659 0,-1.01021 0.88117,-1.83675 1.95815,-1.83675 1.08872,0 1.65379,0.79317 1.27266,1.78639 -0.37703,0.98251 0.2418,2.55597 1.37518,3.49659 2.76322,2.29327 2.61347,7.96994 -0.27266,10.33558 -1.34955,1.10617 -1.49009,1.48185 -0.33333,0.89104 1.7218,-0.8794 1.74546,-0.70768 0.17007,1.23446 -2.21013,2.72466 -2.83674,2.82684 -2.83674,0.46259 z m 2.68773,-10.83396 c -2.29246,-4.2835 -3.67511,-4.25745 -5.66355,0.10671 -1.36247,2.99029 -1.2264,3.74184 0.96793,5.34637 2.1989,1.60788 2.82715,1.59307 4.52693,-0.10671 1.68478,-1.68478 1.70948,-2.46739 0.16869,-5.34637 z m 30.75087,7.84954 c 0.064,-1.55326 0.37992,-1.8692 0.80556,-0.80556 0.38516,0.9625 0.33779,2.1125 -0.10527,2.55556 -0.44305,0.44305 -0.75818,-0.34445 -0.70029,-1.75 z m -62.77193,-14.3923 c 0,-0.27687 -1.05,-1.32687 -2.33333,-2.33333 -2.11474,-1.6585 -2.1619,-1.61134 -0.50341,0.5034 1.74183,2.221 2.83674,2.92731 2.83674,1.82993 z M 345.48112,132.5097 c -1.26972,-2.08267 -2.45495,-18.86938 -1.60538,-22.73745 1.00475,-4.57463 4.14083,-6.40667 6.96074,-4.06635 2.85536,2.36974 1.63126,8.24357 -2.0431,9.8038 -2.93208,1.24503 -3.09677,1.88521 -2.48687,9.66667 0.63058,8.04529 0.47132,9.46026 -0.82539,7.33333 z m 5.11895,-22.33333 c 0,-1.44658 -1.05,-2.83236 -2.33333,-3.07951 -1.74767,-0.33657 -2.33334,0.43639 -2.33334,3.07951 0,2.64312 0.58567,3.41607 2.33334,3.0795 1.28333,-0.24715 2.33333,-1.63292 2.33333,-3.0795 z m -13.32998,18.01529 c -1.21554,-5.53436 -2.95418,-6.12549 -4.0008,-1.36026 -0.4846,2.2064 -1.36272,4.01163 -1.95138,4.01163 -0.58865,0 -0.26731,-2.25 0.71409,-5 2.19431,-6.14875 2.34078,-10.35432 0.4816,-13.82824 -0.78089,-1.45911 -1.14162,-3.36966 -0.80161,-4.24568 0.34001,-0.87601 1.36277,0.42942 2.27281,2.90095 l 1.65461,4.49369 1.7493,-4.16036 c 2.56026,-6.08907 3.4178,-5.08073 1.14867,1.35066 -1.86621,5.28941 -1.44838,9.92913 1.61252,17.90571 0.40451,1.05413 0.11895,1.91661 -0.63457,1.91661 -0.75353,0 -1.76388,-1.79312 -2.24524,-3.98471 z M 19.266066,126.00629 c -3.69e-4,-2.10646 -1.206281,-7.00192 -2.679802,-10.8788 -2.926202,-7.69892 -2.520434,-12.11768 1.442047,-15.703682 3.49209,-3.1603 6.571761,-0.44008 6.571761,5.804712 0,5.4175 -0.853803,5.30469 -1.860296,-0.24578 -0.892866,-4.92386 -1.632362,-5.553952 -4.107483,-3.49978 -2.530104,2.0998 -2.544923,7.63123 -0.03222,12.02674 1.048028,1.83333 1.926767,5.01874 1.952753,7.07869 0.0271,2.14807 0.615876,3.39392 1.38058,2.92131 0.733334,-0.45322 1.333334,-2.40864 1.333334,-4.34536 0,-2.64369 0.380282,-3.14102 1.52582,-1.99549 1.746866,1.74687 -0.470995,8.47224 -3.669269,11.12657 -1.513214,1.25585 -1.856676,0.83252 -1.857224,-2.28913 z m -9.3326611,-7.66326 c 0,-5.40833 -0.35773,-11.62198 -0.794957,-13.80812 -0.584797,-2.92398 -0.23231,-4.19069 1.3333341,-4.791482 1.869114,-0.71725 2.12829,0.964262 2.12829,13.808122 0,8.86099 -0.525484,14.62482 -1.333333,14.62482 -0.768362,0 -1.3333341,-4.16667 -1.3333341,-9.83334 z M 337.55662,102.02181 c -0.45168,-0.45168 -2.80168,-1.29026 -5.22222,-1.86352 l -4.401,-1.042292 5.58798,-0.13648 c 3.07339,-0.0751 5.99967,0.52964 6.50284,1.343802 0.5374,0.86952 2.78272,1.17717 5.4419,0.74564 2.67164,-0.43355 4.20931,-0.22054 3.7518,0.51972 -0.85592,1.38491 -10.35664,1.73779 -11.6613,0.43313 z M 16.147954,93.336428 c -1.348666,-0.78404 -3.898666,-1.149 -5.666667,-0.81102 -3.8705561,0.7399 -4.0920521,0.21441 -0.6794421,-1.61197 2.5535541,-1.36662 9.9464101,0.24662 12.7315601,2.77823 1.826041,1.65982 -3.421401,1.36788 -6.385451,-0.35524 z"
       id="path1"
       sodipodi:nodetypes="sssssssscsssssssssssssssssssssssssssssssssssssssssssssssssssssssssscsssssssssssscssssssssssssssssssssssssssssssssssscssssssccssssssssssssssssssssscssssssssssssssssssssscsssssssssssssssssccssssssssssssssssssssssssssscssssssscssssssssssssssssssssssssssssssssssscssscccssssssssssssscsssscssssssssssssssssssssssssssssssssssssssssssssssssssssssssssssscsssssssssssssssssssscsssssssssssssssssssssssssssssscsscssssssssssssssssssssscsssssssssssssssssscsssssssscsssscssssssssssssssssssssssssssssssssssssssssssssssssssssssssssssssssssssssssssssssssssssssssssssssssssssssssssssssssssssssssssscssssssssssssssscssssssssssssssssssssssscssssssssssssscssssscsssccsssscccssssssssccccsssscssssssssssssssssssssssscssssssssssssssssssssssssssssssssssssssssssssssssssssssscsssscsscssssssssssssssssssssssssssssssssssssssssssssssscsssscccssssssssscssssssssscssssssscsscsssscssccssssssssssssssssssssssssssssssssssssssssssssssssssssssssscssssscsssssssssscsssssssssccscsssssssssssssssssssssssssssssssssssssscsssscssssscsssssssssssssssssssssssssssssssscssssssssssssssssssssssssssssssssssssssssssssssssssscssssssssssssssssssssssssssscssssssssss" />
  </g>
</svg>
